<?xml version="1.0" encoding="UTF-8" standalone="no"?>
<!-- Created with Inkscape (http://www.inkscape.org/) -->

<svg
   xmlns:dc="http://purl.org/dc/elements/1.1/"
   xmlns:cc="http://creativecommons.org/ns#"
   xmlns:rdf="http://www.w3.org/1999/02/22-rdf-syntax-ns#"
   xmlns:svg="http://www.w3.org/2000/svg"
   xmlns="http://www.w3.org/2000/svg"
   xmlns:sodipodi="http://sodipodi.sourceforge.net/DTD/sodipodi-0.dtd"
   xmlns:inkscape="http://www.inkscape.org/namespaces/inkscape"
   version="1.1"
   width="878.71985"
   height="401.71066"
   id="svg2"
   inkscape:version="0.92.3 (2405546, 2018-03-11)"
   sodipodi:docname="illust_sep_sources.svg">
  <sodipodi:namedview
     pagecolor="#ffffff"
     bordercolor="#666666"
     borderopacity="1"
     objecttolerance="10"
     gridtolerance="10"
     guidetolerance="10"
     inkscape:pageopacity="0"
     inkscape:pageshadow="2"
     inkscape:window-width="1920"
     inkscape:window-height="1074"
     id="namedview647"
     showgrid="false"
     inkscape:zoom="0.557623"
     inkscape:cx="262.6948"
     inkscape:cy="141.40693"
     inkscape:window-x="0"
     inkscape:window-y="34"
     inkscape:window-maximized="1"
     inkscape:current-layer="layer1"
     showguides="false"
     inkscape:guide-bbox="true"
     fit-margin-top="0"
     fit-margin-left="0"
     fit-margin-right="0"
     fit-margin-bottom="0" />
  <defs
     id="defs4">
    <marker
       refX="0"
       refY="0"
       orient="auto"
       id="Arrow1Mstart"
       style="overflow:visible">
      <path
         d="M 0,0 5,-5 -12.5,0 5,5 0,0 Z"
         transform="matrix(0.4,0,0,0.4,4,0)"
         id="path12002"
         style="fill-rule:evenodd;stroke:#000000;stroke-width:1pt"
         inkscape:connector-curvature="0" />
    </marker>
    <marker
       refX="0"
       refY="0"
       orient="auto"
       id="Arrow2Mend"
       style="overflow:visible">
      <path
         d="M 8.7185878,4.0337352 -2.2072895,0.01601326 8.7185884,-4.0017078 c -1.7454984,2.3720609 -1.7354408,5.6174519 -6e-7,8.035443 z"
         transform="scale(-0.6,-0.6)"
         id="path7050"
         style="fill-rule:evenodd;stroke-width:0.625;stroke-linejoin:round"
         inkscape:connector-curvature="0" />
    </marker>
    <marker
       refX="0"
       refY="0"
       orient="auto"
       id="Arrow2Mend-3"
       style="overflow:visible">
      <path
         d="M 8.7185878,4.0337352 -2.2072895,0.01601326 8.7185884,-4.0017078 c -1.7454984,2.3720609 -1.7354408,5.6174519 -6e-7,8.035443 z"
         transform="scale(-0.6,-0.6)"
         id="path7050-6"
         style="fill-rule:evenodd;stroke-width:0.625;stroke-linejoin:round"
         inkscape:connector-curvature="0" />
    </marker>
    <marker
       refX="0"
       refY="0"
       orient="auto"
       id="Arrow2Mend-5"
       style="overflow:visible">
      <path
         d="M 8.7185878,4.0337352 -2.2072895,0.01601326 8.7185884,-4.0017078 c -1.7454984,2.3720609 -1.7354408,5.6174519 -6e-7,8.035443 z"
         transform="scale(-0.6,-0.6)"
         id="path7050-3"
         style="fill-rule:evenodd;stroke-width:0.625;stroke-linejoin:round"
         inkscape:connector-curvature="0" />
    </marker>
    <marker
       refX="0"
       refY="0"
       orient="auto"
       id="Arrow2Mend-0"
       style="overflow:visible">
      <path
         d="M 8.7185878,4.0337352 -2.2072895,0.01601326 8.7185884,-4.0017078 c -1.7454984,2.3720609 -1.7354408,5.6174519 -6e-7,8.035443 z"
         transform="scale(-0.6,-0.6)"
         id="path7050-62"
         style="fill-rule:evenodd;stroke-width:0.625;stroke-linejoin:round"
         inkscape:connector-curvature="0" />
    </marker>
    <marker
       refX="0"
       refY="0"
       orient="auto"
       id="Arrow2Mend-1"
       style="overflow:visible">
      <path
         d="M 8.7185878,4.0337352 -2.2072895,0.01601326 8.7185884,-4.0017078 c -1.7454984,2.3720609 -1.7354408,5.6174519 -6e-7,8.035443 z"
         transform="scale(-0.6,-0.6)"
         id="path7050-8"
         style="fill-rule:evenodd;stroke-width:0.625;stroke-linejoin:round"
         inkscape:connector-curvature="0" />
    </marker>
    <marker
       refX="0"
       refY="0"
       orient="auto"
       id="Arrow2Mend-2"
       style="overflow:visible">
      <path
         d="M 8.7185878,4.0337352 -2.2072895,0.01601326 8.7185884,-4.0017078 c -1.7454984,2.3720609 -1.7354408,5.6174519 -6e-7,8.035443 z"
         transform="scale(-0.6,-0.6)"
         id="path7050-7"
         style="fill-rule:evenodd;stroke-width:0.625;stroke-linejoin:round"
         inkscape:connector-curvature="0" />
    </marker>
    <marker
       refX="0"
       refY="0"
       orient="auto"
       id="Arrow2Mend-32"
       style="overflow:visible">
      <path
         d="M 8.7185878,4.0337352 -2.2072895,0.01601326 8.7185884,-4.0017078 c -1.7454984,2.3720609 -1.7354408,5.6174519 -6e-7,8.035443 z"
         transform="scale(-0.6,-0.6)"
         id="path7050-1"
         style="fill-rule:evenodd;stroke-width:0.625;stroke-linejoin:round"
         inkscape:connector-curvature="0" />
    </marker>
    <marker
       refX="0"
       refY="0"
       orient="auto"
       id="Arrow2Mend-9"
       style="overflow:visible">
      <path
         d="M 8.7185878,4.0337352 -2.2072895,0.01601326 8.7185884,-4.0017078 c -1.7454984,2.3720609 -1.7354408,5.6174519 -6e-7,8.035443 z"
         transform="scale(-0.6,-0.6)"
         id="path7050-9"
         style="fill-rule:evenodd;stroke-width:0.625;stroke-linejoin:round"
         inkscape:connector-curvature="0" />
    </marker>
    <marker
       refX="0"
       refY="0"
       orient="auto"
       id="Arrow2Mend-10"
       style="overflow:visible">
      <path
         d="M 8.7185878,4.0337352 -2.2072895,0.01601326 8.7185884,-4.0017078 c -1.7454984,2.3720609 -1.7354408,5.6174519 -6e-7,8.035443 z"
         transform="scale(-0.6,-0.6)"
         id="path7050-75"
         style="fill-rule:evenodd;stroke-width:0.625;stroke-linejoin:round"
         inkscape:connector-curvature="0" />
    </marker>
    <marker
       refX="0"
       refY="0"
       orient="auto"
       id="Arrow2Mend-04"
       style="overflow:visible">
      <path
         d="M 8.7185878,4.0337352 -2.2072895,0.01601326 8.7185884,-4.0017078 c -1.7454984,2.3720609 -1.7354408,5.6174519 -6e-7,8.035443 z"
         transform="scale(-0.6,-0.6)"
         id="path7050-2"
         style="fill-rule:evenodd;stroke-width:0.625;stroke-linejoin:round"
         inkscape:connector-curvature="0" />
    </marker>
    <marker
       refX="0"
       refY="0"
       orient="auto"
       id="Arrow2Mend-36"
       style="overflow:visible">
      <path
         d="M 8.7185878,4.0337352 -2.2072895,0.01601326 8.7185884,-4.0017078 c -1.7454984,2.3720609 -1.7354408,5.6174519 -6e-7,8.035443 z"
         transform="scale(-0.6,-0.6)"
         id="path7050-753"
         style="fill-rule:evenodd;stroke-width:0.625;stroke-linejoin:round"
         inkscape:connector-curvature="0" />
    </marker>
    <marker
       refX="0"
       refY="0"
       orient="auto"
       id="Arrow2Mend-29"
       style="overflow:visible">
      <path
         d="M 8.7185878,4.0337352 -2.2072895,0.01601326 8.7185884,-4.0017078 c -1.7454984,2.3720609 -1.7354408,5.6174519 -6e-7,8.035443 z"
         transform="scale(-0.6,-0.6)"
         id="path7050-12"
         style="fill-rule:evenodd;stroke-width:0.625;stroke-linejoin:round"
         inkscape:connector-curvature="0" />
    </marker>
  </defs>
  <metadata
     id="metadata7">
    <rdf:RDF>
      <cc:Work
         rdf:about="">
        <dc:format>image/svg+xml</dc:format>
        <dc:type
           rdf:resource="http://purl.org/dc/dcmitype/StillImage" />
        <dc:title />
      </cc:Work>
    </rdf:RDF>
  </metadata>
  <g
     transform="translate(-2.6790181e-7,-649.55679)"
     id="layer1">
    <path
       d="m 224.98055,688.8768 119.58458,-0.078"
       id="path12295"
       style="fill:none;stroke:#000000;stroke-width:2;stroke-linecap:butt;stroke-linejoin:miter;stroke-miterlimit:4;stroke-dasharray:none;stroke-opacity:1;marker-end:url(#Arrow2Mend)"
       inkscape:connector-curvature="0" />
    <g
       transform="matrix(0.94730688,0,0,0.94730688,-23.031107,335.18935)"
       id="g4826">
      <g
         transform="matrix(1.0629921,0,0,-1.0629921,-186.02362,789.27165)"
         id="content"
         xml:space="preserve"
         style="font-style:normal;font-variant:normal;font-weight:normal;font-stretch:normal;letter-spacing:normal;word-spacing:normal;text-anchor:start;fill:none;stroke:#000000;stroke-width:1.05562413;stroke-linecap:butt;stroke-linejoin:miter;stroke-miterlimit:10.43299961;stroke-dasharray:none;stroke-dashoffset:0;stroke-opacity:1"><path
           d="m 458.5,411.03 -1.14,-2.89 c 0.96,-0.55 1.89,-1.05 2.94,-1.44 2.94,-1.05 7.08,-1.3 10.11,-0.16 2.34,0.91 4.09,2.71 4.98,5.03 0.71,1.8 0.66,3.75 -0.25,5.14 -1.34,2.24 -3.62,2.85 -6.62,3.4 -1.48,0.29 -3.19,0.54 -4.13,1.89 -1.04,1.43 -0.25,3.32 0.94,4.43 1.3,1.14 3.35,1.53 5.63,1.39 1.29,-0.04 2.59,-0.25 3.84,-0.7 0.84,-0.34 1.59,-0.8 2.39,-1.19 l 1.05,2.74 c -2,0.89 -3.35,1.45 -5.99,1.59 -3.28,0.25 -6.71,-0.39 -8.86,-2.34 -2.34,-2.14 -3.64,-6.22 -1.2,-8.67 1.64,-1.85 4.19,-2.1 6.49,-2.58 1.64,-0.36 3.48,-0.86 4.07,-2.64 0.21,-0.71 0.11,-1.46 -0.14,-2.1 -0.79,-2.39 -3.18,-3.59 -6.32,-3.59 -1.96,0 -3.85,0.41 -5.58,1.25 -0.8,0.39 -1.5,0.94 -2.21,1.44 z"
           id="path4829"
           style="fill:#000000;stroke-width:0"
           inkscape:connector-curvature="0" /><path
           d="m 479.43,419.87 0,-1.94 c 1.74,0 3.44,0.27 5.05,0.97 l 0,-18.19 -4.84,0 0,-1.95 12.18,0 0,1.95 -4.84,0 0,21.47 c -0.2,0 -0.45,0.03 -0.62,-0.04 -0.29,-0.1 -0.49,-0.38 -0.74,-0.55 -1.42,-1.19 -3.94,-1.72 -6.19,-1.72 z"
           id="path4831"
           style="fill:#000000;stroke-width:0"
           inkscape:connector-curvature="0" /></g>    </g>
    <g
       transform="matrix(0.94730688,0,0,0.94730688,-26.531114,440.5463)"
       id="g5399">
      <g
         transform="matrix(1.0629921,0,0,-1.0629921,-186.02362,789.27165)"
         id="g5401"
         xml:space="preserve"
         style="font-style:normal;font-variant:normal;font-weight:normal;font-stretch:normal;letter-spacing:normal;word-spacing:normal;text-anchor:start;fill:none;stroke:#000000;stroke-width:1.05562413;stroke-linecap:butt;stroke-linejoin:miter;stroke-miterlimit:10.43299961;stroke-dasharray:none;stroke-dashoffset:0;stroke-opacity:1"><path
           d="m 458.5,411.03 -1.14,-2.89 c 0.96,-0.55 1.89,-1.05 2.94,-1.44 2.94,-1.05 7.08,-1.3 10.11,-0.16 2.34,0.91 4.09,2.71 4.98,5.03 0.71,1.8 0.66,3.75 -0.25,5.14 -1.34,2.24 -3.62,2.85 -6.62,3.4 -1.48,0.29 -3.19,0.54 -4.13,1.89 -1.04,1.43 -0.25,3.32 0.94,4.43 1.3,1.14 3.35,1.53 5.63,1.39 1.29,-0.04 2.59,-0.25 3.84,-0.7 0.84,-0.34 1.59,-0.8 2.39,-1.19 l 1.05,2.74 c -2,0.89 -3.35,1.45 -5.99,1.59 -3.28,0.25 -6.71,-0.39 -8.86,-2.34 -2.34,-2.14 -3.64,-6.22 -1.2,-8.67 1.64,-1.85 4.19,-2.1 6.49,-2.58 1.64,-0.36 3.48,-0.86 4.07,-2.64 0.21,-0.71 0.11,-1.46 -0.14,-2.1 -0.79,-2.39 -3.18,-3.59 -6.32,-3.59 -1.96,0 -3.85,0.41 -5.58,1.25 -0.8,0.39 -1.5,0.94 -2.21,1.44 z"
           id="path5403"
           style="fill:#000000;stroke-width:0"
           inkscape:connector-curvature="0" /><path
           d="m 478.65,414.76 0.11,0.38 0.12,0.38 0.13,0.38 0.14,0.38 0.16,0.37 0.17,0.37 0.09,0.18 0.09,0.18 0.1,0.17 0.1,0.17 0.11,0.17 0.11,0.16 0.12,0.16 0.12,0.15 0.13,0.15 0.13,0.15 0.14,0.14 0.15,0.13 0.15,0.13 0.15,0.13 0.17,0.11 0.16,0.11 0.18,0.1 0.18,0.1 0.19,0.09 0.2,0.08 c 0.84,0.31 1.7,0.37 2.57,0.31 1.82,-0.14 3.66,-0.88 4.71,-2.41 0.73,-1.04 0.98,-2.29 0.81,-3.56 -0.42,-3.3 -3.39,-5.42 -5.83,-7.31 -1.92,-1.5 -5.98,-5.08 -5.98,-5.08 l -0.67,-0.56 c -0.38,-0.39 -0.38,-0.31 -0.38,-1.05 l 0,-1.36 15.5,0 0,2.16 -13.23,0 c 1.36,1.19 5.32,4.53 6.51,5.4 2.16,1.64 4.63,3.21 5.99,5.64 1.53,2.8 0.59,6.43 -1.82,8.36 -2.67,2.24 -7.56,2.58 -10.48,0.43 -1.08,-0.8 -1.92,-2.1 -2.47,-3.35 -0.08,-0.25 -0.31,-0.59 -0.28,-0.87 0.06,-0.21 0.28,-0.38 0.42,-0.55 0.31,-0.42 0.66,-0.87 1.03,-1.22 z"
           id="path5405"
           style="fill:#000000;stroke-width:0"
           inkscape:connector-curvature="0" /></g>    </g>
    <g
       transform="matrix(0.94730688,0,0,0.94730688,-24.617269,551.72184)"
       id="g5987">
      <g
         transform="matrix(1.0629921,0,0,-1.0629921,-186.02362,789.27165)"
         id="g5989"
         xml:space="preserve"
         style="font-style:normal;font-variant:normal;font-weight:normal;font-stretch:normal;letter-spacing:normal;word-spacing:normal;text-anchor:start;fill:none;stroke:#000000;stroke-width:1.05562413;stroke-linecap:butt;stroke-linejoin:miter;stroke-miterlimit:10.43299961;stroke-dasharray:none;stroke-dashoffset:0;stroke-opacity:1"><path
           d="m 458.5,411.03 -1.14,-2.89 c 0.96,-0.55 1.89,-1.05 2.94,-1.44 2.94,-1.05 7.08,-1.3 10.11,-0.16 2.34,0.91 4.09,2.71 4.98,5.03 0.71,1.8 0.66,3.75 -0.25,5.14 -1.34,2.24 -3.62,2.85 -6.62,3.4 -1.48,0.29 -3.19,0.54 -4.13,1.89 -1.04,1.43 -0.25,3.32 0.94,4.43 1.3,1.14 3.35,1.53 5.63,1.39 1.29,-0.04 2.59,-0.25 3.84,-0.7 0.84,-0.34 1.59,-0.8 2.39,-1.19 l 1.05,2.74 c -2,0.89 -3.35,1.45 -5.99,1.59 -3.28,0.25 -6.71,-0.39 -8.86,-2.34 -2.34,-2.14 -3.64,-6.22 -1.2,-8.67 1.64,-1.85 4.19,-2.1 6.49,-2.58 1.64,-0.36 3.48,-0.86 4.07,-2.64 0.21,-0.71 0.11,-1.46 -0.14,-2.1 -0.79,-2.39 -3.18,-3.59 -6.32,-3.59 -1.96,0 -3.85,0.41 -5.58,1.25 -0.8,0.39 -1.5,0.94 -2.21,1.44 z"
           id="path5991"
           style="fill:#000000;stroke-width:0"
           inkscape:connector-curvature="0" /><path
           d="m 478.98,416.46 0.03,0 c 1.42,2.44 4.11,4 6.97,3.72 2.02,-0.12 3.94,-1.25 3.66,-3.72 -0.28,-1.92 -1.85,-3.42 -3.66,-3.93 -1.08,-0.32 -2.83,-0.39 -3.97,-0.46 l 0,-1.95 2.3,0 c 0.48,0 0.97,0.03 1.45,0 1.3,-0.11 2.52,-0.56 3.45,-1.42 1.58,-1.5 1.85,-4.13 0.85,-6 -0.42,-0.74 -1.02,-1.33 -1.75,-1.78 -1.78,-1.05 -4.11,-0.86 -6.03,-0.24 -1.32,0.41 -2.58,1.14 -3.63,2.08 -0.4,0.36 -0.72,0.78 -1.14,1.16 -0.08,-0.42 -0.17,-0.88 -0.25,-1.28 -0.09,-0.53 -0.14,-0.68 0.25,-1.05 l 0.63,-0.64 c 1.01,-0.86 2.2,-1.59 3.45,-2.08 2.72,-1.01 5.92,-0.95 8.39,0.63 2.48,1.59 4.22,4.76 2.86,7.73 -0.94,1.98 -2.69,3.2 -4.95,3.86 1.32,0.67 2.26,1.22 3.14,2.41 0.73,1.01 1.47,2.62 1.11,4.25 -0.32,1.75 -1.74,3.03 -3.3,3.73 -2.27,1.02 -4.98,0.88 -7.25,-0.11 -1.16,-0.51 -2.2,-1.25 -3.06,-2.19 -0.14,-0.14 -0.74,-0.79 -0.74,-1.04 0.03,-0.18 0.91,-1.3 1.19,-1.68 z"
           id="path5993"
           style="fill:#000000;stroke-width:0"
           inkscape:connector-curvature="0" /></g>    </g>
    <path
       d="m 224.98028,794.50167 119.58458,-0.078"
       id="path12295-6"
       style="fill:none;stroke:#000000;stroke-width:2;stroke-linecap:butt;stroke-linejoin:miter;stroke-miterlimit:4;stroke-dasharray:none;stroke-opacity:1;marker-end:url(#Arrow2Mend)"
       inkscape:connector-curvature="0" />
    <path
       d="m 224.98028,905.49659 119.58457,-0.078"
       id="path12295-7"
       style="fill:none;stroke:#000000;stroke-width:2;stroke-linecap:butt;stroke-linejoin:miter;stroke-miterlimit:4;stroke-dasharray:none;stroke-opacity:1;marker-end:url(#Arrow2Mend)"
       inkscape:connector-curvature="0" />
    <rect
       width="209.02373"
       height="280.46347"
       rx="0.023337288"
       ry="0.47440204"
       x="349.06354"
       y="658.22394"
       id="rect5015-3-6-99"
       style="fill:none;stroke:#000000;stroke-width:2.06989837" />
    <path
       d="m 561.97127,742.04129 98.56184,-0.078"
       id="path12295-6-5"
       style="fill:none;stroke:#000000;stroke-width:2;stroke-linecap:butt;stroke-linejoin:miter;stroke-miterlimit:4;stroke-dasharray:none;stroke-opacity:1;marker-end:url(#Arrow2Mend)"
       inkscape:connector-curvature="0" />
    <text
       x="421.63086"
       y="598.48029"
       id="text4452-1-8"
       xml:space="preserve"
       style="font-style:normal;font-weight:normal;font-size:40px;line-height:0%;font-family:sans-serif;letter-spacing:0px;word-spacing:0px;fill:#000000;fill-opacity:1;stroke:none"><tspan
         x="426.40625"
         y="598.48029"
         id="tspan5494"
         style="font-style:normal;font-variant:normal;font-weight:normal;font-stretch:normal;font-size:30px;line-height:125%;font-family:times;-inkscape-font-specification:times;text-align:center;writing-mode:lr-tb;text-anchor:middle" /></text>
    <text
       x="421.63086"
       y="598.48029"
       xml:space="preserve"
       style="font-style:normal;font-weight:normal;font-size:40px;line-height:0%;font-family:sans-serif;letter-spacing:0px;word-spacing:0px;fill:#000000;fill-opacity:1;stroke:none"
       id="text4865"><tspan
         x="426.40625"
         y="598.48029"
         style="font-style:normal;font-variant:normal;font-weight:normal;font-stretch:normal;font-size:30px;line-height:125%;font-family:times;-inkscape-font-specification:times;text-align:center;writing-mode:lr-tb;text-anchor:middle"
         id="tspan4867" /></text>
    <path
       d="m 561.00967,856.68767 99.42419,-0.078"
       id="path12295-6-5-7"
       style="fill:none;stroke:#000000;stroke-width:2;stroke-linecap:butt;stroke-linejoin:miter;stroke-miterlimit:4;stroke-dasharray:none;stroke-opacity:1;marker-end:url(#Arrow2Mend)"
       inkscape:connector-curvature="0" />
    <g
       transform="matrix(1.6801172,0,0,1.9656498,326.73781,-73.90653)"
       id="g4495">
      <g
         transform="matrix(0.54857143,0,0,-0.54857143,-96,630.75)"
         id="g4497"
         xml:space="preserve"
         style="font-style:normal;font-variant:normal;font-weight:normal;font-stretch:normal;letter-spacing:normal;word-spacing:normal;text-anchor:start;fill:none;stroke:#000000;stroke-width:0.55027169;stroke-linecap:butt;stroke-linejoin:miter;stroke-miterlimit:10.43299961;stroke-dasharray:none;stroke-dashoffset:0;stroke-opacity:1"><path
           d="m 460.8,429.71 0.88,-1.41 0.89,-1.41 1.78,-2.81 0.89,-1.42 0.87,-1.42 0.87,-1.43 0.85,-1.45 -0.2,-0.3 -9.42,-9.22 -2.64,-2.64 c 1.15,0 2.34,0 3.43,0.05 l 0.96,0.9 9.01,9.36 c 1.94,-3.39 3.74,-6.92 5.78,-10.22 1.05,-0.14 2.35,-0.09 3.54,-0.09 -0.65,1.14 -6.54,10.51 -6.97,11.2 -0.16,0.25 -0.5,0.61 -0.46,0.91 0.1,0.34 0.55,0.64 0.8,0.89 l 2.19,2.14 6.08,5.94 c 0.79,0.79 1.75,1.54 2.45,2.43 -1.16,0 -2.34,0 -3.44,-0.04 -2.45,-2.19 -4.64,-4.64 -6.98,-6.92 l -2.19,-2.16 -1.34,2.3 c -1.39,2.25 -2.6,4.68 -4.14,6.78 -1.1,0.04 -2.29,0.04 -3.49,0.04 z"
           id="path4499"
           style="fill:#000000;stroke-width:0"
           inkscape:connector-curvature="0" /><path
           d="m 482.2,419.87 0,-1.94 c 1.73,0 3.43,0.27 5.04,0.97 l 0,-18.19 -4.84,0 0,-1.95 12.19,0 0,1.95 -4.85,0 0,21.47 c -0.2,0 -0.45,0.03 -0.62,-0.04 -0.28,-0.1 -0.49,-0.38 -0.74,-0.55 -1.42,-1.19 -3.93,-1.72 -6.18,-1.72 z"
           id="path4501"
           style="fill:#000000;stroke-width:0"
           inkscape:connector-curvature="0" /></g>    </g>
    <g
       transform="matrix(1.6801172,0,0,1.9656498,321.86881,39.006981)"
       id="g5483">
      <g
         transform="matrix(0.54857143,0,0,-0.54857143,-96,630.75)"
         id="g5485"
         xml:space="preserve"
         style="font-style:normal;font-variant:normal;font-weight:normal;font-stretch:normal;letter-spacing:normal;word-spacing:normal;text-anchor:start;fill:none;stroke:#000000;stroke-width:0.55027169;stroke-linecap:butt;stroke-linejoin:miter;stroke-miterlimit:10.43299961;stroke-dasharray:none;stroke-dashoffset:0;stroke-opacity:1"><path
           d="m 460.8,429.71 0.88,-1.41 0.89,-1.41 1.78,-2.81 0.89,-1.42 0.87,-1.42 0.87,-1.43 0.85,-1.45 -0.2,-0.3 -9.42,-9.22 -2.64,-2.64 c 1.15,0 2.34,0 3.43,0.05 l 0.96,0.9 9.01,9.36 c 1.94,-3.39 3.74,-6.92 5.78,-10.22 1.05,-0.14 2.35,-0.09 3.54,-0.09 -0.65,1.14 -6.54,10.51 -6.97,11.2 -0.16,0.25 -0.5,0.61 -0.46,0.91 0.1,0.34 0.55,0.64 0.8,0.89 l 2.19,2.14 6.08,5.94 c 0.79,0.79 1.75,1.54 2.45,2.43 -1.16,0 -2.34,0 -3.44,-0.04 -2.45,-2.19 -4.64,-4.64 -6.98,-6.92 l -2.19,-2.16 -1.34,2.3 c -1.39,2.25 -2.6,4.68 -4.14,6.78 -1.1,0.04 -2.29,0.04 -3.49,0.04 z"
           id="path5487"
           style="fill:#000000;stroke-width:0"
           inkscape:connector-curvature="0" /><path
           d="m 481.41,414.76 0.11,0.38 0.12,0.38 0.13,0.38 0.14,0.38 0.16,0.37 0.17,0.37 0.09,0.18 0.09,0.18 0.1,0.17 0.11,0.17 0.1,0.17 0.12,0.16 0.11,0.16 0.13,0.15 0.12,0.15 0.14,0.15 0.13,0.14 0.15,0.13 0.15,0.13 0.16,0.13 0.16,0.11 0.17,0.11 0.17,0.1 0.18,0.1 0.19,0.09 0.2,0.08 c 0.84,0.31 1.7,0.37 2.58,0.31 1.81,-0.14 3.65,-0.88 4.7,-2.41 0.73,-1.04 0.98,-2.29 0.81,-3.56 -0.42,-3.3 -3.39,-5.42 -5.83,-7.31 -1.92,-1.5 -5.98,-5.08 -5.98,-5.08 l -0.67,-0.56 c -0.38,-0.39 -0.38,-0.31 -0.38,-1.05 l 0,-1.36 15.5,0 0,2.16 -13.23,0 c 1.36,1.19 5.33,4.53 6.51,5.4 2.16,1.64 4.63,3.21 5.99,5.64 1.53,2.8 0.59,6.43 -1.81,8.36 -2.68,2.24 -7.57,2.58 -10.49,0.43 -1.08,-0.8 -1.92,-2.1 -2.47,-3.35 -0.08,-0.25 -0.31,-0.59 -0.28,-0.87 0.06,-0.21 0.28,-0.38 0.42,-0.55 0.32,-0.42 0.66,-0.87 1.03,-1.22 z"
           id="path5489"
           style="fill:#000000;stroke-width:0"
           inkscape:connector-curvature="0" /></g>    </g>
    <path
       style="fill:none;fill-rule:evenodd;stroke:#000000;stroke-width:2;stroke-linecap:butt;stroke-linejoin:miter;stroke-miterlimit:4;stroke-dasharray:none;stroke-opacity:1;marker-end:url(#Arrow2Mend)"
       d="m 709.87491,946.97404 c -157.66948,56.27366 -321.89208,102.88136 -587.46324,0"
       id="path3962"
       inkscape:connector-curvature="0"
       sodipodi:nodetypes="cc" />
    <text
       xml:space="preserve"
       style="font-style:normal;font-weight:normal;line-height:0%;font-family:sans-serif;letter-spacing:0px;word-spacing:0px;fill:#000000;fill-opacity:1;stroke:none"
       x="419.33597"
       y="1044.7672"
       id="text3703-3"><tspan
         sodipodi:role="line"
         x="419.33597"
         y="1044.7672"
         id="tspan3707-7"
         style="font-style:normal;font-variant:normal;font-weight:normal;font-stretch:normal;font-size:31.25px;line-height:125%;font-family:cmbright;-inkscape-font-specification:cmbright;text-align:center;writing-mode:lr-tb;text-anchor:middle">séparation de sources</tspan></text>
    <text
       x="413.54706"
       y="501.51761"
       id="text4452-1-5"
       xml:space="preserve"
       style="font-style:normal;font-weight:normal;font-size:40px;line-height:0%;font-family:sans-serif;letter-spacing:0px;word-spacing:0px;fill:#000000;fill-opacity:1;stroke:none"><tspan
         x="413.54706"
         y="501.51761"
         id="tspan5466-3"
         style="font-style:normal;font-variant:normal;font-weight:normal;font-stretch:normal;font-size:30px;line-height:125%;font-family:times;-inkscape-font-specification:times;text-align:center;writing-mode:lr-tb;text-anchor:middle" /></text>
    <g
       id="g4996"
       transform="translate(-20.026411,9.185393)"
       style="stroke:#000000;stroke-width:1.5;stroke-miterlimit:4;stroke-dasharray:none;stroke-opacity:1">
      <g
         transform="matrix(0.25264716,0,0,-0.10852682,20.136904,904.31061)"
         id="g14"
         style="stroke:#000000;stroke-width:9.05869198;stroke-miterlimit:4;stroke-dasharray:none;stroke-opacity:1">
        <path
           inkscape:connector-curvature="0"
           id="path16"
           style="fill:none;stroke:#000000;stroke-width:9.05869198;stroke-linecap:butt;stroke-linejoin:round;stroke-miterlimit:4;stroke-dasharray:none;stroke-opacity:1"
           d="m 4.01824,2036.97 3.65801,20.02 3.66085,19.88 3.6608,19.75 3.6803,19.57 3.6608,19.16 3.6609,18.86 3.6524,18.32 3.6608,17.8 3.658,17.22 3.6608,16.57 3.6804,15.79 3.6608,15.02 3.6608,14.1 3.6524,13.25 3.6609,12.22 3.658,11.24 3.6608,10.21 3.6524,9.1 3.6888,7.92 3.6608,6.77 3.6524,5.58 3.6608,4.35 3.6608,3.13 3.6525,1.88 3.6608,0.65 3.6859,-0.65 3.6608,-1.88 3.652,-3.13 3.661,-4.35 3.661,-5.58 3.653,-6.77 3.66,-7.92 3.689,-9.1 3.652,-10.21 3.661,-11.24 3.658,-12.22 3.661,-13.25 3.653,-14.1 3.66,-15.02 3.689,-15.79 3.653,-16.57 3.66,-17.22 3.658,-17.8 3.661,-18.32 3.653,-18.86 3.66,-19.16 3.689,-19.57 3.653,-19.75 3.66,-19.88" />
      </g>
      <g
         transform="matrix(0.25264716,0,0,-0.10852682,20.136904,904.31061)"
         id="g18"
         style="stroke:#000000;stroke-width:9.05869198;stroke-miterlimit:4;stroke-dasharray:none;stroke-opacity:1">
        <path
           inkscape:connector-curvature="0"
           id="path20"
           style="fill:none;stroke:#000000;stroke-width:9.05869198;stroke-linecap:butt;stroke-linejoin:round;stroke-miterlimit:4;stroke-dasharray:none;stroke-opacity:1"
           d="m 179.799,2076.87 3.66,-19.88 3.661,-20.02 7.311,-39.9 3.66,-19.75 3.661,-19.5 3.681,-19.23 3.66,-18.78 3.661,-18.39 3.653,-17.82 3.661,-17.22 3.658,-16.5 3.66,-15.79 3.681,-15.02 3.661,-14.16 3.66,-13.19 3.653,-12.28 3.661,-11.25 3.658,-10.19 3.66,-9.04 3.684,-7.93 3.658,-6.82 3.66,-5.59 3.653,-4.35 3.661,-3.13 3.66,-1.88 3.653,-0.65 3.661,0.65 3.686,1.88 3.66,3.13 3.653,4.35 3.661,5.59 3.661,6.82 3.652,7.93 3.661,9.04 3.688,10.19 3.653,11.25 3.661,12.28 3.658,13.19 3.661,14.16 3.652,15.02 3.661,15.79 3.689,16.5 3.652,17.22 3.661,17.82 3.658,18.39 3.661,18.78 3.652,19.23 3.661,19.5 3.689,19.75 3.652,19.95" />
      </g>
      <g
         transform="matrix(0.25264716,0,0,-0.10852682,20.136904,904.31061)"
         id="g22"
         style="stroke:#000000;stroke-width:9.05869198;stroke-miterlimit:4;stroke-dasharray:none;stroke-opacity:1">
        <path
           inkscape:connector-curvature="0"
           id="path24"
           style="fill:none;stroke:#000000;stroke-width:9.05869198;stroke-linecap:butt;stroke-linejoin:round;stroke-miterlimit:4;stroke-dasharray:none;stroke-opacity:1"
           d="m 362.901,1997.07 7.313,39.9 3.661,20.02 3.652,19.88 3.658,19.75 3.661,19.57 3.661,19.16 3.68,18.86 3.661,18.32 3.661,17.8 3.652,17.22 3.661,16.57 3.658,15.79 3.661,15.02 3.68,14.1 3.661,13.25 3.661,12.22 3.652,11.24 3.661,10.21 3.658,9.1 3.661,7.92 3.683,6.77 3.658,5.58 3.661,4.35 3.652,3.13 3.661,1.88 3.661,0.65 3.652,-0.65 3.689,-1.88 3.658,-3.13 3.661,-4.35 3.652,-5.58 3.661,-6.77 3.661,-7.92 3.652,-9.1 3.661,-10.21 3.689,-11.24 3.652,-12.22 3.661,-13.25 3.658,-14.1 3.661,-15.02 3.652,-15.79 3.661,-16.57 3.689,-17.22 3.652,-17.8 3.661,-18.32 3.658,-18.86 3.661,-19.16 3.652,-19.57 3.661,-19.75 3.689,-19.88" />
      </g>
      <g
         transform="matrix(0.25264716,0,0,-0.10852682,20.136904,904.31061)"
         id="g26"
         style="stroke:#000000;stroke-width:9.05869198;stroke-miterlimit:4;stroke-dasharray:none;stroke-opacity:1">
        <path
           inkscape:connector-curvature="0"
           id="path28"
           style="fill:none;stroke:#000000;stroke-width:9.05869198;stroke-linecap:butt;stroke-linejoin:round;stroke-miterlimit:4;stroke-dasharray:none;stroke-opacity:1"
           d="m 545.966,2076.87 3.689,-19.88 3.652,-20.02 7.322,-39.9 3.658,-19.75 3.653,-19.5 3.66,-19.23 3.689,-18.78 3.653,-18.39 3.66,-17.82 3.661,-17.22 3.653,-16.5 3.66,-15.79 3.658,-15.02 3.684,-14.16 3.658,-13.19 3.66,-12.28 3.661,-11.25 3.653,-10.19 3.66,-9.04 3.658,-7.93 3.661,-6.82 3.683,-5.59 3.658,-4.35 3.661,-3.13 3.653,-1.88 3.661,-0.65 3.66,0.65 3.653,1.88 3.688,3.13 3.659,4.35 3.66,5.59 3.653,6.82 3.661,7.93 3.66,9.04 3.653,10.19 3.689,11.25 3.66,12.28 3.653,13.19 3.661,14.16 3.658,15.02 3.66,15.79 3.653,16.5 3.689,17.22 3.66,17.82 3.653,18.39 3.661,18.78 3.658,19.23 3.66,19.5 3.653,19.75 3.689,19.95" />
      </g>
      <g
         transform="matrix(0.25264716,0,0,-0.10852682,20.136904,904.31061)"
         id="g30"
         style="stroke:#000000;stroke-width:9.05869198;stroke-miterlimit:4;stroke-dasharray:none;stroke-opacity:1">
        <path
           inkscape:connector-curvature="0"
           id="path32"
           style="fill:none;stroke:#000000;stroke-width:9.05869198;stroke-linecap:butt;stroke-linejoin:round;stroke-miterlimit:4;stroke-dasharray:none;stroke-opacity:1"
           d="m 729.06,1997.07 3.689,19.95 3.66,19.95 3.653,20.02 3.661,19.88 3.661,19.75 3.652,19.57 3.658,19.16 3.661,18.86 3.689,18.32 3.652,17.8 3.661,17.22 3.661,16.57 3.652,15.79 3.661,15.02 3.658,14.1 3.689,13.25 3.652,12.22 3.661,11.24 3.661,10.21 3.652,9.1 3.661,7.92 3.661,6.77" />
      </g>
    </g>
    <g
       id="g5020"
       style="stroke:#000000;stroke-width:1.5;stroke-miterlimit:4;stroke-dasharray:none;stroke-opacity:1"
       transform="translate(-20.026411,15.185393)">
      <g
         transform="matrix(0.25264716,0,0,-0.10852682,20.136904,904.31061)"
         id="g34"
         style="stroke:#000000;stroke-width:9.05869198;stroke-miterlimit:4;stroke-dasharray:none;stroke-opacity:1">
        <path
           inkscape:connector-curvature="0"
           id="path36"
           style="fill:none;stroke:#000000;stroke-width:9.05869198;stroke-linecap:butt;stroke-linejoin:round;stroke-miterlimit:4;stroke-dasharray:none;stroke-opacity:1"
           d="m 30.437,1153.77 3.6831,79.21 3.6608,74.15 3.658,64.6 3.6608,50.88 3.6525,33.98 3.6608,14.95 3.6608,-5.07 3.6524,-24.62 3.6888,-42.77 3.658,-58.16 3.6608,-69.93 3.6524,-77.33 3.6608,-79.8 3.6609,-77.26 3.6524,-69.922 3.6887,-58.168 3.6608,-42.759 3.6525,-24.695 3.6607,-5.003 3.658,14.946 3.661,33.994 3.652,50.882 3.689,64.535 3.661,74.2 3.652,79.16 3.661,79.21 3.658,74.15 3.661,64.6 3.652,50.88 3.661,33.98 3.689,14.95 3.652,-5.07 3.661,-24.62 3.661,-42.77 3.658,-58.16 3.652,-69.93 3.661,-77.33 3.689,-79.8 3.652,-77.26 3.661,-69.922 3.661,-58.168 3.652,-42.759 3.661,-24.695 3.658,-5.003 3.683,14.946 3.658,33.994 3.661,50.882 3.661,64.535 3.653,74.2" />
      </g>
      <g
         transform="matrix(0.25264716,0,0,-0.10852682,20.136904,904.31061)"
         id="g38"
         style="stroke:#000000;stroke-width:9.05869198;stroke-miterlimit:4;stroke-dasharray:none;stroke-opacity:1">
        <path
           inkscape:connector-curvature="0"
           id="path40"
           style="fill:none;stroke:#000000;stroke-width:9.05869198;stroke-linecap:butt;stroke-linejoin:round;stroke-miterlimit:4;stroke-dasharray:none;stroke-opacity:1"
           d="m 206.22,1000.41 3.653,74.2 3.66,79.16 3.658,79.21 3.661,74.15 3.683,64.6 3.658,50.88 3.661,33.98 3.653,14.95 3.66,-5.07 3.661,-24.62 3.653,-42.77 3.688,-58.16 3.658,-69.93 3.661,-77.33 3.653,-79.8 3.66,-77.26 3.661,-69.922 3.653,-58.168 3.688,-42.759 3.661,-24.695 3.653,-5.003 3.661,14.946 3.658,33.994 3.66,50.882 3.653,64.535 3.689,74.2 3.66,79.16 3.653,79.21 3.661,74.15 3.658,64.6 3.66,50.88 3.653,33.98 3.689,14.95 3.66,-5.07 3.653,-24.62 3.661,-42.77 3.66,-58.16 3.653,-69.93 3.658,-77.33 3.661,-79.8 3.688,-77.26 3.653,-69.922 3.661,-58.168 3.66,-42.759 3.653,-24.695 3.661,-5.003 3.658,14.946 3.688,33.994 3.653,50.882 3.661,64.535 3.661,74.2" />
      </g>
      <g
         transform="matrix(0.25264716,0,0,-0.10852682,20.136904,904.31061)"
         id="g42"
         style="stroke:#000000;stroke-width:9.05869198;stroke-miterlimit:4;stroke-dasharray:none;stroke-opacity:1">
        <path
           inkscape:connector-curvature="0"
           id="path44"
           style="fill:none;stroke:#000000;stroke-width:9.05869198;stroke-linecap:butt;stroke-linejoin:round;stroke-miterlimit:4;stroke-dasharray:none;stroke-opacity:1"
           d="m 389.314,1000.41 3.661,74.2 3.652,79.16 3.661,79.21 3.658,74.15 3.683,64.6 3.661,50.88 3.658,33.98 3.661,14.95 3.652,-5.07 3.661,-24.62 3.661,-42.77 3.68,-58.16 3.661,-69.93 3.658,-77.33 3.661,-79.8 3.652,-77.26 3.661,-69.922 3.661,-58.168 3.68,-42.759 3.661,-24.695 3.661,-5.003 3.652,14.946 3.661,33.994 3.658,50.882 3.661,64.535 3.652,74.2 3.689,79.16 3.661,79.21 3.652,74.15 3.661,64.6 3.658,50.88 3.661,33.98 3.652,14.95 3.689,-5.07 3.661,-24.62 3.652,-42.77 3.661,-58.16 3.661,-69.93 3.658,-77.33 3.652,-79.8 3.689,-77.26 3.661,-69.922 3.652,-58.168 3.661,-42.759 3.661,-24.695 3.652,-5.003 3.661,14.946 3.689,33.994 3.652,50.882 3.658,64.535 3.661,74.2" />
      </g>
      <g
         transform="matrix(0.25264716,0,0,-0.10852682,20.136904,904.31061)"
         id="g46"
         style="stroke:#000000;stroke-width:9.05869198;stroke-miterlimit:4;stroke-dasharray:none;stroke-opacity:1">
        <path
           inkscape:connector-curvature="0"
           id="path48"
           style="fill:none;stroke:#000000;stroke-width:9.05869198;stroke-linecap:butt;stroke-linejoin:round;stroke-miterlimit:4;stroke-dasharray:none;stroke-opacity:1"
           d="m 572.407,1000.41 3.661,74.2 3.661,79.16 3.652,79.21 3.661,74.15 3.658,64.6 3.683,50.88 3.661,33.98 3.658,14.95 3.661,-5.07 3.652,-24.62 3.661,-42.77 3.661,-58.16 3.68,-69.93 3.661,-77.33 3.658,-79.8 3.661,-77.26 3.653,-69.922 3.66,-58.168 3.661,-42.759 3.681,-24.695 3.66,-5.003 3.661,14.946 3.653,33.994 3.66,50.882 3.658,64.535 3.661,74.2 3.653,79.16 3.688,79.21 3.661,74.15 3.653,64.6 3.66,50.88 3.658,33.98 3.661,14.95 3.653,-5.07 3.688,-24.62 3.661,-42.77 3.653,-58.16 3.66,-69.93 3.661,-77.33 3.653,-79.8 3.658,-77.26 3.688,-69.922 3.661,-58.168 3.653,-42.759 3.661,-24.695 3.66,-5.003 3.653,14.946 3.661,33.994 3.658,50.882 3.688,64.535 3.653,74.2" />
      </g>
      <g
         transform="matrix(0.25264716,0,0,-0.10852682,20.136904,904.31061)"
         id="g50"
         style="stroke:#000000;stroke-width:9.05869198;stroke-miterlimit:4;stroke-dasharray:none;stroke-opacity:1">
        <path
           inkscape:connector-curvature="0"
           id="path52"
           style="fill:none;stroke:#000000;stroke-width:9.05869198;stroke-linecap:butt;stroke-linejoin:round;stroke-miterlimit:4;stroke-dasharray:none;stroke-opacity:1"
           d="m 755.509,1000.41 3.653,74.2 3.661,79.16 3.66,79.21 3.653,74.15 3.661,64.6 3.66,50.88 3.681,33.98 3.661,14.95 3.658,-5.07 3.66,-24.62 3.653,-42.77 3.661,-58.16 3.661,-69.93 3.68,-77.33 3.661,-79.8 3.661,-77.26 3.658,-69.922 3.652,-58.168 3.661,-42.759 3.661,-24.695 3.68,-5.003 3.661,14.946" />
      </g>
    </g>
    <g
       id="g5008"
       transform="translate(-20.026411,29.185393)"
       style="stroke:#000000;stroke-width:1.5;stroke-miterlimit:4;stroke-dasharray:none;stroke-opacity:1">
      <g
         transform="matrix(0.25264716,0,0,-0.10852682,20.136904,904.31061)"
         id="g54"
         style="stroke:#000000;stroke-width:9.05869198;stroke-miterlimit:4;stroke-dasharray:none;stroke-opacity:1">
        <path
           inkscape:connector-curvature="0"
           id="path56"
           style="fill:none;stroke:#000000;stroke-width:9.05869198;stroke-linecap:butt;stroke-linejoin:round;stroke-miterlimit:4;stroke-dasharray:none;stroke-opacity:1"
           d="m 19.6863,286.023 3.6608,142.121 3.6524,97.932 3.6608,23.135 3.6609,-58.811 3.6524,-122.431 3.658,-147.97 3.6887,-127.37 3.6609,-67.194 3.6524,13.9132 3.6608,90.7118 3.6608,139.269 3.6524,144.454 3.6609,104.69 3.6887,32.297 3.658,-50.168 3.6524,-116.907 3.6609,-147.379 3.6608,-131.918 3.6524,-75.3239 3.6608,4.6139 3.658,83.245 3.6835,135.825 3.66,146.215 3.659,111.058 3.66,41.259 3.653,-41.259 3.661,-111.058 3.66,-146.215 3.681,-135.825 3.661,-83.245 3.658,-4.6139 3.66,75.3239 3.653,131.918 3.661,147.379 3.66,116.907 3.681,50.168 3.661,-32.297 3.66,-104.69 3.653,-144.454 3.661,-139.269 3.658,-90.7118 3.66,-13.9132 3.653,67.194 3.689,127.37 3.66,147.97 3.653,122.431 3.661,58.811 3.658,-23.135 3.661,-97.932" />
      </g>
      <g
         transform="matrix(0.25264716,0,0,-0.10852682,20.136904,904.31061)"
         id="g58"
         style="stroke:#000000;stroke-width:9.05869198;stroke-miterlimit:4;stroke-dasharray:none;stroke-opacity:1">
        <path
           inkscape:connector-curvature="0"
           id="path60"
           style="fill:none;stroke:#000000;stroke-width:9.05869198;stroke-linecap:butt;stroke-linejoin:round;stroke-miterlimit:4;stroke-dasharray:none;stroke-opacity:1"
           d="m 195.439,526.076 3.661,-97.932 3.652,-142.121 3.689,-142.18 3.661,-97.8729 3.652,-23.128 3.661,58.746 3.661,122.4309 3.658,147.963 3.652,127.435 3.689,67.201 3.661,-13.978 3.652,-90.712 3.661,-139.269 3.661,-144.454 3.652,-104.6902 3.661,-32.3038 3.658,50.1681 3.683,116.9789 3.658,147.378 3.661,131.854 3.661,75.389 3.652,-4.686 3.661,-83.18 3.658,-135.883 3.683,-146.15 3.661,-111.0587 3.658,-41.3237 3.661,41.3237 3.652,111.0587 3.661,146.15 3.661,135.883 3.68,83.18 3.661,4.686 3.658,-75.389 3.661,-131.854 3.652,-147.378 3.661,-116.9789 3.661,-50.1681 3.68,32.3038 3.661,104.6902 3.661,144.454 3.652,139.269 3.661,90.712 3.658,13.978 3.661,-67.201 3.68,-127.435 3.661,-147.963 3.661,-122.4309 3.652,-58.746 3.661,23.128 3.658,97.8729" />
      </g>
      <g
         transform="matrix(0.25264716,0,0,-0.10852682,20.136904,904.31061)"
         id="g62"
         style="stroke:#000000;stroke-width:9.05869198;stroke-miterlimit:4;stroke-dasharray:none;stroke-opacity:1">
        <path
           inkscape:connector-curvature="0"
           id="path64"
           style="fill:none;stroke:#000000;stroke-width:9.05869198;stroke-linecap:butt;stroke-linejoin:round;stroke-miterlimit:4;stroke-dasharray:none;stroke-opacity:1"
           d="m 378.535,45.9701 3.658,97.8729 3.661,142.18 3.652,142.121 3.689,97.932 3.661,23.135 3.652,-58.811 3.661,-122.431 3.661,-147.97 3.652,-127.37 3.658,-67.194 3.689,13.9132 3.661,90.7118 3.652,139.269 3.661,144.454 3.661,104.69 3.653,32.297 3.66,-50.168 3.689,-116.907 3.658,-147.379 3.653,-131.918 3.66,-75.3239 3.661,4.6139 3.653,83.245 3.66,135.825 3.689,146.215 3.653,111.058 3.66,41.259 3.658,-41.259 3.661,-111.058 3.653,-146.215 3.66,-135.825 3.689,-83.245 3.653,-4.6139 3.66,75.3239 3.658,131.918 3.661,147.379 3.653,116.907 3.66,50.168 3.661,-32.297 3.681,-104.69 3.66,-144.454 3.661,-139.269 3.653,-90.7118 3.661,-13.9132 3.658,67.194 3.66,127.37 3.681,147.97 3.661,122.431 3.66,58.811 3.653,-23.135 3.661,-97.932" />
      </g>
      <g
         transform="matrix(0.25264716,0,0,-0.10852682,20.136904,904.31061)"
         id="g66"
         style="stroke:#000000;stroke-width:9.05869198;stroke-miterlimit:4;stroke-dasharray:none;stroke-opacity:1">
        <path
           inkscape:connector-curvature="0"
           id="path68"
           style="fill:none;stroke:#000000;stroke-width:9.05869198;stroke-linecap:butt;stroke-linejoin:round;stroke-miterlimit:4;stroke-dasharray:none;stroke-opacity:1"
           d="m 561.629,526.076 3.661,-97.932 3.658,-142.121 3.66,-142.18 3.684,-97.8729 3.658,-23.128 3.66,58.746 3.653,122.4309 3.661,147.963 3.66,127.435 3.658,67.201 3.684,-13.978 3.658,-90.712 3.66,-139.269 3.653,-144.454 3.661,-104.6902 3.661,-32.3038 3.652,50.1681 3.689,116.9789 3.66,147.378 3.653,131.854 3.658,75.389 3.661,-4.686 3.661,-83.18 3.652,-135.883 3.661,-146.15 3.689,-111.0587 3.652,-41.3237 3.661,41.3237 3.658,111.0587 3.661,146.15 3.652,135.883 3.661,83.18 3.689,4.686 3.652,-75.389 3.661,-131.854 3.658,-147.378 3.661,-116.9789 3.652,-50.1681 3.661,32.3038 3.689,104.6902 3.652,144.454 3.661,139.269 3.661,90.712 3.652,13.978 3.661,-67.201 3.658,-127.435 3.661,-147.963 3.68,-122.4309 3.661,-58.746 3.661,23.128 3.652,97.8729" />
      </g>
      <g
         transform="matrix(0.25264716,0,0,-0.10852682,20.136904,904.31061)"
         id="g70"
         style="stroke:#000000;stroke-width:9.05869198;stroke-miterlimit:4;stroke-dasharray:none;stroke-opacity:1">
        <path
           inkscape:connector-curvature="0"
           id="path72"
           style="fill:none;stroke:#000000;stroke-width:9.05869198;stroke-linecap:butt;stroke-linejoin:round;stroke-miterlimit:4;stroke-dasharray:none;stroke-opacity:1"
           d="m 744.731,45.9701 3.652,97.8729 3.661,142.18 3.658,142.121 3.661,97.932 3.683,23.135 3.658,-58.811 3.661,-122.431 3.652,-147.97 3.661,-127.37 3.661,-67.194 3.652,13.9132 3.689,90.7118 3.658,139.269 3.661,144.454 3.652,104.69 3.661,32.297 3.661,-50.168 3.652,-116.907 3.661,-147.379 3.689,-131.918 3.658,-75.3239 3.652,4.6139" />
      </g>
    </g>
    <g
       id="g5155"
       style="stroke:#000000;stroke-width:1.5;stroke-miterlimit:4;stroke-dasharray:none;stroke-opacity:1"
       transform="translate(45.973589,15.185393)">
      <g
         transform="matrix(0.25325758,0,0,-0.10887736,-11.668874,910.8492)"
         id="g74"
         style="stroke:#000000;stroke-width:9.03319168;stroke-miterlimit:4;stroke-dasharray:none;stroke-opacity:1">
        <path
           inkscape:connector-curvature="0"
           id="path76"
           style="fill:none;stroke:#000000;stroke-width:9.03319168;stroke-linecap:butt;stroke-linejoin:round;stroke-miterlimit:4;stroke-dasharray:none;stroke-opacity:1"
           d="m 2524.34,1635.56 3.66,77.65 3.65,64.09 3.66,40.87 3.69,14.3 3.66,-8.52 3.66,-21.97 3.65,-23.38 3.67,-14.24 3.65,0.91 3.66,15.85 3.66,24.37 3.68,22.75 3.66,10.73 3.66,-8.33 3.65,-28.53 3.66,-43.08 3.66,-46.73 3.66,-37.35 3.68,-16.45 3.66,10.73 3.67,37.23 3.65,56.08 3.66,62.58 3.66,55.62 3.66,37.83 3.68,14.95 3.66,-6.12 3.66,-19.55 3.65,-22.22 3.66,-14.56 3.66,-0.79 3.66,13.14 3.65,20.91 3.69,18.26 3.66,4.29 3.66,-18.13 3.66,-43.14 3.66,-63.95 3.65,-74.28 3.66,-71.03 3.69,-54.58 3.66,-29.44 3.65,-2.21 3.66,20.09 3.66,31.9 3.65,31.13 3.66,19.62 3.69,2.21 3.66,-14.62" />
      </g>
      <g
         transform="matrix(0.25325758,0,0,-0.10887736,-11.668874,910.8492)"
         id="g78"
         style="stroke:#000000;stroke-width:9.03319168;stroke-miterlimit:4;stroke-dasharray:none;stroke-opacity:1">
        <path
           inkscape:connector-curvature="0"
           id="path80"
           style="fill:none;stroke:#000000;stroke-width:9.03319168;stroke-linecap:butt;stroke-linejoin:round;stroke-miterlimit:4;stroke-dasharray:none;stroke-opacity:1"
           d="m 2700.12,1675.07 3.66,-14.62 3.66,-24.89 3.65,-24.83 3.67,-14.61 3.65,2.14 3.66,19.62 3.69,31.2 3.65,31.84 3.66,20.08 3.66,-2.15 3.66,-29.44 3.65,-54.65 3.66,-70.96 3.69,-74.28 3.65,-63.94 3.66,-43.21 3.67,-18.07 3.65,4.29 3.66,18.26 3.66,20.86 3.66,13.12 3.68,-0.71 3.66,-14.62 3.66,-22.16 3.65,-19.56 3.66,-6.11 3.66,14.95 3.66,37.82 3.68,55.56 3.66,62.65 3.66,56.07 3.66,37.24 3.66,10.72 3.66,-16.5 3.66,-37.3 3.68,-46.79 3.66,-43.08 3.66,-28.46 3.65,-8.39 3.66,10.72 3.66,22.81 3.65,24.37 3.69,15.79 3.66,0.97 3.66,-14.29 3.65,-23.39 3.67,-21.91 3.66,-8.51 3.65,14.23 3.66,40.88 3.69,64.14" />
      </g>
      <g
         transform="matrix(0.25325758,0,0,-0.10887736,-11.668874,910.8492)"
         id="g82"
         style="stroke:#000000;stroke-width:9.03319168;stroke-miterlimit:4;stroke-dasharray:none;stroke-opacity:1">
        <path
           inkscape:connector-curvature="0"
           id="path84"
           style="fill:none;stroke:#000000;stroke-width:9.03319168;stroke-linecap:butt;stroke-linejoin:round;stroke-miterlimit:4;stroke-dasharray:none;stroke-opacity:1"
           d="m 2883.19,1493.83 3.69,64.14 3.65,77.59 3.66,77.65 3.66,64.09 3.66,40.87 3.65,14.3 3.66,-8.52 3.69,-21.97 3.65,-23.38 3.67,-14.24 3.65,0.91 3.66,15.85 3.66,24.37 3.66,22.75 3.69,10.73 3.65,-8.33 3.66,-28.53 3.66,-43.08 3.65,-46.73 3.66,-37.35 3.66,-16.45 3.66,10.73 3.68,37.23 3.66,56.08 3.66,62.58 3.66,55.62 3.66,37.83 3.66,14.95 3.66,-6.12 3.68,-19.55 3.66,-22.22 3.66,-14.56 3.65,-0.79 3.66,13.14 3.66,20.91 3.66,18.26 3.68,4.29 3.66,-18.13 3.66,-43.14 3.65,-63.95 3.67,-74.28 3.66,-71.03 3.65,-54.58 3.66,-29.44 3.69,-2.21 3.66,20.09 3.65,31.9 3.66,31.13 3.66,19.62 3.65,2.21 3.66,-14.62" />
      </g>
      <g
         transform="matrix(0.25325758,0,0,-0.10887736,-11.668874,910.8492)"
         id="g86"
         style="stroke:#000000;stroke-width:9.03319168;stroke-miterlimit:4;stroke-dasharray:none;stroke-opacity:1">
        <path
           inkscape:connector-curvature="0"
           id="path88"
           style="fill:none;stroke:#000000;stroke-width:9.03319168;stroke-linecap:butt;stroke-linejoin:round;stroke-miterlimit:4;stroke-dasharray:none;stroke-opacity:1"
           d="m 3066.28,1675.07 3.66,-14.62 3.69,-24.89 3.65,-24.83 3.67,-14.61 3.65,2.14 3.66,19.62 3.66,31.2 3.66,31.84 3.69,20.08 3.65,-2.15 3.66,-29.44 3.66,-54.65 3.66,-70.96 3.65,-74.28 3.66,-63.94 3.69,-43.21 3.65,-18.07 3.66,4.29 3.66,18.26 3.66,20.86 3.66,13.12 3.66,-0.71 3.66,-14.62 3.68,-22.16 3.66,-19.56 3.66,-6.11 3.65,14.95 3.66,37.82 3.66,55.56 3.66,62.65 3.68,56.07 3.66,37.24 3.66,10.72 3.65,-16.5 3.67,-37.3 3.66,-46.79 3.65,-43.08 3.69,-28.46 3.66,-8.39 3.66,10.72 3.65,22.81 3.66,24.37 3.66,15.79 3.65,0.97 3.69,-14.29 3.66,-23.39 3.66,-21.91 3.65,-8.51 3.66,14.23 3.66,40.88 3.66,64.14" />
      </g>
      <g
         transform="matrix(0.25325758,0,0,-0.10887736,-11.668874,910.8492)"
         id="g90"
         style="stroke:#000000;stroke-width:9.03319168;stroke-miterlimit:4;stroke-dasharray:none;stroke-opacity:1">
        <path
           inkscape:connector-curvature="0"
           id="path92"
           style="fill:none;stroke:#000000;stroke-width:9.03319168;stroke-linecap:butt;stroke-linejoin:round;stroke-miterlimit:4;stroke-dasharray:none;stroke-opacity:1"
           d="m 3249.38,1493.83 3.66,64.14 3.69,77.59 3.66,77.65 3.65,64.09 3.66,40.87 3.66,14.3 3.66,-8.52 3.65,-21.97 3.66,-23.38 3.69,-14.24 3.65,0.91 3.66,15.85 3.66,24.37 3.66,22.75 3.66,10.73 3.66,-8.33 3.68,-28.53 3.66,-43.08 3.66,-46.73 3.66,-37.35 3.65,-16.45 3.66,10.73" />
      </g>
    </g>
    <g
       id="g5143"
       style="stroke:#000000;stroke-width:1.5;stroke-miterlimit:4;stroke-dasharray:none;stroke-opacity:1"
       transform="translate(45.973589,15.185393)">
      <g
         transform="matrix(0.25325758,0,0,-0.10887736,-11.668874,910.8492)"
         id="g94"
         style="stroke:#000000;stroke-width:9.03319168;stroke-miterlimit:4;stroke-dasharray:none;stroke-opacity:1">
        <path
           inkscape:connector-curvature="0"
           id="path96"
           style="fill:none;stroke:#000000;stroke-width:9.03319168;stroke-linecap:butt;stroke-linejoin:round;stroke-miterlimit:4;stroke-dasharray:none;stroke-opacity:1"
           d="m 2518.5,648.637 3.66,108.011 3.66,84.733 3.69,44.71 3.65,-0.514 3.66,-38.6 3.66,-59.526 3.66,-59.013 3.66,-39.445 3.68,-9.358 3.66,20.015 3.66,37.496 3.66,36.456 3.66,16.182 3.65,-17.215 3.66,-53.294 3.66,-79.866 3.68,-87.469 3.66,-72.068 3.66,-36.45 3.66,10.521 3.65,56.283 3.66,88.769 3.67,99.687 3.65,87.138 3.69,56.023 3.66,16.506 3.66,-19.236 3.65,-40.556 3.66,-42.24 3.66,-25.149 3.68,3.19 3.66,31.836 3.66,49.518 3.65,48.355 3.66,26.579 3.66,-10.787 3.66,-53.548 3.66,-89.23 3.68,-107.218 3.67,-101.577 3.65,-73.231 3.66,-29.835 3.66,16.903 3.66,54.392 3.65,73.172 3.69,69.722 3.66,47.121 3.65,14.361 3.66,-16.701" />
      </g>
      <g
         transform="matrix(0.25325758,0,0,-0.10887736,-11.668874,910.8492)"
         id="g98"
         style="stroke:#000000;stroke-width:9.03319168;stroke-miterlimit:4;stroke-dasharray:none;stroke-opacity:1">
        <path
           inkscape:connector-curvature="0"
           id="path100"
           style="fill:none;stroke:#000000;stroke-width:9.03319168;stroke-linecap:butt;stroke-linejoin:round;stroke-miterlimit:4;stroke-dasharray:none;stroke-opacity:1"
           d="m 2694.28,700.891 3.66,-16.701 7.32,-71.099 3.65,-16.767 3.69,14.427 3.66,47.12 3.66,69.657 3.66,73.238 3.66,54.392 3.65,16.903 3.66,-29.835 3.69,-73.296 3.65,-101.512 3.66,-107.218 3.66,-89.296 3.66,-53.547 3.65,-10.722 3.66,26.578 3.69,48.355 3.66,49.453 3.66,31.836 3.65,3.256 3.67,-25.214 3.65,-42.175 3.66,-40.622 3.66,-19.17 3.68,16.441 3.66,56.017 3.66,87.144 3.66,99.751 3.65,88.769 3.66,56.283 3.66,10.456 3.68,-36.391 3.66,-72.068 3.67,-87.528 3.65,-79.807 3.66,-53.288 3.66,-17.285 3.66,16.252 3.68,36.385 3.66,37.568 3.66,19.95 3.65,-9.293 3.66,-39.517 3.66,-59.006 3.66,-59.461 3.65,-38.601 3.69,-0.513 3.66,44.703 3.66,84.675" />
      </g>
      <g
         transform="matrix(0.25325758,0,0,-0.10887736,-11.668874,910.8492)"
         id="g102"
         style="stroke:#000000;stroke-width:9.03319168;stroke-miterlimit:4;stroke-dasharray:none;stroke-opacity:1">
        <path
           inkscape:connector-curvature="0"
           id="path104"
           style="fill:none;stroke:#000000;stroke-width:9.03319168;stroke-linecap:butt;stroke-linejoin:round;stroke-miterlimit:4;stroke-dasharray:none;stroke-opacity:1"
           d="m 2877.38,455.893 3.66,84.675 3.66,108.069 3.66,108.011 3.65,84.733 3.66,44.71 3.69,-0.514 3.66,-38.6 3.65,-59.526 3.66,-59.013 3.66,-39.445 3.65,-9.358 3.67,20.015 3.68,37.496 3.66,36.456 3.66,16.182 3.66,-17.215 3.66,-53.294 3.65,-79.866 3.66,-87.469 3.66,-72.068 3.68,-36.45 3.66,10.521 3.66,56.283 3.66,88.769 3.65,99.687 3.66,87.138 3.66,56.023 3.68,16.506 3.67,-19.236 3.66,-40.556 3.65,-42.24 3.66,-25.149 3.66,3.19 3.66,31.836 3.68,49.518 3.66,48.355 3.66,26.579 3.65,-10.787 3.66,-53.548 3.66,-89.23 3.66,-107.218 3.65,-101.577 3.69,-73.231 3.66,-29.835 3.66,16.903 3.66,54.392 3.66,73.172 3.66,69.722 3.65,47.121 3.69,14.361 3.66,-16.701" />
      </g>
      <g
         transform="matrix(0.25325758,0,0,-0.10887736,-11.668874,910.8492)"
         id="g106"
         style="stroke:#000000;stroke-width:9.03319168;stroke-miterlimit:4;stroke-dasharray:none;stroke-opacity:1">
        <path
           inkscape:connector-curvature="0"
           id="path108"
           style="fill:none;stroke:#000000;stroke-width:9.03319168;stroke-linecap:butt;stroke-linejoin:round;stroke-miterlimit:4;stroke-dasharray:none;stroke-opacity:1"
           d="m 3060.48,700.891 3.66,-16.701 7.31,-71.099 3.66,-16.767 3.66,14.427 3.66,47.12 3.68,69.657 3.66,73.238 3.65,54.392 3.67,16.903 3.66,-29.835 3.65,-73.296 3.66,-101.512 3.69,-107.218 3.65,-89.296 3.66,-53.547 3.66,-10.722 3.66,26.578 3.65,48.355 3.66,49.453 3.69,31.836 3.65,3.256 3.67,-25.214 3.65,-42.175 3.66,-40.622 3.66,-19.17 3.66,16.441 3.66,56.017 3.68,87.144 3.66,99.751 3.66,88.769 3.66,56.283 3.65,10.456 3.66,-36.391 3.66,-72.068 3.68,-87.528 3.66,-79.807 3.66,-53.288 3.66,-17.285 3.66,16.252 3.66,36.385 3.66,37.568 3.68,19.95 3.66,-9.293 3.66,-39.517 3.65,-59.006 3.66,-59.461 3.66,-38.601 3.66,-0.513 3.68,44.703 3.66,84.675" />
      </g>
      <g
         transform="matrix(0.25325758,0,0,-0.10887736,-11.668874,910.8492)"
         id="g110"
         style="stroke:#000000;stroke-width:9.03319168;stroke-miterlimit:4;stroke-dasharray:none;stroke-opacity:1">
        <path
           inkscape:connector-curvature="0"
           id="path112"
           style="fill:none;stroke:#000000;stroke-width:9.03319168;stroke-linecap:butt;stroke-linejoin:round;stroke-miterlimit:4;stroke-dasharray:none;stroke-opacity:1"
           d="m 3243.57,455.893 3.66,84.675 3.66,108.069 3.66,108.011 3.66,84.733 3.66,44.71 3.65,-0.514 3.69,-38.6 3.66,-59.526 3.66,-59.013 3.65,-39.445 3.66,-9.358 3.66,20.015 3.65,37.496 3.66,36.456 3.69,16.182 3.66,-17.215 3.66,-53.294 3.65,-79.866 3.66,-87.469 3.66,-72.068 3.66,-36.45 3.69,10.521" />
      </g>
    </g>
    <text
       xml:space="preserve"
       style="font-style:normal;font-weight:normal;line-height:0%;font-family:sans-serif;letter-spacing:0px;word-spacing:0px;fill:#000000;fill-opacity:1;stroke:none"
       x="451.92389"
       y="734.69403"
       id="text3703-3-9"><tspan
         sodipodi:role="line"
         x="451.92389"
         y="734.69403"
         style="font-style:normal;font-variant:normal;font-weight:normal;font-stretch:normal;font-size:31.25px;line-height:150%;font-family:cmbright;-inkscape-font-specification:cmbright;text-align:center;writing-mode:lr-tb;text-anchor:middle"
         id="tspan3458">opérateur</tspan><tspan
         sodipodi:role="line"
         x="451.92389"
         y="781.56903"
         style="font-style:normal;font-variant:normal;font-weight:normal;font-stretch:normal;font-size:31.25px;line-height:150%;font-family:cmbright;-inkscape-font-specification:cmbright;text-align:center;writing-mode:lr-tb;text-anchor:middle"
         id="tspan3471">linéaire</tspan><tspan
         sodipodi:role="line"
         x="451.92389"
         y="828.44403"
         style="font-style:normal;font-variant:normal;font-weight:normal;font-stretch:normal;font-size:31.25px;line-height:150%;font-family:cmbright;-inkscape-font-specification:cmbright;text-align:center;writing-mode:lr-tb;text-anchor:middle"
         id="tspan3463">de</tspan><tspan
         sodipodi:role="line"
         x="451.92389"
         y="875.31903"
         style="font-style:normal;font-variant:normal;font-weight:normal;font-stretch:normal;font-size:31.25px;line-height:150%;font-family:cmbright;-inkscape-font-specification:cmbright;text-align:center;writing-mode:lr-tb;text-anchor:middle"
         id="tspan3467">mélange</tspan></text>
  </g>
</svg>
