<?xml version="1.0" encoding="UTF-8" standalone="no"?>
<!-- Created with Inkscape (http://www.inkscape.org/) -->

<svg
   xmlns:dc="http://purl.org/dc/elements/1.1/"
   xmlns:cc="http://creativecommons.org/ns#"
   xmlns:rdf="http://www.w3.org/1999/02/22-rdf-syntax-ns#"
   xmlns:svg="http://www.w3.org/2000/svg"
   xmlns="http://www.w3.org/2000/svg"
   xmlns:sodipodi="http://sodipodi.sourceforge.net/DTD/sodipodi-0.dtd"
   xmlns:inkscape="http://www.inkscape.org/namespaces/inkscape"
   width="328.13"
   height="43.29002"
   viewBox="0 0 328.12999 43.290018"
   id="svg4643"
   version="1.1"
   inkscape:version="0.92.3 (2405546, 2018-03-11)"
   sodipodi:docname="partition.svg">
  <defs
     id="defs4645" />
  <sodipodi:namedview
     id="base"
     pagecolor="#ffffff"
     bordercolor="#666666"
     borderopacity="1.0"
     inkscape:pageopacity="0.0"
     inkscape:pageshadow="2"
     inkscape:zoom="1.4"
     inkscape:cx="52.49809"
     inkscape:cy="-122.97323"
     inkscape:document-units="px"
     inkscape:current-layer="g5230"
     showgrid="false"
     units="px"
     inkscape:window-width="1920"
     inkscape:window-height="1164"
     inkscape:window-x="1920"
     inkscape:window-y="0"
     inkscape:window-maximized="1"
     fit-margin-top="0"
     fit-margin-left="0"
     fit-margin-right="0"
     fit-margin-bottom="0" />
  <metadata
     id="metadata4648">
    <rdf:RDF>
      <cc:Work
         rdf:about="">
        <dc:format>image/svg+xml</dc:format>
        <dc:type
           rdf:resource="http://purl.org/dc/dcmitype/StillImage" />
        <dc:title></dc:title>
      </cc:Work>
    </rdf:RDF>
  </metadata>
  <g
     inkscape:label="Calque 1"
     inkscape:groupmode="layer"
     id="layer1"
     transform="translate(-0.12183,-675.46805)">
    <g
       id="g5008"
       transform="translate(-124.28571,-123.57143)" />
    <g
       id="g5230"
       transform="translate(-185.88913,70.66777)">
      <path
         d="M 186.01096,608.51282 H 514.14095"
         style="fill:none;stroke:#31313d;stroke-width:1.51475954;stroke-linecap:butt;stroke-linejoin:miter;stroke-miterlimit:10;stroke-dasharray:none;stroke-opacity:1"
         id="path4722-7"
         inkscape:connector-curvature="0" />
      <path
         d="M 186.01096,617.21342 H 514.14095"
         style="fill:none;stroke:#31313d;stroke-width:1.51475954;stroke-linecap:butt;stroke-linejoin:miter;stroke-miterlimit:10;stroke-dasharray:none;stroke-opacity:1"
         id="path4726-5"
         inkscape:connector-curvature="0" />
      <path
         d="M 186.01096,625.91401 H 514.14095"
         style="fill:none;stroke:#31313d;stroke-width:1.51475954;stroke-linecap:butt;stroke-linejoin:miter;stroke-miterlimit:10;stroke-dasharray:none;stroke-opacity:1"
         id="path4730-9"
         inkscape:connector-curvature="0" />
      <path
         d="M 186.01096,634.61461 H 514.14095"
         style="fill:none;stroke:#31313d;stroke-width:1.51475954;stroke-linecap:butt;stroke-linejoin:miter;stroke-miterlimit:10;stroke-dasharray:none;stroke-opacity:1"
         id="path4734-2"
         inkscape:connector-curvature="0" />
      <path
         d="M 186.01096,643.31521 H 514.14095"
         style="fill:none;stroke:#31313d;stroke-width:1.51475954;stroke-linecap:butt;stroke-linejoin:miter;stroke-miterlimit:10;stroke-dasharray:none;stroke-opacity:1"
         id="path4738-2"
         inkscape:connector-curvature="0" />
      <path
         d="m 201.67117,632.08511 c -0.0192,1.13456 -0.561,2.43438 -1.61209,3.35808 -0.55545,0.50216 -1.24432,0.89202 -2.00076,1.13857 -0.29935,-2.2153 -0.61864,-4.55062 -0.90441,-6.99154 -0.0908,-0.78693 -0.17937,-1.58508 -0.26484,-2.39296 0.005,-5e-4 0.007,-10e-4 0.0132,-10e-4 0.0954,-0.01 0.1894,-0.028 0.28627,-0.0284 0.38434,-0.0248 0.77974,0.0372 1.18082,0.16493 0.79582,0.26986 1.61091,0.86117 2.24397,1.69471 0.31411,0.41667 0.58598,0.889 0.77604,1.40205 0.0958,0.25662 0.1718,0.52277 0.2189,0.79582 0.029,0.13694 0.0386,0.27505 0.0536,0.4145 l 0.006,0.10475 0.004,0.0528 0.002,0.0265 c -0.002,0.0384 0.005,-0.0234 0.004,-0.004 l -0.006,0.26615 z m -5.68736,4.79065 c -0.38433,-0.0125 -0.771,-0.0556 -1.15315,-0.1366 -0.38384,-0.0726 -0.7613,-0.18907 -1.13072,-0.33054 l -0.27672,-0.10837 -0.27118,-0.12508 -0.13511,-0.0636 -0.1235,-0.0679 -0.27671,-0.15255 c -0.31428,-0.20095 -0.63844,-0.42555 -0.91483,-0.70311 -0.27856,-0.27135 -0.5335,-0.56852 -0.7333,-0.90241 -0.20381,-0.32986 -0.38013,-0.67783 -0.50166,-1.04908 -0.12717,-0.3679 -0.21135,-0.75223 -0.25074,-1.14427 -0.0295,-0.19343 -0.0275,-0.39389 -0.0403,-0.58949 0.006,-0.19929 -0.001,-0.39606 0.0215,-0.59535 0.12188,-1.59532 0.78677,-3.15007 1.70243,-4.5399 0.4616,-0.69692 0.99442,-1.3553 1.57301,-1.97999 0.28964,-0.31208 0.5905,-0.61696 0.90628,-0.90895 0.33572,-0.31595 0.67228,-0.63256 1.00951,-0.95002 0.0426,-0.0412 0.0846,-0.0829 0.12705,-0.12413 0.0905,0.93527 0.1889,1.85898 0.29516,2.77145 -0.0275,0.0125 -0.0535,0.0236 -0.0834,0.0358 l -0.2199,0.0941 c -0.13695,0.0701 -0.27388,0.13327 -0.40447,0.20852 -1.04856,0.59971 -1.81687,1.47078 -2.23155,2.35527 -0.42723,0.88364 -0.54238,1.75706 -0.49261,2.4865 0.0549,0.73313 0.27673,1.33165 0.55463,1.74483 0.27017,0.42086 0.58596,0.64362 0.79898,0.7601 0.0541,0.0279 0.10175,0.0521 0.14265,0.0729 0.0421,0.015 0.0772,0.0276 0.10538,0.0374 0.0566,0.02 0.0854,0.0303 0.0854,0.0303 0,0 -0.0208,-0.0224 -0.0614,-0.0664 -0.0419,-0.0426 -0.103,-0.11088 -0.16694,-0.19979 -0.12956,-0.18069 -0.29097,-0.47116 -0.37176,-0.86856 -0.0839,-0.39439 -0.0936,-0.89588 0.035,-1.44732 0.122,-0.55027 0.38634,-1.14863 0.80754,-1.68983 0.42473,-0.53872 1.01237,-1.00685 1.75121,-1.29984 0.01,-0.005 0.021,-0.008 0.0312,-0.0125 0.103,0.76682 0.21202,1.52492 0.32819,2.27164 0.24336,1.61023 0.50836,3.17118 0.76765,4.67867 0.12943,0.75358 0.2566,1.49425 0.38147,2.22118 0.006,0.0422 0.0133,0.0833 0.02,0.12533 -0.51725,0.12325 -1.05812,0.18118 -1.60455,0.1614 m 0.0528,-22.8034 c 0.002,-0.9051 0.0239,-1.81406 0.0752,-2.72183 0.0498,-0.90694 0.13476,-1.81539 0.2903,-2.69837 0.0778,-0.44047 0.17214,-0.87576 0.29785,-1.2849 0.12338,-0.40208 0.29148,-0.80351 0.48221,-1.03616 0.063,-0.0795 0.11963,-0.11662 0.14649,-0.12904 l 0.0342,-7.1e-4 c -0.0487,0.001 -0.007,0.003 -0.0165,0.004 0.01,7e-4 0.0269,0.006 0.045,0.0125 0.0371,0.0134 0.0855,0.0329 0.14061,0.0694 0.22813,0.13645 0.47922,0.44535 0.66694,0.78558 0.38249,0.69744 0.58864,1.54673 0.68686,2.397 0.0951,0.85533 0.0789,1.73512 0.0125,2.603 l -0.0285,0.31544 -0.0404,0.35233 c -0.0288,0.19325 -0.0602,0.41366 -0.0989,0.61328 -0.0833,0.40462 -0.1889,0.79347 -0.3349,1.16522 -0.28276,0.74487 -0.7229,1.44212 -1.24248,2.12581 -0.31629,0.40712 -0.65755,0.80956 -1.0117,1.20931 -0.0605,-1.24921 -0.10163,-2.51047 -0.1045,-3.78096 m 1.28221,-7.96451 h 0.005 z m 0.0256,0.0909 c 0.005,-6.7e-4 -0.005,10e-4 -0.0146,0.002 0.0125,-0.005 0.0194,-0.006 0.0146,-0.002 m 6.15582,23.63139 c -0.0899,-0.39589 -0.2122,-0.77988 -0.37377,-1.14009 -0.15773,-0.36169 -0.33824,-0.70947 -0.55514,-1.02829 -0.84475,-1.28488 -2.09545,-2.24916 -3.51126,-2.6417 -0.35181,-0.0985 -0.71168,-0.16175 -1.06919,-0.18688 -0.35851,-0.0161 -0.71385,-0.01 -1.05611,0.044 -0.0928,0.01 -0.18353,0.0269 -0.2737,0.0455 -0.10513,-1.10574 -0.20148,-2.22857 -0.28745,-3.36563 1.02107,-1.03115 2.00695,-2.12614 2.88205,-3.41506 0.56752,-0.84895 1.09616,-1.79745 1.41179,-2.84838 0.16308,-0.52108 0.26917,-1.05628 0.33873,-1.58426 0.0325,-0.26716 0.0521,-0.5174 0.0713,-0.79395 l 0.0149,-0.35451 0.007,-0.39286 c 0.008,-1.02027 -0.10225,-2.041 -0.35048,-3.04417 -0.24874,-1.00079 -0.61848,-1.98669 -1.24349,-2.88692 -0.15774,-0.22494 -0.33306,-0.44384 -0.54023,-0.64984 -0.207,-0.20563 -0.44198,-0.40493 -0.74452,-0.56316 -0.14918,-0.0796 -0.32181,-0.14582 -0.51271,-0.18721 -0.0965,-0.02 -0.19628,-0.0339 -0.30305,-0.0355 -0.0376,-5e-4 -0.0262,-0.003 -0.10425,-7.1e-4 l -0.044,0.002 c -0.044,0.003 -0.1537,0.0158 -0.19962,0.0288 -0.2355,0.0512 -0.43546,0.16276 -0.58932,0.2836 -0.15571,0.12187 -0.27255,0.2541 -0.36925,0.384 -0.37059,0.52328 -0.51724,1.02308 -0.65335,1.51386 -0.12666,0.49059 -0.20768,0.97296 -0.27103,1.45217 -0.22911,1.91444 -0.24018,3.77895 -0.19458,5.61915 0.0362,1.6171 0.122,3.2094 0.23515,4.77707 -0.5563,0.58813 -1.12953,1.17158 -1.69472,1.7527 -0.32683,0.3347 -0.6515,0.6525 -0.98118,0.99945 -0.3446,0.35835 -0.67699,0.72827 -0.98924,1.11478 -0.6262,0.77184 -1.17511,1.6057 -1.6322,2.48515 -0.46226,0.87628 -0.82163,1.80618 -1.05225,2.76675 -0.23499,0.95807 -0.34075,1.9478 -0.2769,2.92715 0.007,0.24404 0.0461,0.48825 0.0729,0.72978 0.046,0.24136 0.0787,0.48171 0.14548,0.71754 0.11037,0.47418 0.28594,0.93108 0.48942,1.36753 0.40647,0.87628 1.02528,1.63353 1.74315,2.21918 l 0.2737,0.2137 0.28645,0.19224 c 0.1832,0.13088 0.40394,0.24136 0.60123,0.35517 l 0.28545,0.13544 0.15787,0.0744 0.1537,0.0615 0.30522,0.12437 0.31058,0.10888 c 0.829,0.28141 1.69087,0.43846 2.54568,0.4641 0.59316,0.0189 1.18332,-0.0267 1.76057,-0.1285 0.0625,0.39975 0.12313,0.79632 0.17952,1.18734 0.10475,0.69927 0.18051,1.38698 0.24051,2.05793 0.0566,0.67112 0.0953,1.32714 0.0738,1.96138 -0.01,0.31696 -0.0325,0.62786 -0.0761,0.92924 -0.0125,0.0724 -0.0199,0.15738 -0.0334,0.21838 l -0.0472,0.22879 c -0.0389,0.13863 -0.0729,0.27205 -0.12573,0.40814 -0.19258,0.54239 -0.50937,1.01505 -0.89537,1.37876 -0.39088,0.35901 -0.84745,0.60859 -1.31926,0.72978 l -0.17767,0.0388 -0.0441,0.01 c -0.004,6.7e-4 -0.0213,0.005 -0.015,0.002 l -0.0247,0.004 -0.0983,0.0147 c -0.1195,0.0156 -0.22879,0.0238 -0.34946,0.0266 -0.23383,0.004 -0.46312,-0.0125 -0.67999,-0.059 -0.21639,-0.0475 -0.42105,-0.11688 -0.60843,-0.20448 -0.18556,-0.0934 -0.35082,-0.20684 -0.49513,-0.3307 -0.28528,-0.25494 -0.47368,-0.56032 -0.56334,-0.87041 -0.0493,-0.15336 -0.0686,-0.31058 -0.0763,-0.4621 -0.005,-0.075 -0.004,-0.15118 3.4e-4,-0.22476 l 0.01,-0.11025 c 0.004,0.0318 0.001,-0.001 0.002,7.1e-4 l 7.1e-4,-0.0175 0.001,-0.0354 0.004,-0.0699 c 0.0201,-0.10525 0.0442,-0.25528 0.0867,-0.36858 0.0405,-0.11887 0.0895,-0.22761 0.14281,-0.32415 0.0699,-0.12337 0.14834,-0.21991 0.22761,-0.29701 0.29887,0.21755 0.66575,0.34729 1.06365,0.34729 1.00032,0 1.81138,-0.8109 1.81138,-1.81136 0,-1.0003 -0.79431,-1.84455 -1.79444,-1.86334 -0.71302,-0.0134 -1.44497,0.18907 -2.11994,0.89404 -0.5397,0.56367 -0.96661,1.3677 -1.07438,2.22117 -0.0303,0.21338 -0.0431,0.43344 -0.0369,0.65788 0.009,0.2303 0.026,0.43813 0.0734,0.70043 0.0935,0.42055 0.27707,0.90678 0.55563,1.33135 0.28125,0.42892 0.66927,0.81173 1.13255,1.08308 0.22895,0.13896 0.47618,0.2526 0.7358,0.33405 0.25729,0.0873 0.5268,0.147 0.80269,0.17717 0.27573,0.0304 0.55781,0.0354 0.84174,0.007 0.13812,-0.0132 0.28896,-0.0355 0.43009,-0.0651 l 0.097,-0.0216 0.0577,-0.0139 0.0529,-0.0149 0.21203,-0.0601 c 0.27891,-0.0964 0.5548,-0.21706 0.8141,-0.37646 0.25745,-0.16175 0.49963,-0.35432 0.71905,-0.5749 0.42957,-0.4497 0.77183,-1.00347 0.96861,-1.62331 0.0529,-0.15135 0.0908,-0.31811 0.12837,-0.48019 l 0.0394,-0.23046 c 0.017,-0.0924 0.0211,-0.1641 0.0325,-0.24758 0.0386,-0.32265 0.0542,-0.64932 0.0574,-0.97833 0.0168,-1.31793 -0.14868,-2.67675 -0.32282,-4.08785 -0.0531,-0.40294 -0.10763,-0.81192 -0.16291,-1.22374 0.91901,-0.21538 1.79545,-0.58009 2.57516,-1.10153 0.6919,-0.46562 1.31206,-1.04823 1.7936,-1.73745 0.24537,-0.3416 0.44785,-0.71335 0.61479,-1.09885 0.0861,-0.19241 0.15538,-0.39053 0.22007,-0.59048 0.0354,-0.096 0.0591,-0.21355 0.0883,-0.32032 0.0272,-0.10825 0.0566,-0.22626 0.0702,-0.30406 l 0.0524,-0.26112 0.0405,-0.34695 c 0.0191,-0.21068 0.03,-0.42288 0.0217,-0.63139 -0.005,-0.41903 -0.0579,-0.83085 -0.15185,-1.22574"
         style="fill:#31313d;fill-opacity:1;fill-rule:nonzero;stroke:none"
         id="path4714-8"
         inkscape:connector-curvature="0" />
      <text
         xml:space="preserve"
         style="font-style:normal;font-weight:normal;line-height:0%;font-family:sans-serif;letter-spacing:0px;word-spacing:0px;fill:#000000;fill-opacity:1;stroke:none;stroke-width:1px;stroke-linecap:butt;stroke-linejoin:miter;stroke-opacity:1"
         x="206.9169"
         y="624.83862"
         id="text5657"><tspan
           sodipodi:role="line"
           id="tspan5659"
           x="206.9169"
           y="624.83862"
           style="font-style:normal;font-variant:normal;font-weight:normal;font-stretch:normal;font-size:18.06956863px;line-height:1.25;font-family:'Tibetan Machine Uni';-inkscape-font-specification:'Tibetan Machine Uni'">4</tspan></text>
      <text
         xml:space="preserve"
         style="font-style:normal;font-weight:normal;line-height:0%;font-family:sans-serif;letter-spacing:0px;word-spacing:0px;fill:#000000;fill-opacity:1;stroke:none;stroke-width:1px;stroke-linecap:butt;stroke-linejoin:miter;stroke-opacity:1"
         x="207.03354"
         y="639.81793"
         id="text5657-8"><tspan
           sodipodi:role="line"
           id="tspan5659-9"
           x="207.03354"
           y="639.81793"
           style="font-style:normal;font-variant:normal;font-weight:normal;font-stretch:normal;font-size:18.06956863px;line-height:1.25;font-family:'Tibetan Machine Uni';-inkscape-font-specification:'Tibetan Machine Uni'">4</tspan></text>
      <path
         style="fill:none;fill-rule:evenodd;stroke:#000000;stroke-width:0.80098224px;stroke-linecap:butt;stroke-linejoin:miter;stroke-opacity:1"
         d="m 296.70578,608.63504 -0.0455,34.42058"
         id="path5925"
         inkscape:connector-curvature="0" />
      <path
         style="fill:none;fill-rule:evenodd;stroke:#000000;stroke-width:0.80098224px;stroke-linecap:butt;stroke-linejoin:miter;stroke-opacity:1"
         d="m 368.63082,608.44637 -0.0455,34.42059"
         id="path5925-2"
         inkscape:connector-curvature="0" />
      <path
         style="fill:none;fill-rule:evenodd;stroke:#000000;stroke-width:0.80098224px;stroke-linecap:butt;stroke-linejoin:miter;stroke-opacity:1"
         d="m 441.60582,609.07045 -0.0455,34.42059"
         id="path5925-0"
         inkscape:connector-curvature="0" />
      <path
         style="fill:none;fill-rule:evenodd;stroke:#000000;stroke-width:0.80098224px;stroke-linecap:butt;stroke-linejoin:miter;stroke-opacity:1"
         d="m 513.65586,608.84202 -0.0455,34.42059"
         id="path5925-0-0"
         inkscape:connector-curvature="0" />
      <path
         sodipodi:nodetypes="sscssscscsscssc"
         inkscape:connector-curvature="0"
         id="path6050"
         d="m 449.16202,625.39209 c -3.49708,-0.69598 -5.48033,-2.74185 -4.76351,-4.91389 0.63465,-1.923 3.63144,-3.21401 7.46301,-3.21506 5.12079,-10e-4 8.44833,2.07796 7.81535,4.88382 -0.23983,1.06321 -0.81625,1.68236 -2.1933,2.35594 -2.26487,1.10785 -5.49077,1.45255 -8.32155,0.88919 z m 4.26882,-0.43629 c 0.23812,-10e-4 0.68476,-0.27046 1.04212,-0.62783 l 0.62541,-0.62541 -0.0796,-1.37595 c -0.17765,-3.06874 -2.3282,-5.05991 -4.64066,-4.29674 -1.00954,0.33319 -1.35358,0.91548 -1.3546,2.29267 -4.5e-4,0.67155 0.13215,1.54536 0.31031,2.04398 0.5516,1.54384 2.23599,2.89407 3.3257,2.66594 0.19506,-0.0409 0.54217,-0.0754 0.77136,-0.0766 z"
         style="fill:#000000" />
      <path
         sodipodi:nodetypes="sssscccccccssssssss"
         inkscape:connector-curvature="0"
         id="path6050-3"
         d="m 309.61355,609.10849 c 1.45002,0.51266 2.1313,1.97577 1.68748,3.624 -0.41091,1.52597 -2.44193,3.12337 -4.87932,3.83757 -1.38573,0.40605 -3.67158,0.42053 -4.5661,0.0289 l -0.66497,-0.29111 v 11.51704 11.51702 h -0.44331 -0.44331 V 626.3434 613.34487 l 0.46415,-0.93142 c 1.25038,-2.5092 6.03731,-4.29778 8.84538,-3.30498 z m -2.92607,1.59528 c -1.48148,0.62307 -3.25358,1.77688 -4.21371,2.74354 -1.23212,1.24049 -1.22007,2.17155 0.0295,2.2774 1.75126,0.14835 6.36925,-2.32732 7.3741,-3.9532 0.40188,-0.65027 0.4686,-1.4307 0.13516,-1.5814 -0.47988,-0.21689 -2.23133,0.0536 -3.32505,0.51366 z"
         style="fill:#000000" />
      <path
         sodipodi:nodetypes="ssssccccccccss"
         inkscape:connector-curvature="0"
         id="path6050-7"
         d="m 233.05196,617.77359 c 0.44117,0.14177 1.05734,0.50727 1.36926,0.81223 1.12465,1.09955 0.91927,2.53127 -0.57067,3.97813 -2.19288,2.12947 -6.17539,3.11931 -8.55308,2.12584 l -0.58393,-0.24398 v 11.69436 11.69435 h -0.44664 -0.44663 l 0.0477,-13.19547 0.0477,-13.19548 0.53585,-0.76881 c 0.6907,-0.99096 2.44432,-2.16569 3.95164,-2.64714 1.51698,-0.48453 3.58072,-0.59731 4.64889,-0.25403 z"
         style="fill:#000000" />
      <path
         sodipodi:nodetypes="ssssccccccccss"
         inkscape:connector-curvature="0"
         id="path6050-7-8"
         d="m 251.82541,617.47791 c 0.44117,0.14178 1.05734,0.50729 1.36926,0.81224 1.12465,1.09956 0.91927,2.53127 -0.57067,3.97814 -2.19288,2.12946 -6.17539,3.11931 -8.55308,2.12583 l -0.58393,-0.24397 v 11.69435 11.69436 h -0.44664 -0.44663 l 0.0477,-13.19547 0.0477,-13.19548 0.53585,-0.76881 c 0.6907,-0.99096 2.44432,-2.16569 3.95164,-2.64714 1.51698,-0.48454 3.58072,-0.59731 4.64889,-0.25405 z"
         style="fill:#000000" />
      <path
         sodipodi:nodetypes="ssssccccccccss"
         inkscape:connector-curvature="0"
         id="path6050-7-8-8"
         d="m 270.05953,617.34411 c 0.44117,0.14178 1.05734,0.50728 1.36926,0.81224 1.12465,1.09955 0.91927,2.53126 -0.57068,3.97812 -2.19287,2.12948 -6.17538,3.11932 -8.55308,2.12584 l -0.58392,-0.24397 v 11.69436 11.69435 h -0.44664 -0.44663 l 0.0477,-13.19548 0.0477,-13.19547 0.53585,-0.76881 c 0.6907,-0.99097 2.44432,-2.16569 3.95164,-2.64714 1.51698,-0.48454 3.58072,-0.59731 4.64889,-0.25404 z"
         style="fill:#000000" />
      <path
         sodipodi:nodetypes="ssssccccccccss"
         inkscape:connector-curvature="0"
         id="path6050-7-8-8-6"
         d="m 288.56124,613.68945 c 0.44118,0.14177 1.05735,0.50727 1.36926,0.81224 1.12465,1.09955 0.91927,2.53126 -0.57067,3.97812 -2.19288,2.12948 -6.17538,3.11931 -8.55307,2.12585 l -0.58393,-0.24399 v 11.69437 11.69435 h -0.44664 -0.44663 l 0.0477,-13.19548 0.0477,-13.19547 0.53585,-0.76882 c 0.6907,-0.99096 2.44432,-2.16568 3.95164,-2.64713 1.51698,-0.48453 3.58071,-0.59732 4.64888,-0.25404 z"
         style="fill:#000000" />
      <path
         sodipodi:nodetypes="sssscccccccssssssss"
         inkscape:connector-curvature="0"
         id="path6050-3-0"
         d="m 343.64685,613.47039 c 1.45001,0.51266 2.1313,1.97577 1.68747,3.624 -0.4109,1.52597 -2.44192,3.12337 -4.87931,3.83757 -1.38572,0.40605 -3.67159,0.42053 -4.5661,0.0289 l -0.66497,-0.29111 v 11.51704 11.51702 h -0.4433 -0.44332 V 630.7053 617.70677 l 0.46415,-0.93142 c 1.25038,-2.5092 6.03732,-4.29778 8.84538,-3.30498 z m -2.92608,1.59528 c -1.48147,0.62307 -3.25357,1.77688 -4.21371,2.74354 -1.23211,1.24049 -1.22006,2.17155 0.0295,2.2774 1.75125,0.14835 6.36925,-2.32732 7.3741,-3.9532 0.40189,-0.65027 0.4686,-1.4307 0.13516,-1.5814 -0.47988,-0.21689 -2.23133,0.0536 -3.32505,0.51366 z"
         style="fill:#000000" />
      <path
         sodipodi:nodetypes="ssssccccccccss"
         inkscape:connector-curvature="0"
         id="path6050-7-4"
         d="m 380.61475,618.02936 c 0.44117,0.14178 1.05735,0.50728 1.36926,0.81224 1.12465,1.09955 0.91928,2.53126 -0.57067,3.97812 -2.19288,2.12948 -6.17538,3.11932 -8.55308,2.12584 l -0.58392,-0.24397 v 11.69436 11.69435 h -0.44664 -0.44664 l 0.0476,-13.19548 0.0476,-13.19547 0.53586,-0.76881 c 0.6907,-0.99097 2.44432,-2.16569 3.95164,-2.64714 1.51698,-0.48454 3.58071,-0.59731 4.64889,-0.25404 z"
         style="fill:#000000" />
      <path
         sodipodi:nodetypes="ssssccccccccss"
         inkscape:connector-curvature="0"
         id="path6050-7-4-6"
         d="m 398.42949,609.12112 c 0.44117,0.14178 1.05735,0.50728 1.36926,0.81224 1.12465,1.09955 0.91926,2.53126 -0.57068,3.97813 -2.19287,2.12947 -6.17537,3.11931 -8.55307,2.12585 l -0.58394,-0.24399 v 11.69436 11.69435 h -0.44662 -0.44664 l 0.0476,-13.19547 0.0476,-13.19548 0.53585,-0.76881 c 0.6907,-0.99096 2.44432,-2.16569 3.95164,-2.64714 1.51698,-0.48452 3.58072,-0.59731 4.64888,-0.25404 z"
         style="fill:#000000" />
      <path
         sodipodi:nodetypes="ssssccccccccss"
         inkscape:connector-curvature="0"
         id="path6050-7-4-6-7"
         d="m 414.87546,612.77579 c 0.44118,0.14177 1.05734,0.50727 1.36926,0.81223 1.12465,1.09955 0.91927,2.53127 -0.57067,3.97813 -2.19288,2.12947 -6.17539,3.11931 -8.55308,2.12584 l -0.58393,-0.24398 v 11.69436 11.69435 h -0.44663 -0.44664 l 0.0476,-13.19547 0.0476,-13.19548 0.53585,-0.76881 c 0.6907,-0.99096 2.44433,-2.16569 3.95164,-2.64714 1.51699,-0.48453 3.58073,-0.59731 4.64889,-0.25403 z"
         style="fill:#000000" />
      <path
         sodipodi:nodetypes="ssssccccccccss"
         inkscape:connector-curvature="0"
         id="path6050-7-4-6-7-6"
         d="m 433.6056,612.77579 c 0.44117,0.14177 1.05735,0.50727 1.36926,0.81223 1.12465,1.09955 0.91926,2.53127 -0.57067,3.97813 -2.19288,2.12947 -6.17538,3.11931 -8.55308,2.12584 l -0.58392,-0.24398 v 11.69436 11.69435 h -0.44664 -0.44664 l 0.0476,-13.19547 0.0476,-13.19548 0.53585,-0.76881 c 0.6907,-0.99096 2.44433,-2.16569 3.95165,-2.64714 1.51698,-0.48453 3.58071,-0.59731 4.64889,-0.25403 z"
         style="fill:#000000" />
    </g>
  </g>
</svg>
