<?xml version="1.0" encoding="UTF-8" standalone="no"?>
<!-- Created with Inkscape (http://www.inkscape.org/) -->

<svg
   xmlns:dc="http://purl.org/dc/elements/1.1/"
   xmlns:cc="http://creativecommons.org/ns#"
   xmlns:rdf="http://www.w3.org/1999/02/22-rdf-syntax-ns#"
   xmlns:svg="http://www.w3.org/2000/svg"
   xmlns="http://www.w3.org/2000/svg"
   xmlns:sodipodi="http://sodipodi.sourceforge.net/DTD/sodipodi-0.dtd"
   xmlns:inkscape="http://www.inkscape.org/namespaces/inkscape"
   width="210mm"
   height="297mm"
   viewBox="0 0 744.09448819 1052.3622047"
   id="svg4393"
   version="1.1"
   inkscape:version="0.91 r13725"
   sodipodi:docname="spatial_cues_2.svg">
  <sodipodi:namedview
     id="base"
     pagecolor="#ffffff"
     bordercolor="#666666"
     borderopacity="1.0"
     inkscape:pageopacity="0.0"
     inkscape:pageshadow="2"
     inkscape:zoom="4.5514475"
     inkscape:cx="283.55753"
     inkscape:cy="482.34946"
     inkscape:document-units="px"
     inkscape:current-layer="layer1"
     showgrid="false"
     inkscape:window-width="2560"
     inkscape:window-height="1303"
     inkscape:window-x="0"
     inkscape:window-y="1"
     inkscape:window-maximized="1" />
  <defs
     id="defs4395" />
  <metadata
     id="metadata4398">
    <rdf:RDF>
      <cc:Work
         rdf:about="">
        <dc:format>image/svg+xml</dc:format>
        <dc:type
           rdf:resource="http://purl.org/dc/dcmitype/StillImage" />
        <dc:title />
      </cc:Work>
    </rdf:RDF>
  </metadata>
  <g
     id="layer1"
     inkscape:groupmode="layer"
     inkscape:label="Calque 1">
    <path
       sodipodi:nodetypes="csscscccccccsccccccccccccc"
       inkscape:connector-curvature="0"
       id="path4420"
       d="m 308.70458,560.85315 c 0.095,-0.12368 0.19027,-0.19517 0.50282,-0.37748 0.45036,-0.26272 3.32728,-1.87568 6.71996,-3.76763 l 2.3919,-1.33384 1.27426,-3.46481 c 0.70609,-1.91985 1.30656,-3.5187 1.34668,-3.58565 0.18494,-0.30871 0.51952,-0.51346 0.90976,-0.55682 l 0.24661,-0.0275 4.57874,1.66305 4.57873,1.66307 0.13491,0.1213 c 0.26281,0.23622 0.40818,0.56319 0.41265,0.92814 0.002,0.17717 0.002,0.17774 -1.28744,3.75501 l -1.28964,3.57782 0.49705,1.29987 c 2.05672,5.37902 3.16168,8.27718 3.22379,8.45552 0.0405,0.11471 0.0798,0.28862 0.0887,0.38601 0.0139,0.15447 0.003,0.21219 -0.0854,0.4515 -0.0806,0.2184 -0.12585,0.3022 -0.22166,0.41068 -0.17607,0.19935 -0.48192,0.34711 -0.78918,0.38125 l -0.24617,0.0274 -11.35534,-4.12441 -11.35534,-4.12444 -0.17253,-0.17879 c -0.43187,-0.44742 -0.47458,-1.09677 -0.10378,-1.57931 z"
       style="fill:#000000" />
    <path
       sodipodi:nodetypes="cccccccccccccscccccccccccccccccccccccccccccccccccccc"
       inkscape:connector-curvature="0"
       style="fill:#80b2fe;fill-opacity:1"
       id="path3470-5"
       d="m 250.5749,663.66554 0,-1.93912 1.59161,-0.0262 1.59158,-0.0261 0.0295,-1.66725 c 0.0326,-1.84974 0.0981,-1.6864 -0.73088,-1.82976 -1.14261,-0.19758 -2.93067,-0.90239 -4.26022,-1.67923 -0.90166,-0.52654 -2.87888,-2.27576 -3.42148,-3.02705 -0.60518,-0.83746 -1.33537,-2.20847 -1.62882,-3.05782 -0.48075,-1.39168 -0.56019,-2.0649 -0.56152,-4.75705 -0.002,-2.43935 0.007,-2.53791 0.24367,-2.93664 0.80881,-1.36215 3.10316,-1.29169 3.81452,0.11664 0.17115,0.33923 0.19852,0.66251 0.2009,2.38269 0.002,2.24223 0.16856,3.44393 0.61337,4.45614 1.13174,2.57531 3.50633,4.34334 6.45633,4.80731 1.27084,0.19994 1.86414,0.19277 3.13005,-0.0354 3.46175,-0.62656 6.12363,-3.10901 6.68748,-6.23702 0.10856,-0.60156 0.16283,-1.59305 0.1633,-2.96997 3.7e-4,-1.84039 0.0238,-2.1063 0.20569,-2.4272 0.77027,-1.35119 2.78699,-1.46308 3.73318,-0.2071 l 0.32374,0.42968 0.0341,2.30247 c 0.029,1.97133 0.002,2.471 -0.18734,3.4744 -0.5652,2.994 -2.14692,5.36692 -4.89814,7.34897 -1.05951,0.76325 -3.5162,1.79062 -4.82193,2.01654 -0.82877,0.14285 -0.76356,-0.0236 -0.73085,1.82992 l 0.0295,1.66734 1.59159,0.0261 1.59158,0.0262 0,1.93921 0,1.93896 -5.39522,0 -5.39524,0 0,-1.93896 z m 4.46588,-11.84129 c -2.47872,-0.34971 -4.46936,-1.88561 -5.29048,-4.08262 l -0.3084,-0.82534 0,-7.66939 0,-7.66941 0.29845,-0.74963 c 0.83252,-2.09178 2.4945,-3.48797 4.76877,-4.00621 2.58407,-0.58919 5.65071,0.58251 7.0179,2.68144 0.20592,0.31613 0.50877,0.91222 0.67291,1.32477 l 0.29845,0.74963 0,7.66941 0,7.66939 -0.25606,0.67965 c -0.42535,1.12886 -0.87549,1.79636 -1.7391,2.57834 -0.84968,0.76967 -1.64501,1.18962 -2.81775,1.48789 -0.7424,0.18805 -1.93578,0.26184 -2.64469,0.16183 z" />
    <path
       sodipodi:nodetypes="cccccccccccccscccccccccccccccccccccccccccccccccccccc"
       inkscape:connector-curvature="0"
       style="fill:#80b2fe;fill-opacity:1"
       id="path3470"
       d="m 359.83326,663.6655 0,-1.93912 1.59162,-0.0262 1.59158,-0.0261 0.0295,-1.66725 c 0.0326,-1.84974 0.0981,-1.6864 -0.73088,-1.82976 -1.14261,-0.19758 -2.93067,-0.90239 -4.26022,-1.67923 -0.90166,-0.52654 -2.87888,-2.27576 -3.42148,-3.02705 -0.60518,-0.83746 -1.33537,-2.20847 -1.62882,-3.05782 -0.48075,-1.39168 -0.56019,-2.0649 -0.56152,-4.75705 -0.002,-2.43935 0.007,-2.53791 0.24367,-2.93664 0.80881,-1.36215 3.10316,-1.29169 3.81452,0.11664 0.17115,0.33923 0.19852,0.66251 0.2009,2.38269 0.002,2.24223 0.16856,3.44393 0.61337,4.45614 1.13174,2.57531 3.50633,4.34334 6.45633,4.80731 1.27083,0.19994 1.86413,0.19277 3.13005,-0.0354 3.46175,-0.62656 6.12363,-3.10901 6.68748,-6.23702 0.10856,-0.60156 0.16283,-1.59305 0.1633,-2.96997 3.7e-4,-1.84039 0.0238,-2.1063 0.20569,-2.4272 0.77027,-1.35119 2.78699,-1.46308 3.73318,-0.2071 l 0.32374,0.42968 0.0341,2.30247 c 0.029,1.97133 0.002,2.471 -0.18734,3.4744 -0.5652,2.994 -2.14693,5.36692 -4.89814,7.34897 -1.05951,0.76325 -3.51621,1.79062 -4.82194,2.01654 -0.82876,0.14285 -0.76355,-0.0236 -0.73084,1.82992 l 0.0295,1.66734 1.59158,0.0261 1.59159,0.0262 0,1.93921 0,1.93896 -5.39522,0 -5.39524,0 0,-1.93896 z m 4.46589,-11.84129 c -2.47872,-0.34971 -4.46936,-1.88561 -5.29048,-4.08262 l -0.3084,-0.82534 0,-7.66939 0,-7.66941 0.29845,-0.74963 c 0.83252,-2.09178 2.4945,-3.48797 4.76877,-4.00621 2.58406,-0.58919 5.65071,0.58251 7.01789,2.68144 0.20593,0.31613 0.50877,0.91222 0.67292,1.32477 l 0.29845,0.74963 0,7.66941 0,7.66939 -0.25606,0.67965 c -0.42535,1.12886 -0.87549,1.79636 -1.7391,2.57834 -0.84969,0.76967 -1.64501,1.18962 -2.81775,1.48789 -0.7424,0.18805 -1.93579,0.26184 -2.64469,0.16183 z" />
    <g
       id="g5689"
       transform="matrix(0.78020037,0,0,0.7793585,54.596099,142.45639)">
      <path
         style="fill:none;fill-rule:evenodd;stroke:#000000;stroke-width:1.28241408px;stroke-linecap:butt;stroke-linejoin:miter;stroke-opacity:1"
         d="m 248.53128,540.32154 c 14.73648,82.37457 104.24393,117.75683 167.49928,55.10574"
         id="path4990-1-0"
         inkscape:connector-curvature="0"
         sodipodi:nodetypes="cc" />
      <path
         style="fill:none;fill-rule:evenodd;stroke:#000000;stroke-width:1.28241408px;stroke-linecap:butt;stroke-linejoin:miter;stroke-opacity:1"
         d="m 270.57214,540.48212 c 11.17833,62.40807 79.07406,89.21415 127.05629,41.74884"
         id="path4990-1-0-5"
         inkscape:connector-curvature="0"
         sodipodi:nodetypes="cc" />
      <path
         style="fill:none;fill-rule:evenodd;stroke:#000000;stroke-width:1.28241408px;stroke-linecap:butt;stroke-linejoin:miter;stroke-opacity:1"
         d="m 290.78593,540.3326 c 7.85999,43.78718 55.60059,62.59505 89.3391,29.29211"
         id="path4990-1-0-5-1"
         inkscape:connector-curvature="0"
         sodipodi:nodetypes="cc" />
      <path
         style="fill:none;fill-rule:evenodd;stroke:#000000;stroke-width:1.28241408px;stroke-linecap:butt;stroke-linejoin:miter;stroke-opacity:1"
         d="m 310.98933,539.84748 c 4.9006,27.18015 34.66625,38.85482 55.70178,18.18258"
         id="path4990-1-0-5-1-1"
         inkscape:connector-curvature="0"
         sodipodi:nodetypes="cc" />
    </g>
  </g>
</svg>
