<?xml version="1.0" encoding="UTF-8" standalone="no"?>
<!-- Created with matplotlib (https://matplotlib.org/) -->

<svg
   xmlns:dc="http://purl.org/dc/elements/1.1/"
   xmlns:cc="http://creativecommons.org/ns#"
   xmlns:rdf="http://www.w3.org/1999/02/22-rdf-syntax-ns#"
   xmlns:svg="http://www.w3.org/2000/svg"
   xmlns="http://www.w3.org/2000/svg"
   xmlns:sodipodi="http://sodipodi.sourceforge.net/DTD/sodipodi-0.dtd"
   xmlns:inkscape="http://www.inkscape.org/namespaces/inkscape"
   height="324.72pt"
   version="1.1"
   viewBox="0 0 463.67999 324.72001"
   width="463.67999pt"
   id="svg605"
   sodipodi:docname="synthesis.svg"
   inkscape:version="0.92.3 (2405546, 2018-03-11)">
  <metadata
     id="metadata609">
    <rdf:RDF>
      <cc:Work
         rdf:about="">
        <dc:format>image/svg+xml</dc:format>
        <dc:type
           rdf:resource="http://purl.org/dc/dcmitype/StillImage" />
        <dc:title></dc:title>
      </cc:Work>
    </rdf:RDF>
  </metadata>
  <sodipodi:namedview
     pagecolor="#ffffff"
     bordercolor="#666666"
     borderopacity="1"
     objecttolerance="10"
     gridtolerance="10"
     guidetolerance="10"
     inkscape:pageopacity="0"
     inkscape:pageshadow="2"
     inkscape:window-width="1920"
     inkscape:window-height="958"
     id="namedview607"
     showgrid="false"
     inkscape:zoom="1.079692"
     inkscape:cx="338.34048"
     inkscape:cy="270.39562"
     inkscape:window-x="0"
     inkscape:window-y="34"
     inkscape:window-maximized="1"
     inkscape:current-layer="figure_1" />
  <defs
     id="defs4"
     style="white-space:pre;stroke-linecap:butt;stroke-linejoin:round">
    <marker
       inkscape:stockid="TriangleOutL"
       orient="auto"
       refY="0.0"
       refX="0.0"
       id="TriangleOutL"
       style="overflow:visible"
       inkscape:isstock="true">
      <path
         id="path1778"
         d="M 5.77,0.0 L -2.88,5.0 L -2.88,-5.0 L 5.77,0.0 z "
         style="fill-rule:evenodd;stroke:#000000;stroke-width:1pt;stroke-opacity:1;fill:#000000;fill-opacity:1"
         transform="scale(0.8)" />
    </marker>
    <style
       type="text/css"
       id="style2">
*{stroke-linecap:butt;stroke-linejoin:round;white-space:pre;}
  </style>
    <marker
       inkscape:stockid="TriangleOutL"
       orient="auto"
       refY="0"
       refX="0"
       id="TriangleOutL-3"
       style="overflow:visible"
       inkscape:isstock="true">
      <path
         inkscape:connector-curvature="0"
         id="path1778-6"
         d="M 5.77,0 -2.88,5 V -5 Z"
         style="fill:#000000;fill-opacity:1;fill-rule:evenodd;stroke:#000000;stroke-width:1.00000003pt;stroke-opacity:1"
         transform="scale(0.8)" />
    </marker>
    <marker
       inkscape:stockid="TriangleOutL"
       orient="auto"
       refY="0"
       refX="0"
       id="TriangleOutL-5"
       style="overflow:visible"
       inkscape:isstock="true">
      <path
         inkscape:connector-curvature="0"
         id="path1778-3"
         d="M 5.77,0 -2.88,5 V -5 Z"
         style="fill:#000000;fill-opacity:1;fill-rule:evenodd;stroke:#000000;stroke-width:1.00000003pt;stroke-opacity:1"
         transform="scale(0.8)" />
    </marker>
    <marker
       inkscape:stockid="TriangleOutL"
       orient="auto"
       refY="0"
       refX="0"
       id="TriangleOutL-5-6"
       style="overflow:visible"
       inkscape:isstock="true">
      <path
         inkscape:connector-curvature="0"
         id="path1778-3-2"
         d="M 5.77,0 -2.88,5 V -5 Z"
         style="fill:#000000;fill-opacity:1;fill-rule:evenodd;stroke:#000000;stroke-width:1.00000003pt;stroke-opacity:1"
         transform="scale(0.8)" />
    </marker>
  </defs>
  <g
     id="figure_1"
     style="white-space:pre;stroke-linecap:butt;stroke-linejoin:round"
     transform="translate(0,-138.95999)">
    <g
       id="patch_1"
       style="white-space:pre;stroke-linecap:butt;stroke-linejoin:round" />
    <g
       id="axes_1"
       transform="matrix(0.63023477,0,0,0.6311964,-267.57445,279.77487)"
       style="white-space:pre;stroke:#000000;stroke-width:1.58550119;stroke-linecap:butt;stroke-linejoin:round"
       inkscape:export-xdpi="600"
       inkscape:export-ydpi="600">
      <g
         id="line2d_10"
         transform="translate(429.98372,-168.79813)"
         style="white-space:pre;stroke:#000000;stroke-width:1.58550119;stroke-linecap:butt;stroke-linejoin:round">
        <path
           clip-path="url(#pf4c31e8e7f)"
           d="m 52.029,94.4496 4.485882,-10.90212 2.69153,-6.09415 2.691529,-5.492048 1.794353,-3.229695 1.794353,-2.824107 1.794353,-2.37398 1.794353,-1.886414 1.794353,-1.3691 0.897176,-0.48348 0.897177,-0.346713 0.897176,-0.208576 0.897177,-0.06962 0.897176,0.06962 0.897177,0.208576 0.897176,0.346713 0.897177,0.48348 1.794353,1.3691 1.794353,1.886414 1.794352,2.37398 1.794353,2.824107 1.794353,3.229695 2.69153,5.492048 2.691529,6.09415 4.485883,10.90212 4.485886,10.90212 2.69153,6.09415 2.69153,5.49205 1.79435,3.22969 1.79435,2.82411 1.79435,2.37398 1.79436,1.88641 1.79435,1.3691 0.89718,0.48348 0.89717,0.34672 0.89718,0.20857 0.89717,0.0696 0.89718,-0.0696 0.89718,-0.20857 0.89717,-0.34672 0.89718,-0.48348 1.79435,-1.3691 1.79436,-1.88641 1.79435,-2.37398 1.79435,-2.82411 1.79436,-3.22969 2.69152,-5.49205 2.69153,-6.09415 4.48589,-10.90212 4.48588,-10.90212 2.69153,-6.09415 2.69153,-5.492048 1.79435,-3.229695 1.79435,-2.824107 1.79436,-2.37398 1.79435,-1.886414 1.79435,-1.3691 0.89718,-0.48348 0.89718,-0.346713 0.89717,-0.208576 0.89718,-0.06962 0.89717,0.06962 0.89718,0.208576 0.89718,0.346713 0.89717,0.48348 1.79436,1.3691 1.79435,1.886414 1.79435,2.37398 1.79436,2.824107 1.79435,3.229695 2.69153,5.492048 2.69153,6.09415 4.48588,10.90212 4.48588,10.90212 2.69153,6.09415 2.69153,5.49205 1.79435,3.22969 1.79436,2.82411 1.79435,2.37398 1.79435,1.88641 1.79436,1.3691 0.89717,0.48348 0.89718,0.34672 0.89718,0.20857 0.89717,0.0696 0.89718,-0.0696 0.89717,-0.20857 0.89718,-0.34672 0.89718,-0.48348 1.79435,-1.3691 1.79435,-1.88641 1.79436,-2.37398 1.79435,-2.82411 1.79435,-3.22969 2.69153,-5.49205 2.69153,-6.09415 4.48588,-10.90212 4.48589,-10.90212 2.69153,-6.09415 2.69152,-5.492048 1.79436,-3.229695 1.79435,-2.824107 1.79435,-2.37398 1.79436,-1.886414 1.79435,-1.3691 0.89718,-0.48348 0.89717,-0.346713 0.89718,-0.208576 0.89718,-0.06962 0.89717,0.06962 0.89718,0.208576 0.89717,0.346713 0.89718,0.48348 1.79435,1.3691 1.79436,1.886414 1.79435,2.37398 1.79435,2.824107 1.79436,3.229695 2.69153,5.492048 2.69153,6.09415 4.48588,10.90212 4.48588,10.90212 v 0"
           style="white-space:pre;fill:none;stroke:#000000;stroke-width:2.37825179;stroke-linecap:square;stroke-linejoin:round"
           id="path154"
           inkscape:connector-curvature="0" />
      </g>
    </g>
    <g
       id="axes_2"
       transform="translate(-34.682117,96.555312)"
       style="white-space:pre;stroke-linecap:butt;stroke-linejoin:round"
       inkscape:export-xdpi="600"
       inkscape:export-ydpi="600">
      <g
         id="line2d_20"
         transform="matrix(0.63023477,0,0,0.6311964,-229.08697,172.35706)"
         style="white-space:pre;stroke:#000000;stroke-width:1.58550119;stroke-linecap:butt;stroke-linejoin:round">
        <path
           clip-path="url(#pa264131c76)"
           d="m 52.029,187.5888 1.794353,-17.02987 0.897176,-7.1687 0.897177,-5.64822 0.897176,-3.77283 0.897177,-1.66038 0.897176,0.55639 0.897177,2.7382 0.897176,4.74796 0.897177,6.45939 1.794353,16.34756 1.794353,17.44361 0.897176,7.76495 0.897177,6.45939 0.897176,4.74796 0.897176,2.7382 0.897177,0.55639 0.897176,-1.66039 0.897177,-3.77283 0.897176,-5.64821 0.897177,-7.1687 1.794353,-17.02987 1.794353,-17.02987 0.897176,-7.1687 0.897177,-5.64822 0.897176,-3.77283 0.897177,-1.66038 0.897176,0.55639 0.897177,2.7382 0.897176,4.74796 0.897176,6.45939 1.794353,16.34756 1.794353,17.44361 0.897177,7.76495 0.897176,6.45939 0.897177,4.74796 0.897176,2.7382 0.897177,0.55639 0.897176,-1.66039 0.897177,-3.77283 0.897176,-5.64821 0.897177,-7.1687 1.794353,-17.02987 1.794352,-17.02987 0.897177,-7.1687 0.897177,-5.64822 0.89718,-3.77283 0.89717,-1.66038 0.89718,0.55639 0.89718,2.7382 0.89717,4.74796 0.89718,6.45939 1.79435,16.34756 1.79435,17.44361 0.89718,7.76495 0.89718,6.45939 0.89717,4.74796 0.89718,2.7382 0.89718,0.55639 0.89717,-1.66039 0.89718,-3.77283 0.89718,-5.64821 0.89717,-7.1687 1.79435,-17.02987 1.79436,-17.02987 0.89717,-7.1687 0.89718,-5.64822 0.89718,-3.77283 0.89717,-1.66038 0.89718,0.55639 0.89718,2.7382 0.89717,4.74796 0.89718,6.45939 1.79435,16.34756 1.79436,17.44361 0.89717,7.76495 0.89718,6.45939 0.89717,4.74796 0.89718,2.7382 0.89718,0.55639 0.89717,-1.66039 0.89718,-3.77283 0.89718,-5.64821 0.89717,-7.1687 1.79436,-17.02987 1.79435,-17.02987 0.89718,-7.1687 0.89717,-5.64822 0.89718,-3.77283 0.89718,-1.66038 0.89717,0.55639 0.89718,2.7382 0.89717,4.74796 0.89718,6.45939 1.79435,16.34756 1.79436,17.44361 0.89717,7.76495 0.89718,6.45939 0.89718,4.74796 0.89717,2.7382 0.89718,0.55639 0.89718,-1.66039 0.89717,-3.77283 0.89718,-5.64821 0.89718,-7.1687 1.79435,-17.02987 1.79435,-17.02987 0.89718,-7.1687 0.89717,-5.64822 0.89718,-3.77283 0.89718,-1.66038 0.89717,0.55639 0.89718,2.7382 0.89718,4.74796 0.89717,6.45939 1.79436,16.34756 1.79435,17.44361 0.89718,7.76495 0.89717,6.45939 0.89718,4.74796 0.89717,2.7382 0.89718,0.55639 0.89718,-1.66039 0.89717,-3.77283 0.89718,-5.64821 0.89718,-7.1687 1.79435,-17.02987 1.79435,-17.02987 0.89718,-7.1687 0.89718,-5.64822 0.89717,-3.77283 0.89718,-1.66038 0.89718,0.55639 0.89717,2.7382 0.89718,4.74796 0.89717,6.45939 1.79436,16.34756 1.79435,17.44361 0.89718,7.76495 0.89717,6.45939 0.89718,4.74796 0.89718,2.7382 0.89717,0.55639 0.89718,-1.66039 0.89718,-3.77283 0.89717,-5.64821 0.89718,-7.1687 1.79435,-17.02987 1.79435,-17.02987 0.89718,-7.1687 0.89718,-5.64822 0.89717,-3.77283 0.89718,-1.66038 0.89718,0.55639 0.89717,2.7382 0.89718,4.74796 0.89718,6.45939 1.79435,16.34756 1.79435,17.44361 0.89718,7.76495 0.89718,6.45939 0.89717,4.74796 0.89718,2.7382 0.89717,0.55639 0.89718,-1.66039 0.89718,-3.77283 0.89717,-5.64821 0.89718,-7.1687 1.79435,-17.02987 1.79436,-17.02987 0.89717,-7.1687 0.89718,-5.64822 0.89718,-3.77283 0.89717,-1.66038 0.89718,0.55639 0.89718,2.7382 0.89717,4.74796 0.89718,6.45939 1.79435,16.34756 1.79435,17.44361 0.89718,7.76495 0.89718,6.45939 0.89717,4.74796 0.89718,2.7382 0.89718,0.55639 0.89717,-1.66039 0.89718,-3.77283 0.89718,-5.64821 0.89717,-7.1687 1.79436,-17.02987 1.79435,-17.02987 0.89717,-7.1687 0.89718,-5.64822 0.89718,-3.77283 0.89717,-1.66038 0.89718,0.55639 0.89718,2.7382 0.89717,4.74796 0.89718,6.45939 1.79435,16.34756 1.79436,17.44361 0.89717,7.76495 0.89718,6.45939 0.89718,4.74796 0.89717,2.7382 0.89718,0.55639 0.89718,-1.66039 0.89717,-3.77283 0.89718,-5.64821 0.89718,-7.1687 1.79435,-17.02987 1.79435,-17.02987 0.89718,-7.1687 0.89717,-5.64822 0.89718,-3.77283 v 0"
           style="white-space:pre;fill:none;stroke:#000000;stroke-width:2.37825179;stroke-linecap:square;stroke-linejoin:round"
           id="path294"
           inkscape:connector-curvature="0"
           transform="translate(429.28908,-137.53922)" />
      </g>
    </g>
    <g
       id="axes_3"
       transform="matrix(0.63023477,0,0,0.6311964,-267.35302,280.7213)"
       style="white-space:pre;stroke:#000000;stroke-width:1.58550119;stroke-linecap:butt;stroke-linejoin:round"
       inkscape:export-xdpi="600"
       inkscape:export-ydpi="600">
      <g
         id="line2d_30"
         style="white-space:pre;stroke:#000000;stroke-width:2.51381397;stroke-linecap:butt;stroke-linejoin:round">
        <path
           clip-path="url(#pe62caba247)"
           d="m 52.029,280.728 0.897176,-17.02987 0.897177,-12.81692 0.897176,-5.43321 0.897177,3.29459 0.897176,11.20735 2.69153,48.01551 0.897176,7.48616 0.897177,-1.10399 0.897176,-9.42105 0.897177,-15.40744 1.794353,-32.9897 0.897176,-9.42105 0.897177,-1.10399 0.897176,7.48616 0.897176,14.22434 1.794353,33.79117 0.897177,11.20735 0.897176,3.29459 0.897177,-5.43321 0.897176,-12.81692 1.794353,-34.05974 0.897177,-12.81692 0.897176,-5.43321 0.897177,3.29459 0.897176,11.20735 2.69153,48.01551 0.897176,7.48616 0.897176,-1.10399 0.897177,-9.42105 0.897176,-15.40744 1.794353,-32.9897 0.897177,-9.42105 0.897176,-1.10399 0.897177,7.48616 0.897176,14.22434 1.794353,33.79117 0.897177,11.20735 0.897176,3.29459 0.897177,-5.43321 0.897176,-12.81692 1.794353,-34.05974 0.897176,-12.81692 0.897177,-5.43321 0.897177,3.29459 0.89718,11.20735 2.69153,48.01551 0.89717,7.48616 0.89718,-1.10399 0.89718,-9.42105 0.89717,-15.40744 1.79435,-32.9897 0.89718,-9.42105 0.89718,-1.10399 0.89717,7.48616 0.89718,14.22434 1.79435,33.79117 0.89718,11.20735 0.89718,3.29459 0.89717,-5.43321 0.89718,-12.81692 1.79435,-34.05974 0.89718,-12.81692 0.89717,-5.43321 0.89718,3.29459 0.89718,11.20735 2.69153,48.01551 0.89717,7.48616 0.89718,-1.10399 0.89718,-9.42105 0.89717,-15.40744 1.79436,-32.9897 0.89717,-9.42105 0.89718,-1.10399 0.89717,7.48616 0.89718,14.22434 1.79435,33.79117 0.89718,11.20735 0.89718,3.29459 0.89717,-5.43321 0.89718,-12.81692 1.79435,-34.05974 0.89718,-12.81692 0.89718,-5.43321 0.89717,3.29459 0.89718,11.20735 2.69153,48.01551 0.89717,7.48616 0.89718,-1.10399 0.89718,-9.42105 0.89717,-15.40744 1.79436,-32.9897 0.89717,-9.42105 0.89718,-1.10399 0.89718,7.48616 0.89717,14.22434 1.79436,33.79117 0.89717,11.20735 0.89718,3.29459 0.89718,-5.43321 0.89717,-12.81692 1.79435,-34.05974 0.89718,-12.81692 0.89718,-5.43321 0.89717,3.29459 0.89718,11.20735 2.69153,48.01551 0.89718,7.48616 0.89717,-1.10399 0.89718,-9.42105 0.89718,-15.40744 1.79435,-32.9897 0.89718,-9.42105 0.89717,-1.10399 0.89718,7.48616 0.89717,14.22434 1.79436,33.79117 0.89717,11.20735 0.89718,3.29459 0.89718,-5.43321 0.89717,-12.81692 1.79436,-34.05974 0.89717,-12.81692 0.89718,-5.43321 0.89718,3.29459 0.89717,11.20735 2.69153,48.01551 0.89718,7.48616 0.89717,-1.10399 0.89718,-9.42105 0.89718,-15.40744 1.79435,-32.9897 0.89718,-9.42105 0.89717,-1.10399 0.89718,7.48616 0.89718,14.22434 1.79435,33.79117 0.89718,11.20735 0.89717,3.29459 0.89718,-5.43321 0.89718,-12.81692 1.79435,-34.05974 0.89717,-12.81692 0.89718,-5.43321 0.89718,3.29459 0.89717,11.20735 2.69153,48.01551 0.89718,7.48616 0.89718,-1.10399 0.89717,-9.42105 0.89718,-15.40744 1.79435,-32.9897 0.89718,-9.42105 0.89718,-1.10399 0.89717,7.48616 0.89718,14.22434 1.79435,33.79117 0.89718,11.20735 0.89717,3.29459 0.89718,-5.43321 0.89718,-12.81692 1.79435,-34.05974 0.89718,-12.81692 0.89717,-5.43321 0.89718,3.29459 0.89718,11.20735 2.69153,48.01551 0.89717,7.48616 0.89718,-1.10399 0.89717,-9.42105 0.89718,-15.40744 1.79435,-32.9897 0.89718,-9.42105 0.89718,-1.10399 0.89717,7.48616 0.89718,14.22434 1.79435,33.79117 0.89718,11.20735 0.89718,3.29459 0.89717,-5.43321 0.89718,-12.81692 1.79435,-34.05974 0.89718,-12.81692 0.89717,-5.43321 0.89718,3.29459 0.89718,11.20735 2.69153,48.01551 0.89717,7.48616 0.89718,-1.10399 0.89718,-9.42105 0.89717,-15.40744 1.79436,-32.9897 0.89717,-9.42105 0.89718,-1.10399 0.89718,7.48616 0.89717,14.22434 1.79436,33.79117 0.89717,11.20735 0.89718,3.29459 0.89718,-5.43321 0.89717,-12.81692 1.79435,-34.05974 0.89718,-12.81692 0.89718,-5.43321 0.89717,3.29459 0.89718,11.20735 v 0"
           style="white-space:pre;fill:none;stroke:#000000;stroke-width:2.37825179;stroke-linecap:square;stroke-linejoin:round"
           id="path434"
           inkscape:connector-curvature="0"
           transform="translate(436.23551,-131.98208)" />
      </g>
    </g>
    <g
       id="axes_4"
       transform="matrix(0.63023477,0,0,0.6311964,-5.7713753,146.0696)"
       style="white-space:pre;stroke:#000000;stroke-width:1.58550119;stroke-linecap:butt;stroke-linejoin:round"
       inkscape:export-xdpi="600"
       inkscape:export-ydpi="600">
      <g
         id="line2d_40"
         style="white-space:pre;stroke:#000000;stroke-width:2.51381397;stroke-linecap:butt;stroke-linejoin:round">
        <path
           clip-path="url(#p928abaac1e)"
           d="m 52.029,373.8672 0.897176,-8.45827 0.897177,-7.24092 0.897176,-5.06757 0.897177,-2.39861 0.897176,0.21559 0.897177,2.26413 1.794353,6.88035 0.897176,2.68017 0.897177,1.32285 0.897176,-0.12057 0.897177,-1.19177 0.897176,-1.55794 0.897177,-1.09788 0.897176,0.0668 0.897177,1.603 0.897176,3.05198 1.794353,7.89273 0.897176,2.90071 0.897177,0.93585 0.897176,-1.5975 0.897177,-4.18878 0.897176,-6.28793 1.794353,-14.8032 0.897177,-6.08895 0.897176,-3.85802 0.897177,-1.13626 0.897176,1.52574 0.897177,3.61692 2.691529,13.82063 0.897176,2.79146 0.897177,1.36272 0.897176,0.30037 0.897177,-0.0629 0.897176,0.39425 0.897177,1.55011 0.897176,3.0716 0.897177,4.5001 1.794353,10.70473 0.897176,4.2535 0.897177,2.246 0.897176,-0.33516 0.897177,-2.97923 0.897176,-5.13594 1.794353,-12.68988 0.897176,-5.13594 0.897177,-2.97923 0.897177,-0.33516 0.89718,2.246 0.89717,4.2535 1.79436,10.70473 0.89717,4.50009 0.89718,3.07161 0.89718,1.55011 0.89717,0.39424 0.89718,-0.0629 0.89717,0.30037 0.89718,1.36272 0.89718,2.79146 0.89717,4.12828 1.79436,9.69235 0.89717,3.61692 0.89718,1.52574 0.89718,-1.13626 0.89717,-3.85802 0.89718,-6.08895 1.79435,-14.80321 0.89718,-6.28792 0.89717,-4.18878 0.89718,-1.5975 0.89718,0.93585 0.89717,2.90071 1.79436,7.89272 0.89717,3.05199 0.89718,1.603 0.89718,0.0668 0.89717,-1.09788 0.89718,-1.55794 0.89718,-1.19177 0.89717,-0.12057 0.89718,1.32285 0.89717,2.68017 1.79436,6.88035 0.89717,2.26413 0.89718,0.21559 0.89718,-2.39861 0.89717,-5.06757 0.89718,-7.24092 1.79435,-16.91654 0.89718,-7.24092 0.89718,-5.06757 0.89717,-2.39861 0.89718,0.21559 0.89718,2.26413 1.79435,6.88035 0.89717,2.68017 0.89718,1.32285 0.89718,-0.12057 0.89717,-1.19177 0.89718,-1.55794 0.89718,-1.09788 0.89717,0.0668 0.89718,1.603 0.89718,3.05198 1.79435,7.89273 0.89718,2.90071 0.89717,0.93585 0.89718,-1.5975 0.89718,-4.18878 0.89717,-6.28793 1.79435,-14.8032 0.89718,-6.08895 0.89718,-3.85802 0.89717,-1.13626 0.89718,1.52574 0.89718,3.61692 2.69153,13.82063 0.89717,2.79146 0.89718,1.36272 0.89718,0.30037 0.89717,-0.0629 0.89718,0.39425 0.89718,1.55011 0.89717,3.0716 0.89718,4.5001 1.79435,10.70473 0.89718,4.2535 0.89717,2.246 0.89718,-0.33516 0.89718,-2.97923 0.89717,-5.13594 1.79436,-12.68988 0.89717,-5.13594 0.89718,-2.97923 0.89718,-0.33516 0.89717,2.246 0.89718,4.2535 1.79435,10.70473 0.89718,4.50009 0.89717,3.07161 0.89718,1.55011 0.89718,0.39424 0.89717,-0.0629 0.89718,0.30037 0.89718,1.36272 0.89717,2.79146 0.89718,4.12828 1.79435,9.69235 0.89718,3.61692 0.89718,1.52574 0.89717,-1.13626 0.89718,-3.85802 0.89718,-6.08895 1.79435,-14.80321 0.89717,-6.28792 0.89718,-4.18878 0.89718,-1.5975 0.89717,0.93585 0.89718,2.90071 1.79435,7.89272 0.89718,3.05199 0.89718,1.603 0.89717,0.0668 0.89718,-1.09788 0.89718,-1.55794 0.89717,-1.19177 0.89718,-0.12057 0.89718,1.32285 0.89717,2.68017 1.79435,6.88035 0.89718,2.26413 0.89718,0.21559 0.89717,-2.39861 0.89718,-5.06757 0.89718,-7.24092 1.79435,-16.91654 0.89718,-7.24092 0.89717,-5.06757 0.89718,-2.39861 0.89718,0.21559 0.89717,2.26413 1.79436,6.88035 0.89717,2.68017 0.89718,1.32285 0.89717,-0.12057 0.89718,-1.19177 0.89718,-1.55794 0.89717,-1.09788 0.89718,0.0668 0.89718,1.603 0.89717,3.05198 1.79436,7.89273 0.89717,2.90071 0.89718,0.93585 0.89718,-1.5975 0.89717,-4.18878 0.89718,-6.28793 1.79435,-14.8032 0.89718,-6.08895 0.89717,-3.85802 0.89718,-1.13626 0.89718,1.52574 0.89717,3.61692 2.69153,13.82063 0.89718,2.79146 0.89718,1.36272 0.89717,0.30037 0.89718,-0.0629 0.89718,0.39425 0.89717,1.55011 0.89718,3.0716 0.89718,4.5001 1.79435,10.70473 0.89718,4.2535 0.89717,2.246 0.89718,-0.33516 0.89718,-2.97923 0.89717,-5.13594 1.79435,-12.68988 0.89718,-5.13594 0.89718,-2.97923 0.89717,-0.33516 0.89718,2.246 v 0"
           style="white-space:pre;fill:none;stroke:#000000;stroke-width:2.37825179;stroke-linecap:square;stroke-linejoin:round"
           id="path574"
           inkscape:connector-curvature="0"
           transform="translate(444.57122,-118.78387)" />
      </g>
    </g>
    <path
       style="white-space:pre;fill:none;stroke:#000000;stroke-width:0.75px;stroke-linecap:butt;stroke-linejoin:miter;stroke-opacity:1;marker-end:url(#TriangleOutL)"
       d="m 194.19619,232.62979 37.48817,63.23806"
       id="path829"
       inkscape:connector-curvature="0"
       inkscape:export-xdpi="600"
       inkscape:export-ydpi="600" />
    <path
       style="white-space:pre;fill:none;stroke:#000000;stroke-width:0.75px;stroke-linecap:butt;stroke-linejoin:miter;stroke-opacity:1;marker-end:url(#TriangleOutL-3)"
       d="m 193.63851,379.95265 37.48817,-63.23806"
       id="path829-7"
       inkscape:connector-curvature="0"
       inkscape:export-xdpi="600"
       inkscape:export-ydpi="600" />
    <path
       style="white-space:pre;fill:none;stroke:#000000;stroke-width:0.75px;stroke-linecap:butt;stroke-linejoin:miter;stroke-opacity:1;marker-end:url(#TriangleOutL-5)"
       d="m 193.72901,305.52787 34.9145,0.19925"
       id="path829-5"
       inkscape:connector-curvature="0"
       sodipodi:nodetypes="cc"
       inkscape:export-xdpi="600"
       inkscape:export-ydpi="600" />
    <ellipse
       style="white-space:pre;fill:none;fill-opacity:1;stroke:#000000;stroke-width:0.52499998;stroke-linecap:square;stroke-linejoin:round;stroke-miterlimit:4;stroke-dasharray:none;stroke-opacity:1"
       id="path3315"
       cx="250.94339"
       cy="306.80609"
       rx="18.173899"
       ry="18.82407"
       inkscape:export-xdpi="600"
       inkscape:export-ydpi="600" />
    <path
       style="white-space:pre;fill:none;stroke:#000000;stroke-width:0.75px;stroke-linecap:butt;stroke-linejoin:miter;stroke-opacity:1;marker-end:url(#TriangleOutL-5-6)"
       d="m 269.20712,306.67589 22.7343,0.19925"
       id="path829-5-9"
       inkscape:connector-curvature="0"
       sodipodi:nodetypes="cc"
       inkscape:export-xdpi="600"
       inkscape:export-ydpi="600" />
    <text
       xml:space="preserve"
       style="font-style:normal;font-weight:normal;font-size:30px;line-height:1.25;font-family:sans-serif;letter-spacing:0px;word-spacing:0px;white-space:pre;fill:#000000;fill-opacity:1;stroke:none;stroke-width:0.75;stroke-linecap:butt;stroke-linejoin:round"
       x="237.74141"
       y="316.06845"
       id="text3912"
       inkscape:export-xdpi="600"
       inkscape:export-ydpi="600"><tspan
         sodipodi:role="line"
         id="tspan3910"
         style="white-space:pre;stroke-width:0.75;stroke-linecap:butt;stroke-linejoin:round"
         x="237.74141"
         y="316.06845">+</tspan></text>
  </g>
  <defs
     id="defs603">
    <clipPath
       id="pf4c31e8e7f"
       style="white-space:pre;stroke-linecap:butt;stroke-linejoin:round">
      <rect
         height="77.615997"
         width="251.658"
         x="40.59"
         y="55.641602"
         id="rect591"
         style="white-space:pre;stroke-linecap:butt;stroke-linejoin:round" />
    </clipPath>
    <clipPath
       id="pa264131c76"
       style="white-space:pre;stroke-linecap:butt;stroke-linejoin:round">
      <rect
         height="77.615997"
         width="251.658"
         x="40.59"
         y="148.78081"
         id="rect594"
         style="white-space:pre;stroke-linecap:butt;stroke-linejoin:round" />
    </clipPath>
    <clipPath
       id="pe62caba247"
       style="white-space:pre;stroke-linecap:butt;stroke-linejoin:round">
      <rect
         height="77.615997"
         width="251.658"
         x="40.59"
         y="241.92"
         id="rect597"
         style="white-space:pre;stroke-linecap:butt;stroke-linejoin:round" />
    </clipPath>
    <clipPath
       id="p928abaac1e"
       style="white-space:pre;stroke-linecap:butt;stroke-linejoin:round">
      <rect
         height="77.615997"
         width="251.658"
         x="40.59"
         y="335.0592"
         id="rect600"
         style="white-space:pre;stroke-linecap:butt;stroke-linejoin:round" />
    </clipPath>
  </defs>
</svg>
