<?xml version="1.0" encoding="utf-8" standalone="no"?>
<!DOCTYPE svg PUBLIC "-//W3C//DTD SVG 1.1//EN"
  "http://www.w3.org/Graphics/SVG/1.1/DTD/svg11.dtd">
<!-- Created with matplotlib (https://matplotlib.org/) -->
<svg height="222.48pt" version="1.1" viewBox="0 0 353.52 222.48" width="353.52pt" xmlns="http://www.w3.org/2000/svg" xmlns:xlink="http://www.w3.org/1999/xlink">
 <defs>
  <style type="text/css">
*{stroke-linecap:butt;stroke-linejoin:round;}
  </style>
 </defs>
 <g id="figure_1">
  <g id="patch_1">
   <path d="M 0 222.48 
L 353.52 222.48 
L 353.52 0 
L 0 0 
z
" style="fill:#ffffff;"/>
  </g>
  <g id="axes_1">
   <g id="patch_2">
    <path d="M 68.87 174.04 
L 341.719179 174.04 
L 341.719179 29.76 
L 68.87 29.76 
z
" style="fill:#ffffff;"/>
   </g>
   <g id="matplotlib.axis_1">
    <g id="xtick_1">
     <g id="line2d_1">
      <defs>
       <path d="M 0 0 
L 0 3.5 
" id="m56b0802cba" style="stroke:#000000;stroke-width:0.8;"/>
      </defs>
      <g>
       <use style="stroke:#000000;stroke-width:0.8;" x="84.39553" xlink:href="#m56b0802cba" y="174.04"/>
      </g>
     </g>
     <g id="text_1">
      <!-- 0.49 -->
      <defs>
       <path d="M 31.78125 66.40625 
Q 24.171875 66.40625 20.328125 58.90625 
Q 16.5 51.421875 16.5 36.375 
Q 16.5 21.390625 20.328125 13.890625 
Q 24.171875 6.390625 31.78125 6.390625 
Q 39.453125 6.390625 43.28125 13.890625 
Q 47.125 21.390625 47.125 36.375 
Q 47.125 51.421875 43.28125 58.90625 
Q 39.453125 66.40625 31.78125 66.40625 
z
M 31.78125 74.21875 
Q 44.046875 74.21875 50.515625 64.515625 
Q 56.984375 54.828125 56.984375 36.375 
Q 56.984375 17.96875 50.515625 8.265625 
Q 44.046875 -1.421875 31.78125 -1.421875 
Q 19.53125 -1.421875 13.0625 8.265625 
Q 6.59375 17.96875 6.59375 36.375 
Q 6.59375 54.828125 13.0625 64.515625 
Q 19.53125 74.21875 31.78125 74.21875 
z
" id="DejaVuSans-48"/>
       <path d="M 10.6875 12.40625 
L 21 12.40625 
L 21 0 
L 10.6875 0 
z
" id="DejaVuSans-46"/>
       <path d="M 37.796875 64.3125 
L 12.890625 25.390625 
L 37.796875 25.390625 
z
M 35.203125 72.90625 
L 47.609375 72.90625 
L 47.609375 25.390625 
L 58.015625 25.390625 
L 58.015625 17.1875 
L 47.609375 17.1875 
L 47.609375 0 
L 37.796875 0 
L 37.796875 17.1875 
L 4.890625 17.1875 
L 4.890625 26.703125 
z
" id="DejaVuSans-52"/>
       <path d="M 10.984375 1.515625 
L 10.984375 10.5 
Q 14.703125 8.734375 18.5 7.8125 
Q 22.3125 6.890625 25.984375 6.890625 
Q 35.75 6.890625 40.890625 13.453125 
Q 46.046875 20.015625 46.78125 33.40625 
Q 43.953125 29.203125 39.59375 26.953125 
Q 35.25 24.703125 29.984375 24.703125 
Q 19.046875 24.703125 12.671875 31.3125 
Q 6.296875 37.9375 6.296875 49.421875 
Q 6.296875 60.640625 12.9375 67.421875 
Q 19.578125 74.21875 30.609375 74.21875 
Q 43.265625 74.21875 49.921875 64.515625 
Q 56.59375 54.828125 56.59375 36.375 
Q 56.59375 19.140625 48.40625 8.859375 
Q 40.234375 -1.421875 26.421875 -1.421875 
Q 22.703125 -1.421875 18.890625 -0.6875 
Q 15.09375 0.046875 10.984375 1.515625 
z
M 30.609375 32.421875 
Q 37.25 32.421875 41.125 36.953125 
Q 45.015625 41.5 45.015625 49.421875 
Q 45.015625 57.28125 41.125 61.84375 
Q 37.25 66.40625 30.609375 66.40625 
Q 23.96875 66.40625 20.09375 61.84375 
Q 16.21875 57.28125 16.21875 49.421875 
Q 16.21875 41.5 20.09375 36.953125 
Q 23.96875 32.421875 30.609375 32.421875 
z
" id="DejaVuSans-57"/>
      </defs>
      <g transform="translate(73.262717 188.638438)scale(0.1 -0.1)">
       <use xlink:href="#DejaVuSans-48"/>
       <use x="63.623047" xlink:href="#DejaVuSans-46"/>
       <use x="95.410156" xlink:href="#DejaVuSans-52"/>
       <use x="159.033203" xlink:href="#DejaVuSans-57"/>
      </g>
     </g>
    </g>
    <g id="xtick_2">
     <g id="line2d_2">
      <g>
       <use style="stroke:#000000;stroke-width:0.8;" x="122.912034" xlink:href="#m56b0802cba" y="174.04"/>
      </g>
     </g>
     <g id="text_2">
      <!-- 0.50 -->
      <defs>
       <path d="M 10.796875 72.90625 
L 49.515625 72.90625 
L 49.515625 64.59375 
L 19.828125 64.59375 
L 19.828125 46.734375 
Q 21.96875 47.46875 24.109375 47.828125 
Q 26.265625 48.1875 28.421875 48.1875 
Q 40.625 48.1875 47.75 41.5 
Q 54.890625 34.8125 54.890625 23.390625 
Q 54.890625 11.625 47.5625 5.09375 
Q 40.234375 -1.421875 26.90625 -1.421875 
Q 22.3125 -1.421875 17.546875 -0.640625 
Q 12.796875 0.140625 7.71875 1.703125 
L 7.71875 11.625 
Q 12.109375 9.234375 16.796875 8.0625 
Q 21.484375 6.890625 26.703125 6.890625 
Q 35.15625 6.890625 40.078125 11.328125 
Q 45.015625 15.765625 45.015625 23.390625 
Q 45.015625 31 40.078125 35.4375 
Q 35.15625 39.890625 26.703125 39.890625 
Q 22.75 39.890625 18.8125 39.015625 
Q 14.890625 38.140625 10.796875 36.28125 
z
" id="DejaVuSans-53"/>
      </defs>
      <g transform="translate(111.779222 188.638438)scale(0.1 -0.1)">
       <use xlink:href="#DejaVuSans-48"/>
       <use x="63.623047" xlink:href="#DejaVuSans-46"/>
       <use x="95.410156" xlink:href="#DejaVuSans-53"/>
       <use x="159.033203" xlink:href="#DejaVuSans-48"/>
      </g>
     </g>
    </g>
    <g id="xtick_3">
     <g id="line2d_3">
      <g>
       <use style="stroke:#000000;stroke-width:0.8;" x="161.428539" xlink:href="#m56b0802cba" y="174.04"/>
      </g>
     </g>
     <g id="text_3">
      <!-- 0.51 -->
      <defs>
       <path d="M 12.40625 8.296875 
L 28.515625 8.296875 
L 28.515625 63.921875 
L 10.984375 60.40625 
L 10.984375 69.390625 
L 28.421875 72.90625 
L 38.28125 72.90625 
L 38.28125 8.296875 
L 54.390625 8.296875 
L 54.390625 0 
L 12.40625 0 
z
" id="DejaVuSans-49"/>
      </defs>
      <g transform="translate(150.295727 188.638438)scale(0.1 -0.1)">
       <use xlink:href="#DejaVuSans-48"/>
       <use x="63.623047" xlink:href="#DejaVuSans-46"/>
       <use x="95.410156" xlink:href="#DejaVuSans-53"/>
       <use x="159.033203" xlink:href="#DejaVuSans-49"/>
      </g>
     </g>
    </g>
    <g id="xtick_4">
     <g id="line2d_4">
      <g>
       <use style="stroke:#000000;stroke-width:0.8;" x="199.945044" xlink:href="#m56b0802cba" y="174.04"/>
      </g>
     </g>
     <g id="text_4">
      <!-- 0.52 -->
      <defs>
       <path d="M 19.1875 8.296875 
L 53.609375 8.296875 
L 53.609375 0 
L 7.328125 0 
L 7.328125 8.296875 
Q 12.9375 14.109375 22.625 23.890625 
Q 32.328125 33.6875 34.8125 36.53125 
Q 39.546875 41.84375 41.421875 45.53125 
Q 43.3125 49.21875 43.3125 52.78125 
Q 43.3125 58.59375 39.234375 62.25 
Q 35.15625 65.921875 28.609375 65.921875 
Q 23.96875 65.921875 18.8125 64.3125 
Q 13.671875 62.703125 7.8125 59.421875 
L 7.8125 69.390625 
Q 13.765625 71.78125 18.9375 73 
Q 24.125 74.21875 28.421875 74.21875 
Q 39.75 74.21875 46.484375 68.546875 
Q 53.21875 62.890625 53.21875 53.421875 
Q 53.21875 48.921875 51.53125 44.890625 
Q 49.859375 40.875 45.40625 35.40625 
Q 44.1875 33.984375 37.640625 27.21875 
Q 31.109375 20.453125 19.1875 8.296875 
z
" id="DejaVuSans-50"/>
      </defs>
      <g transform="translate(188.812231 188.638438)scale(0.1 -0.1)">
       <use xlink:href="#DejaVuSans-48"/>
       <use x="63.623047" xlink:href="#DejaVuSans-46"/>
       <use x="95.410156" xlink:href="#DejaVuSans-53"/>
       <use x="159.033203" xlink:href="#DejaVuSans-50"/>
      </g>
     </g>
    </g>
    <g id="xtick_5">
     <g id="line2d_5">
      <g>
       <use style="stroke:#000000;stroke-width:0.8;" x="238.461549" xlink:href="#m56b0802cba" y="174.04"/>
      </g>
     </g>
     <g id="text_5">
      <!-- 0.53 -->
      <defs>
       <path d="M 40.578125 39.3125 
Q 47.65625 37.796875 51.625 33 
Q 55.609375 28.21875 55.609375 21.1875 
Q 55.609375 10.40625 48.1875 4.484375 
Q 40.765625 -1.421875 27.09375 -1.421875 
Q 22.515625 -1.421875 17.65625 -0.515625 
Q 12.796875 0.390625 7.625 2.203125 
L 7.625 11.71875 
Q 11.71875 9.328125 16.59375 8.109375 
Q 21.484375 6.890625 26.8125 6.890625 
Q 36.078125 6.890625 40.9375 10.546875 
Q 45.796875 14.203125 45.796875 21.1875 
Q 45.796875 27.640625 41.28125 31.265625 
Q 36.765625 34.90625 28.71875 34.90625 
L 20.21875 34.90625 
L 20.21875 43.015625 
L 29.109375 43.015625 
Q 36.375 43.015625 40.234375 45.921875 
Q 44.09375 48.828125 44.09375 54.296875 
Q 44.09375 59.90625 40.109375 62.90625 
Q 36.140625 65.921875 28.71875 65.921875 
Q 24.65625 65.921875 20.015625 65.03125 
Q 15.375 64.15625 9.8125 62.3125 
L 9.8125 71.09375 
Q 15.4375 72.65625 20.34375 73.4375 
Q 25.25 74.21875 29.59375 74.21875 
Q 40.828125 74.21875 47.359375 69.109375 
Q 53.90625 64.015625 53.90625 55.328125 
Q 53.90625 49.265625 50.4375 45.09375 
Q 46.96875 40.921875 40.578125 39.3125 
z
" id="DejaVuSans-51"/>
      </defs>
      <g transform="translate(227.328736 188.638438)scale(0.1 -0.1)">
       <use xlink:href="#DejaVuSans-48"/>
       <use x="63.623047" xlink:href="#DejaVuSans-46"/>
       <use x="95.410156" xlink:href="#DejaVuSans-53"/>
       <use x="159.033203" xlink:href="#DejaVuSans-51"/>
      </g>
     </g>
    </g>
    <g id="xtick_6">
     <g id="line2d_6">
      <g>
       <use style="stroke:#000000;stroke-width:0.8;" x="276.978053" xlink:href="#m56b0802cba" y="174.04"/>
      </g>
     </g>
     <g id="text_6">
      <!-- 0.54 -->
      <g transform="translate(265.845241 188.638438)scale(0.1 -0.1)">
       <use xlink:href="#DejaVuSans-48"/>
       <use x="63.623047" xlink:href="#DejaVuSans-46"/>
       <use x="95.410156" xlink:href="#DejaVuSans-53"/>
       <use x="159.033203" xlink:href="#DejaVuSans-52"/>
      </g>
     </g>
    </g>
    <g id="xtick_7">
     <g id="line2d_7">
      <g>
       <use style="stroke:#000000;stroke-width:0.8;" x="315.494558" xlink:href="#m56b0802cba" y="174.04"/>
      </g>
     </g>
     <g id="text_7">
      <!-- 0.55 -->
      <g transform="translate(304.361746 188.638438)scale(0.1 -0.1)">
       <use xlink:href="#DejaVuSans-48"/>
       <use x="63.623047" xlink:href="#DejaVuSans-46"/>
       <use x="95.410156" xlink:href="#DejaVuSans-53"/>
       <use x="159.033203" xlink:href="#DejaVuSans-53"/>
      </g>
     </g>
    </g>
    <g id="text_8">
     <!-- Time (s) -->
     <defs>
      <path d="M -0.296875 72.90625 
L 61.375 72.90625 
L 61.375 64.59375 
L 35.5 64.59375 
L 35.5 0 
L 25.59375 0 
L 25.59375 64.59375 
L -0.296875 64.59375 
z
" id="DejaVuSans-84"/>
      <path d="M 9.421875 54.6875 
L 18.40625 54.6875 
L 18.40625 0 
L 9.421875 0 
z
M 9.421875 75.984375 
L 18.40625 75.984375 
L 18.40625 64.59375 
L 9.421875 64.59375 
z
" id="DejaVuSans-105"/>
      <path d="M 52 44.1875 
Q 55.375 50.25 60.0625 53.125 
Q 64.75 56 71.09375 56 
Q 79.640625 56 84.28125 50.015625 
Q 88.921875 44.046875 88.921875 33.015625 
L 88.921875 0 
L 79.890625 0 
L 79.890625 32.71875 
Q 79.890625 40.578125 77.09375 44.375 
Q 74.3125 48.1875 68.609375 48.1875 
Q 61.625 48.1875 57.5625 43.546875 
Q 53.515625 38.921875 53.515625 30.90625 
L 53.515625 0 
L 44.484375 0 
L 44.484375 32.71875 
Q 44.484375 40.625 41.703125 44.40625 
Q 38.921875 48.1875 33.109375 48.1875 
Q 26.21875 48.1875 22.15625 43.53125 
Q 18.109375 38.875 18.109375 30.90625 
L 18.109375 0 
L 9.078125 0 
L 9.078125 54.6875 
L 18.109375 54.6875 
L 18.109375 46.1875 
Q 21.1875 51.21875 25.484375 53.609375 
Q 29.78125 56 35.6875 56 
Q 41.65625 56 45.828125 52.96875 
Q 50 49.953125 52 44.1875 
z
" id="DejaVuSans-109"/>
      <path d="M 56.203125 29.59375 
L 56.203125 25.203125 
L 14.890625 25.203125 
Q 15.484375 15.921875 20.484375 11.0625 
Q 25.484375 6.203125 34.421875 6.203125 
Q 39.59375 6.203125 44.453125 7.46875 
Q 49.3125 8.734375 54.109375 11.28125 
L 54.109375 2.78125 
Q 49.265625 0.734375 44.1875 -0.34375 
Q 39.109375 -1.421875 33.890625 -1.421875 
Q 20.796875 -1.421875 13.15625 6.1875 
Q 5.515625 13.8125 5.515625 26.8125 
Q 5.515625 40.234375 12.765625 48.109375 
Q 20.015625 56 32.328125 56 
Q 43.359375 56 49.78125 48.890625 
Q 56.203125 41.796875 56.203125 29.59375 
z
M 47.21875 32.234375 
Q 47.125 39.59375 43.09375 43.984375 
Q 39.0625 48.390625 32.421875 48.390625 
Q 24.90625 48.390625 20.390625 44.140625 
Q 15.875 39.890625 15.1875 32.171875 
z
" id="DejaVuSans-101"/>
      <path id="DejaVuSans-32"/>
      <path d="M 31 75.875 
Q 24.46875 64.65625 21.28125 53.65625 
Q 18.109375 42.671875 18.109375 31.390625 
Q 18.109375 20.125 21.3125 9.0625 
Q 24.515625 -2 31 -13.1875 
L 23.1875 -13.1875 
Q 15.875 -1.703125 12.234375 9.375 
Q 8.59375 20.453125 8.59375 31.390625 
Q 8.59375 42.28125 12.203125 53.3125 
Q 15.828125 64.359375 23.1875 75.875 
z
" id="DejaVuSans-40"/>
      <path d="M 44.28125 53.078125 
L 44.28125 44.578125 
Q 40.484375 46.53125 36.375 47.5 
Q 32.28125 48.484375 27.875 48.484375 
Q 21.1875 48.484375 17.84375 46.4375 
Q 14.5 44.390625 14.5 40.28125 
Q 14.5 37.15625 16.890625 35.375 
Q 19.28125 33.59375 26.515625 31.984375 
L 29.59375 31.296875 
Q 39.15625 29.25 43.1875 25.515625 
Q 47.21875 21.78125 47.21875 15.09375 
Q 47.21875 7.46875 41.1875 3.015625 
Q 35.15625 -1.421875 24.609375 -1.421875 
Q 20.21875 -1.421875 15.453125 -0.5625 
Q 10.6875 0.296875 5.421875 2 
L 5.421875 11.28125 
Q 10.40625 8.6875 15.234375 7.390625 
Q 20.0625 6.109375 24.8125 6.109375 
Q 31.15625 6.109375 34.5625 8.28125 
Q 37.984375 10.453125 37.984375 14.40625 
Q 37.984375 18.0625 35.515625 20.015625 
Q 33.0625 21.96875 24.703125 23.78125 
L 21.578125 24.515625 
Q 13.234375 26.265625 9.515625 29.90625 
Q 5.8125 33.546875 5.8125 39.890625 
Q 5.8125 47.609375 11.28125 51.796875 
Q 16.75 56 26.8125 56 
Q 31.78125 56 36.171875 55.265625 
Q 40.578125 54.546875 44.28125 53.078125 
z
" id="DejaVuSans-115"/>
      <path d="M 8.015625 75.875 
L 15.828125 75.875 
Q 23.140625 64.359375 26.78125 53.3125 
Q 30.421875 42.28125 30.421875 31.390625 
Q 30.421875 20.453125 26.78125 9.375 
Q 23.140625 -1.703125 15.828125 -13.1875 
L 8.015625 -13.1875 
Q 14.5 -2 17.703125 9.0625 
Q 20.90625 20.125 20.90625 31.390625 
Q 20.90625 42.671875 17.703125 53.65625 
Q 14.5 64.65625 8.015625 75.875 
z
" id="DejaVuSans-41"/>
     </defs>
     <g transform="translate(172.522089 206.875625)scale(0.16 -0.16)">
      <use xlink:href="#DejaVuSans-84"/>
      <use x="61.037109" xlink:href="#DejaVuSans-105"/>
      <use x="88.820312" xlink:href="#DejaVuSans-109"/>
      <use x="186.232422" xlink:href="#DejaVuSans-101"/>
      <use x="247.755859" xlink:href="#DejaVuSans-32"/>
      <use x="279.542969" xlink:href="#DejaVuSans-40"/>
      <use x="318.556641" xlink:href="#DejaVuSans-115"/>
      <use x="370.65625" xlink:href="#DejaVuSans-41"/>
     </g>
    </g>
   </g>
   <g id="matplotlib.axis_2">
    <g id="ytick_1">
     <g id="line2d_8">
      <defs>
       <path d="M 0 0 
L -3.5 0 
" id="mf2daa707b7" style="stroke:#000000;stroke-width:0.8;"/>
      </defs>
      <g>
       <use style="stroke:#000000;stroke-width:0.8;" x="68.87" xlink:href="#mf2daa707b7" y="145.829876"/>
      </g>
     </g>
     <g id="text_9">
      <!-- −0.2 -->
      <defs>
       <path d="M 10.59375 35.5 
L 73.1875 35.5 
L 73.1875 27.203125 
L 10.59375 27.203125 
z
" id="DejaVuSans-8722"/>
      </defs>
      <g transform="translate(37.587187 149.629095)scale(0.1 -0.1)">
       <use xlink:href="#DejaVuSans-8722"/>
       <use x="83.789062" xlink:href="#DejaVuSans-48"/>
       <use x="147.412109" xlink:href="#DejaVuSans-46"/>
       <use x="179.199219" xlink:href="#DejaVuSans-50"/>
      </g>
     </g>
    </g>
    <g id="ytick_2">
     <g id="line2d_9">
      <g>
       <use style="stroke:#000000;stroke-width:0.8;" x="68.87" xlink:href="#mf2daa707b7" y="117.442265"/>
      </g>
     </g>
     <g id="text_10">
      <!-- 0.0 -->
      <g transform="translate(45.966875 121.241484)scale(0.1 -0.1)">
       <use xlink:href="#DejaVuSans-48"/>
       <use x="63.623047" xlink:href="#DejaVuSans-46"/>
       <use x="95.410156" xlink:href="#DejaVuSans-48"/>
      </g>
     </g>
    </g>
    <g id="ytick_3">
     <g id="line2d_10">
      <g>
       <use style="stroke:#000000;stroke-width:0.8;" x="68.87" xlink:href="#mf2daa707b7" y="89.054654"/>
      </g>
     </g>
     <g id="text_11">
      <!-- 0.2 -->
      <g transform="translate(45.966875 92.853873)scale(0.1 -0.1)">
       <use xlink:href="#DejaVuSans-48"/>
       <use x="63.623047" xlink:href="#DejaVuSans-46"/>
       <use x="95.410156" xlink:href="#DejaVuSans-50"/>
      </g>
     </g>
    </g>
    <g id="ytick_4">
     <g id="line2d_11">
      <g>
       <use style="stroke:#000000;stroke-width:0.8;" x="68.87" xlink:href="#mf2daa707b7" y="60.667044"/>
      </g>
     </g>
     <g id="text_12">
      <!-- 0.4 -->
      <g transform="translate(45.966875 64.466262)scale(0.1 -0.1)">
       <use xlink:href="#DejaVuSans-48"/>
       <use x="63.623047" xlink:href="#DejaVuSans-46"/>
       <use x="95.410156" xlink:href="#DejaVuSans-52"/>
      </g>
     </g>
    </g>
    <g id="ytick_5">
     <g id="line2d_12">
      <g>
       <use style="stroke:#000000;stroke-width:0.8;" x="68.87" xlink:href="#mf2daa707b7" y="32.279433"/>
      </g>
     </g>
     <g id="text_13">
      <!-- 0.6 -->
      <defs>
       <path d="M 33.015625 40.375 
Q 26.375 40.375 22.484375 35.828125 
Q 18.609375 31.296875 18.609375 23.390625 
Q 18.609375 15.53125 22.484375 10.953125 
Q 26.375 6.390625 33.015625 6.390625 
Q 39.65625 6.390625 43.53125 10.953125 
Q 47.40625 15.53125 47.40625 23.390625 
Q 47.40625 31.296875 43.53125 35.828125 
Q 39.65625 40.375 33.015625 40.375 
z
M 52.59375 71.296875 
L 52.59375 62.3125 
Q 48.875 64.0625 45.09375 64.984375 
Q 41.3125 65.921875 37.59375 65.921875 
Q 27.828125 65.921875 22.671875 59.328125 
Q 17.53125 52.734375 16.796875 39.40625 
Q 19.671875 43.65625 24.015625 45.921875 
Q 28.375 48.1875 33.59375 48.1875 
Q 44.578125 48.1875 50.953125 41.515625 
Q 57.328125 34.859375 57.328125 23.390625 
Q 57.328125 12.15625 50.6875 5.359375 
Q 44.046875 -1.421875 33.015625 -1.421875 
Q 20.359375 -1.421875 13.671875 8.265625 
Q 6.984375 17.96875 6.984375 36.375 
Q 6.984375 53.65625 15.1875 63.9375 
Q 23.390625 74.21875 37.203125 74.21875 
Q 40.921875 74.21875 44.703125 73.484375 
Q 48.484375 72.75 52.59375 71.296875 
z
" id="DejaVuSans-54"/>
      </defs>
      <g transform="translate(45.966875 36.078652)scale(0.1 -0.1)">
       <use xlink:href="#DejaVuSans-48"/>
       <use x="63.623047" xlink:href="#DejaVuSans-46"/>
       <use x="95.410156" xlink:href="#DejaVuSans-54"/>
      </g>
     </g>
    </g>
    <g id="text_14">
     <!-- Amplitude -->
     <defs>
      <path d="M 34.1875 63.1875 
L 20.796875 26.90625 
L 47.609375 26.90625 
z
M 28.609375 72.90625 
L 39.796875 72.90625 
L 67.578125 0 
L 57.328125 0 
L 50.6875 18.703125 
L 17.828125 18.703125 
L 11.1875 0 
L 0.78125 0 
z
" id="DejaVuSans-65"/>
      <path d="M 18.109375 8.203125 
L 18.109375 -20.796875 
L 9.078125 -20.796875 
L 9.078125 54.6875 
L 18.109375 54.6875 
L 18.109375 46.390625 
Q 20.953125 51.265625 25.265625 53.625 
Q 29.59375 56 35.59375 56 
Q 45.5625 56 51.78125 48.09375 
Q 58.015625 40.1875 58.015625 27.296875 
Q 58.015625 14.40625 51.78125 6.484375 
Q 45.5625 -1.421875 35.59375 -1.421875 
Q 29.59375 -1.421875 25.265625 0.953125 
Q 20.953125 3.328125 18.109375 8.203125 
z
M 48.6875 27.296875 
Q 48.6875 37.203125 44.609375 42.84375 
Q 40.53125 48.484375 33.40625 48.484375 
Q 26.265625 48.484375 22.1875 42.84375 
Q 18.109375 37.203125 18.109375 27.296875 
Q 18.109375 17.390625 22.1875 11.75 
Q 26.265625 6.109375 33.40625 6.109375 
Q 40.53125 6.109375 44.609375 11.75 
Q 48.6875 17.390625 48.6875 27.296875 
z
" id="DejaVuSans-112"/>
      <path d="M 9.421875 75.984375 
L 18.40625 75.984375 
L 18.40625 0 
L 9.421875 0 
z
" id="DejaVuSans-108"/>
      <path d="M 18.3125 70.21875 
L 18.3125 54.6875 
L 36.8125 54.6875 
L 36.8125 47.703125 
L 18.3125 47.703125 
L 18.3125 18.015625 
Q 18.3125 11.328125 20.140625 9.421875 
Q 21.96875 7.515625 27.59375 7.515625 
L 36.8125 7.515625 
L 36.8125 0 
L 27.59375 0 
Q 17.1875 0 13.234375 3.875 
Q 9.28125 7.765625 9.28125 18.015625 
L 9.28125 47.703125 
L 2.6875 47.703125 
L 2.6875 54.6875 
L 9.28125 54.6875 
L 9.28125 70.21875 
z
" id="DejaVuSans-116"/>
      <path d="M 8.5 21.578125 
L 8.5 54.6875 
L 17.484375 54.6875 
L 17.484375 21.921875 
Q 17.484375 14.15625 20.5 10.265625 
Q 23.53125 6.390625 29.59375 6.390625 
Q 36.859375 6.390625 41.078125 11.03125 
Q 45.3125 15.671875 45.3125 23.6875 
L 45.3125 54.6875 
L 54.296875 54.6875 
L 54.296875 0 
L 45.3125 0 
L 45.3125 8.40625 
Q 42.046875 3.421875 37.71875 1 
Q 33.40625 -1.421875 27.6875 -1.421875 
Q 18.265625 -1.421875 13.375 4.4375 
Q 8.5 10.296875 8.5 21.578125 
z
M 31.109375 56 
z
" id="DejaVuSans-117"/>
      <path d="M 45.40625 46.390625 
L 45.40625 75.984375 
L 54.390625 75.984375 
L 54.390625 0 
L 45.40625 0 
L 45.40625 8.203125 
Q 42.578125 3.328125 38.25 0.953125 
Q 33.9375 -1.421875 27.875 -1.421875 
Q 17.96875 -1.421875 11.734375 6.484375 
Q 5.515625 14.40625 5.515625 27.296875 
Q 5.515625 40.1875 11.734375 48.09375 
Q 17.96875 56 27.875 56 
Q 33.9375 56 38.25 53.625 
Q 42.578125 51.265625 45.40625 46.390625 
z
M 14.796875 27.296875 
Q 14.796875 17.390625 18.875 11.75 
Q 22.953125 6.109375 30.078125 6.109375 
Q 37.203125 6.109375 41.296875 11.75 
Q 45.40625 17.390625 45.40625 27.296875 
Q 45.40625 37.203125 41.296875 42.84375 
Q 37.203125 48.484375 30.078125 48.484375 
Q 22.953125 48.484375 18.875 42.84375 
Q 14.796875 37.203125 14.796875 27.296875 
z
" id="DejaVuSans-100"/>
     </defs>
     <g transform="translate(30.259687 142.89625)rotate(-90)scale(0.16 -0.16)">
      <use xlink:href="#DejaVuSans-65"/>
      <use x="68.408203" xlink:href="#DejaVuSans-109"/>
      <use x="165.820312" xlink:href="#DejaVuSans-112"/>
      <use x="229.296875" xlink:href="#DejaVuSans-108"/>
      <use x="257.080078" xlink:href="#DejaVuSans-105"/>
      <use x="284.863281" xlink:href="#DejaVuSans-116"/>
      <use x="324.072266" xlink:href="#DejaVuSans-117"/>
      <use x="387.451172" xlink:href="#DejaVuSans-100"/>
      <use x="450.927734" xlink:href="#DejaVuSans-101"/>
     </g>
    </g>
   </g>
   <g id="line2d_13">
    <path clip-path="url(#pe2b41f24f1)" d="M 68.7482 115.200138 
L 68.988928 117.309258 
L 69.229656 117.841288 
L 69.470384 115.447152 
L 69.711112 114.250084 
L 69.95184 117.461266 
L 70.433297 125.935747 
L 70.674025 126.239764 
L 70.914753 125.175704 
L 71.155481 122.705564 
L 71.636937 125.498722 
L 71.877666 125.574726 
L 72.59985 132.833138 
L 72.840578 133.840195 
L 73.322035 124.548668 
L 73.562763 122.401546 
L 73.803491 119.11436 
L 74.044219 108.796775 
L 74.525675 69.483544 
L 74.766403 76.81796 
L 75.24786 111.855948 
L 75.488588 119.931406 
L 75.970044 123.408604 
L 76.210772 127.379829 
L 76.451501 133.308165 
L 76.692229 134.847253 
L 77.655141 116.891234 
L 78.136598 94.279951 
L 78.377326 92.797867 
L 78.618054 99.448244 
L 79.09951 116.378205 
L 79.340238 119.323372 
L 79.580967 119.703393 
L 80.303151 126.714791 
L 81.506792 111.456925 
L 81.74752 107.732714 
L 81.988248 107.238686 
L 82.469704 115.466153 
L 82.710433 116.549214 
L 82.951161 114.630105 
L 83.191889 115.485154 
L 83.673345 127.246821 
L 83.914073 127.702847 
L 84.39553 120.406433 
L 84.636258 119.494381 
L 84.876986 119.266369 
L 85.117714 118.088302 
L 85.358442 115.637163 
L 85.59917 114.858118 
L 85.839899 116.055186 
L 86.080627 118.126304 
L 86.321355 118.772341 
L 86.562083 117.499268 
L 86.802811 116.872233 
L 87.043539 118.487324 
L 87.524996 123.3516 
L 88.24718 126.581784 
L 88.487908 127.322826 
L 88.728636 127.151816 
L 88.969365 126.790795 
L 89.210093 128.861913 
L 89.691549 136.367339 
L 89.932277 133.023149 
L 90.173005 126.258765 
L 90.654462 120.083415 
L 90.89519 107.12468 
L 91.376646 67.678441 
L 91.617374 75.620892 
L 92.098831 110.069847 
L 92.339559 118.791342 
L 93.061743 128.120871 
L 93.302471 133.897199 
L 93.5432 134.714245 
L 94.506112 116.321201 
L 94.987568 95.115998 
L 95.228297 92.987877 
L 95.469025 98.821208 
L 95.950481 114.858118 
L 96.191209 119.171363 
L 97.154122 125.441719 
L 98.117034 117.499268 
L 98.598491 108.872779 
L 98.839219 107.732714 
L 99.320675 113.338032 
L 99.561403 116.663221 
L 100.04286 117.765283 
L 100.283588 119.779398 
L 100.524316 124.035639 
L 100.765044 125.745736 
L 101.005772 124.700677 
L 101.2465 121.318485 
L 101.968685 118.145305 
L 102.209413 116.11219 
L 102.450141 115.922179 
L 102.690869 116.169193 
L 102.931598 118.183307 
L 103.172326 118.373318 
L 103.413054 117.442265 
L 103.653782 115.504155 
L 103.89451 115.846174 
L 104.616695 124.510666 
L 104.857423 125.707734 
L 105.338879 126.885801 
L 105.579607 127.854856 
L 106.061064 127.531838 
L 106.301792 129.298938 
L 106.783248 135.284277 
L 107.505433 120.938463 
L 107.746161 117.385262 
L 108.468345 66.42437 
L 108.709073 80.219153 
L 109.19053 117.214252 
L 109.431258 124.529667 
L 109.912714 127.170817 
L 110.39417 133.498176 
L 110.634899 131.237048 
L 111.116355 120.596444 
L 111.357083 119.874403 
L 111.597811 114.402093 
L 112.079267 93.177888 
L 112.319996 92.645858 
L 113.04218 119.266369 
L 113.282908 122.097529 
L 114.005093 125.080698 
L 114.245821 123.446606 
L 114.727277 116.055186 
L 114.968005 115.59916 
L 115.208733 115.846174 
L 115.449462 114.022071 
L 115.69019 109.898837 
L 115.930918 108.853778 
L 116.171646 110.791888 
L 116.412374 114.687109 
L 116.653102 115.865176 
L 116.893831 118.164306 
L 117.375287 125.63173 
L 117.616015 125.498722 
L 117.856743 123.199592 
L 118.097471 119.28537 
L 118.338199 118.012297 
L 118.578928 118.126304 
L 118.819656 120.064414 
L 119.060384 120.026412 
L 119.54184 115.751169 
L 119.782568 116.017184 
L 120.264025 117.917292 
L 120.504753 117.632276 
L 120.745481 117.860289 
L 121.949122 125.004694 
L 122.430578 129.355941 
L 122.671306 129.69796 
L 122.912034 127.607842 
L 123.152763 128.348884 
L 123.634219 133.555179 
L 123.874947 132.092096 
L 124.356403 123.028582 
L 124.597131 119.893404 
L 124.83786 107.048675 
L 125.319316 65.284306 
L 125.560044 71.592664 
L 126.0415 112.996013 
L 126.282229 124.282653 
L 126.522957 127.949861 
L 126.763685 129.222933 
L 127.004413 129.355941 
L 127.245141 131.009035 
L 127.485869 129.222933 
L 127.967326 122.135531 
L 128.208054 121.470494 
L 128.448782 117.556272 
L 129.170966 91.581798 
L 129.411695 97.26312 
L 129.893151 117.233253 
L 130.133879 122.45855 
L 130.374607 124.833684 
L 130.615335 125.63173 
L 130.856064 124.491665 
L 131.578248 116.131191 
L 131.818976 116.207195 
L 132.059704 117.385262 
L 132.300432 116.340203 
L 132.781889 108.777773 
L 133.022617 109.005786 
L 133.98553 122.800569 
L 134.226258 126.600785 
L 134.466986 125.498722 
L 135.18917 118.221309 
L 135.429898 117.081245 
L 135.911355 119.608388 
L 136.152083 118.753339 
L 136.392811 116.435208 
L 136.633539 116.169193 
L 136.874267 116.416207 
L 137.114996 117.138248 
L 137.355724 117.423264 
L 137.596452 118.164306 
L 138.077908 120.976466 
L 138.318636 121.527497 
L 138.800093 123.769624 
L 139.040821 125.251708 
L 139.522277 129.298938 
L 140.003733 130.324996 
L 140.48519 134.676243 
L 140.725918 134.80925 
L 141.207374 124.035639 
L 141.448102 120.71045 
L 141.68883 111.0009 
L 142.170287 69.06552 
L 142.411015 67.792448 
L 143.133199 118.677335 
L 143.373928 127.246821 
L 143.614656 131.560066 
L 144.096112 134.771248 
L 144.33684 132.548122 
L 145.059025 119.304371 
L 145.299753 117.803286 
L 145.540481 111.399922 
L 146.021937 92.721862 
L 146.262665 94.146943 
L 146.98485 120.330429 
L 147.225578 124.776681 
L 147.466306 126.790795 
L 147.707034 126.448776 
L 147.947763 124.700677 
L 148.669947 114.17408 
L 149.151403 116.416207 
L 149.392131 115.06713 
L 149.63286 111.323918 
L 149.873588 110.82989 
L 150.114316 113.889063 
L 150.355044 118.544328 
L 150.595772 120.34943 
L 151.077229 115.295143 
L 151.317957 115.333145 
L 152.040141 122.572556 
L 152.521597 120.330429 
L 152.762326 120.88146 
L 153.003054 120.653447 
L 153.48451 117.233253 
L 153.725238 117.024241 
L 153.965966 118.012297 
L 154.206695 118.41132 
L 154.447423 117.271255 
L 154.688151 115.466153 
L 154.928879 114.630105 
L 155.169607 116.188194 
L 155.891792 127.151816 
L 156.13252 128.880914 
L 156.613976 129.925973 
L 156.854704 130.020979 
L 157.817617 135.265276 
L 158.058345 132.225104 
L 158.299073 126.69579 
L 158.539801 117.404263 
L 159.261986 65.341309 
L 159.502714 70.927626 
L 160.224898 122.591557 
L 160.465627 130.401 
L 160.706355 134.543235 
L 161.187811 132.757134 
L 162.391452 117.100246 
L 163.113636 92.455847 
L 163.354364 95.515021 
L 164.076549 121.147475 
L 164.317277 125.745736 
L 164.558005 127.854856 
L 164.798733 126.733792 
L 165.761646 113.908065 
L 166.002374 115.162136 
L 166.243102 115.713167 
L 166.724559 111.53293 
L 166.965287 112.159965 
L 167.446743 118.94335 
L 167.928199 114.649107 
L 168.168928 116.929236 
L 168.409656 122.64856 
L 168.650384 125.346714 
L 168.891112 122.724565 
L 169.13184 118.487324 
L 169.372568 117.157249 
L 169.854025 121.280483 
L 170.094753 121.128474 
L 170.576209 116.549214 
L 171.057665 118.430321 
L 171.298394 117.119247 
L 171.539122 114.307087 
L 171.77985 113.528043 
L 172.020578 116.815229 
L 172.502034 124.92869 
L 173.705675 131.27505 
L 173.946403 130.800023 
L 174.187131 131.63607 
L 174.42786 134.011205 
L 174.668588 134.885255 
L 174.909316 132.225104 
L 175.390772 122.11653 
L 175.6315 111.760943 
L 176.112957 70.129581 
L 176.353685 65.265305 
L 176.594413 78.281043 
L 177.075869 114.440095 
L 177.557326 132.453117 
L 177.798054 135.759304 
L 178.038782 135.664299 
L 178.27951 133.422172 
L 178.760966 123.294597 
L 179.001694 120.938463 
L 179.242423 119.703393 
L 179.483151 113.889063 
L 179.964607 94.013936 
L 180.205335 92.113828 
L 180.446063 98.517191 
L 180.92752 117.366261 
L 181.408976 127.835855 
L 181.649704 129.051924 
L 181.890432 126.961805 
L 182.612617 113.072017 
L 182.853345 113.946067 
L 183.094073 115.789171 
L 183.334801 115.694166 
L 183.816258 111.019901 
L 184.056986 110.962897 
L 184.297714 111.418923 
L 184.538442 113.851061 
L 185.019898 124.966692 
L 185.260627 126.980806 
L 185.501355 125.802739 
L 186.223539 116.11219 
L 186.464267 116.359204 
L 186.945724 119.665391 
L 187.42718 118.41132 
L 187.908636 116.340203 
L 188.149364 115.523156 
L 188.390093 115.922179 
L 188.630821 117.480267 
L 189.112277 123.085585 
L 189.353005 124.491665 
L 189.593733 124.491665 
L 189.834461 124.605672 
L 190.07519 125.403717 
L 190.797374 130.096983 
L 191.27883 136.082323 
L 191.519559 137.640411 
L 191.760287 135.341281 
L 192.241743 125.251708 
L 192.482471 114.611104 
L 192.963927 68.818506 
L 193.204656 62.434144 
L 193.445384 73.720784 
L 194.167568 125.46072 
L 194.408296 134.733246 
L 194.649025 138.305449 
L 194.889753 137.526405 
L 195.130481 135.037263 
L 195.611937 123.332599 
L 195.852665 121.679505 
L 196.093393 121.185477 
L 196.334122 115.675165 
L 196.815578 94.393957 
L 197.056306 90.650745 
L 197.297034 94.640971 
L 198.259947 129.355941 
L 198.500675 131.541065 
L 198.741403 129.526951 
L 199.463588 113.547044 
L 199.704316 113.319031 
L 199.945044 115.143135 
L 200.185772 115.561158 
L 200.667228 111.437924 
L 200.907957 111.114906 
L 201.148685 110.981898 
L 201.389413 110.981898 
L 201.630141 114.991126 
L 202.111597 127.056811 
L 202.352326 128.443889 
L 202.593054 126.33477 
L 203.07451 117.518269 
L 203.315238 115.561158 
L 203.555966 116.397206 
L 203.796694 117.670278 
L 204.037423 118.24031 
L 204.278151 118.088302 
L 204.518879 118.126304 
L 205.000335 116.169193 
L 205.241063 115.504155 
L 205.481792 116.264198 
L 206.203976 124.92869 
L 206.444704 125.783738 
L 206.685432 125.175704 
L 206.92616 125.023695 
L 207.166889 125.536724 
L 207.407617 126.638787 
L 207.648345 129.032923 
L 208.129801 135.892312 
L 208.370529 137.868424 
L 208.611258 136.91837 
L 209.092714 129.051924 
L 209.333442 120.216422 
L 210.055626 59.165958 
L 210.296355 68.780504 
L 211.018539 121.109473 
L 211.259267 131.826081 
L 211.499995 137.507404 
L 211.740724 138.628467 
L 211.981452 137.165384 
L 212.462908 124.320655 
L 212.703636 121.926519 
L 212.944364 122.99058 
L 213.185092 119.608388 
L 213.907277 90.289724 
L 214.148005 92.094827 
L 215.351646 131.674073 
L 215.592374 131.921087 
L 215.833102 126.904802 
L 216.314558 113.794058 
L 216.555287 112.977012 
L 216.796015 114.972125 
L 217.036743 115.903178 
L 217.758927 111.323918 
L 218.240384 114.459096 
L 218.481112 113.604047 
L 218.72184 114.592103 
L 219.444024 128.6339 
L 219.684753 125.270709 
L 219.925481 119.437378 
L 220.166209 116.340203 
L 220.406937 116.47321 
L 220.647665 118.41132 
L 220.888393 118.772341 
L 221.36985 116.891234 
L 221.610578 117.822287 
L 221.851306 118.145305 
L 222.092034 117.00524 
L 222.332762 115.086131 
L 222.573491 115.865176 
L 223.295675 126.600785 
L 223.536403 126.980806 
L 223.777131 126.087756 
L 224.017859 125.859743 
L 224.258588 127.284824 
L 225.2215 135.968316 
L 225.462228 137.62141 
L 225.702957 135.892312 
L 225.943685 131.10404 
L 226.184413 121.41349 
L 226.906597 62.776163 
L 227.147325 68.153468 
L 228.350966 137.640411 
L 228.591694 137.925427 
L 228.832423 135.6833 
L 229.554607 123.997637 
L 229.795335 124.92869 
L 230.036063 121.75551 
L 230.758248 92.32284 
L 230.998976 90.764751 
L 231.239704 95.610026 
L 232.202617 130.781022 
L 232.443345 132.320109 
L 232.684073 129.16593 
L 233.165529 116.017184 
L 233.406257 113.30003 
L 233.887714 115.523156 
L 234.128442 115.124134 
L 234.609898 112.520986 
L 234.850626 112.748999 
L 235.091355 114.307087 
L 235.332083 113.015014 
L 235.572811 110.677881 
L 235.813539 114.250084 
L 236.294995 130.324996 
L 236.535723 129.089926 
L 237.01718 117.632276 
L 237.257908 116.378205 
L 237.498636 116.720224 
L 237.739364 117.594274 
L 238.220821 116.074187 
L 238.461549 117.575273 
L 238.702277 120.273426 
L 238.943005 119.931406 
L 239.424461 114.478097 
L 239.66519 117.062243 
L 240.146646 127.094813 
L 240.387374 127.493835 
L 240.628102 126.372772 
L 240.86883 125.973749 
L 241.109558 127.170817 
L 242.072471 136.91837 
L 242.313199 139.255503 
L 242.553927 139.008489 
L 242.794656 134.80925 
L 243.035384 121.793512 
L 243.51684 68.609494 
L 243.757568 58.462919 
L 243.998296 67.032405 
L 244.961209 129.374942 
L 245.201937 136.861367 
L 245.442665 139.38851 
L 245.683393 138.780476 
L 246.16485 127.113814 
L 246.405578 126.239764 
L 246.646306 127.189818 
L 246.887034 122.496552 
L 247.609219 90.821755 
L 247.849947 90.137716 
L 248.090675 94.716976 
L 249.053588 130.74302 
L 249.294316 133.460174 
L 249.535044 130.515007 
L 250.0165 116.701223 
L 250.257228 114.630105 
L 250.497956 115.390149 
L 250.738685 115.694166 
L 251.220141 111.171909 
L 251.460869 106.497644 
L 251.701597 104.673541 
L 251.942325 108.340749 
L 252.423782 123.769624 
L 252.66451 128.747907 
L 252.905238 130.03998 
L 253.145966 129.146929 
L 253.868151 114.915122 
L 254.108879 113.623048 
L 254.349607 114.250084 
L 254.831063 118.373318 
L 255.071791 118.772341 
L 255.31252 116.929236 
L 255.553248 116.017184 
L 255.793976 116.378205 
L 256.275432 120.938463 
L 256.756888 127.208819 
L 256.997617 128.481891 
L 257.238345 127.873857 
L 257.719801 124.301654 
L 257.960529 125.175704 
L 258.923442 138.514461 
L 259.16417 139.350508 
L 259.404898 137.735416 
L 259.645626 130.001978 
L 260.367811 57.24685 
L 260.608539 63.061179 
L 261.81218 134.334224 
L 262.052908 139.122495 
L 262.293636 140.585578 
L 262.534364 135.15127 
L 262.775092 126.505779 
L 263.015821 124.92869 
L 263.256549 128.481891 
L 263.497277 127.113814 
L 263.978733 102.830436 
L 264.219461 92.341841 
L 264.460189 89.263666 
L 264.700918 91.79081 
L 265.182374 109.347806 
L 265.66383 127.683846 
L 265.904558 133.593181 
L 266.145287 133.080152 
L 266.867471 115.998183 
L 267.108199 116.568215 
L 267.348927 116.720224 
L 267.589655 114.136077 
L 268.071112 103.894496 
L 268.31184 106.041618 
L 269.034024 122.002524 
L 269.515481 130.420001 
L 269.756209 130.248992 
L 269.996937 126.277766 
L 270.478393 114.87712 
L 270.719121 112.539987 
L 271.200578 117.119247 
L 271.441306 117.34726 
L 271.682034 115.979182 
L 271.922762 115.751169 
L 272.404219 117.670278 
L 272.644947 118.753339 
L 273.126403 125.688733 
L 273.367131 128.80491 
L 273.607859 129.298938 
L 273.848587 128.120871 
L 274.330044 123.541611 
L 274.570772 124.966692 
L 275.052228 130.515007 
L 275.533685 134.524234 
L 275.774413 135.85431 
L 276.015141 135.531291 
L 276.255869 131.997091 
L 276.496597 113.148021 
L 276.978053 61.712103 
L 277.218782 65.132297 
L 278.663151 138.533462 
L 278.903879 140.851593 
L 279.144607 136.063322 
L 279.385335 125.498722 
L 279.626063 121.888517 
L 279.866791 126.33477 
L 280.10752 128.519894 
L 280.348248 121.185477 
L 280.829704 97.168115 
L 281.070432 92.892872 
L 281.31116 93.02588 
L 281.551888 97.149114 
L 282.033345 114.288086 
L 282.514801 131.617069 
L 282.755529 133.555179 
L 282.996257 128.234877 
L 283.236986 119.494381 
L 283.477714 115.466153 
L 283.95917 116.340203 
L 284.681354 108.055732 
L 284.922083 109.575819 
L 285.403539 116.150192 
L 286.366452 130.03998 
L 286.60718 127.93086 
L 287.088636 116.188194 
L 287.329364 114.022071 
L 288.292277 115.77017 
L 289.495918 121.451493 
L 290.218102 129.146929 
L 290.45883 128.538895 
L 290.699558 126.809797 
L 290.940286 125.954748 
L 291.421743 129.393943 
L 291.662471 130.191988 
L 291.903199 130.362998 
L 292.625384 135.474288 
L 292.866112 130.990034 
L 293.588296 61.959117 
L 293.829024 68.685499 
L 294.551209 107.846721 
L 295.032665 133.783192 
L 295.273393 138.780476 
L 295.514121 139.274504 
L 295.75485 133.308165 
L 295.995578 123.579613 
L 296.236306 124.092642 
L 296.477034 129.16593 
L 296.717762 129.602955 
L 297.680675 93.082883 
L 297.921403 92.474848 
L 298.162131 96.750091 
L 298.643587 114.687109 
L 299.125044 132.51012 
L 299.365772 132.966146 
L 299.847228 118.639333 
L 300.087956 116.3022 
L 300.328685 117.233253 
L 300.569413 115.865176 
L 301.050869 109.708826 
L 301.291597 109.803832 
L 301.532325 111.038902 
L 302.013782 117.081245 
L 302.976694 129.203932 
L 303.217422 126.372772 
L 303.698879 116.929236 
L 303.939607 115.485154 
L 304.180335 115.352146 
L 304.421063 114.839117 
L 304.661791 114.896121 
L 304.902519 115.637163 
L 305.383976 118.449322 
L 305.865432 121.470494 
L 306.346888 124.833684 
L 306.828345 129.374942 
L 307.069073 129.526951 
L 307.309801 129.222933 
L 307.550529 130.134985 
L 307.791257 130.362998 
L 308.272714 128.196875 
L 308.513442 129.583954 
L 308.994898 133.650185 
L 309.235626 131.44606 
L 309.476354 112.672994 
L 309.957811 66.367367 
L 310.198539 69.217529 
L 310.679995 91.125772 
L 311.40218 130.362998 
L 311.642908 136.690357 
L 311.883636 138.305449 
L 312.124364 133.897199 
L 312.365092 124.187648 
L 312.60582 123.009581 
L 313.087277 129.925973 
L 313.328005 123.294597 
L 313.809461 102.431413 
L 314.050189 96.446074 
L 314.290917 93.272894 
L 314.531646 94.773979 
L 314.772374 100.056279 
L 315.735286 132.833138 
L 315.976015 128.690903 
L 316.457471 117.423264 
L 316.698199 116.359204 
L 317.420384 110.791888 
L 317.661112 111.323918 
L 317.90184 112.806002 
L 319.346209 127.265822 
L 319.586937 126.486778 
L 320.309121 117.252254 
L 320.790578 114.440095 
L 321.031306 114.041072 
L 321.272034 114.5351 
L 321.512762 115.884177 
L 323.438587 131.370055 
L 323.679316 131.731076 
L 323.920044 131.674073 
L 324.160772 130.762021 
L 324.642228 126.942804 
L 324.882956 127.835855 
L 325.364413 133.593181 
L 325.605141 127.873857 
L 326.327325 71.687669 
L 326.568053 74.081805 
L 326.808782 79.858133 
L 327.04951 89.662689 
L 327.771694 130.134985 
L 328.012422 137.184385 
L 328.25315 138.761475 
L 328.734607 124.263652 
L 328.975335 125.004694 
L 329.216063 128.614899 
L 329.456791 128.747907 
L 330.660432 93.899929 
L 330.90116 94.013936 
L 331.141888 98.441187 
L 331.864073 127.436832 
L 332.104801 130.096983 
L 332.345529 127.246821 
L 332.586257 122.325542 
L 333.308442 115.048129 
L 333.54917 110.734884 
L 333.789898 109.765829 
L 334.512082 117.898291 
L 334.752811 118.658334 
L 334.993539 118.924349 
L 335.234267 120.539441 
L 335.715723 125.612729 
L 335.956451 124.301654 
L 336.437908 120.140418 
L 336.678636 119.684392 
L 336.919364 118.373318 
L 337.40082 113.775057 
L 337.641549 113.452039 
L 337.882277 115.295143 
L 338.363733 120.862459 
L 339.808102 131.769078 
L 340.04883 132.51012 
L 340.530286 128.766908 
L 340.771015 128.139872 
L 341.252471 129.089926 
L 341.493199 129.127928 
L 341.733927 127.892858 
L 341.733927 127.892858 
" style="fill:none;stroke:#000000;stroke-linecap:square;stroke-width:1.5;"/>
   </g>
   <g id="patch_3">
    <path d="M 68.87 174.04 
L 68.87 29.76 
" style="fill:none;stroke:#000000;stroke-linecap:square;stroke-linejoin:miter;stroke-width:0.8;"/>
   </g>
   <g id="patch_4">
    <path d="M 341.719179 174.04 
L 341.719179 29.76 
" style="fill:none;stroke:#000000;stroke-linecap:square;stroke-linejoin:miter;stroke-width:0.8;"/>
   </g>
   <g id="patch_5">
    <path d="M 68.87 174.04 
L 341.719179 174.04 
" style="fill:none;stroke:#000000;stroke-linecap:square;stroke-linejoin:miter;stroke-width:0.8;"/>
   </g>
   <g id="patch_6">
    <path d="M 68.87 29.76 
L 341.719179 29.76 
" style="fill:none;stroke:#000000;stroke-linecap:square;stroke-linejoin:miter;stroke-width:0.8;"/>
   </g>
   <g id="text_15">
    <!-- "don't ask me" -->
    <defs>
     <path d="M 17.921875 72.90625 
L 17.921875 45.796875 
L 9.625 45.796875 
L 9.625 72.90625 
z
M 36.375 72.90625 
L 36.375 45.796875 
L 28.078125 45.796875 
L 28.078125 72.90625 
z
" id="DejaVuSans-34"/>
     <path d="M 30.609375 48.390625 
Q 23.390625 48.390625 19.1875 42.75 
Q 14.984375 37.109375 14.984375 27.296875 
Q 14.984375 17.484375 19.15625 11.84375 
Q 23.34375 6.203125 30.609375 6.203125 
Q 37.796875 6.203125 41.984375 11.859375 
Q 46.1875 17.53125 46.1875 27.296875 
Q 46.1875 37.015625 41.984375 42.703125 
Q 37.796875 48.390625 30.609375 48.390625 
z
M 30.609375 56 
Q 42.328125 56 49.015625 48.375 
Q 55.71875 40.765625 55.71875 27.296875 
Q 55.71875 13.875 49.015625 6.21875 
Q 42.328125 -1.421875 30.609375 -1.421875 
Q 18.84375 -1.421875 12.171875 6.21875 
Q 5.515625 13.875 5.515625 27.296875 
Q 5.515625 40.765625 12.171875 48.375 
Q 18.84375 56 30.609375 56 
z
" id="DejaVuSans-111"/>
     <path d="M 54.890625 33.015625 
L 54.890625 0 
L 45.90625 0 
L 45.90625 32.71875 
Q 45.90625 40.484375 42.875 44.328125 
Q 39.84375 48.1875 33.796875 48.1875 
Q 26.515625 48.1875 22.3125 43.546875 
Q 18.109375 38.921875 18.109375 30.90625 
L 18.109375 0 
L 9.078125 0 
L 9.078125 54.6875 
L 18.109375 54.6875 
L 18.109375 46.1875 
Q 21.34375 51.125 25.703125 53.5625 
Q 30.078125 56 35.796875 56 
Q 45.21875 56 50.046875 50.171875 
Q 54.890625 44.34375 54.890625 33.015625 
z
" id="DejaVuSans-110"/>
     <path d="M 17.921875 72.90625 
L 17.921875 45.796875 
L 9.625 45.796875 
L 9.625 72.90625 
z
" id="DejaVuSans-39"/>
     <path d="M 34.28125 27.484375 
Q 23.390625 27.484375 19.1875 25 
Q 14.984375 22.515625 14.984375 16.5 
Q 14.984375 11.71875 18.140625 8.90625 
Q 21.296875 6.109375 26.703125 6.109375 
Q 34.1875 6.109375 38.703125 11.40625 
Q 43.21875 16.703125 43.21875 25.484375 
L 43.21875 27.484375 
z
M 52.203125 31.203125 
L 52.203125 0 
L 43.21875 0 
L 43.21875 8.296875 
Q 40.140625 3.328125 35.546875 0.953125 
Q 30.953125 -1.421875 24.3125 -1.421875 
Q 15.921875 -1.421875 10.953125 3.296875 
Q 6 8.015625 6 15.921875 
Q 6 25.140625 12.171875 29.828125 
Q 18.359375 34.515625 30.609375 34.515625 
L 43.21875 34.515625 
L 43.21875 35.40625 
Q 43.21875 41.609375 39.140625 45 
Q 35.0625 48.390625 27.6875 48.390625 
Q 23 48.390625 18.546875 47.265625 
Q 14.109375 46.140625 10.015625 43.890625 
L 10.015625 52.203125 
Q 14.9375 54.109375 19.578125 55.046875 
Q 24.21875 56 28.609375 56 
Q 40.484375 56 46.34375 49.84375 
Q 52.203125 43.703125 52.203125 31.203125 
z
" id="DejaVuSans-97"/>
     <path d="M 9.078125 75.984375 
L 18.109375 75.984375 
L 18.109375 31.109375 
L 44.921875 54.6875 
L 56.390625 54.6875 
L 27.390625 29.109375 
L 57.625 0 
L 45.90625 0 
L 18.109375 26.703125 
L 18.109375 0 
L 9.078125 0 
z
" id="DejaVuSans-107"/>
    </defs>
    <g transform="translate(146.053339 23.76)scale(0.16 -0.16)">
     <use xlink:href="#DejaVuSans-34"/>
     <use x="45.996094" xlink:href="#DejaVuSans-100"/>
     <use x="109.472656" xlink:href="#DejaVuSans-111"/>
     <use x="170.654297" xlink:href="#DejaVuSans-110"/>
     <use x="234.033203" xlink:href="#DejaVuSans-39"/>
     <use x="261.523438" xlink:href="#DejaVuSans-116"/>
     <use x="300.732422" xlink:href="#DejaVuSans-32"/>
     <use x="332.519531" xlink:href="#DejaVuSans-97"/>
     <use x="393.798828" xlink:href="#DejaVuSans-115"/>
     <use x="445.898438" xlink:href="#DejaVuSans-107"/>
     <use x="503.808594" xlink:href="#DejaVuSans-32"/>
     <use x="535.595703" xlink:href="#DejaVuSans-109"/>
     <use x="633.007812" xlink:href="#DejaVuSans-101"/>
     <use x="694.53125" xlink:href="#DejaVuSans-34"/>
    </g>
   </g>
  </g>
 </g>
 <defs>
  <clipPath id="pe2b41f24f1">
   <rect height="144.28" width="272.849179" x="68.87" y="29.76"/>
  </clipPath>
 </defs>
</svg>
