<?xml version="1.0" encoding="utf-8" standalone="no"?>
<!DOCTYPE svg PUBLIC "-//W3C//DTD SVG 1.1//EN"
  "http://www.w3.org/Graphics/SVG/1.1/DTD/svg11.dtd">
<!-- Created with matplotlib (https://matplotlib.org/) -->
<svg height="222.48pt" version="1.1" viewBox="0 0 353.52 222.48" width="353.52pt" xmlns="http://www.w3.org/2000/svg" xmlns:xlink="http://www.w3.org/1999/xlink">
 <defs>
  <style type="text/css">
*{stroke-linecap:butt;stroke-linejoin:round;}
  </style>
 </defs>
 <g id="figure_1">
  <g id="patch_1">
   <path d="M 0 222.48 
L 353.52 222.48 
L 353.52 0 
L 0 0 
z
" style="fill:#ffffff;"/>
  </g>
  <g id="axes_1">
   <g id="patch_2">
    <path d="M 68.87 174.04 
L 341.719179 174.04 
L 341.719179 29.76 
L 68.87 29.76 
z
" style="fill:#ffffff;"/>
   </g>
   <g id="matplotlib.axis_1">
    <g id="xtick_1">
     <g id="line2d_1">
      <defs>
       <path d="M 0 0 
L 0 3.5 
" id="m152c5e8fe4" style="stroke:#000000;stroke-width:0.8;"/>
      </defs>
      <g>
       <use style="stroke:#000000;stroke-width:0.8;" x="97.92873" xlink:href="#m152c5e8fe4" y="174.04"/>
      </g>
     </g>
     <g id="text_1">
      <!-- 0.91 -->
      <defs>
       <path d="M 31.78125 66.40625 
Q 24.171875 66.40625 20.328125 58.90625 
Q 16.5 51.421875 16.5 36.375 
Q 16.5 21.390625 20.328125 13.890625 
Q 24.171875 6.390625 31.78125 6.390625 
Q 39.453125 6.390625 43.28125 13.890625 
Q 47.125 21.390625 47.125 36.375 
Q 47.125 51.421875 43.28125 58.90625 
Q 39.453125 66.40625 31.78125 66.40625 
z
M 31.78125 74.21875 
Q 44.046875 74.21875 50.515625 64.515625 
Q 56.984375 54.828125 56.984375 36.375 
Q 56.984375 17.96875 50.515625 8.265625 
Q 44.046875 -1.421875 31.78125 -1.421875 
Q 19.53125 -1.421875 13.0625 8.265625 
Q 6.59375 17.96875 6.59375 36.375 
Q 6.59375 54.828125 13.0625 64.515625 
Q 19.53125 74.21875 31.78125 74.21875 
z
" id="DejaVuSans-48"/>
       <path d="M 10.6875 12.40625 
L 21 12.40625 
L 21 0 
L 10.6875 0 
z
" id="DejaVuSans-46"/>
       <path d="M 10.984375 1.515625 
L 10.984375 10.5 
Q 14.703125 8.734375 18.5 7.8125 
Q 22.3125 6.890625 25.984375 6.890625 
Q 35.75 6.890625 40.890625 13.453125 
Q 46.046875 20.015625 46.78125 33.40625 
Q 43.953125 29.203125 39.59375 26.953125 
Q 35.25 24.703125 29.984375 24.703125 
Q 19.046875 24.703125 12.671875 31.3125 
Q 6.296875 37.9375 6.296875 49.421875 
Q 6.296875 60.640625 12.9375 67.421875 
Q 19.578125 74.21875 30.609375 74.21875 
Q 43.265625 74.21875 49.921875 64.515625 
Q 56.59375 54.828125 56.59375 36.375 
Q 56.59375 19.140625 48.40625 8.859375 
Q 40.234375 -1.421875 26.421875 -1.421875 
Q 22.703125 -1.421875 18.890625 -0.6875 
Q 15.09375 0.046875 10.984375 1.515625 
z
M 30.609375 32.421875 
Q 37.25 32.421875 41.125 36.953125 
Q 45.015625 41.5 45.015625 49.421875 
Q 45.015625 57.28125 41.125 61.84375 
Q 37.25 66.40625 30.609375 66.40625 
Q 23.96875 66.40625 20.09375 61.84375 
Q 16.21875 57.28125 16.21875 49.421875 
Q 16.21875 41.5 20.09375 36.953125 
Q 23.96875 32.421875 30.609375 32.421875 
z
" id="DejaVuSans-57"/>
       <path d="M 12.40625 8.296875 
L 28.515625 8.296875 
L 28.515625 63.921875 
L 10.984375 60.40625 
L 10.984375 69.390625 
L 28.421875 72.90625 
L 38.28125 72.90625 
L 38.28125 8.296875 
L 54.390625 8.296875 
L 54.390625 0 
L 12.40625 0 
z
" id="DejaVuSans-49"/>
      </defs>
      <g transform="translate(86.795918 188.638438)scale(0.1 -0.1)">
       <use xlink:href="#DejaVuSans-48"/>
       <use x="63.623047" xlink:href="#DejaVuSans-46"/>
       <use x="95.410156" xlink:href="#DejaVuSans-57"/>
       <use x="159.033203" xlink:href="#DejaVuSans-49"/>
      </g>
     </g>
    </g>
    <g id="xtick_2">
     <g id="line2d_2">
      <g>
       <use style="stroke:#000000;stroke-width:0.8;" x="136.445235" xlink:href="#m152c5e8fe4" y="174.04"/>
      </g>
     </g>
     <g id="text_2">
      <!-- 0.92 -->
      <defs>
       <path d="M 19.1875 8.296875 
L 53.609375 8.296875 
L 53.609375 0 
L 7.328125 0 
L 7.328125 8.296875 
Q 12.9375 14.109375 22.625 23.890625 
Q 32.328125 33.6875 34.8125 36.53125 
Q 39.546875 41.84375 41.421875 45.53125 
Q 43.3125 49.21875 43.3125 52.78125 
Q 43.3125 58.59375 39.234375 62.25 
Q 35.15625 65.921875 28.609375 65.921875 
Q 23.96875 65.921875 18.8125 64.3125 
Q 13.671875 62.703125 7.8125 59.421875 
L 7.8125 69.390625 
Q 13.765625 71.78125 18.9375 73 
Q 24.125 74.21875 28.421875 74.21875 
Q 39.75 74.21875 46.484375 68.546875 
Q 53.21875 62.890625 53.21875 53.421875 
Q 53.21875 48.921875 51.53125 44.890625 
Q 49.859375 40.875 45.40625 35.40625 
Q 44.1875 33.984375 37.640625 27.21875 
Q 31.109375 20.453125 19.1875 8.296875 
z
" id="DejaVuSans-50"/>
      </defs>
      <g transform="translate(125.312422 188.638438)scale(0.1 -0.1)">
       <use xlink:href="#DejaVuSans-48"/>
       <use x="63.623047" xlink:href="#DejaVuSans-46"/>
       <use x="95.410156" xlink:href="#DejaVuSans-57"/>
       <use x="159.033203" xlink:href="#DejaVuSans-50"/>
      </g>
     </g>
    </g>
    <g id="xtick_3">
     <g id="line2d_3">
      <g>
       <use style="stroke:#000000;stroke-width:0.8;" x="174.96174" xlink:href="#m152c5e8fe4" y="174.04"/>
      </g>
     </g>
     <g id="text_3">
      <!-- 0.93 -->
      <defs>
       <path d="M 40.578125 39.3125 
Q 47.65625 37.796875 51.625 33 
Q 55.609375 28.21875 55.609375 21.1875 
Q 55.609375 10.40625 48.1875 4.484375 
Q 40.765625 -1.421875 27.09375 -1.421875 
Q 22.515625 -1.421875 17.65625 -0.515625 
Q 12.796875 0.390625 7.625 2.203125 
L 7.625 11.71875 
Q 11.71875 9.328125 16.59375 8.109375 
Q 21.484375 6.890625 26.8125 6.890625 
Q 36.078125 6.890625 40.9375 10.546875 
Q 45.796875 14.203125 45.796875 21.1875 
Q 45.796875 27.640625 41.28125 31.265625 
Q 36.765625 34.90625 28.71875 34.90625 
L 20.21875 34.90625 
L 20.21875 43.015625 
L 29.109375 43.015625 
Q 36.375 43.015625 40.234375 45.921875 
Q 44.09375 48.828125 44.09375 54.296875 
Q 44.09375 59.90625 40.109375 62.90625 
Q 36.140625 65.921875 28.71875 65.921875 
Q 24.65625 65.921875 20.015625 65.03125 
Q 15.375 64.15625 9.8125 62.3125 
L 9.8125 71.09375 
Q 15.4375 72.65625 20.34375 73.4375 
Q 25.25 74.21875 29.59375 74.21875 
Q 40.828125 74.21875 47.359375 69.109375 
Q 53.90625 64.015625 53.90625 55.328125 
Q 53.90625 49.265625 50.4375 45.09375 
Q 46.96875 40.921875 40.578125 39.3125 
z
" id="DejaVuSans-51"/>
      </defs>
      <g transform="translate(163.828927 188.638438)scale(0.1 -0.1)">
       <use xlink:href="#DejaVuSans-48"/>
       <use x="63.623047" xlink:href="#DejaVuSans-46"/>
       <use x="95.410156" xlink:href="#DejaVuSans-57"/>
       <use x="159.033203" xlink:href="#DejaVuSans-51"/>
      </g>
     </g>
    </g>
    <g id="xtick_4">
     <g id="line2d_4">
      <g>
       <use style="stroke:#000000;stroke-width:0.8;" x="213.478244" xlink:href="#m152c5e8fe4" y="174.04"/>
      </g>
     </g>
     <g id="text_4">
      <!-- 0.94 -->
      <defs>
       <path d="M 37.796875 64.3125 
L 12.890625 25.390625 
L 37.796875 25.390625 
z
M 35.203125 72.90625 
L 47.609375 72.90625 
L 47.609375 25.390625 
L 58.015625 25.390625 
L 58.015625 17.1875 
L 47.609375 17.1875 
L 47.609375 0 
L 37.796875 0 
L 37.796875 17.1875 
L 4.890625 17.1875 
L 4.890625 26.703125 
z
" id="DejaVuSans-52"/>
      </defs>
      <g transform="translate(202.345432 188.638438)scale(0.1 -0.1)">
       <use xlink:href="#DejaVuSans-48"/>
       <use x="63.623047" xlink:href="#DejaVuSans-46"/>
       <use x="95.410156" xlink:href="#DejaVuSans-57"/>
       <use x="159.033203" xlink:href="#DejaVuSans-52"/>
      </g>
     </g>
    </g>
    <g id="xtick_5">
     <g id="line2d_5">
      <g>
       <use style="stroke:#000000;stroke-width:0.8;" x="251.994749" xlink:href="#m152c5e8fe4" y="174.04"/>
      </g>
     </g>
     <g id="text_5">
      <!-- 0.95 -->
      <defs>
       <path d="M 10.796875 72.90625 
L 49.515625 72.90625 
L 49.515625 64.59375 
L 19.828125 64.59375 
L 19.828125 46.734375 
Q 21.96875 47.46875 24.109375 47.828125 
Q 26.265625 48.1875 28.421875 48.1875 
Q 40.625 48.1875 47.75 41.5 
Q 54.890625 34.8125 54.890625 23.390625 
Q 54.890625 11.625 47.5625 5.09375 
Q 40.234375 -1.421875 26.90625 -1.421875 
Q 22.3125 -1.421875 17.546875 -0.640625 
Q 12.796875 0.140625 7.71875 1.703125 
L 7.71875 11.625 
Q 12.109375 9.234375 16.796875 8.0625 
Q 21.484375 6.890625 26.703125 6.890625 
Q 35.15625 6.890625 40.078125 11.328125 
Q 45.015625 15.765625 45.015625 23.390625 
Q 45.015625 31 40.078125 35.4375 
Q 35.15625 39.890625 26.703125 39.890625 
Q 22.75 39.890625 18.8125 39.015625 
Q 14.890625 38.140625 10.796875 36.28125 
z
" id="DejaVuSans-53"/>
      </defs>
      <g transform="translate(240.861937 188.638438)scale(0.1 -0.1)">
       <use xlink:href="#DejaVuSans-48"/>
       <use x="63.623047" xlink:href="#DejaVuSans-46"/>
       <use x="95.410156" xlink:href="#DejaVuSans-57"/>
       <use x="159.033203" xlink:href="#DejaVuSans-53"/>
      </g>
     </g>
    </g>
    <g id="xtick_6">
     <g id="line2d_6">
      <g>
       <use style="stroke:#000000;stroke-width:0.8;" x="290.511254" xlink:href="#m152c5e8fe4" y="174.04"/>
      </g>
     </g>
     <g id="text_6">
      <!-- 0.96 -->
      <defs>
       <path d="M 33.015625 40.375 
Q 26.375 40.375 22.484375 35.828125 
Q 18.609375 31.296875 18.609375 23.390625 
Q 18.609375 15.53125 22.484375 10.953125 
Q 26.375 6.390625 33.015625 6.390625 
Q 39.65625 6.390625 43.53125 10.953125 
Q 47.40625 15.53125 47.40625 23.390625 
Q 47.40625 31.296875 43.53125 35.828125 
Q 39.65625 40.375 33.015625 40.375 
z
M 52.59375 71.296875 
L 52.59375 62.3125 
Q 48.875 64.0625 45.09375 64.984375 
Q 41.3125 65.921875 37.59375 65.921875 
Q 27.828125 65.921875 22.671875 59.328125 
Q 17.53125 52.734375 16.796875 39.40625 
Q 19.671875 43.65625 24.015625 45.921875 
Q 28.375 48.1875 33.59375 48.1875 
Q 44.578125 48.1875 50.953125 41.515625 
Q 57.328125 34.859375 57.328125 23.390625 
Q 57.328125 12.15625 50.6875 5.359375 
Q 44.046875 -1.421875 33.015625 -1.421875 
Q 20.359375 -1.421875 13.671875 8.265625 
Q 6.984375 17.96875 6.984375 36.375 
Q 6.984375 53.65625 15.1875 63.9375 
Q 23.390625 74.21875 37.203125 74.21875 
Q 40.921875 74.21875 44.703125 73.484375 
Q 48.484375 72.75 52.59375 71.296875 
z
" id="DejaVuSans-54"/>
      </defs>
      <g transform="translate(279.378441 188.638438)scale(0.1 -0.1)">
       <use xlink:href="#DejaVuSans-48"/>
       <use x="63.623047" xlink:href="#DejaVuSans-46"/>
       <use x="95.410156" xlink:href="#DejaVuSans-57"/>
       <use x="159.033203" xlink:href="#DejaVuSans-54"/>
      </g>
     </g>
    </g>
    <g id="xtick_7">
     <g id="line2d_7">
      <g>
       <use style="stroke:#000000;stroke-width:0.8;" x="329.027759" xlink:href="#m152c5e8fe4" y="174.04"/>
      </g>
     </g>
     <g id="text_7">
      <!-- 0.97 -->
      <defs>
       <path d="M 8.203125 72.90625 
L 55.078125 72.90625 
L 55.078125 68.703125 
L 28.609375 0 
L 18.3125 0 
L 43.21875 64.59375 
L 8.203125 64.59375 
z
" id="DejaVuSans-55"/>
      </defs>
      <g transform="translate(317.894946 188.638438)scale(0.1 -0.1)">
       <use xlink:href="#DejaVuSans-48"/>
       <use x="63.623047" xlink:href="#DejaVuSans-46"/>
       <use x="95.410156" xlink:href="#DejaVuSans-57"/>
       <use x="159.033203" xlink:href="#DejaVuSans-55"/>
      </g>
     </g>
    </g>
    <g id="text_8">
     <!-- Time (s) -->
     <defs>
      <path d="M -0.296875 72.90625 
L 61.375 72.90625 
L 61.375 64.59375 
L 35.5 64.59375 
L 35.5 0 
L 25.59375 0 
L 25.59375 64.59375 
L -0.296875 64.59375 
z
" id="DejaVuSans-84"/>
      <path d="M 9.421875 54.6875 
L 18.40625 54.6875 
L 18.40625 0 
L 9.421875 0 
z
M 9.421875 75.984375 
L 18.40625 75.984375 
L 18.40625 64.59375 
L 9.421875 64.59375 
z
" id="DejaVuSans-105"/>
      <path d="M 52 44.1875 
Q 55.375 50.25 60.0625 53.125 
Q 64.75 56 71.09375 56 
Q 79.640625 56 84.28125 50.015625 
Q 88.921875 44.046875 88.921875 33.015625 
L 88.921875 0 
L 79.890625 0 
L 79.890625 32.71875 
Q 79.890625 40.578125 77.09375 44.375 
Q 74.3125 48.1875 68.609375 48.1875 
Q 61.625 48.1875 57.5625 43.546875 
Q 53.515625 38.921875 53.515625 30.90625 
L 53.515625 0 
L 44.484375 0 
L 44.484375 32.71875 
Q 44.484375 40.625 41.703125 44.40625 
Q 38.921875 48.1875 33.109375 48.1875 
Q 26.21875 48.1875 22.15625 43.53125 
Q 18.109375 38.875 18.109375 30.90625 
L 18.109375 0 
L 9.078125 0 
L 9.078125 54.6875 
L 18.109375 54.6875 
L 18.109375 46.1875 
Q 21.1875 51.21875 25.484375 53.609375 
Q 29.78125 56 35.6875 56 
Q 41.65625 56 45.828125 52.96875 
Q 50 49.953125 52 44.1875 
z
" id="DejaVuSans-109"/>
      <path d="M 56.203125 29.59375 
L 56.203125 25.203125 
L 14.890625 25.203125 
Q 15.484375 15.921875 20.484375 11.0625 
Q 25.484375 6.203125 34.421875 6.203125 
Q 39.59375 6.203125 44.453125 7.46875 
Q 49.3125 8.734375 54.109375 11.28125 
L 54.109375 2.78125 
Q 49.265625 0.734375 44.1875 -0.34375 
Q 39.109375 -1.421875 33.890625 -1.421875 
Q 20.796875 -1.421875 13.15625 6.1875 
Q 5.515625 13.8125 5.515625 26.8125 
Q 5.515625 40.234375 12.765625 48.109375 
Q 20.015625 56 32.328125 56 
Q 43.359375 56 49.78125 48.890625 
Q 56.203125 41.796875 56.203125 29.59375 
z
M 47.21875 32.234375 
Q 47.125 39.59375 43.09375 43.984375 
Q 39.0625 48.390625 32.421875 48.390625 
Q 24.90625 48.390625 20.390625 44.140625 
Q 15.875 39.890625 15.1875 32.171875 
z
" id="DejaVuSans-101"/>
      <path id="DejaVuSans-32"/>
      <path d="M 31 75.875 
Q 24.46875 64.65625 21.28125 53.65625 
Q 18.109375 42.671875 18.109375 31.390625 
Q 18.109375 20.125 21.3125 9.0625 
Q 24.515625 -2 31 -13.1875 
L 23.1875 -13.1875 
Q 15.875 -1.703125 12.234375 9.375 
Q 8.59375 20.453125 8.59375 31.390625 
Q 8.59375 42.28125 12.203125 53.3125 
Q 15.828125 64.359375 23.1875 75.875 
z
" id="DejaVuSans-40"/>
      <path d="M 44.28125 53.078125 
L 44.28125 44.578125 
Q 40.484375 46.53125 36.375 47.5 
Q 32.28125 48.484375 27.875 48.484375 
Q 21.1875 48.484375 17.84375 46.4375 
Q 14.5 44.390625 14.5 40.28125 
Q 14.5 37.15625 16.890625 35.375 
Q 19.28125 33.59375 26.515625 31.984375 
L 29.59375 31.296875 
Q 39.15625 29.25 43.1875 25.515625 
Q 47.21875 21.78125 47.21875 15.09375 
Q 47.21875 7.46875 41.1875 3.015625 
Q 35.15625 -1.421875 24.609375 -1.421875 
Q 20.21875 -1.421875 15.453125 -0.5625 
Q 10.6875 0.296875 5.421875 2 
L 5.421875 11.28125 
Q 10.40625 8.6875 15.234375 7.390625 
Q 20.0625 6.109375 24.8125 6.109375 
Q 31.15625 6.109375 34.5625 8.28125 
Q 37.984375 10.453125 37.984375 14.40625 
Q 37.984375 18.0625 35.515625 20.015625 
Q 33.0625 21.96875 24.703125 23.78125 
L 21.578125 24.515625 
Q 13.234375 26.265625 9.515625 29.90625 
Q 5.8125 33.546875 5.8125 39.890625 
Q 5.8125 47.609375 11.28125 51.796875 
Q 16.75 56 26.8125 56 
Q 31.78125 56 36.171875 55.265625 
Q 40.578125 54.546875 44.28125 53.078125 
z
" id="DejaVuSans-115"/>
      <path d="M 8.015625 75.875 
L 15.828125 75.875 
Q 23.140625 64.359375 26.78125 53.3125 
Q 30.421875 42.28125 30.421875 31.390625 
Q 30.421875 20.453125 26.78125 9.375 
Q 23.140625 -1.703125 15.828125 -13.1875 
L 8.015625 -13.1875 
Q 14.5 -2 17.703125 9.0625 
Q 20.90625 20.125 20.90625 31.390625 
Q 20.90625 42.671875 17.703125 53.65625 
Q 14.5 64.65625 8.015625 75.875 
z
" id="DejaVuSans-41"/>
     </defs>
     <g transform="translate(172.522089 206.875625)scale(0.16 -0.16)">
      <use xlink:href="#DejaVuSans-84"/>
      <use x="61.037109" xlink:href="#DejaVuSans-105"/>
      <use x="88.820312" xlink:href="#DejaVuSans-109"/>
      <use x="186.232422" xlink:href="#DejaVuSans-101"/>
      <use x="247.755859" xlink:href="#DejaVuSans-32"/>
      <use x="279.542969" xlink:href="#DejaVuSans-40"/>
      <use x="318.556641" xlink:href="#DejaVuSans-115"/>
      <use x="370.65625" xlink:href="#DejaVuSans-41"/>
     </g>
    </g>
   </g>
   <g id="matplotlib.axis_2">
    <g id="ytick_1">
     <g id="line2d_8">
      <defs>
       <path d="M 0 0 
L -3.5 0 
" id="m2ccc7b5274" style="stroke:#000000;stroke-width:0.8;"/>
      </defs>
      <g>
       <use style="stroke:#000000;stroke-width:0.8;" x="68.87" xlink:href="#m2ccc7b5274" y="151.177487"/>
      </g>
     </g>
     <g id="text_9">
      <!-- −0.4 -->
      <defs>
       <path d="M 10.59375 35.5 
L 73.1875 35.5 
L 73.1875 27.203125 
L 10.59375 27.203125 
z
" id="DejaVuSans-8722"/>
      </defs>
      <g transform="translate(37.587187 154.976705)scale(0.1 -0.1)">
       <use xlink:href="#DejaVuSans-8722"/>
       <use x="83.789062" xlink:href="#DejaVuSans-48"/>
       <use x="147.412109" xlink:href="#DejaVuSans-46"/>
       <use x="179.199219" xlink:href="#DejaVuSans-52"/>
      </g>
     </g>
    </g>
    <g id="ytick_2">
     <g id="line2d_9">
      <g>
       <use style="stroke:#000000;stroke-width:0.8;" x="68.87" xlink:href="#m2ccc7b5274" y="122.789876"/>
      </g>
     </g>
     <g id="text_10">
      <!-- −0.2 -->
      <g transform="translate(37.587187 126.589095)scale(0.1 -0.1)">
       <use xlink:href="#DejaVuSans-8722"/>
       <use x="83.789062" xlink:href="#DejaVuSans-48"/>
       <use x="147.412109" xlink:href="#DejaVuSans-46"/>
       <use x="179.199219" xlink:href="#DejaVuSans-50"/>
      </g>
     </g>
    </g>
    <g id="ytick_3">
     <g id="line2d_10">
      <g>
       <use style="stroke:#000000;stroke-width:0.8;" x="68.87" xlink:href="#m2ccc7b5274" y="94.402265"/>
      </g>
     </g>
     <g id="text_11">
      <!-- 0.0 -->
      <g transform="translate(45.966875 98.201484)scale(0.1 -0.1)">
       <use xlink:href="#DejaVuSans-48"/>
       <use x="63.623047" xlink:href="#DejaVuSans-46"/>
       <use x="95.410156" xlink:href="#DejaVuSans-48"/>
      </g>
     </g>
    </g>
    <g id="ytick_4">
     <g id="line2d_11">
      <g>
       <use style="stroke:#000000;stroke-width:0.8;" x="68.87" xlink:href="#m2ccc7b5274" y="66.014654"/>
      </g>
     </g>
     <g id="text_12">
      <!-- 0.2 -->
      <g transform="translate(45.966875 69.813873)scale(0.1 -0.1)">
       <use xlink:href="#DejaVuSans-48"/>
       <use x="63.623047" xlink:href="#DejaVuSans-46"/>
       <use x="95.410156" xlink:href="#DejaVuSans-50"/>
      </g>
     </g>
    </g>
    <g id="ytick_5">
     <g id="line2d_12">
      <g>
       <use style="stroke:#000000;stroke-width:0.8;" x="68.87" xlink:href="#m2ccc7b5274" y="37.627044"/>
      </g>
     </g>
     <g id="text_13">
      <!-- 0.4 -->
      <g transform="translate(45.966875 41.426262)scale(0.1 -0.1)">
       <use xlink:href="#DejaVuSans-48"/>
       <use x="63.623047" xlink:href="#DejaVuSans-46"/>
       <use x="95.410156" xlink:href="#DejaVuSans-52"/>
      </g>
     </g>
    </g>
    <g id="text_14">
     <!-- Amplitude -->
     <defs>
      <path d="M 34.1875 63.1875 
L 20.796875 26.90625 
L 47.609375 26.90625 
z
M 28.609375 72.90625 
L 39.796875 72.90625 
L 67.578125 0 
L 57.328125 0 
L 50.6875 18.703125 
L 17.828125 18.703125 
L 11.1875 0 
L 0.78125 0 
z
" id="DejaVuSans-65"/>
      <path d="M 18.109375 8.203125 
L 18.109375 -20.796875 
L 9.078125 -20.796875 
L 9.078125 54.6875 
L 18.109375 54.6875 
L 18.109375 46.390625 
Q 20.953125 51.265625 25.265625 53.625 
Q 29.59375 56 35.59375 56 
Q 45.5625 56 51.78125 48.09375 
Q 58.015625 40.1875 58.015625 27.296875 
Q 58.015625 14.40625 51.78125 6.484375 
Q 45.5625 -1.421875 35.59375 -1.421875 
Q 29.59375 -1.421875 25.265625 0.953125 
Q 20.953125 3.328125 18.109375 8.203125 
z
M 48.6875 27.296875 
Q 48.6875 37.203125 44.609375 42.84375 
Q 40.53125 48.484375 33.40625 48.484375 
Q 26.265625 48.484375 22.1875 42.84375 
Q 18.109375 37.203125 18.109375 27.296875 
Q 18.109375 17.390625 22.1875 11.75 
Q 26.265625 6.109375 33.40625 6.109375 
Q 40.53125 6.109375 44.609375 11.75 
Q 48.6875 17.390625 48.6875 27.296875 
z
" id="DejaVuSans-112"/>
      <path d="M 9.421875 75.984375 
L 18.40625 75.984375 
L 18.40625 0 
L 9.421875 0 
z
" id="DejaVuSans-108"/>
      <path d="M 18.3125 70.21875 
L 18.3125 54.6875 
L 36.8125 54.6875 
L 36.8125 47.703125 
L 18.3125 47.703125 
L 18.3125 18.015625 
Q 18.3125 11.328125 20.140625 9.421875 
Q 21.96875 7.515625 27.59375 7.515625 
L 36.8125 7.515625 
L 36.8125 0 
L 27.59375 0 
Q 17.1875 0 13.234375 3.875 
Q 9.28125 7.765625 9.28125 18.015625 
L 9.28125 47.703125 
L 2.6875 47.703125 
L 2.6875 54.6875 
L 9.28125 54.6875 
L 9.28125 70.21875 
z
" id="DejaVuSans-116"/>
      <path d="M 8.5 21.578125 
L 8.5 54.6875 
L 17.484375 54.6875 
L 17.484375 21.921875 
Q 17.484375 14.15625 20.5 10.265625 
Q 23.53125 6.390625 29.59375 6.390625 
Q 36.859375 6.390625 41.078125 11.03125 
Q 45.3125 15.671875 45.3125 23.6875 
L 45.3125 54.6875 
L 54.296875 54.6875 
L 54.296875 0 
L 45.3125 0 
L 45.3125 8.40625 
Q 42.046875 3.421875 37.71875 1 
Q 33.40625 -1.421875 27.6875 -1.421875 
Q 18.265625 -1.421875 13.375 4.4375 
Q 8.5 10.296875 8.5 21.578125 
z
M 31.109375 56 
z
" id="DejaVuSans-117"/>
      <path d="M 45.40625 46.390625 
L 45.40625 75.984375 
L 54.390625 75.984375 
L 54.390625 0 
L 45.40625 0 
L 45.40625 8.203125 
Q 42.578125 3.328125 38.25 0.953125 
Q 33.9375 -1.421875 27.875 -1.421875 
Q 17.96875 -1.421875 11.734375 6.484375 
Q 5.515625 14.40625 5.515625 27.296875 
Q 5.515625 40.1875 11.734375 48.09375 
Q 17.96875 56 27.875 56 
Q 33.9375 56 38.25 53.625 
Q 42.578125 51.265625 45.40625 46.390625 
z
M 14.796875 27.296875 
Q 14.796875 17.390625 18.875 11.75 
Q 22.953125 6.109375 30.078125 6.109375 
Q 37.203125 6.109375 41.296875 11.75 
Q 45.40625 17.390625 45.40625 27.296875 
Q 45.40625 37.203125 41.296875 42.84375 
Q 37.203125 48.484375 30.078125 48.484375 
Q 22.953125 48.484375 18.875 42.84375 
Q 14.796875 37.203125 14.796875 27.296875 
z
" id="DejaVuSans-100"/>
     </defs>
     <g transform="translate(30.259687 142.89625)rotate(-90)scale(0.16 -0.16)">
      <use xlink:href="#DejaVuSans-65"/>
      <use x="68.408203" xlink:href="#DejaVuSans-109"/>
      <use x="165.820312" xlink:href="#DejaVuSans-112"/>
      <use x="229.296875" xlink:href="#DejaVuSans-108"/>
      <use x="257.080078" xlink:href="#DejaVuSans-105"/>
      <use x="284.863281" xlink:href="#DejaVuSans-116"/>
      <use x="324.072266" xlink:href="#DejaVuSans-117"/>
      <use x="387.451172" xlink:href="#DejaVuSans-100"/>
      <use x="450.927734" xlink:href="#DejaVuSans-101"/>
     </g>
    </g>
   </g>
   <g id="line2d_13">
    <path clip-path="url(#p9cb8f9f40b)" d="M 68.800623 94.212254 
L 70.004264 94.13625 
L 71.930089 93.927238 
L 72.652274 93.96524 
L 73.615186 94.060246 
L 74.578099 94.13625 
L 75.300283 94.193253 
L 76.022468 94.364263 
L 77.466837 94.611277 
L 77.707565 94.535273 
L 78.189021 94.66828 
L 79.392662 94.687281 
L 79.874118 94.687281 
L 80.355575 94.725283 
L 80.837031 94.630278 
L 81.318487 94.478269 
L 81.559215 94.592276 
L 82.040672 94.231255 
L 82.2814 94.49727 
L 82.762856 94.212254 
L 83.003584 94.421266 
L 83.244313 94.193253 
L 83.485041 93.585219 
L 83.725769 93.775229 
L 83.966497 94.193253 
L 84.447953 84.426699 
L 84.92941 95.865348 
L 85.170138 92.958183 
L 85.410866 93.034187 
L 85.651594 96.017357 
L 85.892322 93.946239 
L 86.373779 99.589559 
L 86.614507 97.594446 
L 86.855235 96.625391 
L 87.095963 97.347432 
L 87.577419 94.269258 
L 88.058876 96.055359 
L 88.299604 96.758399 
L 88.540332 95.90335 
L 88.78106 93.718226 
L 89.262516 79.86644 
L 89.503245 90.697055 
L 89.743973 92.616164 
L 89.984701 89.785003 
L 90.225429 89.480986 
L 90.466157 88.625937 
L 90.706885 89.708999 
L 91.188342 98.411493 
L 91.42907 99.000526 
L 91.910526 97.860461 
L 92.391982 96.359376 
L 92.632711 97.252427 
L 92.873439 99.304543 
L 93.114167 100.064586 
L 93.836351 95.37132 
L 94.07708 92.768172 
L 94.317808 94.212254 
L 94.558536 98.126476 
L 94.799264 96.359376 
L 95.521448 89.575991 
L 95.762177 90.526045 
L 96.002905 97.100418 
L 96.484361 91.875122 
L 96.725089 94.554274 
L 96.965817 93.414209 
L 97.206546 93.129193 
L 97.447274 94.269258 
L 97.688002 94.13625 
L 98.169458 94.459268 
L 98.410186 96.169365 
L 98.650914 96.568388 
L 99.132371 89.670997 
L 99.373099 88.169911 
L 99.854555 102.363717 
L 100.095283 90.583048 
L 100.336012 88.264917 
L 100.57674 96.473383 
L 100.817468 93.737227 
L 101.058196 94.801288 
L 101.298924 105.042869 
L 101.539652 94.972297 
L 101.78038 91.932125 
L 102.021109 101.698679 
L 102.261837 98.01247 
L 102.502565 91.951126 
L 102.743293 98.639505 
L 102.984021 100.3116 
L 103.224749 97.328431 
L 103.465478 99.760569 
L 103.946934 89.994015 
L 104.42839 99.893577 
L 104.669118 100.558614 
L 104.909847 96.853404 
L 105.150575 90.754058 
L 105.391303 91.83712 
L 105.632031 96.397378 
L 106.113487 95.732341 
L 106.594944 90.336034 
L 106.835672 90.754058 
L 107.0764 94.326261 
L 107.317128 93.566218 
L 107.557856 89.842006 
L 107.798584 93.642222 
L 108.039313 93.889236 
L 108.280041 92.388151 
L 108.520769 92.293145 
L 108.761497 91.609107 
L 109.002225 92.103135 
L 109.483681 95.846347 
L 109.965138 92.654166 
L 110.205866 92.654166 
L 110.687322 97.404435 
L 110.92805 97.651449 
L 111.168779 95.314317 
L 111.409507 94.440267 
L 111.650235 94.706282 
L 111.890963 95.580332 
L 112.131691 97.328431 
L 112.613147 93.96524 
L 112.853876 95.086304 
L 113.094604 94.763286 
L 113.335332 93.623221 
L 113.57606 94.155251 
L 113.816788 93.357206 
L 114.298245 94.991298 
L 114.538973 93.452211 
L 114.779701 93.243199 
L 115.020429 92.521158 
L 115.261157 92.407152 
L 115.501885 95.029301 
L 115.742613 95.599333 
L 115.983342 92.920181 
L 116.22407 93.07219 
L 116.464798 94.003242 
L 116.705526 94.250256 
L 116.946254 95.048302 
L 117.186982 95.143307 
L 117.427711 94.83929 
L 117.668439 94.858291 
L 117.909167 95.751342 
L 118.149895 95.941352 
L 118.631351 95.352319 
L 118.872079 95.827346 
L 119.112808 95.808345 
L 119.353536 96.24537 
L 119.594264 96.321374 
L 119.834992 95.504328 
L 120.316448 96.378377 
L 120.557177 96.758399 
L 120.797905 97.613447 
L 121.038633 96.929408 
L 121.279361 95.637335 
L 121.520089 97.328431 
L 121.760817 98.107475 
L 122.242274 97.024414 
L 122.483002 96.416379 
L 122.72373 96.454381 
L 122.964458 97.575445 
L 123.205186 97.537443 
L 123.445914 96.112362 
L 123.686643 96.112362 
L 123.927371 97.366433 
L 124.408827 97.556444 
L 124.649555 97.024414 
L 124.890283 95.352319 
L 125.131012 95.618334 
L 125.37174 96.834403 
L 125.612468 96.511385 
L 125.853196 95.390321 
L 126.093924 93.338205 
L 126.334652 92.673167 
L 126.57538 92.55916 
L 126.816109 91.590105 
L 127.056837 89.442984 
L 127.297565 88.701942 
L 127.538293 88.49293 
L 127.779021 87.542876 
L 128.019749 87.44787 
L 128.260478 87.067849 
L 128.501206 85.490759 
L 128.741934 85.129739 
L 128.982662 87.029847 
L 129.22339 87.675883 
L 129.464118 87.428869 
L 129.945575 88.378923 
L 130.908487 93.07219 
L 131.389944 93.471212 
L 131.8714 96.682394 
L 132.112128 96.60639 
L 132.352856 97.13842 
L 132.593584 98.069473 
L 133.075041 97.898463 
L 133.315769 98.297486 
L 133.797225 97.860461 
L 134.037953 97.936466 
L 134.278681 97.556444 
L 134.760138 96.017357 
L 135.241594 95.960353 
L 135.482322 95.808345 
L 135.963778 94.516272 
L 136.204507 94.554274 
L 136.685963 95.086304 
L 136.926691 95.276315 
L 137.408147 95.0103 
L 138.130332 97.594446 
L 138.37106 98.126476 
L 139.333973 102.344716 
L 139.574701 102.287712 
L 139.815429 102.610731 
L 140.056157 104.71985 
L 140.537613 105.973922 
L 140.778342 107.151988 
L 141.01907 107.075984 
L 141.500526 83.951672 
L 141.741254 89.19597 
L 141.981982 98.639505 
L 142.222711 95.523329 
L 142.463439 85.110738 
L 142.944895 73.786095 
L 143.185623 73.311068 
L 143.426351 83.837666 
L 143.667079 86.801834 
L 144.148536 73.178061 
L 144.389264 75.363185 
L 144.87072 85.699771 
L 145.111448 85.547763 
L 145.352177 87.61888 
L 145.592905 90.735057 
L 145.833633 90.108021 
L 146.074361 92.578162 
L 146.315089 97.993469 
L 146.555817 97.157421 
L 146.796545 98.71551 
L 147.037274 106.638959 
L 147.278002 107.418004 
L 147.51873 102.135704 
L 147.759458 101.280655 
L 148.481643 108.634073 
L 148.722371 106.885973 
L 149.203827 98.829516 
L 149.444555 98.145477 
L 149.926011 101.147648 
L 150.407468 91.039074 
L 150.648196 90.469042 
L 150.888924 90.697055 
L 151.129652 88.245916 
L 151.37038 88.207914 
L 151.611109 88.511931 
L 151.851837 86.003789 
L 152.092565 84.673713 
L 152.333293 86.098794 
L 152.574021 85.376753 
L 152.814749 83.666656 
L 153.055477 84.673713 
L 153.296206 83.799663 
L 153.536934 84.103681 
L 154.01839 90.013016 
L 154.259118 90.184026 
L 154.499846 90.716056 
L 154.981303 94.972297 
L 155.222031 99.627562 
L 155.462759 101.54667 
L 155.703487 100.862632 
L 156.425672 103.8268 
L 156.6664 106.182933 
L 156.907128 106.29694 
L 157.147856 103.332772 
L 157.388584 101.926692 
L 157.629312 102.458722 
L 158.110769 101.261654 
L 158.351497 101.128647 
L 158.592225 99.570558 
L 158.832953 98.753512 
L 159.073681 98.905521 
L 159.555138 98.069473 
L 159.795866 98.867518 
L 160.036594 99.152535 
L 160.277322 99.019527 
L 160.51805 100.235596 
L 160.758778 100.786627 
L 161.240235 97.917465 
L 161.721691 82.203573 
L 161.962419 85.034734 
L 162.203147 93.053189 
L 162.443876 91.058075 
L 162.684604 82.6786 
L 163.16606 75.6292 
L 163.406788 76.712261 
L 163.647516 85.281748 
L 163.888244 88.169911 
L 164.369701 80.74049 
L 164.610429 82.032563 
L 165.091885 92.692168 
L 165.573342 93.414209 
L 165.81407 96.416379 
L 166.054798 96.473383 
L 166.295526 96.872405 
L 166.536254 100.976638 
L 166.776982 101.242653 
L 167.01771 100.843631 
L 167.258439 104.928862 
L 167.499167 105.479894 
L 167.739895 101.299656 
L 167.980623 99.304543 
L 168.221351 99.798571 
L 168.462079 100.65362 
L 168.702808 102.268711 
L 168.943536 100.12159 
L 169.184264 94.953296 
L 169.424992 92.863178 
L 169.66572 92.236142 
L 169.906448 92.483156 
L 170.147176 94.117249 
L 170.387905 92.597163 
L 170.628633 87.675883 
L 170.869361 86.440813 
L 171.110089 88.169911 
L 171.350817 87.827892 
L 171.591545 87.903896 
L 171.832274 88.777946 
L 172.31373 80.113454 
L 172.795186 92.749171 
L 173.276642 88.872951 
L 173.517371 88.777946 
L 173.758099 90.184026 
L 174.239555 100.045585 
L 174.480283 99.741568 
L 174.96174 98.335488 
L 175.202468 100.273598 
L 175.443196 105.099872 
L 175.683924 105.650903 
L 175.924652 102.553728 
L 176.406108 105.080871 
L 176.646837 103.142761 
L 176.887565 103.180763 
L 177.128293 104.016811 
L 177.369021 102.268711 
L 177.609749 102.800742 
L 177.850477 104.415833 
L 178.331934 99.665564 
L 178.572662 100.140591 
L 179.294846 103.807799 
L 179.776303 102.439721 
L 180.017031 99.874576 
L 180.498487 76.921273 
L 180.979943 92.806174 
L 181.4614 80.265463 
L 181.942856 66.622689 
L 182.183584 71.030939 
L 182.424312 83.91367 
L 182.665041 86.117795 
L 183.146497 77.985334 
L 183.387225 78.27035 
L 183.868681 93.129193 
L 184.109409 93.775229 
L 184.590866 98.962524 
L 184.831594 97.119419 
L 185.072322 100.045585 
L 185.31305 105.555898 
L 185.553778 103.541784 
L 185.794507 104.52984 
L 186.035235 109.83114 
L 186.275963 108.653074 
L 186.516691 104.054813 
L 186.998147 100.919635 
L 187.238875 101.261654 
L 187.479604 103.769797 
L 187.720332 101.109646 
L 188.201788 92.483156 
L 188.442516 89.632994 
L 188.683244 89.861007 
L 188.923973 92.236142 
L 189.164701 89.38598 
L 189.405429 85.110738 
L 189.886885 85.813778 
L 190.127613 83.875668 
L 190.368341 85.243745 
L 190.60907 85.718772 
L 190.849798 83.457644 
L 191.090526 85.14874 
L 191.331254 88.416925 
L 192.053439 91.058075 
L 192.294167 91.647109 
L 192.775623 98.297486 
L 193.016351 98.107475 
L 193.257079 98.791514 
L 193.497807 100.558614 
L 193.738536 101.242653 
L 194.219992 104.852858 
L 194.46072 103.579786 
L 194.701448 101.641676 
L 195.182905 102.724737 
L 195.664361 101.394662 
L 196.145817 98.791514 
L 196.627273 99.152535 
L 197.10873 97.594446 
L 197.349458 97.347432 
L 197.590186 98.259484 
L 197.830914 99.627562 
L 198.071642 99.551557 
L 198.312371 98.962524 
L 198.553099 100.330601 
L 198.793827 102.648733 
L 199.034555 103.883803 
L 199.275283 103.750795 
L 199.516011 95.580332 
L 199.75674 80.702488 
L 199.997468 80.74049 
L 200.238196 92.255143 
L 200.478924 95.618334 
L 201.201108 72.912046 
L 201.441837 71.125944 
L 201.923293 89.176969 
L 202.164021 87.124852 
L 202.404749 81.215517 
L 202.645477 79.33441 
L 202.886206 84.331694 
L 203.126934 91.780116 
L 203.367662 93.357206 
L 203.60839 93.490213 
L 203.849118 96.7774 
L 204.089846 97.784457 
L 204.330574 97.689452 
L 204.571303 101.54667 
L 204.812031 101.413663 
L 205.052759 99.60856 
L 205.534215 107.475007 
L 205.774943 105.346886 
L 206.2564 98.316487 
L 206.497128 97.518442 
L 206.737856 101.128647 
L 206.978584 101.964694 
L 207.700769 90.811061 
L 207.941497 89.708999 
L 208.182225 91.533102 
L 208.422953 91.172082 
L 208.663681 88.055905 
L 208.904409 88.378923 
L 209.145138 88.986958 
L 209.385866 86.307806 
L 209.626594 85.205743 
L 209.867322 86.307806 
L 210.10805 85.281748 
L 210.348778 86.611823 
L 210.589506 89.994015 
L 210.830235 90.526045 
L 211.070963 89.252973 
L 211.311691 89.651996 
L 211.793147 93.946239 
L 212.033875 97.271428 
L 212.274604 97.917465 
L 212.515332 97.404435 
L 212.996788 99.589559 
L 213.478244 103.218765 
L 213.718972 102.781741 
L 213.959701 101.223652 
L 214.441157 102.173706 
L 214.681885 100.919635 
L 214.922613 100.691622 
L 215.163341 100.634619 
L 215.40407 99.836573 
L 215.644798 100.007583 
L 215.885526 99.741568 
L 216.126254 98.297486 
L 216.366982 97.917465 
L 216.848438 99.323544 
L 217.089167 100.444608 
L 217.329895 100.786627 
L 217.570623 99.77957 
L 217.811351 100.007583 
L 218.533536 104.415833 
L 218.774264 100.3116 
L 219.25572 79.543422 
L 219.737176 93.414209 
L 219.977905 89.423983 
L 220.700089 70.593914 
L 220.940817 75.344184 
L 221.181545 84.97773 
L 221.422273 87.162854 
L 221.663002 83.38164 
L 221.90373 81.367525 
L 222.144458 82.412585 
L 222.625914 92.426153 
L 222.866642 93.490213 
L 223.348099 98.354489 
L 223.588827 98.411493 
L 224.070283 102.686735 
L 224.311011 100.178593 
L 224.551739 101.54667 
L 224.792468 106.163932 
L 225.033196 106.923976 
L 225.514652 100.596617 
L 225.75538 98.107475 
L 225.996108 97.936466 
L 226.236837 100.273598 
L 226.477565 99.627562 
L 227.199749 90.222028 
L 227.440477 89.005959 
L 227.681205 89.766002 
L 227.921934 89.689998 
L 228.162662 88.758945 
L 228.40339 88.625937 
L 228.644118 87.485873 
L 228.884846 85.642768 
L 229.125574 85.547763 
L 229.366303 85.946785 
L 229.607031 85.699771 
L 229.847759 87.979901 
L 230.088487 91.533102 
L 230.329215 91.780116 
L 230.569943 90.222028 
L 230.810671 90.659053 
L 231.0514 92.312146 
L 231.773584 99.456552 
L 232.014312 98.772513 
L 232.25504 98.696509 
L 232.736497 101.223652 
L 232.977225 103.009753 
L 233.217953 102.762739 
L 233.458681 101.318657 
L 233.699409 101.451665 
L 233.940137 101.394662 
L 234.180866 100.235596 
L 234.421594 100.102588 
L 234.662322 100.767626 
L 234.90305 99.627562 
L 235.143778 99.342545 
L 235.384506 99.77957 
L 235.865963 97.195424 
L 236.588147 100.349603 
L 236.828875 100.938636 
L 237.069604 100.767626 
L 237.310332 100.862632 
L 237.791788 103.8268 
L 238.032516 101.774683 
L 238.513972 84.103681 
L 238.754701 84.901726 
L 238.995429 90.906067 
L 239.236157 90.507044 
L 239.958341 75.591198 
L 240.19907 74.299124 
L 240.680526 85.604766 
L 240.921254 83.514647 
L 241.161982 82.450587 
L 241.643438 86.535819 
L 241.884167 89.994015 
L 242.365623 92.977184 
L 243.087807 99.855574 
L 243.328536 101.641676 
L 243.569264 99.684565 
L 243.809992 98.71551 
L 244.291448 105.612901 
L 244.532176 104.377831 
L 245.254361 97.708453 
L 245.735817 99.41855 
L 245.976545 97.784457 
L 246.458002 92.787173 
L 246.69873 90.735057 
L 246.939458 89.937012 
L 247.180186 90.887066 
L 247.661642 88.872951 
L 248.143099 87.808891 
L 248.383827 85.984787 
L 248.624555 85.85178 
L 249.106011 87.485873 
L 249.587468 91.476099 
L 249.828196 91.13408 
L 250.068924 90.545046 
L 250.309652 91.609107 
L 251.272565 98.487497 
L 251.513293 98.696509 
L 251.754021 99.684565 
L 251.994749 100.007583 
L 252.476205 101.88869 
L 252.716934 101.033641 
L 252.957662 101.147648 
L 253.19839 102.0597 
L 253.439118 101.641676 
L 253.679846 100.178593 
L 253.920574 100.197594 
L 254.402031 99.095531 
L 254.642759 100.102588 
L 254.883487 100.235596 
L 255.124215 98.791514 
L 255.364943 98.107475 
L 255.605671 98.772513 
L 255.8464 99.095531 
L 256.087128 99.912578 
L 256.327856 101.147648 
L 256.568584 101.01464 
L 257.05004 102.154705 
L 257.290769 100.938636 
L 257.531497 96.302373 
L 257.772225 88.188913 
L 258.012953 85.31975 
L 258.494409 91.66611 
L 259.457322 76.123228 
L 259.69805 78.612369 
L 259.938778 84.331694 
L 260.179506 85.623767 
L 260.420235 83.685657 
L 260.660963 84.578708 
L 261.623875 91.438097 
L 262.586788 99.494554 
L 262.827516 98.962524 
L 263.068244 97.271428 
L 263.308972 99.24754 
L 263.549701 102.363717 
L 263.790429 103.465779 
L 264.512613 98.962524 
L 264.753341 97.917465 
L 264.994069 98.354489 
L 265.234798 98.487497 
L 265.475526 96.739398 
L 265.716254 93.908237 
L 265.956982 92.977184 
L 266.19771 93.452211 
L 266.438438 93.395208 
L 266.919895 89.747001 
L 267.401351 89.062962 
L 267.642079 88.720943 
L 267.882807 89.233972 
L 268.364264 86.839836 
L 268.604992 88.017903 
L 268.84572 90.659053 
L 269.086448 91.305089 
L 269.327176 91.001072 
L 269.567904 91.305089 
L 269.808633 92.008129 
L 270.290089 95.20031 
L 270.530817 96.815402 
L 270.771545 97.100418 
L 271.012273 97.632448 
L 271.49373 100.159592 
L 271.734458 100.102588 
L 271.975186 99.589559 
L 272.215914 99.969581 
L 272.456642 101.033641 
L 272.69737 101.508668 
L 272.938099 101.413663 
L 273.178827 100.710623 
L 273.419555 99.570558 
L 273.660283 99.266541 
L 273.901011 99.893577 
L 274.141739 100.007583 
L 274.382467 99.095531 
L 274.623196 98.696509 
L 275.34538 99.304543 
L 275.586108 99.133534 
L 275.826836 99.190537 
L 276.308293 100.368604 
L 276.549021 100.197594 
L 276.789749 99.304543 
L 277.271205 88.549933 
L 277.511934 88.131909 
L 277.752662 90.96307 
L 277.99339 90.374036 
L 278.234118 87.637881 
L 278.474846 86.706828 
L 278.956302 80.645484 
L 279.437759 85.813778 
L 279.678487 84.597709 
L 279.919215 84.863724 
L 280.159943 87.143853 
L 280.6414 88.986958 
L 280.882128 89.613993 
L 281.363584 91.989128 
L 282.085768 97.727454 
L 282.326497 96.226369 
L 282.567225 95.808345 
L 283.048681 99.665564 
L 283.289409 99.456552 
L 283.530137 100.007583 
L 283.770866 99.380548 
L 284.011594 97.993469 
L 284.252322 97.651449 
L 284.49305 97.917465 
L 284.974506 95.656336 
L 285.215234 96.473383 
L 285.455963 96.24537 
L 285.937419 94.079247 
L 286.418875 91.343091 
L 286.659603 90.944069 
L 286.900332 91.856121 
L 287.14106 92.293145 
L 287.381788 91.742114 
L 287.622516 89.613993 
L 287.863244 89.55699 
L 288.3447 91.362093 
L 288.585429 91.457098 
L 288.826157 92.312146 
L 289.066885 92.293145 
L 289.307613 92.597163 
L 289.789069 95.181309 
L 290.029798 94.896293 
L 290.270526 95.466325 
L 290.751982 97.993469 
L 290.99271 98.601503 
L 291.233438 98.696509 
L 291.474166 98.430494 
L 291.714895 98.430494 
L 292.196351 100.235596 
L 292.437079 100.178593 
L 292.918535 98.867518 
L 293.159264 98.810515 
L 293.399992 98.924522 
L 293.881448 97.765456 
L 294.603633 97.176422 
L 294.844361 97.062416 
L 295.325817 95.694338 
L 295.566545 95.770343 
L 295.807273 96.131363 
L 296.048001 96.131363 
L 296.28873 95.694338 
L 297.010914 91.172082 
L 297.251642 90.982071 
L 297.49237 91.381094 
L 297.733099 91.305089 
L 297.973827 90.488043 
L 298.214555 90.165025 
L 298.696011 88.872951 
L 299.177467 90.013016 
L 299.418196 90.013016 
L 299.899652 91.533102 
L 300.381108 91.685111 
L 300.621836 91.780116 
L 300.862565 92.046131 
L 301.584749 94.516272 
L 301.825477 94.83929 
L 302.066205 94.440267 
L 302.306933 94.630278 
L 302.547662 95.181309 
L 302.78839 95.352319 
L 303.269846 96.264371 
L 303.751302 95.637335 
L 303.992031 96.036358 
L 304.473487 95.352319 
L 304.954943 95.808345 
L 305.436399 94.877292 
L 305.677128 94.934295 
L 306.399312 93.946239 
L 306.64004 93.946239 
L 306.880768 93.623221 
L 307.362225 94.003242 
L 307.602953 93.737227 
L 307.843681 93.642222 
L 308.806594 94.326261 
L 309.047322 94.231255 
L 310.250963 95.409322 
L 310.491691 95.295316 
L 311.213875 95.637335 
L 311.695331 95.656336 
L 312.176788 95.352319 
L 312.417516 95.390321 
L 313.1397 95.0103 
L 313.380429 95.0103 
L 313.621157 94.49727 
L 314.102613 95.105305 
L 314.343341 94.13625 
L 314.584069 93.832233 
L 314.824798 94.782287 
L 315.065526 94.516272 
L 315.306254 93.927238 
L 315.546982 94.193253 
L 315.78771 94.117249 
L 316.028438 93.281201 
L 316.269166 93.661223 
L 316.509895 94.49727 
L 316.750623 93.813232 
L 316.991351 93.566218 
L 317.232079 93.60422 
L 317.713535 93.452211 
L 317.954264 93.737227 
L 318.194992 93.756228 
L 318.43572 93.585219 
L 319.157904 93.680224 
L 319.398632 93.528215 
L 319.639361 93.699225 
L 319.880089 94.13625 
L 320.361545 94.117249 
L 320.602273 94.117249 
L 321.08373 93.889236 
L 322.046642 94.49727 
L 322.28737 94.440267 
L 322.528098 94.193253 
L 323.009555 94.250256 
L 323.731739 94.49727 
L 323.972467 94.440267 
L 324.213196 94.231255 
L 324.93538 94.193253 
L 325.176108 94.212254 
L 325.657564 94.535273 
L 326.139021 94.231255 
L 326.379749 94.364263 
L 326.620477 94.231255 
L 326.861205 94.269258 
L 327.342662 94.516272 
L 327.58339 94.288259 
L 327.824118 94.288259 
L 328.064846 94.459268 
L 328.305574 94.288259 
L 328.546302 94.30726 
L 328.78703 94.554274 
L 329.268487 94.250256 
L 329.749943 94.421266 
L 329.990671 94.326261 
L 331.194312 94.459268 
L 331.916497 94.345262 
L 332.638681 94.516272 
L 333.601594 94.516272 
L 334.08305 94.364263 
L 335.527419 94.193253 
L 336.490331 94.250256 
L 336.73106 94.212254 
L 336.971788 94.326261 
L 337.212516 94.174252 
L 337.453244 94.30726 
L 337.9347 94.212254 
L 338.656885 94.30726 
L 339.138341 94.345262 
L 339.619797 94.212254 
L 340.58271 94.269258 
L 340.823438 94.383264 
L 341.064166 94.250256 
L 341.304895 94.30726 
L 341.786351 94.231255 
L 341.786351 94.231255 
" style="fill:none;stroke:#000000;stroke-linecap:square;stroke-width:1.5;"/>
   </g>
   <g id="patch_3">
    <path d="M 68.87 174.04 
L 68.87 29.76 
" style="fill:none;stroke:#000000;stroke-linecap:square;stroke-linejoin:miter;stroke-width:0.8;"/>
   </g>
   <g id="patch_4">
    <path d="M 341.719179 174.04 
L 341.719179 29.76 
" style="fill:none;stroke:#000000;stroke-linecap:square;stroke-linejoin:miter;stroke-width:0.8;"/>
   </g>
   <g id="patch_5">
    <path d="M 68.87 174.04 
L 341.719179 174.04 
" style="fill:none;stroke:#000000;stroke-linecap:square;stroke-linejoin:miter;stroke-width:0.8;"/>
   </g>
   <g id="patch_6">
    <path d="M 68.87 29.76 
L 341.719179 29.76 
" style="fill:none;stroke:#000000;stroke-linecap:square;stroke-linejoin:miter;stroke-width:0.8;"/>
   </g>
   <g id="text_15">
    <!-- "don't ask me" -->
    <defs>
     <path d="M 17.921875 72.90625 
L 17.921875 45.796875 
L 9.625 45.796875 
L 9.625 72.90625 
z
M 36.375 72.90625 
L 36.375 45.796875 
L 28.078125 45.796875 
L 28.078125 72.90625 
z
" id="DejaVuSans-34"/>
     <path d="M 30.609375 48.390625 
Q 23.390625 48.390625 19.1875 42.75 
Q 14.984375 37.109375 14.984375 27.296875 
Q 14.984375 17.484375 19.15625 11.84375 
Q 23.34375 6.203125 30.609375 6.203125 
Q 37.796875 6.203125 41.984375 11.859375 
Q 46.1875 17.53125 46.1875 27.296875 
Q 46.1875 37.015625 41.984375 42.703125 
Q 37.796875 48.390625 30.609375 48.390625 
z
M 30.609375 56 
Q 42.328125 56 49.015625 48.375 
Q 55.71875 40.765625 55.71875 27.296875 
Q 55.71875 13.875 49.015625 6.21875 
Q 42.328125 -1.421875 30.609375 -1.421875 
Q 18.84375 -1.421875 12.171875 6.21875 
Q 5.515625 13.875 5.515625 27.296875 
Q 5.515625 40.765625 12.171875 48.375 
Q 18.84375 56 30.609375 56 
z
" id="DejaVuSans-111"/>
     <path d="M 54.890625 33.015625 
L 54.890625 0 
L 45.90625 0 
L 45.90625 32.71875 
Q 45.90625 40.484375 42.875 44.328125 
Q 39.84375 48.1875 33.796875 48.1875 
Q 26.515625 48.1875 22.3125 43.546875 
Q 18.109375 38.921875 18.109375 30.90625 
L 18.109375 0 
L 9.078125 0 
L 9.078125 54.6875 
L 18.109375 54.6875 
L 18.109375 46.1875 
Q 21.34375 51.125 25.703125 53.5625 
Q 30.078125 56 35.796875 56 
Q 45.21875 56 50.046875 50.171875 
Q 54.890625 44.34375 54.890625 33.015625 
z
" id="DejaVuSans-110"/>
     <path d="M 17.921875 72.90625 
L 17.921875 45.796875 
L 9.625 45.796875 
L 9.625 72.90625 
z
" id="DejaVuSans-39"/>
     <path d="M 34.28125 27.484375 
Q 23.390625 27.484375 19.1875 25 
Q 14.984375 22.515625 14.984375 16.5 
Q 14.984375 11.71875 18.140625 8.90625 
Q 21.296875 6.109375 26.703125 6.109375 
Q 34.1875 6.109375 38.703125 11.40625 
Q 43.21875 16.703125 43.21875 25.484375 
L 43.21875 27.484375 
z
M 52.203125 31.203125 
L 52.203125 0 
L 43.21875 0 
L 43.21875 8.296875 
Q 40.140625 3.328125 35.546875 0.953125 
Q 30.953125 -1.421875 24.3125 -1.421875 
Q 15.921875 -1.421875 10.953125 3.296875 
Q 6 8.015625 6 15.921875 
Q 6 25.140625 12.171875 29.828125 
Q 18.359375 34.515625 30.609375 34.515625 
L 43.21875 34.515625 
L 43.21875 35.40625 
Q 43.21875 41.609375 39.140625 45 
Q 35.0625 48.390625 27.6875 48.390625 
Q 23 48.390625 18.546875 47.265625 
Q 14.109375 46.140625 10.015625 43.890625 
L 10.015625 52.203125 
Q 14.9375 54.109375 19.578125 55.046875 
Q 24.21875 56 28.609375 56 
Q 40.484375 56 46.34375 49.84375 
Q 52.203125 43.703125 52.203125 31.203125 
z
" id="DejaVuSans-97"/>
     <path d="M 9.078125 75.984375 
L 18.109375 75.984375 
L 18.109375 31.109375 
L 44.921875 54.6875 
L 56.390625 54.6875 
L 27.390625 29.109375 
L 57.625 0 
L 45.90625 0 
L 18.109375 26.703125 
L 18.109375 0 
L 9.078125 0 
z
" id="DejaVuSans-107"/>
    </defs>
    <g transform="translate(146.053339 23.76)scale(0.16 -0.16)">
     <use xlink:href="#DejaVuSans-34"/>
     <use x="45.996094" xlink:href="#DejaVuSans-100"/>
     <use x="109.472656" xlink:href="#DejaVuSans-111"/>
     <use x="170.654297" xlink:href="#DejaVuSans-110"/>
     <use x="234.033203" xlink:href="#DejaVuSans-39"/>
     <use x="261.523438" xlink:href="#DejaVuSans-116"/>
     <use x="300.732422" xlink:href="#DejaVuSans-32"/>
     <use x="332.519531" xlink:href="#DejaVuSans-97"/>
     <use x="393.798828" xlink:href="#DejaVuSans-115"/>
     <use x="445.898438" xlink:href="#DejaVuSans-107"/>
     <use x="503.808594" xlink:href="#DejaVuSans-32"/>
     <use x="535.595703" xlink:href="#DejaVuSans-109"/>
     <use x="633.007812" xlink:href="#DejaVuSans-101"/>
     <use x="694.53125" xlink:href="#DejaVuSans-34"/>
    </g>
   </g>
  </g>
 </g>
 <defs>
  <clipPath id="p9cb8f9f40b">
   <rect height="144.28" width="272.849179" x="68.87" y="29.76"/>
  </clipPath>
 </defs>
</svg>
