<?xml version="1.0" encoding="utf-8" standalone="no"?>
<!DOCTYPE svg PUBLIC "-//W3C//DTD SVG 1.1//EN"
  "http://www.w3.org/Graphics/SVG/1.1/DTD/svg11.dtd">
<!-- Created with matplotlib (https://matplotlib.org/) -->
<svg height="222.48pt" version="1.1" viewBox="0 0 353.52 222.48" width="353.52pt" xmlns="http://www.w3.org/2000/svg" xmlns:xlink="http://www.w3.org/1999/xlink">
 <defs>
  <style type="text/css">
*{stroke-linecap:butt;stroke-linejoin:round;}
  </style>
 </defs>
 <g id="figure_1">
  <g id="patch_1">
   <path d="M 0 222.48 
L 353.52 222.48 
L 353.52 0 
L 0 0 
z
" style="fill:#ffffff;"/>
  </g>
  <g id="axes_1">
   <g id="patch_2">
    <path d="M 68.87 174.04 
L 341.719179 174.04 
L 341.719179 29.76 
L 68.87 29.76 
z
" style="fill:#ffffff;"/>
   </g>
   <g id="matplotlib.axis_1">
    <g id="xtick_1">
     <g id="line2d_1">
      <defs>
       <path d="M 0 0 
L 0 3.5 
" id="m27277fdd72" style="stroke:#000000;stroke-width:0.8;"/>
      </defs>
      <g>
       <use style="stroke:#000000;stroke-width:0.8;" x="101.96213" xlink:href="#m27277fdd72" y="174.04"/>
      </g>
     </g>
     <g id="text_1">
      <!-- 0.70 -->
      <defs>
       <path d="M 31.78125 66.40625 
Q 24.171875 66.40625 20.328125 58.90625 
Q 16.5 51.421875 16.5 36.375 
Q 16.5 21.390625 20.328125 13.890625 
Q 24.171875 6.390625 31.78125 6.390625 
Q 39.453125 6.390625 43.28125 13.890625 
Q 47.125 21.390625 47.125 36.375 
Q 47.125 51.421875 43.28125 58.90625 
Q 39.453125 66.40625 31.78125 66.40625 
z
M 31.78125 74.21875 
Q 44.046875 74.21875 50.515625 64.515625 
Q 56.984375 54.828125 56.984375 36.375 
Q 56.984375 17.96875 50.515625 8.265625 
Q 44.046875 -1.421875 31.78125 -1.421875 
Q 19.53125 -1.421875 13.0625 8.265625 
Q 6.59375 17.96875 6.59375 36.375 
Q 6.59375 54.828125 13.0625 64.515625 
Q 19.53125 74.21875 31.78125 74.21875 
z
" id="DejaVuSans-48"/>
       <path d="M 10.6875 12.40625 
L 21 12.40625 
L 21 0 
L 10.6875 0 
z
" id="DejaVuSans-46"/>
       <path d="M 8.203125 72.90625 
L 55.078125 72.90625 
L 55.078125 68.703125 
L 28.609375 0 
L 18.3125 0 
L 43.21875 64.59375 
L 8.203125 64.59375 
z
" id="DejaVuSans-55"/>
      </defs>
      <g transform="translate(90.829317 188.638438)scale(0.1 -0.1)">
       <use xlink:href="#DejaVuSans-48"/>
       <use x="63.623047" xlink:href="#DejaVuSans-46"/>
       <use x="95.410156" xlink:href="#DejaVuSans-55"/>
       <use x="159.033203" xlink:href="#DejaVuSans-48"/>
      </g>
     </g>
    </g>
    <g id="xtick_2">
     <g id="line2d_2">
      <g>
       <use style="stroke:#000000;stroke-width:0.8;" x="140.478635" xlink:href="#m27277fdd72" y="174.04"/>
      </g>
     </g>
     <g id="text_2">
      <!-- 0.71 -->
      <defs>
       <path d="M 12.40625 8.296875 
L 28.515625 8.296875 
L 28.515625 63.921875 
L 10.984375 60.40625 
L 10.984375 69.390625 
L 28.421875 72.90625 
L 38.28125 72.90625 
L 38.28125 8.296875 
L 54.390625 8.296875 
L 54.390625 0 
L 12.40625 0 
z
" id="DejaVuSans-49"/>
      </defs>
      <g transform="translate(129.345822 188.638438)scale(0.1 -0.1)">
       <use xlink:href="#DejaVuSans-48"/>
       <use x="63.623047" xlink:href="#DejaVuSans-46"/>
       <use x="95.410156" xlink:href="#DejaVuSans-55"/>
       <use x="159.033203" xlink:href="#DejaVuSans-49"/>
      </g>
     </g>
    </g>
    <g id="xtick_3">
     <g id="line2d_3">
      <g>
       <use style="stroke:#000000;stroke-width:0.8;" x="178.995139" xlink:href="#m27277fdd72" y="174.04"/>
      </g>
     </g>
     <g id="text_3">
      <!-- 0.72 -->
      <defs>
       <path d="M 19.1875 8.296875 
L 53.609375 8.296875 
L 53.609375 0 
L 7.328125 0 
L 7.328125 8.296875 
Q 12.9375 14.109375 22.625 23.890625 
Q 32.328125 33.6875 34.8125 36.53125 
Q 39.546875 41.84375 41.421875 45.53125 
Q 43.3125 49.21875 43.3125 52.78125 
Q 43.3125 58.59375 39.234375 62.25 
Q 35.15625 65.921875 28.609375 65.921875 
Q 23.96875 65.921875 18.8125 64.3125 
Q 13.671875 62.703125 7.8125 59.421875 
L 7.8125 69.390625 
Q 13.765625 71.78125 18.9375 73 
Q 24.125 74.21875 28.421875 74.21875 
Q 39.75 74.21875 46.484375 68.546875 
Q 53.21875 62.890625 53.21875 53.421875 
Q 53.21875 48.921875 51.53125 44.890625 
Q 49.859375 40.875 45.40625 35.40625 
Q 44.1875 33.984375 37.640625 27.21875 
Q 31.109375 20.453125 19.1875 8.296875 
z
" id="DejaVuSans-50"/>
      </defs>
      <g transform="translate(167.862327 188.638438)scale(0.1 -0.1)">
       <use xlink:href="#DejaVuSans-48"/>
       <use x="63.623047" xlink:href="#DejaVuSans-46"/>
       <use x="95.410156" xlink:href="#DejaVuSans-55"/>
       <use x="159.033203" xlink:href="#DejaVuSans-50"/>
      </g>
     </g>
    </g>
    <g id="xtick_4">
     <g id="line2d_4">
      <g>
       <use style="stroke:#000000;stroke-width:0.8;" x="217.511644" xlink:href="#m27277fdd72" y="174.04"/>
      </g>
     </g>
     <g id="text_4">
      <!-- 0.73 -->
      <defs>
       <path d="M 40.578125 39.3125 
Q 47.65625 37.796875 51.625 33 
Q 55.609375 28.21875 55.609375 21.1875 
Q 55.609375 10.40625 48.1875 4.484375 
Q 40.765625 -1.421875 27.09375 -1.421875 
Q 22.515625 -1.421875 17.65625 -0.515625 
Q 12.796875 0.390625 7.625 2.203125 
L 7.625 11.71875 
Q 11.71875 9.328125 16.59375 8.109375 
Q 21.484375 6.890625 26.8125 6.890625 
Q 36.078125 6.890625 40.9375 10.546875 
Q 45.796875 14.203125 45.796875 21.1875 
Q 45.796875 27.640625 41.28125 31.265625 
Q 36.765625 34.90625 28.71875 34.90625 
L 20.21875 34.90625 
L 20.21875 43.015625 
L 29.109375 43.015625 
Q 36.375 43.015625 40.234375 45.921875 
Q 44.09375 48.828125 44.09375 54.296875 
Q 44.09375 59.90625 40.109375 62.90625 
Q 36.140625 65.921875 28.71875 65.921875 
Q 24.65625 65.921875 20.015625 65.03125 
Q 15.375 64.15625 9.8125 62.3125 
L 9.8125 71.09375 
Q 15.4375 72.65625 20.34375 73.4375 
Q 25.25 74.21875 29.59375 74.21875 
Q 40.828125 74.21875 47.359375 69.109375 
Q 53.90625 64.015625 53.90625 55.328125 
Q 53.90625 49.265625 50.4375 45.09375 
Q 46.96875 40.921875 40.578125 39.3125 
z
" id="DejaVuSans-51"/>
      </defs>
      <g transform="translate(206.378832 188.638438)scale(0.1 -0.1)">
       <use xlink:href="#DejaVuSans-48"/>
       <use x="63.623047" xlink:href="#DejaVuSans-46"/>
       <use x="95.410156" xlink:href="#DejaVuSans-55"/>
       <use x="159.033203" xlink:href="#DejaVuSans-51"/>
      </g>
     </g>
    </g>
    <g id="xtick_5">
     <g id="line2d_5">
      <g>
       <use style="stroke:#000000;stroke-width:0.8;" x="256.028149" xlink:href="#m27277fdd72" y="174.04"/>
      </g>
     </g>
     <g id="text_5">
      <!-- 0.74 -->
      <defs>
       <path d="M 37.796875 64.3125 
L 12.890625 25.390625 
L 37.796875 25.390625 
z
M 35.203125 72.90625 
L 47.609375 72.90625 
L 47.609375 25.390625 
L 58.015625 25.390625 
L 58.015625 17.1875 
L 47.609375 17.1875 
L 47.609375 0 
L 37.796875 0 
L 37.796875 17.1875 
L 4.890625 17.1875 
L 4.890625 26.703125 
z
" id="DejaVuSans-52"/>
      </defs>
      <g transform="translate(244.895336 188.638438)scale(0.1 -0.1)">
       <use xlink:href="#DejaVuSans-48"/>
       <use x="63.623047" xlink:href="#DejaVuSans-46"/>
       <use x="95.410156" xlink:href="#DejaVuSans-55"/>
       <use x="159.033203" xlink:href="#DejaVuSans-52"/>
      </g>
     </g>
    </g>
    <g id="xtick_6">
     <g id="line2d_6">
      <g>
       <use style="stroke:#000000;stroke-width:0.8;" x="294.544654" xlink:href="#m27277fdd72" y="174.04"/>
      </g>
     </g>
     <g id="text_6">
      <!-- 0.75 -->
      <defs>
       <path d="M 10.796875 72.90625 
L 49.515625 72.90625 
L 49.515625 64.59375 
L 19.828125 64.59375 
L 19.828125 46.734375 
Q 21.96875 47.46875 24.109375 47.828125 
Q 26.265625 48.1875 28.421875 48.1875 
Q 40.625 48.1875 47.75 41.5 
Q 54.890625 34.8125 54.890625 23.390625 
Q 54.890625 11.625 47.5625 5.09375 
Q 40.234375 -1.421875 26.90625 -1.421875 
Q 22.3125 -1.421875 17.546875 -0.640625 
Q 12.796875 0.140625 7.71875 1.703125 
L 7.71875 11.625 
Q 12.109375 9.234375 16.796875 8.0625 
Q 21.484375 6.890625 26.703125 6.890625 
Q 35.15625 6.890625 40.078125 11.328125 
Q 45.015625 15.765625 45.015625 23.390625 
Q 45.015625 31 40.078125 35.4375 
Q 35.15625 39.890625 26.703125 39.890625 
Q 22.75 39.890625 18.8125 39.015625 
Q 14.890625 38.140625 10.796875 36.28125 
z
" id="DejaVuSans-53"/>
      </defs>
      <g transform="translate(283.411841 188.638438)scale(0.1 -0.1)">
       <use xlink:href="#DejaVuSans-48"/>
       <use x="63.623047" xlink:href="#DejaVuSans-46"/>
       <use x="95.410156" xlink:href="#DejaVuSans-55"/>
       <use x="159.033203" xlink:href="#DejaVuSans-53"/>
      </g>
     </g>
    </g>
    <g id="xtick_7">
     <g id="line2d_7">
      <g>
       <use style="stroke:#000000;stroke-width:0.8;" x="333.061158" xlink:href="#m27277fdd72" y="174.04"/>
      </g>
     </g>
     <g id="text_7">
      <!-- 0.76 -->
      <defs>
       <path d="M 33.015625 40.375 
Q 26.375 40.375 22.484375 35.828125 
Q 18.609375 31.296875 18.609375 23.390625 
Q 18.609375 15.53125 22.484375 10.953125 
Q 26.375 6.390625 33.015625 6.390625 
Q 39.65625 6.390625 43.53125 10.953125 
Q 47.40625 15.53125 47.40625 23.390625 
Q 47.40625 31.296875 43.53125 35.828125 
Q 39.65625 40.375 33.015625 40.375 
z
M 52.59375 71.296875 
L 52.59375 62.3125 
Q 48.875 64.0625 45.09375 64.984375 
Q 41.3125 65.921875 37.59375 65.921875 
Q 27.828125 65.921875 22.671875 59.328125 
Q 17.53125 52.734375 16.796875 39.40625 
Q 19.671875 43.65625 24.015625 45.921875 
Q 28.375 48.1875 33.59375 48.1875 
Q 44.578125 48.1875 50.953125 41.515625 
Q 57.328125 34.859375 57.328125 23.390625 
Q 57.328125 12.15625 50.6875 5.359375 
Q 44.046875 -1.421875 33.015625 -1.421875 
Q 20.359375 -1.421875 13.671875 8.265625 
Q 6.984375 17.96875 6.984375 36.375 
Q 6.984375 53.65625 15.1875 63.9375 
Q 23.390625 74.21875 37.203125 74.21875 
Q 40.921875 74.21875 44.703125 73.484375 
Q 48.484375 72.75 52.59375 71.296875 
z
" id="DejaVuSans-54"/>
      </defs>
      <g transform="translate(321.928346 188.638438)scale(0.1 -0.1)">
       <use xlink:href="#DejaVuSans-48"/>
       <use x="63.623047" xlink:href="#DejaVuSans-46"/>
       <use x="95.410156" xlink:href="#DejaVuSans-55"/>
       <use x="159.033203" xlink:href="#DejaVuSans-54"/>
      </g>
     </g>
    </g>
    <g id="text_8">
     <!-- Time (s) -->
     <defs>
      <path d="M -0.296875 72.90625 
L 61.375 72.90625 
L 61.375 64.59375 
L 35.5 64.59375 
L 35.5 0 
L 25.59375 0 
L 25.59375 64.59375 
L -0.296875 64.59375 
z
" id="DejaVuSans-84"/>
      <path d="M 9.421875 54.6875 
L 18.40625 54.6875 
L 18.40625 0 
L 9.421875 0 
z
M 9.421875 75.984375 
L 18.40625 75.984375 
L 18.40625 64.59375 
L 9.421875 64.59375 
z
" id="DejaVuSans-105"/>
      <path d="M 52 44.1875 
Q 55.375 50.25 60.0625 53.125 
Q 64.75 56 71.09375 56 
Q 79.640625 56 84.28125 50.015625 
Q 88.921875 44.046875 88.921875 33.015625 
L 88.921875 0 
L 79.890625 0 
L 79.890625 32.71875 
Q 79.890625 40.578125 77.09375 44.375 
Q 74.3125 48.1875 68.609375 48.1875 
Q 61.625 48.1875 57.5625 43.546875 
Q 53.515625 38.921875 53.515625 30.90625 
L 53.515625 0 
L 44.484375 0 
L 44.484375 32.71875 
Q 44.484375 40.625 41.703125 44.40625 
Q 38.921875 48.1875 33.109375 48.1875 
Q 26.21875 48.1875 22.15625 43.53125 
Q 18.109375 38.875 18.109375 30.90625 
L 18.109375 0 
L 9.078125 0 
L 9.078125 54.6875 
L 18.109375 54.6875 
L 18.109375 46.1875 
Q 21.1875 51.21875 25.484375 53.609375 
Q 29.78125 56 35.6875 56 
Q 41.65625 56 45.828125 52.96875 
Q 50 49.953125 52 44.1875 
z
" id="DejaVuSans-109"/>
      <path d="M 56.203125 29.59375 
L 56.203125 25.203125 
L 14.890625 25.203125 
Q 15.484375 15.921875 20.484375 11.0625 
Q 25.484375 6.203125 34.421875 6.203125 
Q 39.59375 6.203125 44.453125 7.46875 
Q 49.3125 8.734375 54.109375 11.28125 
L 54.109375 2.78125 
Q 49.265625 0.734375 44.1875 -0.34375 
Q 39.109375 -1.421875 33.890625 -1.421875 
Q 20.796875 -1.421875 13.15625 6.1875 
Q 5.515625 13.8125 5.515625 26.8125 
Q 5.515625 40.234375 12.765625 48.109375 
Q 20.015625 56 32.328125 56 
Q 43.359375 56 49.78125 48.890625 
Q 56.203125 41.796875 56.203125 29.59375 
z
M 47.21875 32.234375 
Q 47.125 39.59375 43.09375 43.984375 
Q 39.0625 48.390625 32.421875 48.390625 
Q 24.90625 48.390625 20.390625 44.140625 
Q 15.875 39.890625 15.1875 32.171875 
z
" id="DejaVuSans-101"/>
      <path id="DejaVuSans-32"/>
      <path d="M 31 75.875 
Q 24.46875 64.65625 21.28125 53.65625 
Q 18.109375 42.671875 18.109375 31.390625 
Q 18.109375 20.125 21.3125 9.0625 
Q 24.515625 -2 31 -13.1875 
L 23.1875 -13.1875 
Q 15.875 -1.703125 12.234375 9.375 
Q 8.59375 20.453125 8.59375 31.390625 
Q 8.59375 42.28125 12.203125 53.3125 
Q 15.828125 64.359375 23.1875 75.875 
z
" id="DejaVuSans-40"/>
      <path d="M 44.28125 53.078125 
L 44.28125 44.578125 
Q 40.484375 46.53125 36.375 47.5 
Q 32.28125 48.484375 27.875 48.484375 
Q 21.1875 48.484375 17.84375 46.4375 
Q 14.5 44.390625 14.5 40.28125 
Q 14.5 37.15625 16.890625 35.375 
Q 19.28125 33.59375 26.515625 31.984375 
L 29.59375 31.296875 
Q 39.15625 29.25 43.1875 25.515625 
Q 47.21875 21.78125 47.21875 15.09375 
Q 47.21875 7.46875 41.1875 3.015625 
Q 35.15625 -1.421875 24.609375 -1.421875 
Q 20.21875 -1.421875 15.453125 -0.5625 
Q 10.6875 0.296875 5.421875 2 
L 5.421875 11.28125 
Q 10.40625 8.6875 15.234375 7.390625 
Q 20.0625 6.109375 24.8125 6.109375 
Q 31.15625 6.109375 34.5625 8.28125 
Q 37.984375 10.453125 37.984375 14.40625 
Q 37.984375 18.0625 35.515625 20.015625 
Q 33.0625 21.96875 24.703125 23.78125 
L 21.578125 24.515625 
Q 13.234375 26.265625 9.515625 29.90625 
Q 5.8125 33.546875 5.8125 39.890625 
Q 5.8125 47.609375 11.28125 51.796875 
Q 16.75 56 26.8125 56 
Q 31.78125 56 36.171875 55.265625 
Q 40.578125 54.546875 44.28125 53.078125 
z
" id="DejaVuSans-115"/>
      <path d="M 8.015625 75.875 
L 15.828125 75.875 
Q 23.140625 64.359375 26.78125 53.3125 
Q 30.421875 42.28125 30.421875 31.390625 
Q 30.421875 20.453125 26.78125 9.375 
Q 23.140625 -1.703125 15.828125 -13.1875 
L 8.015625 -13.1875 
Q 14.5 -2 17.703125 9.0625 
Q 20.90625 20.125 20.90625 31.390625 
Q 20.90625 42.671875 17.703125 53.65625 
Q 14.5 64.65625 8.015625 75.875 
z
" id="DejaVuSans-41"/>
     </defs>
     <g transform="translate(172.522089 206.875625)scale(0.16 -0.16)">
      <use xlink:href="#DejaVuSans-84"/>
      <use x="61.037109" xlink:href="#DejaVuSans-105"/>
      <use x="88.820312" xlink:href="#DejaVuSans-109"/>
      <use x="186.232422" xlink:href="#DejaVuSans-101"/>
      <use x="247.755859" xlink:href="#DejaVuSans-32"/>
      <use x="279.542969" xlink:href="#DejaVuSans-40"/>
      <use x="318.556641" xlink:href="#DejaVuSans-115"/>
      <use x="370.65625" xlink:href="#DejaVuSans-41"/>
     </g>
    </g>
   </g>
   <g id="matplotlib.axis_2">
    <g id="ytick_1">
     <g id="line2d_8">
      <defs>
       <path d="M 0 0 
L -3.5 0 
" id="mf37b937b9c" style="stroke:#000000;stroke-width:0.8;"/>
      </defs>
      <g>
       <use style="stroke:#000000;stroke-width:0.8;" x="68.87" xlink:href="#mf37b937b9c" y="156.217487"/>
      </g>
     </g>
     <g id="text_9">
      <!-- −0.4 -->
      <defs>
       <path d="M 10.59375 35.5 
L 73.1875 35.5 
L 73.1875 27.203125 
L 10.59375 27.203125 
z
" id="DejaVuSans-8722"/>
      </defs>
      <g transform="translate(37.587187 160.016705)scale(0.1 -0.1)">
       <use xlink:href="#DejaVuSans-8722"/>
       <use x="83.789062" xlink:href="#DejaVuSans-48"/>
       <use x="147.412109" xlink:href="#DejaVuSans-46"/>
       <use x="179.199219" xlink:href="#DejaVuSans-52"/>
      </g>
     </g>
    </g>
    <g id="ytick_2">
     <g id="line2d_9">
      <g>
       <use style="stroke:#000000;stroke-width:0.8;" x="68.87" xlink:href="#mf37b937b9c" y="127.829876"/>
      </g>
     </g>
     <g id="text_10">
      <!-- −0.2 -->
      <g transform="translate(37.587187 131.629095)scale(0.1 -0.1)">
       <use xlink:href="#DejaVuSans-8722"/>
       <use x="83.789062" xlink:href="#DejaVuSans-48"/>
       <use x="147.412109" xlink:href="#DejaVuSans-46"/>
       <use x="179.199219" xlink:href="#DejaVuSans-50"/>
      </g>
     </g>
    </g>
    <g id="ytick_3">
     <g id="line2d_10">
      <g>
       <use style="stroke:#000000;stroke-width:0.8;" x="68.87" xlink:href="#mf37b937b9c" y="99.442265"/>
      </g>
     </g>
     <g id="text_11">
      <!-- 0.0 -->
      <g transform="translate(45.966875 103.241484)scale(0.1 -0.1)">
       <use xlink:href="#DejaVuSans-48"/>
       <use x="63.623047" xlink:href="#DejaVuSans-46"/>
       <use x="95.410156" xlink:href="#DejaVuSans-48"/>
      </g>
     </g>
    </g>
    <g id="ytick_4">
     <g id="line2d_11">
      <g>
       <use style="stroke:#000000;stroke-width:0.8;" x="68.87" xlink:href="#mf37b937b9c" y="71.054654"/>
      </g>
     </g>
     <g id="text_12">
      <!-- 0.2 -->
      <g transform="translate(45.966875 74.853873)scale(0.1 -0.1)">
       <use xlink:href="#DejaVuSans-48"/>
       <use x="63.623047" xlink:href="#DejaVuSans-46"/>
       <use x="95.410156" xlink:href="#DejaVuSans-50"/>
      </g>
     </g>
    </g>
    <g id="ytick_5">
     <g id="line2d_12">
      <g>
       <use style="stroke:#000000;stroke-width:0.8;" x="68.87" xlink:href="#mf37b937b9c" y="42.667044"/>
      </g>
     </g>
     <g id="text_13">
      <!-- 0.4 -->
      <g transform="translate(45.966875 46.466262)scale(0.1 -0.1)">
       <use xlink:href="#DejaVuSans-48"/>
       <use x="63.623047" xlink:href="#DejaVuSans-46"/>
       <use x="95.410156" xlink:href="#DejaVuSans-52"/>
      </g>
     </g>
    </g>
    <g id="text_14">
     <!-- Amplitude -->
     <defs>
      <path d="M 34.1875 63.1875 
L 20.796875 26.90625 
L 47.609375 26.90625 
z
M 28.609375 72.90625 
L 39.796875 72.90625 
L 67.578125 0 
L 57.328125 0 
L 50.6875 18.703125 
L 17.828125 18.703125 
L 11.1875 0 
L 0.78125 0 
z
" id="DejaVuSans-65"/>
      <path d="M 18.109375 8.203125 
L 18.109375 -20.796875 
L 9.078125 -20.796875 
L 9.078125 54.6875 
L 18.109375 54.6875 
L 18.109375 46.390625 
Q 20.953125 51.265625 25.265625 53.625 
Q 29.59375 56 35.59375 56 
Q 45.5625 56 51.78125 48.09375 
Q 58.015625 40.1875 58.015625 27.296875 
Q 58.015625 14.40625 51.78125 6.484375 
Q 45.5625 -1.421875 35.59375 -1.421875 
Q 29.59375 -1.421875 25.265625 0.953125 
Q 20.953125 3.328125 18.109375 8.203125 
z
M 48.6875 27.296875 
Q 48.6875 37.203125 44.609375 42.84375 
Q 40.53125 48.484375 33.40625 48.484375 
Q 26.265625 48.484375 22.1875 42.84375 
Q 18.109375 37.203125 18.109375 27.296875 
Q 18.109375 17.390625 22.1875 11.75 
Q 26.265625 6.109375 33.40625 6.109375 
Q 40.53125 6.109375 44.609375 11.75 
Q 48.6875 17.390625 48.6875 27.296875 
z
" id="DejaVuSans-112"/>
      <path d="M 9.421875 75.984375 
L 18.40625 75.984375 
L 18.40625 0 
L 9.421875 0 
z
" id="DejaVuSans-108"/>
      <path d="M 18.3125 70.21875 
L 18.3125 54.6875 
L 36.8125 54.6875 
L 36.8125 47.703125 
L 18.3125 47.703125 
L 18.3125 18.015625 
Q 18.3125 11.328125 20.140625 9.421875 
Q 21.96875 7.515625 27.59375 7.515625 
L 36.8125 7.515625 
L 36.8125 0 
L 27.59375 0 
Q 17.1875 0 13.234375 3.875 
Q 9.28125 7.765625 9.28125 18.015625 
L 9.28125 47.703125 
L 2.6875 47.703125 
L 2.6875 54.6875 
L 9.28125 54.6875 
L 9.28125 70.21875 
z
" id="DejaVuSans-116"/>
      <path d="M 8.5 21.578125 
L 8.5 54.6875 
L 17.484375 54.6875 
L 17.484375 21.921875 
Q 17.484375 14.15625 20.5 10.265625 
Q 23.53125 6.390625 29.59375 6.390625 
Q 36.859375 6.390625 41.078125 11.03125 
Q 45.3125 15.671875 45.3125 23.6875 
L 45.3125 54.6875 
L 54.296875 54.6875 
L 54.296875 0 
L 45.3125 0 
L 45.3125 8.40625 
Q 42.046875 3.421875 37.71875 1 
Q 33.40625 -1.421875 27.6875 -1.421875 
Q 18.265625 -1.421875 13.375 4.4375 
Q 8.5 10.296875 8.5 21.578125 
z
M 31.109375 56 
z
" id="DejaVuSans-117"/>
      <path d="M 45.40625 46.390625 
L 45.40625 75.984375 
L 54.390625 75.984375 
L 54.390625 0 
L 45.40625 0 
L 45.40625 8.203125 
Q 42.578125 3.328125 38.25 0.953125 
Q 33.9375 -1.421875 27.875 -1.421875 
Q 17.96875 -1.421875 11.734375 6.484375 
Q 5.515625 14.40625 5.515625 27.296875 
Q 5.515625 40.1875 11.734375 48.09375 
Q 17.96875 56 27.875 56 
Q 33.9375 56 38.25 53.625 
Q 42.578125 51.265625 45.40625 46.390625 
z
M 14.796875 27.296875 
Q 14.796875 17.390625 18.875 11.75 
Q 22.953125 6.109375 30.078125 6.109375 
Q 37.203125 6.109375 41.296875 11.75 
Q 45.40625 17.390625 45.40625 27.296875 
Q 45.40625 37.203125 41.296875 42.84375 
Q 37.203125 48.484375 30.078125 48.484375 
Q 22.953125 48.484375 18.875 42.84375 
Q 14.796875 37.203125 14.796875 27.296875 
z
" id="DejaVuSans-100"/>
     </defs>
     <g transform="translate(30.259687 142.89625)rotate(-90)scale(0.16 -0.16)">
      <use xlink:href="#DejaVuSans-65"/>
      <use x="68.408203" xlink:href="#DejaVuSans-109"/>
      <use x="165.820312" xlink:href="#DejaVuSans-112"/>
      <use x="229.296875" xlink:href="#DejaVuSans-108"/>
      <use x="257.080078" xlink:href="#DejaVuSans-105"/>
      <use x="284.863281" xlink:href="#DejaVuSans-116"/>
      <use x="324.072266" xlink:href="#DejaVuSans-117"/>
      <use x="387.451172" xlink:href="#DejaVuSans-100"/>
      <use x="450.927734" xlink:href="#DejaVuSans-101"/>
     </g>
    </g>
   </g>
   <g id="line2d_13">
    <path clip-path="url(#pd23677f501)" d="M 68.741644 99.423264 
L 69.704557 99.461266 
L 69.945285 99.556272 
L 70.426742 99.518269 
L 71.87111 99.499268 
L 72.352567 99.499268 
L 72.593295 99.404263 
L 72.834023 99.480267 
L 73.315479 99.404263 
L 74.037664 99.385262 
L 74.278392 99.233253 
L 74.759848 99.271255 
L 75.241305 99.366261 
L 76.204217 99.518269 
L 78.611499 99.385262 
L 79.333683 99.518269 
L 81.259509 99.461266 
L 82.703877 99.518269 
L 84.388975 99.34726 
L 84.629703 99.461266 
L 84.870431 99.404263 
L 85.111159 99.518269 
L 85.833343 99.461266 
L 86.555528 99.480267 
L 87.277712 99.442265 
L 87.759169 99.556272 
L 89.203538 99.328259 
L 89.925722 99.442265 
L 90.16645 99.366261 
L 90.888635 99.556272 
L 91.610819 99.480267 
L 91.851547 99.309258 
L 92.333004 99.290256 
L 92.573732 99.214252 
L 93.295916 99.442265 
L 93.777373 99.53727 
L 94.740285 99.461266 
L 95.46247 99.385262 
L 95.943926 99.442265 
L 97.147567 99.499268 
L 97.629023 99.442265 
L 98.110479 99.442265 
L 99.795576 99.518269 
L 100.999217 99.34726 
L 102.684314 99.518269 
L 103.647227 99.442265 
L 104.369411 99.53727 
L 104.850868 99.518269 
L 106.295237 99.290256 
L 107.258149 99.461266 
L 107.498877 99.613275 
L 108.943246 99.366261 
L 109.424703 99.442265 
L 110.387615 99.594274 
L 111.1098 99.34726 
L 111.350528 99.233253 
L 112.31344 99.34726 
L 112.554169 99.556272 
L 112.794897 99.613275 
L 114.239266 99.252254 
L 115.202178 99.271255 
L 115.683635 99.822287 
L 115.924363 99.632276 
L 116.646547 99.594274 
L 116.887275 99.328259 
L 117.128004 99.404263 
L 117.368732 99.290256 
L 117.60946 99.632276 
L 117.850188 99.366261 
L 118.572373 99.651277 
L 118.813101 99.53727 
L 119.053829 99.784284 
L 119.294557 99.727281 
L 119.535285 99.898291 
L 120.25747 99.024241 
L 120.738926 98.967238 
L 120.979654 99.17625 
L 121.701839 100.126304 
L 121.942567 99.974295 
L 122.664751 98.815229 
L 122.905479 98.701223 
L 123.146207 99.081245 
L 123.386936 99.214252 
L 123.627664 99.974295 
L 123.868392 100.316315 
L 124.349848 99.53727 
L 124.590576 99.499268 
L 124.831305 98.758226 
L 125.312761 99.499268 
L 125.553489 99.233253 
L 125.794217 99.860289 
L 126.034945 99.860289 
L 126.275673 99.556272 
L 126.516402 99.746282 
L 126.75713 99.632276 
L 126.997858 98.986239 
L 127.238586 99.233253 
L 127.960771 99.404263 
L 128.201499 99.195251 
L 128.442227 99.366261 
L 129.405139 99.081245 
L 129.645868 99.518269 
L 129.886596 99.670278 
L 130.127324 99.499268 
L 130.368052 99.803286 
L 130.849508 99.157249 
L 131.812421 99.34726 
L 132.053149 99.860289 
L 132.534605 99.423264 
L 132.775334 99.727281 
L 133.016062 100.297314 
L 133.25679 99.841288 
L 133.497518 98.796228 
L 133.738246 99.100246 
L 133.978974 99.062243 
L 134.219703 99.423264 
L 134.460431 100.183307 
L 134.701159 100.0503 
L 134.941887 99.081245 
L 135.182615 99.290256 
L 135.423343 99.119247 
L 135.664072 99.157249 
L 135.9048 99.024241 
L 136.145528 99.423264 
L 136.386256 99.024241 
L 136.626984 99.081245 
L 136.867712 99.290256 
L 137.10844 99.955294 
L 137.349169 99.271255 
L 137.589897 99.328259 
L 137.830625 99.87929 
L 138.071353 99.100246 
L 138.312081 98.758226 
L 138.552809 100.069301 
L 138.793538 100.221309 
L 139.034266 98.777227 
L 139.274994 99.290256 
L 139.515722 99.252254 
L 139.75645 99.00524 
L 139.997178 99.385262 
L 140.478635 99.366261 
L 140.719363 99.936293 
L 140.960091 99.955294 
L 141.200819 99.556272 
L 141.441547 99.404263 
L 141.682275 99.784284 
L 141.923004 99.860289 
L 142.163732 98.872233 
L 142.40446 99.385262 
L 142.645188 99.157249 
L 142.885916 99.385262 
L 143.126644 100.316315 
L 143.367372 100.620332 
L 143.608101 98.891234 
L 143.848829 98.910235 
L 144.089557 99.860289 
L 144.330285 99.784284 
L 144.571013 99.575273 
L 145.05247 100.905348 
L 145.293198 99.233253 
L 145.533926 98.777227 
L 145.774654 99.34726 
L 146.015382 99.518269 
L 146.25611 99.385262 
L 146.737567 99.993296 
L 146.978295 100.107303 
L 147.219023 99.898291 
L 147.459751 100.145305 
L 147.700479 99.689279 
L 147.941207 99.670278 
L 148.181936 99.233253 
L 148.422664 98.416207 
L 148.663392 99.499268 
L 148.90412 99.974295 
L 149.144848 99.613275 
L 149.626304 100.259311 
L 149.867033 100.0503 
L 150.107761 98.11219 
L 150.348489 98.264198 
L 150.589217 100.126304 
L 150.829945 100.012297 
L 151.070673 99.423264 
L 151.311402 100.145305 
L 151.55213 98.530213 
L 151.792858 98.758226 
L 152.033586 99.955294 
L 152.274314 100.031298 
L 152.515042 99.822287 
L 152.996499 98.587217 
L 153.237227 98.815229 
L 153.477955 97.979182 
L 153.718683 98.055186 
L 154.440868 100.316315 
L 154.922324 99.271255 
L 155.163052 98.283199 
L 155.40378 98.3022 
L 155.644508 98.853232 
L 155.885237 98.929236 
L 156.125965 99.556272 
L 156.366693 100.848345 
L 156.607421 100.145305 
L 156.848149 100.373318 
L 157.570334 97.561158 
L 157.811062 100.164306 
L 158.05179 99.252254 
L 158.292518 98.834231 
L 158.533246 100.981352 
L 159.014703 99.233253 
L 159.255431 99.974295 
L 159.496159 98.891234 
L 159.736887 100.088302 
L 159.977615 100.544328 
L 160.218343 99.651277 
L 160.459071 99.271255 
L 160.6998 99.670278 
L 160.940528 98.454209 
L 161.181256 98.815229 
L 161.421984 100.601331 
L 161.662712 100.354317 
L 161.90344 99.70828 
L 162.144169 99.442265 
L 162.384897 99.404263 
L 162.625625 98.47321 
L 162.866353 98.264198 
L 163.107081 98.321201 
L 163.347809 99.53727 
L 163.829266 100.449322 
L 164.069994 100.506325 
L 164.310722 98.720224 
L 164.55145 98.948237 
L 164.792178 100.031298 
L 165.032906 99.195251 
L 165.273635 99.119247 
L 165.755091 101.076358 
L 165.995819 100.297314 
L 166.236547 100.772341 
L 166.718003 99.233253 
L 166.958732 98.169193 
L 167.19946 98.093189 
L 167.440188 97.542157 
L 168.162372 102.159419 
L 168.884557 97.504155 
L 169.125285 97.637163 
L 169.366013 99.442265 
L 169.606741 99.727281 
L 169.847469 99.100246 
L 170.088198 100.164306 
L 170.328926 100.392319 
L 170.569654 97.998183 
L 170.810382 98.64422 
L 171.05111 99.632276 
L 171.291838 99.480267 
L 171.532567 99.632276 
L 171.773295 100.677335 
L 172.014023 100.867346 
L 172.254751 100.810343 
L 172.495479 97.580159 
L 172.736207 98.359204 
L 172.976936 100.848345 
L 173.217664 100.202308 
L 173.458392 99.87929 
L 173.939848 100.335316 
L 174.180576 98.872233 
L 174.662033 100.94335 
L 174.902761 99.423264 
L 175.384217 100.639333 
L 175.865673 98.929236 
L 176.106402 98.321201 
L 176.34713 99.499268 
L 176.587858 98.891234 
L 176.828586 100.202308 
L 177.069314 100.126304 
L 177.310042 100.753339 
L 177.55077 98.834231 
L 177.791499 98.872233 
L 178.032227 99.442265 
L 178.272955 98.910235 
L 178.513683 99.594274 
L 178.754411 98.929236 
L 178.995139 98.929236 
L 179.235868 99.898291 
L 179.717324 97.523156 
L 179.958052 100.734338 
L 180.19878 100.94335 
L 180.680236 97.94118 
L 180.920965 100.259311 
L 181.161693 101.019355 
L 181.643149 98.245197 
L 181.883877 101.342373 
L 182.124605 102.615445 
L 182.365334 99.233253 
L 182.606062 97.428151 
L 183.087518 101.228366 
L 183.328246 99.556272 
L 183.568974 98.777227 
L 183.809702 98.701223 
L 184.050431 102.17842 
L 184.291159 100.563329 
L 184.531887 96.87712 
L 184.772615 96.630105 
L 185.254071 102.634446 
L 185.4948 101.057357 
L 185.735528 97.124134 
L 186.216984 102.045413 
L 186.457712 100.41132 
L 186.69844 96.478097 
L 186.939168 97.751169 
L 187.420625 103.641503 
L 187.661353 100.221309 
L 187.902081 98.492211 
L 188.142809 102.140418 
L 188.383537 102.691449 
L 188.624266 98.017184 
L 188.864994 98.245197 
L 189.105722 101.019355 
L 189.34645 100.94335 
L 189.587178 98.435208 
L 189.827906 99.252254 
L 190.068634 102.482438 
L 190.309363 102.045413 
L 190.550091 96.934123 
L 190.790819 97.105132 
L 191.272275 100.487324 
L 191.513003 100.563329 
L 191.753732 97.789171 
L 191.99446 98.910235 
L 192.235188 99.385262 
L 192.475916 96.70611 
L 192.716644 98.055186 
L 192.957372 102.482438 
L 193.198101 103.831514 
L 193.438829 98.568215 
L 193.679557 96.5351 
L 194.161013 100.24031 
L 194.642469 97.59916 
L 194.883198 99.17625 
L 195.123926 103.337486 
L 195.605382 96.307087 
L 196.086838 100.164306 
L 196.327567 98.663221 
L 196.568295 99.746282 
L 196.809023 101.98841 
L 197.049751 102.444435 
L 197.290479 101.589387 
L 198.012664 97.960181 
L 198.253392 98.834231 
L 198.49412 100.924349 
L 198.734848 101.133361 
L 198.975576 101.057357 
L 199.216304 102.691449 
L 199.457033 103.204479 
L 199.697761 97.865176 
L 199.938489 95.395035 
L 200.179217 96.5351 
L 200.419945 99.195251 
L 200.901401 101.855402 
L 201.14213 101.684392 
L 201.382858 102.501439 
L 201.623586 101.47538 
L 201.864314 98.606218 
L 202.105042 98.587217 
L 202.586499 97.485154 
L 203.067955 101.361374 
L 203.308683 100.677335 
L 203.549411 100.449322 
L 203.790139 98.606218 
L 204.030867 100.810343 
L 204.271596 100.848345 
L 204.512324 98.739225 
L 205.234508 99.936293 
L 205.475236 99.442265 
L 205.715965 96.915122 
L 205.956693 99.233253 
L 206.197421 99.594274 
L 206.438149 96.592103 
L 206.678877 98.64422 
L 206.919605 102.34943 
L 207.160333 103.299484 
L 207.401062 102.311428 
L 207.64179 100.696336 
L 207.882518 101.190364 
L 208.123246 100.563329 
L 208.363974 97.466153 
L 208.604702 97.029128 
L 208.845431 98.283199 
L 209.326887 102.216422 
L 209.567615 100.924349 
L 210.049071 102.824457 
L 210.289799 101.969408 
L 210.530528 97.333145 
L 210.771256 95.813059 
L 211.011984 99.17625 
L 211.252712 99.860289 
L 211.49344 99.043242 
L 211.734168 99.784284 
L 211.974897 101.532384 
L 212.215625 101.456379 
L 212.456353 101.513383 
L 213.178537 94.710997 
L 213.419266 97.181137 
L 213.659994 101.684392 
L 213.900722 100.297314 
L 214.14145 97.808172 
L 214.622906 102.558442 
L 214.863634 101.171363 
L 215.345091 97.59916 
L 215.585819 100.41132 
L 215.826547 100.981352 
L 216.067275 98.777227 
L 216.308003 97.675165 
L 216.548732 98.682222 
L 216.78946 102.406433 
L 217.030188 100.316315 
L 217.270916 96.554101 
L 217.511644 99.651277 
L 217.752372 99.651277 
L 217.9931 97.447152 
L 218.233829 96.953124 
L 218.474557 97.276142 
L 218.715285 99.17625 
L 218.956013 99.841288 
L 219.196741 97.390149 
L 219.437469 96.782114 
L 219.678198 98.739225 
L 220.159654 99.746282 
L 220.400382 98.625219 
L 220.64111 96.231083 
L 221.122566 101.28537 
L 221.363295 99.404263 
L 221.604023 95.889063 
L 221.844751 96.820116 
L 222.085479 99.461266 
L 222.326207 100.544328 
L 223.048392 96.744112 
L 223.28912 97.162136 
L 224.011304 98.872233 
L 224.252032 100.829344 
L 224.492761 98.131191 
L 224.733489 97.751169 
L 224.974217 98.074187 
L 225.214945 99.157249 
L 225.696401 98.150192 
L 226.177858 99.366261 
L 226.418586 99.138248 
L 226.659314 97.06713 
L 226.900042 96.269085 
L 227.381498 98.986239 
L 227.622227 98.169193 
L 227.862955 99.214252 
L 228.344411 97.732168 
L 228.585139 97.580159 
L 228.825867 97.77017 
L 229.307324 96.231083 
L 229.78878 99.461266 
L 230.029508 100.126304 
L 230.510965 99.100246 
L 230.751693 98.587217 
L 230.992421 98.701223 
L 231.233149 99.556272 
L 231.473877 99.195251 
L 231.714605 99.594274 
L 231.955333 98.663221 
L 232.196062 98.587217 
L 232.677518 100.126304 
L 232.918246 99.290256 
L 233.158974 99.119247 
L 233.399702 99.727281 
L 233.881159 98.055186 
L 234.362615 99.53727 
L 234.603343 99.366261 
L 234.844071 98.416207 
L 235.084799 98.701223 
L 235.325528 99.575273 
L 235.566256 99.689279 
L 235.806984 99.461266 
L 236.529168 99.575273 
L 236.769897 99.17625 
L 237.010625 99.00524 
L 237.251353 99.100246 
L 237.492081 99.70828 
L 237.732809 99.70828 
L 238.695722 99.252254 
L 239.177178 99.518269 
L 239.417906 99.670278 
L 240.140091 99.328259 
L 240.621547 99.670278 
L 241.103003 99.518269 
L 241.58446 99.366261 
L 241.825188 99.461266 
L 242.065916 99.404263 
L 242.306644 99.575273 
L 242.7881 99.53727 
L 243.028829 99.461266 
L 243.510285 99.575273 
L 243.991741 99.271255 
L 244.473197 99.461266 
L 245.195382 99.556272 
L 245.676838 99.613275 
L 246.399023 99.461266 
L 246.639751 99.214252 
L 246.880479 99.233253 
L 247.361935 99.480267 
L 249.047032 99.556272 
L 249.287761 99.518269 
L 249.769217 99.233253 
L 252.176498 99.461266 
L 252.417227 99.233253 
L 252.898683 99.34726 
L 253.861596 99.34726 
L 254.343052 99.385262 
L 255.305964 99.53727 
L 255.787421 99.290256 
L 256.028149 99.442265 
L 256.268877 99.233253 
L 257.472518 99.499268 
L 258.194702 99.575273 
L 258.676159 99.423264 
L 260.601984 99.53727 
L 261.08344 99.480267 
L 262.527809 99.252254 
L 263.009265 99.385262 
L 263.73145 99.404263 
L 264.694362 99.252254 
L 264.935091 99.309258 
L 265.175819 99.214252 
L 265.657275 99.385262 
L 265.898003 99.328259 
L 266.37946 99.404263 
L 266.860916 99.366261 
L 267.101644 99.233253 
L 267.823828 99.271255 
L 268.305285 99.727281 
L 268.546013 99.252254 
L 268.786741 99.366261 
L 269.027469 99.87929 
L 269.268197 99.366261 
L 269.508926 99.252254 
L 269.749654 99.632276 
L 270.23111 99.214252 
L 270.712566 99.34726 
L 270.953295 99.195251 
L 271.194023 99.195251 
L 271.434751 99.423264 
L 271.916207 99.290256 
L 272.156935 99.461266 
L 272.87912 99.404263 
L 273.601304 99.385262 
L 273.842032 99.499268 
L 274.323489 99.423264 
L 274.564217 99.594274 
L 274.804945 99.518269 
L 275.286401 99.53727 
L 275.527129 99.518269 
L 275.767858 99.385262 
L 276.249314 99.385262 
L 276.490042 99.252254 
L 276.971498 99.328259 
L 277.212227 99.480267 
L 277.693683 99.461266 
L 277.934411 99.594274 
L 278.656595 99.480267 
L 279.138052 99.423264 
L 279.619508 99.404263 
L 280.823149 99.480267 
L 281.063877 99.404263 
L 281.786061 99.480267 
L 282.02679 99.404263 
L 282.267518 99.499268 
L 282.748974 99.442265 
L 283.471159 99.442265 
L 283.711887 99.404263 
L 284.193343 99.499268 
L 284.674799 99.499268 
L 285.156256 99.480267 
L 285.396984 99.385262 
L 285.87844 99.480267 
L 286.119168 99.328259 
L 286.359896 99.309258 
L 286.600625 99.461266 
L 287.804265 99.461266 
L 288.285722 99.499268 
L 288.52645 99.556272 
L 289.007906 99.366261 
L 289.248634 99.442265 
L 289.489362 99.366261 
L 289.970819 98.283199 
L 290.211547 99.461266 
L 290.452275 99.917292 
L 290.693003 99.024241 
L 290.933731 99.157249 
L 291.17446 99.898291 
L 291.655916 98.777227 
L 292.137372 99.993296 
L 292.3781 99.081245 
L 292.618828 98.663221 
L 292.859557 99.34726 
L 293.100285 99.480267 
L 293.341013 98.777227 
L 293.581741 99.062243 
L 293.822469 99.803286 
L 294.303926 98.663221 
L 294.544654 99.765283 
L 294.785382 99.651277 
L 295.02611 98.492211 
L 295.507566 99.955294 
L 295.748294 99.081245 
L 295.989023 98.701223 
L 296.229751 99.613275 
L 296.470479 99.727281 
L 296.711207 98.910235 
L 296.951935 99.214252 
L 297.192663 99.898291 
L 297.67412 98.853232 
L 297.914848 99.651277 
L 298.155576 99.575273 
L 298.396304 97.352146 
L 298.637032 97.694166 
L 298.87776 99.480267 
L 299.118489 98.454209 
L 299.359217 98.454209 
L 299.599945 100.183307 
L 299.840673 99.955294 
L 300.081401 99.100246 
L 300.322129 98.967238 
L 300.562858 100.525327 
L 300.803586 100.620332 
L 301.044314 99.119247 
L 301.52577 100.335316 
L 301.766498 98.853232 
L 302.007226 99.480267 
L 302.247955 100.506325 
L 302.729411 99.157249 
L 303.210867 100.791342 
L 303.451595 99.423264 
L 303.692324 99.328259 
L 303.933052 101.038356 
L 304.414508 99.043242 
L 304.895964 100.354317 
L 305.136692 99.518269 
L 305.377421 99.233253 
L 305.618149 100.297314 
L 305.858877 99.974295 
L 306.099605 98.986239 
L 306.581061 100.335316 
L 306.82179 99.423264 
L 307.062518 99.784284 
L 307.303246 100.696336 
L 307.543974 100.278312 
L 307.784702 99.480267 
L 308.02543 99.936293 
L 308.266159 100.658334 
L 308.506887 99.632276 
L 308.747615 99.290256 
L 308.988343 100.145305 
L 309.469799 98.853232 
L 309.710527 99.385262 
L 309.951256 99.556272 
L 310.191984 99.138248 
L 310.432712 99.00524 
L 310.67344 99.594274 
L 310.914168 99.480267 
L 311.154896 98.967238 
L 311.395625 99.70828 
L 311.636353 99.917292 
L 311.877081 99.252254 
L 312.117809 99.366261 
L 312.358537 99.689279 
L 312.839993 99.214252 
L 313.080722 99.385262 
L 313.32145 99.765283 
L 313.562178 99.157249 
L 313.802906 99.271255 
L 314.043634 99.784284 
L 314.284362 99.423264 
L 314.525091 99.309258 
L 314.765819 99.575273 
L 315.247275 99.233253 
L 315.728731 99.689279 
L 316.210188 99.119247 
L 316.450916 99.575273 
L 316.691644 99.518269 
L 316.932372 99.309258 
L 317.1731 99.670278 
L 317.895285 99.518269 
L 318.376741 99.955294 
L 318.617469 99.765283 
L 319.098925 99.993296 
L 319.339654 99.632276 
L 319.580382 99.651277 
L 319.82111 99.784284 
L 320.302566 99.613275 
L 320.784023 99.651277 
L 321.024751 99.518269 
L 321.265479 99.575273 
L 321.506207 99.841288 
L 321.746935 99.841288 
L 321.987663 99.727281 
L 322.46912 99.803286 
L 322.950576 99.689279 
L 323.191304 99.822287 
L 323.67276 99.518269 
L 323.913489 99.651277 
L 324.635673 99.613275 
L 324.876401 99.651277 
L 325.117129 99.575273 
L 325.357858 99.366261 
L 325.839314 99.385262 
L 326.080042 99.17625 
L 326.561498 99.252254 
L 326.802226 99.138248 
L 327.524411 99.17625 
L 328.005867 99.195251 
L 328.246595 99.252254 
L 328.487324 99.043242 
L 328.728052 98.986239 
L 329.209508 99.043242 
L 329.450236 98.929236 
L 330.653877 99.17625 
L 331.135333 99.062243 
L 331.61679 99.119247 
L 331.857518 98.986239 
L 332.338974 99.214252 
L 332.82043 99.100246 
L 333.542615 99.385262 
L 334.505527 99.651277 
L 334.986984 99.575273 
L 335.46844 99.613275 
L 335.949896 99.746282 
L 336.190624 99.765283 
L 336.912809 100.069301 
L 337.875722 100.316315 
L 338.11645 100.316315 
L 338.838634 100.639333 
L 339.32009 100.677335 
L 339.801547 100.962351 
L 340.523731 100.810343 
L 341.727372 100.012297 
L 341.727372 100.012297 
" style="fill:none;stroke:#000000;stroke-linecap:square;stroke-width:1.5;"/>
   </g>
   <g id="patch_3">
    <path d="M 68.87 174.04 
L 68.87 29.76 
" style="fill:none;stroke:#000000;stroke-linecap:square;stroke-linejoin:miter;stroke-width:0.8;"/>
   </g>
   <g id="patch_4">
    <path d="M 341.719179 174.04 
L 341.719179 29.76 
" style="fill:none;stroke:#000000;stroke-linecap:square;stroke-linejoin:miter;stroke-width:0.8;"/>
   </g>
   <g id="patch_5">
    <path d="M 68.87 174.04 
L 341.719179 174.04 
" style="fill:none;stroke:#000000;stroke-linecap:square;stroke-linejoin:miter;stroke-width:0.8;"/>
   </g>
   <g id="patch_6">
    <path d="M 68.87 29.76 
L 341.719179 29.76 
" style="fill:none;stroke:#000000;stroke-linecap:square;stroke-linejoin:miter;stroke-width:0.8;"/>
   </g>
   <g id="text_15">
    <!-- "don't ask me" -->
    <defs>
     <path d="M 17.921875 72.90625 
L 17.921875 45.796875 
L 9.625 45.796875 
L 9.625 72.90625 
z
M 36.375 72.90625 
L 36.375 45.796875 
L 28.078125 45.796875 
L 28.078125 72.90625 
z
" id="DejaVuSans-34"/>
     <path d="M 30.609375 48.390625 
Q 23.390625 48.390625 19.1875 42.75 
Q 14.984375 37.109375 14.984375 27.296875 
Q 14.984375 17.484375 19.15625 11.84375 
Q 23.34375 6.203125 30.609375 6.203125 
Q 37.796875 6.203125 41.984375 11.859375 
Q 46.1875 17.53125 46.1875 27.296875 
Q 46.1875 37.015625 41.984375 42.703125 
Q 37.796875 48.390625 30.609375 48.390625 
z
M 30.609375 56 
Q 42.328125 56 49.015625 48.375 
Q 55.71875 40.765625 55.71875 27.296875 
Q 55.71875 13.875 49.015625 6.21875 
Q 42.328125 -1.421875 30.609375 -1.421875 
Q 18.84375 -1.421875 12.171875 6.21875 
Q 5.515625 13.875 5.515625 27.296875 
Q 5.515625 40.765625 12.171875 48.375 
Q 18.84375 56 30.609375 56 
z
" id="DejaVuSans-111"/>
     <path d="M 54.890625 33.015625 
L 54.890625 0 
L 45.90625 0 
L 45.90625 32.71875 
Q 45.90625 40.484375 42.875 44.328125 
Q 39.84375 48.1875 33.796875 48.1875 
Q 26.515625 48.1875 22.3125 43.546875 
Q 18.109375 38.921875 18.109375 30.90625 
L 18.109375 0 
L 9.078125 0 
L 9.078125 54.6875 
L 18.109375 54.6875 
L 18.109375 46.1875 
Q 21.34375 51.125 25.703125 53.5625 
Q 30.078125 56 35.796875 56 
Q 45.21875 56 50.046875 50.171875 
Q 54.890625 44.34375 54.890625 33.015625 
z
" id="DejaVuSans-110"/>
     <path d="M 17.921875 72.90625 
L 17.921875 45.796875 
L 9.625 45.796875 
L 9.625 72.90625 
z
" id="DejaVuSans-39"/>
     <path d="M 34.28125 27.484375 
Q 23.390625 27.484375 19.1875 25 
Q 14.984375 22.515625 14.984375 16.5 
Q 14.984375 11.71875 18.140625 8.90625 
Q 21.296875 6.109375 26.703125 6.109375 
Q 34.1875 6.109375 38.703125 11.40625 
Q 43.21875 16.703125 43.21875 25.484375 
L 43.21875 27.484375 
z
M 52.203125 31.203125 
L 52.203125 0 
L 43.21875 0 
L 43.21875 8.296875 
Q 40.140625 3.328125 35.546875 0.953125 
Q 30.953125 -1.421875 24.3125 -1.421875 
Q 15.921875 -1.421875 10.953125 3.296875 
Q 6 8.015625 6 15.921875 
Q 6 25.140625 12.171875 29.828125 
Q 18.359375 34.515625 30.609375 34.515625 
L 43.21875 34.515625 
L 43.21875 35.40625 
Q 43.21875 41.609375 39.140625 45 
Q 35.0625 48.390625 27.6875 48.390625 
Q 23 48.390625 18.546875 47.265625 
Q 14.109375 46.140625 10.015625 43.890625 
L 10.015625 52.203125 
Q 14.9375 54.109375 19.578125 55.046875 
Q 24.21875 56 28.609375 56 
Q 40.484375 56 46.34375 49.84375 
Q 52.203125 43.703125 52.203125 31.203125 
z
" id="DejaVuSans-97"/>
     <path d="M 9.078125 75.984375 
L 18.109375 75.984375 
L 18.109375 31.109375 
L 44.921875 54.6875 
L 56.390625 54.6875 
L 27.390625 29.109375 
L 57.625 0 
L 45.90625 0 
L 18.109375 26.703125 
L 18.109375 0 
L 9.078125 0 
z
" id="DejaVuSans-107"/>
    </defs>
    <g transform="translate(146.053339 23.76)scale(0.16 -0.16)">
     <use xlink:href="#DejaVuSans-34"/>
     <use x="45.996094" xlink:href="#DejaVuSans-100"/>
     <use x="109.472656" xlink:href="#DejaVuSans-111"/>
     <use x="170.654297" xlink:href="#DejaVuSans-110"/>
     <use x="234.033203" xlink:href="#DejaVuSans-39"/>
     <use x="261.523438" xlink:href="#DejaVuSans-116"/>
     <use x="300.732422" xlink:href="#DejaVuSans-32"/>
     <use x="332.519531" xlink:href="#DejaVuSans-97"/>
     <use x="393.798828" xlink:href="#DejaVuSans-115"/>
     <use x="445.898438" xlink:href="#DejaVuSans-107"/>
     <use x="503.808594" xlink:href="#DejaVuSans-32"/>
     <use x="535.595703" xlink:href="#DejaVuSans-109"/>
     <use x="633.007812" xlink:href="#DejaVuSans-101"/>
     <use x="694.53125" xlink:href="#DejaVuSans-34"/>
    </g>
   </g>
  </g>
 </g>
 <defs>
  <clipPath id="pd23677f501">
   <rect height="144.28" width="272.849179" x="68.87" y="29.76"/>
  </clipPath>
 </defs>
</svg>
