<?xml version="1.0" encoding="utf-8" standalone="no"?>
<!DOCTYPE svg PUBLIC "-//W3C//DTD SVG 1.1//EN"
  "http://www.w3.org/Graphics/SVG/1.1/DTD/svg11.dtd">
<!-- Created with matplotlib (https://matplotlib.org/) -->
<svg height="222.48pt" version="1.1" viewBox="0 0 353.52 222.48" width="353.52pt" xmlns="http://www.w3.org/2000/svg" xmlns:xlink="http://www.w3.org/1999/xlink">
 <defs>
  <style type="text/css">
*{stroke-linecap:butt;stroke-linejoin:round;}
  </style>
 </defs>
 <g id="figure_1">
  <g id="patch_1">
   <path d="M 0 222.48 
L 353.52 222.48 
L 353.52 0 
L 0 0 
z
" style="fill:#ffffff;"/>
  </g>
  <g id="axes_1">
   <g id="patch_2">
    <path d="M 68.87 174.04 
L 341.719179 174.04 
L 341.719179 29.76 
L 68.87 29.76 
z
" style="fill:#ffffff;"/>
   </g>
   <g id="matplotlib.axis_1">
    <g id="xtick_1">
     <g id="line2d_1">
      <defs>
       <path d="M 0 0 
L 0 3.5 
" id="m1974aebe8d" style="stroke:#000000;stroke-width:0.8;"/>
      </defs>
      <g>
       <use style="stroke:#000000;stroke-width:0.8;" x="74.567178" xlink:href="#m1974aebe8d" y="174.04"/>
      </g>
     </g>
     <g id="text_1">
      <!-- 0.80 -->
      <defs>
       <path d="M 31.78125 66.40625 
Q 24.171875 66.40625 20.328125 58.90625 
Q 16.5 51.421875 16.5 36.375 
Q 16.5 21.390625 20.328125 13.890625 
Q 24.171875 6.390625 31.78125 6.390625 
Q 39.453125 6.390625 43.28125 13.890625 
Q 47.125 21.390625 47.125 36.375 
Q 47.125 51.421875 43.28125 58.90625 
Q 39.453125 66.40625 31.78125 66.40625 
z
M 31.78125 74.21875 
Q 44.046875 74.21875 50.515625 64.515625 
Q 56.984375 54.828125 56.984375 36.375 
Q 56.984375 17.96875 50.515625 8.265625 
Q 44.046875 -1.421875 31.78125 -1.421875 
Q 19.53125 -1.421875 13.0625 8.265625 
Q 6.59375 17.96875 6.59375 36.375 
Q 6.59375 54.828125 13.0625 64.515625 
Q 19.53125 74.21875 31.78125 74.21875 
z
" id="DejaVuSans-48"/>
       <path d="M 10.6875 12.40625 
L 21 12.40625 
L 21 0 
L 10.6875 0 
z
" id="DejaVuSans-46"/>
       <path d="M 31.78125 34.625 
Q 24.75 34.625 20.71875 30.859375 
Q 16.703125 27.09375 16.703125 20.515625 
Q 16.703125 13.921875 20.71875 10.15625 
Q 24.75 6.390625 31.78125 6.390625 
Q 38.8125 6.390625 42.859375 10.171875 
Q 46.921875 13.96875 46.921875 20.515625 
Q 46.921875 27.09375 42.890625 30.859375 
Q 38.875 34.625 31.78125 34.625 
z
M 21.921875 38.8125 
Q 15.578125 40.375 12.03125 44.71875 
Q 8.5 49.078125 8.5 55.328125 
Q 8.5 64.0625 14.71875 69.140625 
Q 20.953125 74.21875 31.78125 74.21875 
Q 42.671875 74.21875 48.875 69.140625 
Q 55.078125 64.0625 55.078125 55.328125 
Q 55.078125 49.078125 51.53125 44.71875 
Q 48 40.375 41.703125 38.8125 
Q 48.828125 37.15625 52.796875 32.3125 
Q 56.78125 27.484375 56.78125 20.515625 
Q 56.78125 9.90625 50.3125 4.234375 
Q 43.84375 -1.421875 31.78125 -1.421875 
Q 19.734375 -1.421875 13.25 4.234375 
Q 6.78125 9.90625 6.78125 20.515625 
Q 6.78125 27.484375 10.78125 32.3125 
Q 14.796875 37.15625 21.921875 38.8125 
z
M 18.3125 54.390625 
Q 18.3125 48.734375 21.84375 45.5625 
Q 25.390625 42.390625 31.78125 42.390625 
Q 38.140625 42.390625 41.71875 45.5625 
Q 45.3125 48.734375 45.3125 54.390625 
Q 45.3125 60.0625 41.71875 63.234375 
Q 38.140625 66.40625 31.78125 66.40625 
Q 25.390625 66.40625 21.84375 63.234375 
Q 18.3125 60.0625 18.3125 54.390625 
z
" id="DejaVuSans-56"/>
      </defs>
      <g transform="translate(63.434365 188.638438)scale(0.1 -0.1)">
       <use xlink:href="#DejaVuSans-48"/>
       <use x="63.623047" xlink:href="#DejaVuSans-46"/>
       <use x="95.410156" xlink:href="#DejaVuSans-56"/>
       <use x="159.033203" xlink:href="#DejaVuSans-48"/>
      </g>
     </g>
    </g>
    <g id="xtick_2">
     <g id="line2d_2">
      <g>
       <use style="stroke:#000000;stroke-width:0.8;" x="113.083682" xlink:href="#m1974aebe8d" y="174.04"/>
      </g>
     </g>
     <g id="text_2">
      <!-- 0.81 -->
      <defs>
       <path d="M 12.40625 8.296875 
L 28.515625 8.296875 
L 28.515625 63.921875 
L 10.984375 60.40625 
L 10.984375 69.390625 
L 28.421875 72.90625 
L 38.28125 72.90625 
L 38.28125 8.296875 
L 54.390625 8.296875 
L 54.390625 0 
L 12.40625 0 
z
" id="DejaVuSans-49"/>
      </defs>
      <g transform="translate(101.95087 188.638438)scale(0.1 -0.1)">
       <use xlink:href="#DejaVuSans-48"/>
       <use x="63.623047" xlink:href="#DejaVuSans-46"/>
       <use x="95.410156" xlink:href="#DejaVuSans-56"/>
       <use x="159.033203" xlink:href="#DejaVuSans-49"/>
      </g>
     </g>
    </g>
    <g id="xtick_3">
     <g id="line2d_3">
      <g>
       <use style="stroke:#000000;stroke-width:0.8;" x="151.600187" xlink:href="#m1974aebe8d" y="174.04"/>
      </g>
     </g>
     <g id="text_3">
      <!-- 0.82 -->
      <defs>
       <path d="M 19.1875 8.296875 
L 53.609375 8.296875 
L 53.609375 0 
L 7.328125 0 
L 7.328125 8.296875 
Q 12.9375 14.109375 22.625 23.890625 
Q 32.328125 33.6875 34.8125 36.53125 
Q 39.546875 41.84375 41.421875 45.53125 
Q 43.3125 49.21875 43.3125 52.78125 
Q 43.3125 58.59375 39.234375 62.25 
Q 35.15625 65.921875 28.609375 65.921875 
Q 23.96875 65.921875 18.8125 64.3125 
Q 13.671875 62.703125 7.8125 59.421875 
L 7.8125 69.390625 
Q 13.765625 71.78125 18.9375 73 
Q 24.125 74.21875 28.421875 74.21875 
Q 39.75 74.21875 46.484375 68.546875 
Q 53.21875 62.890625 53.21875 53.421875 
Q 53.21875 48.921875 51.53125 44.890625 
Q 49.859375 40.875 45.40625 35.40625 
Q 44.1875 33.984375 37.640625 27.21875 
Q 31.109375 20.453125 19.1875 8.296875 
z
" id="DejaVuSans-50"/>
      </defs>
      <g transform="translate(140.467375 188.638438)scale(0.1 -0.1)">
       <use xlink:href="#DejaVuSans-48"/>
       <use x="63.623047" xlink:href="#DejaVuSans-46"/>
       <use x="95.410156" xlink:href="#DejaVuSans-56"/>
       <use x="159.033203" xlink:href="#DejaVuSans-50"/>
      </g>
     </g>
    </g>
    <g id="xtick_4">
     <g id="line2d_4">
      <g>
       <use style="stroke:#000000;stroke-width:0.8;" x="190.116692" xlink:href="#m1974aebe8d" y="174.04"/>
      </g>
     </g>
     <g id="text_4">
      <!-- 0.83 -->
      <defs>
       <path d="M 40.578125 39.3125 
Q 47.65625 37.796875 51.625 33 
Q 55.609375 28.21875 55.609375 21.1875 
Q 55.609375 10.40625 48.1875 4.484375 
Q 40.765625 -1.421875 27.09375 -1.421875 
Q 22.515625 -1.421875 17.65625 -0.515625 
Q 12.796875 0.390625 7.625 2.203125 
L 7.625 11.71875 
Q 11.71875 9.328125 16.59375 8.109375 
Q 21.484375 6.890625 26.8125 6.890625 
Q 36.078125 6.890625 40.9375 10.546875 
Q 45.796875 14.203125 45.796875 21.1875 
Q 45.796875 27.640625 41.28125 31.265625 
Q 36.765625 34.90625 28.71875 34.90625 
L 20.21875 34.90625 
L 20.21875 43.015625 
L 29.109375 43.015625 
Q 36.375 43.015625 40.234375 45.921875 
Q 44.09375 48.828125 44.09375 54.296875 
Q 44.09375 59.90625 40.109375 62.90625 
Q 36.140625 65.921875 28.71875 65.921875 
Q 24.65625 65.921875 20.015625 65.03125 
Q 15.375 64.15625 9.8125 62.3125 
L 9.8125 71.09375 
Q 15.4375 72.65625 20.34375 73.4375 
Q 25.25 74.21875 29.59375 74.21875 
Q 40.828125 74.21875 47.359375 69.109375 
Q 53.90625 64.015625 53.90625 55.328125 
Q 53.90625 49.265625 50.4375 45.09375 
Q 46.96875 40.921875 40.578125 39.3125 
z
" id="DejaVuSans-51"/>
      </defs>
      <g transform="translate(178.983879 188.638438)scale(0.1 -0.1)">
       <use xlink:href="#DejaVuSans-48"/>
       <use x="63.623047" xlink:href="#DejaVuSans-46"/>
       <use x="95.410156" xlink:href="#DejaVuSans-56"/>
       <use x="159.033203" xlink:href="#DejaVuSans-51"/>
      </g>
     </g>
    </g>
    <g id="xtick_5">
     <g id="line2d_5">
      <g>
       <use style="stroke:#000000;stroke-width:0.8;" x="228.633197" xlink:href="#m1974aebe8d" y="174.04"/>
      </g>
     </g>
     <g id="text_5">
      <!-- 0.84 -->
      <defs>
       <path d="M 37.796875 64.3125 
L 12.890625 25.390625 
L 37.796875 25.390625 
z
M 35.203125 72.90625 
L 47.609375 72.90625 
L 47.609375 25.390625 
L 58.015625 25.390625 
L 58.015625 17.1875 
L 47.609375 17.1875 
L 47.609375 0 
L 37.796875 0 
L 37.796875 17.1875 
L 4.890625 17.1875 
L 4.890625 26.703125 
z
" id="DejaVuSans-52"/>
      </defs>
      <g transform="translate(217.500384 188.638438)scale(0.1 -0.1)">
       <use xlink:href="#DejaVuSans-48"/>
       <use x="63.623047" xlink:href="#DejaVuSans-46"/>
       <use x="95.410156" xlink:href="#DejaVuSans-56"/>
       <use x="159.033203" xlink:href="#DejaVuSans-52"/>
      </g>
     </g>
    </g>
    <g id="xtick_6">
     <g id="line2d_6">
      <g>
       <use style="stroke:#000000;stroke-width:0.8;" x="267.149701" xlink:href="#m1974aebe8d" y="174.04"/>
      </g>
     </g>
     <g id="text_6">
      <!-- 0.85 -->
      <defs>
       <path d="M 10.796875 72.90625 
L 49.515625 72.90625 
L 49.515625 64.59375 
L 19.828125 64.59375 
L 19.828125 46.734375 
Q 21.96875 47.46875 24.109375 47.828125 
Q 26.265625 48.1875 28.421875 48.1875 
Q 40.625 48.1875 47.75 41.5 
Q 54.890625 34.8125 54.890625 23.390625 
Q 54.890625 11.625 47.5625 5.09375 
Q 40.234375 -1.421875 26.90625 -1.421875 
Q 22.3125 -1.421875 17.546875 -0.640625 
Q 12.796875 0.140625 7.71875 1.703125 
L 7.71875 11.625 
Q 12.109375 9.234375 16.796875 8.0625 
Q 21.484375 6.890625 26.703125 6.890625 
Q 35.15625 6.890625 40.078125 11.328125 
Q 45.015625 15.765625 45.015625 23.390625 
Q 45.015625 31 40.078125 35.4375 
Q 35.15625 39.890625 26.703125 39.890625 
Q 22.75 39.890625 18.8125 39.015625 
Q 14.890625 38.140625 10.796875 36.28125 
z
" id="DejaVuSans-53"/>
      </defs>
      <g transform="translate(256.016889 188.638438)scale(0.1 -0.1)">
       <use xlink:href="#DejaVuSans-48"/>
       <use x="63.623047" xlink:href="#DejaVuSans-46"/>
       <use x="95.410156" xlink:href="#DejaVuSans-56"/>
       <use x="159.033203" xlink:href="#DejaVuSans-53"/>
      </g>
     </g>
    </g>
    <g id="xtick_7">
     <g id="line2d_7">
      <g>
       <use style="stroke:#000000;stroke-width:0.8;" x="305.666206" xlink:href="#m1974aebe8d" y="174.04"/>
      </g>
     </g>
     <g id="text_7">
      <!-- 0.86 -->
      <defs>
       <path d="M 33.015625 40.375 
Q 26.375 40.375 22.484375 35.828125 
Q 18.609375 31.296875 18.609375 23.390625 
Q 18.609375 15.53125 22.484375 10.953125 
Q 26.375 6.390625 33.015625 6.390625 
Q 39.65625 6.390625 43.53125 10.953125 
Q 47.40625 15.53125 47.40625 23.390625 
Q 47.40625 31.296875 43.53125 35.828125 
Q 39.65625 40.375 33.015625 40.375 
z
M 52.59375 71.296875 
L 52.59375 62.3125 
Q 48.875 64.0625 45.09375 64.984375 
Q 41.3125 65.921875 37.59375 65.921875 
Q 27.828125 65.921875 22.671875 59.328125 
Q 17.53125 52.734375 16.796875 39.40625 
Q 19.671875 43.65625 24.015625 45.921875 
Q 28.375 48.1875 33.59375 48.1875 
Q 44.578125 48.1875 50.953125 41.515625 
Q 57.328125 34.859375 57.328125 23.390625 
Q 57.328125 12.15625 50.6875 5.359375 
Q 44.046875 -1.421875 33.015625 -1.421875 
Q 20.359375 -1.421875 13.671875 8.265625 
Q 6.984375 17.96875 6.984375 36.375 
Q 6.984375 53.65625 15.1875 63.9375 
Q 23.390625 74.21875 37.203125 74.21875 
Q 40.921875 74.21875 44.703125 73.484375 
Q 48.484375 72.75 52.59375 71.296875 
z
" id="DejaVuSans-54"/>
      </defs>
      <g transform="translate(294.533394 188.638438)scale(0.1 -0.1)">
       <use xlink:href="#DejaVuSans-48"/>
       <use x="63.623047" xlink:href="#DejaVuSans-46"/>
       <use x="95.410156" xlink:href="#DejaVuSans-56"/>
       <use x="159.033203" xlink:href="#DejaVuSans-54"/>
      </g>
     </g>
    </g>
    <g id="text_8">
     <!-- Time (s) -->
     <defs>
      <path d="M -0.296875 72.90625 
L 61.375 72.90625 
L 61.375 64.59375 
L 35.5 64.59375 
L 35.5 0 
L 25.59375 0 
L 25.59375 64.59375 
L -0.296875 64.59375 
z
" id="DejaVuSans-84"/>
      <path d="M 9.421875 54.6875 
L 18.40625 54.6875 
L 18.40625 0 
L 9.421875 0 
z
M 9.421875 75.984375 
L 18.40625 75.984375 
L 18.40625 64.59375 
L 9.421875 64.59375 
z
" id="DejaVuSans-105"/>
      <path d="M 52 44.1875 
Q 55.375 50.25 60.0625 53.125 
Q 64.75 56 71.09375 56 
Q 79.640625 56 84.28125 50.015625 
Q 88.921875 44.046875 88.921875 33.015625 
L 88.921875 0 
L 79.890625 0 
L 79.890625 32.71875 
Q 79.890625 40.578125 77.09375 44.375 
Q 74.3125 48.1875 68.609375 48.1875 
Q 61.625 48.1875 57.5625 43.546875 
Q 53.515625 38.921875 53.515625 30.90625 
L 53.515625 0 
L 44.484375 0 
L 44.484375 32.71875 
Q 44.484375 40.625 41.703125 44.40625 
Q 38.921875 48.1875 33.109375 48.1875 
Q 26.21875 48.1875 22.15625 43.53125 
Q 18.109375 38.875 18.109375 30.90625 
L 18.109375 0 
L 9.078125 0 
L 9.078125 54.6875 
L 18.109375 54.6875 
L 18.109375 46.1875 
Q 21.1875 51.21875 25.484375 53.609375 
Q 29.78125 56 35.6875 56 
Q 41.65625 56 45.828125 52.96875 
Q 50 49.953125 52 44.1875 
z
" id="DejaVuSans-109"/>
      <path d="M 56.203125 29.59375 
L 56.203125 25.203125 
L 14.890625 25.203125 
Q 15.484375 15.921875 20.484375 11.0625 
Q 25.484375 6.203125 34.421875 6.203125 
Q 39.59375 6.203125 44.453125 7.46875 
Q 49.3125 8.734375 54.109375 11.28125 
L 54.109375 2.78125 
Q 49.265625 0.734375 44.1875 -0.34375 
Q 39.109375 -1.421875 33.890625 -1.421875 
Q 20.796875 -1.421875 13.15625 6.1875 
Q 5.515625 13.8125 5.515625 26.8125 
Q 5.515625 40.234375 12.765625 48.109375 
Q 20.015625 56 32.328125 56 
Q 43.359375 56 49.78125 48.890625 
Q 56.203125 41.796875 56.203125 29.59375 
z
M 47.21875 32.234375 
Q 47.125 39.59375 43.09375 43.984375 
Q 39.0625 48.390625 32.421875 48.390625 
Q 24.90625 48.390625 20.390625 44.140625 
Q 15.875 39.890625 15.1875 32.171875 
z
" id="DejaVuSans-101"/>
      <path id="DejaVuSans-32"/>
      <path d="M 31 75.875 
Q 24.46875 64.65625 21.28125 53.65625 
Q 18.109375 42.671875 18.109375 31.390625 
Q 18.109375 20.125 21.3125 9.0625 
Q 24.515625 -2 31 -13.1875 
L 23.1875 -13.1875 
Q 15.875 -1.703125 12.234375 9.375 
Q 8.59375 20.453125 8.59375 31.390625 
Q 8.59375 42.28125 12.203125 53.3125 
Q 15.828125 64.359375 23.1875 75.875 
z
" id="DejaVuSans-40"/>
      <path d="M 44.28125 53.078125 
L 44.28125 44.578125 
Q 40.484375 46.53125 36.375 47.5 
Q 32.28125 48.484375 27.875 48.484375 
Q 21.1875 48.484375 17.84375 46.4375 
Q 14.5 44.390625 14.5 40.28125 
Q 14.5 37.15625 16.890625 35.375 
Q 19.28125 33.59375 26.515625 31.984375 
L 29.59375 31.296875 
Q 39.15625 29.25 43.1875 25.515625 
Q 47.21875 21.78125 47.21875 15.09375 
Q 47.21875 7.46875 41.1875 3.015625 
Q 35.15625 -1.421875 24.609375 -1.421875 
Q 20.21875 -1.421875 15.453125 -0.5625 
Q 10.6875 0.296875 5.421875 2 
L 5.421875 11.28125 
Q 10.40625 8.6875 15.234375 7.390625 
Q 20.0625 6.109375 24.8125 6.109375 
Q 31.15625 6.109375 34.5625 8.28125 
Q 37.984375 10.453125 37.984375 14.40625 
Q 37.984375 18.0625 35.515625 20.015625 
Q 33.0625 21.96875 24.703125 23.78125 
L 21.578125 24.515625 
Q 13.234375 26.265625 9.515625 29.90625 
Q 5.8125 33.546875 5.8125 39.890625 
Q 5.8125 47.609375 11.28125 51.796875 
Q 16.75 56 26.8125 56 
Q 31.78125 56 36.171875 55.265625 
Q 40.578125 54.546875 44.28125 53.078125 
z
" id="DejaVuSans-115"/>
      <path d="M 8.015625 75.875 
L 15.828125 75.875 
Q 23.140625 64.359375 26.78125 53.3125 
Q 30.421875 42.28125 30.421875 31.390625 
Q 30.421875 20.453125 26.78125 9.375 
Q 23.140625 -1.703125 15.828125 -13.1875 
L 8.015625 -13.1875 
Q 14.5 -2 17.703125 9.0625 
Q 20.90625 20.125 20.90625 31.390625 
Q 20.90625 42.671875 17.703125 53.65625 
Q 14.5 64.65625 8.015625 75.875 
z
" id="DejaVuSans-41"/>
     </defs>
     <g transform="translate(172.522089 206.875625)scale(0.16 -0.16)">
      <use xlink:href="#DejaVuSans-84"/>
      <use x="61.037109" xlink:href="#DejaVuSans-105"/>
      <use x="88.820312" xlink:href="#DejaVuSans-109"/>
      <use x="186.232422" xlink:href="#DejaVuSans-101"/>
      <use x="247.755859" xlink:href="#DejaVuSans-32"/>
      <use x="279.542969" xlink:href="#DejaVuSans-40"/>
      <use x="318.556641" xlink:href="#DejaVuSans-115"/>
      <use x="370.65625" xlink:href="#DejaVuSans-41"/>
     </g>
    </g>
   </g>
   <g id="matplotlib.axis_2">
    <g id="ytick_1">
     <g id="line2d_8">
      <defs>
       <path d="M 0 0 
L -3.5 0 
" id="m442682789e" style="stroke:#000000;stroke-width:0.8;"/>
      </defs>
      <g>
       <use style="stroke:#000000;stroke-width:0.8;" x="68.87" xlink:href="#m442682789e" y="149.737487"/>
      </g>
     </g>
     <g id="text_9">
      <!-- −0.4 -->
      <defs>
       <path d="M 10.59375 35.5 
L 73.1875 35.5 
L 73.1875 27.203125 
L 10.59375 27.203125 
z
" id="DejaVuSans-8722"/>
      </defs>
      <g transform="translate(37.587187 153.536705)scale(0.1 -0.1)">
       <use xlink:href="#DejaVuSans-8722"/>
       <use x="83.789062" xlink:href="#DejaVuSans-48"/>
       <use x="147.412109" xlink:href="#DejaVuSans-46"/>
       <use x="179.199219" xlink:href="#DejaVuSans-52"/>
      </g>
     </g>
    </g>
    <g id="ytick_2">
     <g id="line2d_9">
      <g>
       <use style="stroke:#000000;stroke-width:0.8;" x="68.87" xlink:href="#m442682789e" y="121.349876"/>
      </g>
     </g>
     <g id="text_10">
      <!-- −0.2 -->
      <g transform="translate(37.587187 125.149095)scale(0.1 -0.1)">
       <use xlink:href="#DejaVuSans-8722"/>
       <use x="83.789062" xlink:href="#DejaVuSans-48"/>
       <use x="147.412109" xlink:href="#DejaVuSans-46"/>
       <use x="179.199219" xlink:href="#DejaVuSans-50"/>
      </g>
     </g>
    </g>
    <g id="ytick_3">
     <g id="line2d_10">
      <g>
       <use style="stroke:#000000;stroke-width:0.8;" x="68.87" xlink:href="#m442682789e" y="92.962265"/>
      </g>
     </g>
     <g id="text_11">
      <!-- 0.0 -->
      <g transform="translate(45.966875 96.761484)scale(0.1 -0.1)">
       <use xlink:href="#DejaVuSans-48"/>
       <use x="63.623047" xlink:href="#DejaVuSans-46"/>
       <use x="95.410156" xlink:href="#DejaVuSans-48"/>
      </g>
     </g>
    </g>
    <g id="ytick_4">
     <g id="line2d_11">
      <g>
       <use style="stroke:#000000;stroke-width:0.8;" x="68.87" xlink:href="#m442682789e" y="64.574654"/>
      </g>
     </g>
     <g id="text_12">
      <!-- 0.2 -->
      <g transform="translate(45.966875 68.373873)scale(0.1 -0.1)">
       <use xlink:href="#DejaVuSans-48"/>
       <use x="63.623047" xlink:href="#DejaVuSans-46"/>
       <use x="95.410156" xlink:href="#DejaVuSans-50"/>
      </g>
     </g>
    </g>
    <g id="ytick_5">
     <g id="line2d_12">
      <g>
       <use style="stroke:#000000;stroke-width:0.8;" x="68.87" xlink:href="#m442682789e" y="36.187044"/>
      </g>
     </g>
     <g id="text_13">
      <!-- 0.4 -->
      <g transform="translate(45.966875 39.986262)scale(0.1 -0.1)">
       <use xlink:href="#DejaVuSans-48"/>
       <use x="63.623047" xlink:href="#DejaVuSans-46"/>
       <use x="95.410156" xlink:href="#DejaVuSans-52"/>
      </g>
     </g>
    </g>
    <g id="text_14">
     <!-- Amplitude -->
     <defs>
      <path d="M 34.1875 63.1875 
L 20.796875 26.90625 
L 47.609375 26.90625 
z
M 28.609375 72.90625 
L 39.796875 72.90625 
L 67.578125 0 
L 57.328125 0 
L 50.6875 18.703125 
L 17.828125 18.703125 
L 11.1875 0 
L 0.78125 0 
z
" id="DejaVuSans-65"/>
      <path d="M 18.109375 8.203125 
L 18.109375 -20.796875 
L 9.078125 -20.796875 
L 9.078125 54.6875 
L 18.109375 54.6875 
L 18.109375 46.390625 
Q 20.953125 51.265625 25.265625 53.625 
Q 29.59375 56 35.59375 56 
Q 45.5625 56 51.78125 48.09375 
Q 58.015625 40.1875 58.015625 27.296875 
Q 58.015625 14.40625 51.78125 6.484375 
Q 45.5625 -1.421875 35.59375 -1.421875 
Q 29.59375 -1.421875 25.265625 0.953125 
Q 20.953125 3.328125 18.109375 8.203125 
z
M 48.6875 27.296875 
Q 48.6875 37.203125 44.609375 42.84375 
Q 40.53125 48.484375 33.40625 48.484375 
Q 26.265625 48.484375 22.1875 42.84375 
Q 18.109375 37.203125 18.109375 27.296875 
Q 18.109375 17.390625 22.1875 11.75 
Q 26.265625 6.109375 33.40625 6.109375 
Q 40.53125 6.109375 44.609375 11.75 
Q 48.6875 17.390625 48.6875 27.296875 
z
" id="DejaVuSans-112"/>
      <path d="M 9.421875 75.984375 
L 18.40625 75.984375 
L 18.40625 0 
L 9.421875 0 
z
" id="DejaVuSans-108"/>
      <path d="M 18.3125 70.21875 
L 18.3125 54.6875 
L 36.8125 54.6875 
L 36.8125 47.703125 
L 18.3125 47.703125 
L 18.3125 18.015625 
Q 18.3125 11.328125 20.140625 9.421875 
Q 21.96875 7.515625 27.59375 7.515625 
L 36.8125 7.515625 
L 36.8125 0 
L 27.59375 0 
Q 17.1875 0 13.234375 3.875 
Q 9.28125 7.765625 9.28125 18.015625 
L 9.28125 47.703125 
L 2.6875 47.703125 
L 2.6875 54.6875 
L 9.28125 54.6875 
L 9.28125 70.21875 
z
" id="DejaVuSans-116"/>
      <path d="M 8.5 21.578125 
L 8.5 54.6875 
L 17.484375 54.6875 
L 17.484375 21.921875 
Q 17.484375 14.15625 20.5 10.265625 
Q 23.53125 6.390625 29.59375 6.390625 
Q 36.859375 6.390625 41.078125 11.03125 
Q 45.3125 15.671875 45.3125 23.6875 
L 45.3125 54.6875 
L 54.296875 54.6875 
L 54.296875 0 
L 45.3125 0 
L 45.3125 8.40625 
Q 42.046875 3.421875 37.71875 1 
Q 33.40625 -1.421875 27.6875 -1.421875 
Q 18.265625 -1.421875 13.375 4.4375 
Q 8.5 10.296875 8.5 21.578125 
z
M 31.109375 56 
z
" id="DejaVuSans-117"/>
      <path d="M 45.40625 46.390625 
L 45.40625 75.984375 
L 54.390625 75.984375 
L 54.390625 0 
L 45.40625 0 
L 45.40625 8.203125 
Q 42.578125 3.328125 38.25 0.953125 
Q 33.9375 -1.421875 27.875 -1.421875 
Q 17.96875 -1.421875 11.734375 6.484375 
Q 5.515625 14.40625 5.515625 27.296875 
Q 5.515625 40.1875 11.734375 48.09375 
Q 17.96875 56 27.875 56 
Q 33.9375 56 38.25 53.625 
Q 42.578125 51.265625 45.40625 46.390625 
z
M 14.796875 27.296875 
Q 14.796875 17.390625 18.875 11.75 
Q 22.953125 6.109375 30.078125 6.109375 
Q 37.203125 6.109375 41.296875 11.75 
Q 45.40625 17.390625 45.40625 27.296875 
Q 45.40625 37.203125 41.296875 42.84375 
Q 37.203125 48.484375 30.078125 48.484375 
Q 22.953125 48.484375 18.875 42.84375 
Q 14.796875 37.203125 14.796875 27.296875 
z
" id="DejaVuSans-100"/>
     </defs>
     <g transform="translate(30.259687 142.89625)rotate(-90)scale(0.16 -0.16)">
      <use xlink:href="#DejaVuSans-65"/>
      <use x="68.408203" xlink:href="#DejaVuSans-109"/>
      <use x="165.820312" xlink:href="#DejaVuSans-112"/>
      <use x="229.296875" xlink:href="#DejaVuSans-108"/>
      <use x="257.080078" xlink:href="#DejaVuSans-105"/>
      <use x="284.863281" xlink:href="#DejaVuSans-116"/>
      <use x="324.072266" xlink:href="#DejaVuSans-117"/>
      <use x="387.451172" xlink:href="#DejaVuSans-100"/>
      <use x="450.927734" xlink:href="#DejaVuSans-101"/>
     </g>
    </g>
   </g>
   <g id="line2d_13">
    <path clip-path="url(#pff4c8b2cdf)" d="M 68.789702 90.302114 
L 69.03043 90.359117 
L 69.511886 88.877033 
L 69.752614 88.592017 
L 69.993343 88.630019 
L 70.474799 89.447066 
L 70.715527 89.846088 
L 71.196983 91.442179 
L 71.437712 91.575186 
L 71.67844 91.537184 
L 72.159896 91.898205 
L 72.641352 91.537184 
L 72.88208 91.936207 
L 73.363537 93.532297 
L 73.604265 94.007324 
L 74.085721 95.774425 
L 74.326449 95.546412 
L 74.567178 94.482351 
L 74.807906 94.254338 
L 75.048634 94.520353 
L 75.770818 96.553469 
L 76.011546 96.515467 
L 76.252275 96.325456 
L 76.974459 94.786369 
L 77.215187 94.653361 
L 77.696644 94.026325 
L 77.937372 94.10233 
L 78.1781 94.596358 
L 78.418828 94.786369 
L 78.659556 94.235337 
L 78.900284 93.323286 
L 79.141012 93.247281 
L 79.381741 93.437292 
L 79.622469 93.874317 
L 80.103925 95.546412 
L 80.344653 96.458463 
L 81.066838 97.902545 
L 82.511207 102.177788 
L 82.751935 101.284737 
L 83.233391 90.093102 
L 83.474119 85.057817 
L 83.714847 85.437838 
L 83.955576 88.173993 
L 84.196304 88.725025 
L 84.67776 84.24077 
L 85.159216 83.252714 
L 85.399945 82.492671 
L 85.640673 83.613735 
L 86.122129 88.592017 
L 86.362857 89.675079 
L 86.844313 93.342287 
L 87.085042 91.860203 
L 87.32577 88.554015 
L 87.566498 88.230997 
L 88.047954 93.095273 
L 88.288682 94.083329 
L 88.529411 93.817314 
L 89.492323 90.435122 
L 89.733051 91.100159 
L 90.214508 94.425348 
L 90.936692 91.974209 
L 91.17742 91.366174 
L 91.418148 91.138162 
L 91.658877 92.962265 
L 91.899605 96.116444 
L 92.140333 97.788539 
L 92.381061 97.142502 
L 92.862517 93.779311 
L 93.103245 93.209279 
L 93.343974 93.038269 
L 93.584702 94.026325 
L 94.066158 98.472578 
L 94.306886 97.63653 
L 94.788343 92.183221 
L 95.029071 91.955208 
L 95.510527 93.247281 
L 95.751255 94.368345 
L 95.991983 94.80537 
L 96.232711 94.311342 
L 96.714168 90.644134 
L 96.954896 90.549128 
L 97.436352 92.658248 
L 97.67708 93.437292 
L 97.917809 94.900375 
L 98.158537 95.641417 
L 98.639993 93.05727 
L 98.880721 94.406347 
L 99.362177 99.91666 
L 99.602906 100.847712 
L 99.843634 100.600698 
L 100.084362 100.6197 
L 100.32509 100.372686 
L 100.806546 101.246735 
L 101.047275 102.91883 
L 101.288003 100.201676 
L 101.769459 84.981812 
L 102.010187 86.254884 
L 102.250915 92.202222 
L 102.491643 92.563242 
L 102.9731 80.630565 
L 103.213828 81.276602 
L 103.695284 85.456839 
L 103.936012 86.387892 
L 104.176741 88.516013 
L 104.417469 89.52307 
L 104.658197 87.812973 
L 104.898925 88.002984 
L 105.139653 91.879204 
L 105.380381 93.551298 
L 105.62111 89.903091 
L 105.861838 89.067044 
L 106.343294 95.812427 
L 106.584022 94.007324 
L 106.82475 90.454123 
L 107.065478 89.713081 
L 107.546935 93.437292 
L 107.787663 93.551298 
L 108.028391 92.924263 
L 108.269119 91.955208 
L 108.750576 90.834144 
L 108.991304 91.442179 
L 109.232032 93.798312 
L 109.47276 94.026325 
L 109.713488 91.841201 
L 109.954216 91.195165 
L 110.435673 96.382459 
L 110.676401 95.375402 
L 110.917129 93.05727 
L 111.157857 92.848259 
L 111.639313 96.173447 
L 112.12077 94.615359 
L 112.361498 94.767367 
L 112.842954 93.646304 
L 113.083682 94.235337 
L 113.32441 95.299398 
L 113.565139 94.444349 
L 113.805867 92.16422 
L 114.046595 92.240224 
L 114.287323 94.121331 
L 114.528051 94.558356 
L 115.009508 91.841201 
L 115.250236 92.430235 
L 115.490964 93.646304 
L 115.731692 93.513296 
L 115.97242 92.905262 
L 116.213148 93.171277 
L 116.453876 94.121331 
L 116.694605 94.539355 
L 116.935333 94.691363 
L 117.416789 97.864543 
L 117.657517 98.472578 
L 117.898245 98.035553 
L 118.138974 98.947605 
L 118.379702 100.98072 
L 118.62043 101.740763 
L 119.101886 101.15173 
L 119.342614 102.709818 
L 119.583342 99.498636 
L 120.064799 84.601791 
L 120.305527 87.94598 
L 120.546255 94.957378 
L 120.786983 94.197335 
L 121.26844 78.141424 
L 121.509168 79.30049 
L 121.990624 87.375948 
L 122.231352 88.915035 
L 122.47208 89.409063 
L 122.712809 87.660964 
L 122.953537 84.639793 
L 123.194265 86.17888 
L 123.675721 95.850429 
L 123.916449 91.480181 
L 124.157177 89.808086 
L 124.638634 94.349344 
L 124.879362 90.112103 
L 125.12009 92.449236 
L 125.360818 92.468237 
L 125.601546 91.46118 
L 125.842275 98.776595 
L 126.083003 90.150105 
L 126.323731 91.518183 
L 126.564459 91.746196 
L 126.805187 91.043156 
L 127.045915 91.480181 
L 127.286643 96.135445 
L 128.008828 90.511126 
L 128.249556 90.92915 
L 128.731012 96.249452 
L 128.971741 96.002438 
L 129.453197 93.152276 
L 129.693925 93.494295 
L 129.934653 94.292341 
L 130.175381 93.114274 
L 130.656838 97.97855 
L 131.138294 93.076272 
L 131.379022 92.373232 
L 131.61975 92.86726 
L 132.101207 94.710364 
L 132.582663 93.817314 
L 133.064119 91.252168 
L 133.304847 91.366174 
L 133.545575 93.76031 
L 133.786304 94.786369 
L 134.26776 92.012211 
L 134.989944 93.893318 
L 135.471401 95.641417 
L 136.434313 98.035553 
L 136.91577 100.676703 
L 137.156498 100.80971 
L 137.637954 102.614813 
L 137.878682 102.139786 
L 138.11941 99.080612 
L 138.600867 85.836861 
L 138.841595 88.934036 
L 139.082323 96.914489 
L 139.323051 95.489408 
L 139.804507 75.462272 
L 140.045236 77.856408 
L 140.526692 91.765197 
L 140.76742 89.922093 
L 141.248876 83.689739 
L 141.489605 84.392779 
L 141.730333 88.021985 
L 141.971061 94.482351 
L 142.211789 96.857486 
L 142.693245 87.033929 
L 143.174702 94.501352 
L 143.41543 93.93132 
L 143.656158 91.613189 
L 143.896886 92.221223 
L 144.137614 93.608302 
L 144.378342 93.779311 
L 144.619071 91.537184 
L 144.859799 90.777141 
L 145.100527 91.062157 
L 145.581983 93.969322 
L 145.822711 93.703307 
L 146.06344 92.52524 
L 146.304168 90.75814 
L 146.544896 89.941094 
L 147.026352 96.515467 
L 147.26708 96.363458 
L 147.507808 92.601245 
L 147.748537 91.100159 
L 147.989265 93.22828 
L 148.229993 96.439462 
L 148.470721 96.610472 
L 148.952177 93.266282 
L 149.433634 94.425348 
L 149.91509 94.919376 
L 150.155818 94.292341 
L 150.396546 92.639247 
L 150.637274 92.373232 
L 150.878003 94.140332 
L 151.118731 94.444349 
L 151.359459 92.411234 
L 151.600187 91.499182 
L 152.081643 94.273339 
L 152.322372 93.722308 
L 152.5631 91.974209 
L 152.803828 91.613189 
L 153.285284 94.197335 
L 153.526012 94.615359 
L 153.76674 94.387346 
L 154.007469 93.798312 
L 154.248197 93.988323 
L 154.488925 95.69842 
L 154.729653 98.396573 
L 154.970381 99.346627 
L 155.451838 97.731536 
L 155.692566 99.118614 
L 156.174022 102.595812 
L 156.41475 101.68376 
L 156.655478 101.436746 
L 156.896206 97.826541 
L 157.136935 89.200052 
L 157.377663 85.931866 
L 157.859119 98.890601 
L 158.099847 92.943264 
L 158.581304 74.607224 
L 159.06276 91.005154 
L 159.303488 92.16422 
L 159.544216 86.140878 
L 159.784944 83.328718 
L 160.025672 83.461726 
L 160.266401 85.988869 
L 160.747857 97.009495 
L 160.988585 94.710364 
L 161.229313 86.539901 
L 161.470041 86.00787 
L 161.71077 93.532297 
L 161.951498 97.237508 
L 162.432954 91.11916 
L 162.91441 93.000267 
L 163.155139 92.335229 
L 163.395867 91.309171 
L 163.636595 93.361288 
L 163.877323 93.798312 
L 164.358779 91.594187 
L 164.599507 91.651191 
L 164.840236 92.050213 
L 165.080964 91.955208 
L 165.321692 92.829258 
L 165.56242 94.824371 
L 165.803148 95.185391 
L 166.284605 90.074101 
L 166.766061 98.016552 
L 167.006789 98.282567 
L 167.488245 91.860203 
L 167.728973 92.886261 
L 167.969702 95.413404 
L 168.21043 96.097443 
L 168.451158 95.69842 
L 169.173342 91.366174 
L 169.414071 92.753253 
L 169.654799 95.033383 
L 169.895527 94.007324 
L 170.136255 91.575186 
L 170.376983 91.252168 
L 170.858439 93.095273 
L 171.099168 92.392233 
L 171.339896 92.16422 
L 171.580624 93.190278 
L 171.821352 93.627303 
L 172.06208 92.145219 
L 172.302808 92.202222 
L 172.543537 93.988323 
L 172.784265 94.900375 
L 173.024993 95.090386 
L 173.265721 95.546412 
L 173.506449 96.439462 
L 173.747177 96.74348 
L 173.987905 96.857486 
L 174.228634 98.244565 
L 174.469362 100.524694 
L 174.71009 101.474748 
L 174.950818 100.239678 
L 175.191546 99.897659 
L 175.673003 102.785822 
L 175.913731 97.370515 
L 176.154459 88.192994 
L 176.395187 87.527957 
L 176.635915 95.413404 
L 176.876643 98.472578 
L 177.3581 78.730458 
L 177.598828 77.343379 
L 178.080284 92.544241 
L 178.321012 90.340116 
L 178.56174 83.423724 
L 178.802469 81.504615 
L 179.043197 84.107763 
L 179.524653 95.603415 
L 179.765381 95.242394 
L 180.246838 83.898751 
L 180.728294 98.092556 
L 180.969022 97.066498 
L 181.20975 91.233167 
L 181.450478 89.276056 
L 181.691206 92.278226 
L 181.931935 93.361288 
L 182.172663 92.734252 
L 182.413391 92.848259 
L 182.654119 94.140332 
L 183.135575 90.891148 
L 183.376304 91.537184 
L 183.617032 92.772254 
L 183.85776 92.86726 
L 184.098488 92.316228 
L 184.339216 93.076272 
L 184.579944 93.342287 
L 185.061401 91.062157 
L 185.302129 93.22828 
L 185.542857 96.819484 
L 185.783585 96.287454 
L 186.265041 91.746196 
L 186.50577 92.848259 
L 186.987226 96.686476 
L 187.227954 96.515467 
L 187.70941 91.860203 
L 187.950138 91.271169 
L 188.431595 96.914489 
L 188.672323 95.470407 
L 188.913051 91.404177 
L 189.153779 90.454123 
L 189.635236 94.672362 
L 189.875964 94.881374 
L 190.35742 91.99321 
L 190.598148 91.366174 
L 191.079604 93.855316 
L 191.320333 95.261396 
L 191.561061 94.520353 
L 191.801789 93.190278 
L 192.042517 93.722308 
L 192.523973 97.465521 
L 193.727614 99.536638 
L 193.968342 100.6197 
L 194.20907 102.272793 
L 194.449799 102.158787 
L 194.690527 99.878657 
L 194.931255 90.435122 
L 195.171983 87.014928 
L 195.653439 100.543695 
L 195.894168 93.836315 
L 196.134896 81.352606 
L 196.375624 75.747288 
L 196.85708 92.810256 
L 197.097808 92.392233 
L 197.579265 79.528503 
L 197.819993 82.340662 
L 198.301449 94.140332 
L 198.542177 95.033383 
L 199.023634 84.449782 
L 199.264362 86.767914 
L 199.50509 95.812427 
L 199.745818 97.503523 
L 200.227274 89.599074 
L 200.708731 93.133275 
L 200.949459 92.639247 
L 201.190187 93.361288 
L 201.430915 94.919376 
L 201.671643 94.273339 
L 201.912371 90.777141 
L 202.1531 90.92915 
L 202.634556 93.817314 
L 202.875284 94.007324 
L 203.116012 93.646304 
L 203.597469 91.024155 
L 203.838197 91.385176 
L 204.319653 97.237508 
L 204.560381 95.546412 
L 204.801109 92.126218 
L 205.041837 91.879204 
L 205.523294 96.705477 
L 205.764022 95.660418 
L 206.00475 93.323286 
L 206.245478 92.354231 
L 206.486206 94.10233 
L 206.726935 94.843372 
L 206.967663 94.121331 
L 207.208391 92.544241 
L 207.449119 92.373232 
L 207.930575 93.589301 
L 208.171303 93.247281 
L 208.412032 91.99321 
L 208.65276 91.537184 
L 209.134216 93.855316 
L 209.856401 91.727195 
L 210.337857 94.273339 
L 210.578585 94.216336 
L 210.819313 93.551298 
L 211.060041 93.532297 
L 211.541498 96.705477 
L 211.782226 97.617529 
L 212.022954 97.579527 
L 212.263682 97.902545 
L 212.985867 101.056724 
L 213.467323 101.075725 
L 213.708051 101.588755 
L 213.948779 97.788539 
L 214.189507 89.238054 
L 214.430235 89.485068 
L 214.670964 97.028496 
L 214.911692 99.156617 
L 215.393148 78.578449 
L 215.633876 79.984529 
L 215.874604 89.922093 
L 216.115333 93.190278 
L 216.596789 80.972585 
L 216.837517 80.801575 
L 217.318973 91.480181 
L 217.559702 94.121331 
L 218.041158 86.121877 
L 218.281886 85.665851 
L 218.763342 97.370515 
L 219.244799 89.713081 
L 219.485527 90.549128 
L 219.726255 93.494295 
L 219.966983 92.582243 
L 220.207711 92.316228 
L 220.448439 94.10233 
L 220.689168 94.767367 
L 220.929896 91.63219 
L 221.170624 90.074101 
L 221.65208 93.532297 
L 221.892808 94.007324 
L 222.614993 91.062157 
L 222.855721 91.062157 
L 223.337177 96.629473 
L 223.577905 95.3374 
L 223.818634 91.366174 
L 224.059362 91.8222 
L 224.30009 95.603415 
L 224.540818 97.332513 
L 225.022274 92.886261 
L 225.263002 93.323286 
L 225.503731 94.767367 
L 225.744459 95.3374 
L 226.466643 92.183221 
L 227.188828 94.444349 
L 227.670284 91.594187 
L 228.15174 94.026325 
L 228.392468 93.361288 
L 228.633197 92.012211 
L 228.873925 92.335229 
L 229.355381 93.494295 
L 229.596109 93.038269 
L 230.077566 94.007324 
L 230.318294 94.387346 
L 230.559022 95.16639 
L 230.79975 96.344457 
L 231.040478 96.629473 
L 231.281206 96.667475 
L 232.003391 100.125672 
L 232.244119 99.023609 
L 232.966303 102.405801 
L 233.207032 97.1045 
L 233.44776 88.497012 
L 233.688488 90.245111 
L 233.929216 98.092556 
L 234.169944 99.175618 
L 234.410672 86.254884 
L 234.6514 79.452499 
L 234.892129 81.865635 
L 235.132857 91.005154 
L 235.373585 92.088215 
L 235.855041 81.06759 
L 236.095769 81.523616 
L 236.577226 91.575186 
L 236.817954 92.715251 
L 237.058682 87.869976 
L 237.29941 86.292887 
L 237.540138 88.211996 
L 237.780867 92.943264 
L 238.021595 95.014381 
L 238.262323 91.917206 
L 238.503051 91.005154 
L 238.743779 91.99321 
L 238.984507 93.684306 
L 239.225235 91.803199 
L 239.465964 92.411234 
L 239.706692 95.147389 
L 239.94742 95.090386 
L 240.188148 91.898205 
L 240.428876 90.378118 
L 240.669604 92.715251 
L 241.151061 94.691363 
L 241.873245 90.473124 
L 242.113973 91.8222 
L 242.354701 95.242394 
L 242.59543 95.280397 
L 243.076886 90.872146 
L 243.558342 96.211449 
L 243.79907 94.957378 
L 244.039799 93.095273 
L 244.280527 93.285283 
L 244.521255 94.862373 
L 244.761983 94.900375 
L 245.002711 94.653361 
L 245.243439 93.285283 
L 245.484167 93.209279 
L 245.724896 93.361288 
L 245.965624 94.387346 
L 246.206352 94.273339 
L 246.44708 93.000267 
L 246.687808 92.392233 
L 246.928536 92.734252 
L 247.169265 94.311342 
L 247.650721 92.430235 
L 247.891449 92.411234 
L 248.132177 93.39929 
L 248.372905 93.361288 
L 248.613633 92.905262 
L 248.854362 93.076272 
L 249.09509 93.5703 
L 249.335818 94.558356 
L 249.576546 94.729365 
L 250.298731 96.458463 
L 250.780187 98.757594 
L 251.020915 98.700591 
L 251.261643 98.51058 
L 251.502371 99.422632 
L 251.743099 101.341741 
L 251.983828 101.588755 
L 252.224556 100.866714 
L 252.706012 88.877033 
L 253.187468 100.220677 
L 253.428197 95.546412 
L 253.668925 83.081704 
L 253.909653 80.725571 
L 254.391109 92.639247 
L 254.631837 89.827087 
L 254.872565 84.487784 
L 255.113294 81.675625 
L 255.354022 83.252714 
L 255.835478 91.404177 
L 256.076206 91.29017 
L 256.316934 86.368891 
L 256.557663 86.995927 
L 256.798391 89.143048 
L 257.039119 92.886261 
L 257.279847 92.620246 
L 257.520575 91.575186 
L 257.761303 92.088215 
L 258.002032 92.259225 
L 258.24276 91.860203 
L 258.483488 91.157163 
L 258.964944 96.382459 
L 259.4464 90.815143 
L 259.687129 91.29017 
L 259.927857 93.703307 
L 260.409313 95.090386 
L 260.890769 90.872146 
L 261.131498 90.264112 
L 261.612954 95.945434 
L 261.853682 94.368345 
L 262.09441 91.556185 
L 262.335138 91.157163 
L 262.575866 93.76031 
L 262.816595 94.957378 
L 263.057323 94.653361 
L 263.298051 93.779311 
L 263.779507 93.437292 
L 264.020235 93.950321 
L 264.260964 94.80537 
L 264.74242 93.817314 
L 264.983148 93.684306 
L 265.223876 93.969322 
L 265.705332 93.39929 
L 266.186789 94.10233 
L 266.427517 93.912319 
L 266.668245 92.468237 
L 266.908973 92.715251 
L 267.149701 93.722308 
L 267.39043 94.178334 
L 267.631158 93.665305 
L 267.871886 93.494295 
L 268.112614 93.513296 
L 268.353342 93.817314 
L 268.834798 96.078442 
L 269.075527 96.078442 
L 269.316255 95.546412 
L 269.556983 96.249452 
L 270.038439 99.479635 
L 270.279167 99.403631 
L 270.519896 98.662588 
L 271.24208 101.474748 
L 271.723536 89.162049 
L 272.204993 99.726649 
L 272.445721 95.432405 
L 272.686449 83.689739 
L 272.927177 81.94164 
L 273.408633 91.99321 
L 273.649362 89.903091 
L 274.130818 81.94164 
L 274.371546 82.64468 
L 274.612274 88.64902 
L 274.853002 91.746196 
L 275.093731 90.720138 
L 275.334459 85.133821 
L 275.575187 86.5209 
L 276.056643 92.107217 
L 276.297371 92.183221 
L 276.538099 91.157163 
L 276.778828 91.727195 
L 277.019556 91.594187 
L 277.260284 91.8222 
L 277.501012 91.689193 
L 277.74174 94.520353 
L 277.982468 95.793426 
L 278.463925 91.936207 
L 278.704653 91.746196 
L 279.186109 94.919376 
L 279.426837 95.888431 
L 279.908294 91.100159 
L 280.149022 91.442179 
L 280.630478 95.926433 
L 281.111934 92.544241 
L 281.352663 92.012211 
L 281.834119 94.539355 
L 282.074847 94.121331 
L 282.315575 94.330343 
L 282.556303 93.361288 
L 283.03776 93.361288 
L 283.278488 94.140332 
L 283.519216 93.608302 
L 283.759944 93.475294 
L 284.000672 93.684306 
L 284.2414 92.886261 
L 284.482129 92.810256 
L 284.722857 93.038269 
L 284.963585 94.178334 
L 285.445041 93.285283 
L 285.685769 92.487238 
L 286.167226 94.045327 
L 286.407954 93.722308 
L 286.648682 93.665305 
L 286.88941 93.342287 
L 287.130138 93.437292 
L 287.370866 93.836315 
L 287.611595 94.957378 
L 287.852323 95.318399 
L 288.093051 95.204392 
L 288.333779 95.546412 
L 288.815235 97.598528 
L 289.53742 98.814597 
L 289.778148 99.555639 
L 290.259604 100.391687 
L 290.500332 99.688647 
L 290.741061 92.297227 
L 290.981789 91.005154 
L 291.463245 99.194619 
L 291.944701 84.183767 
L 292.185429 84.791801 
L 292.666886 91.727195 
L 293.38907 82.47367 
L 293.629798 84.259771 
L 293.870527 89.485068 
L 294.111255 91.11916 
L 294.351983 89.35206 
L 294.592711 85.209825 
L 294.833439 87.907978 
L 295.074167 89.086045 
L 295.314896 91.879204 
L 295.555624 91.366174 
L 296.03708 91.499182 
L 296.277808 91.043156 
L 296.518536 91.860203 
L 296.759264 92.031212 
L 296.999993 94.99538 
L 297.240721 94.577357 
L 297.722177 92.392233 
L 297.962905 92.468237 
L 298.444362 94.843372 
L 298.68509 95.679419 
L 298.925818 92.620246 
L 299.166546 91.499182 
L 299.407274 91.556185 
L 299.648002 94.406347 
L 299.88873 95.489408 
L 300.370187 92.145219 
L 300.610915 91.233167 
L 301.092371 94.957378 
L 301.333099 95.014381 
L 301.814556 92.335229 
L 302.53674 94.881374 
L 303.018196 93.456293 
L 303.499653 93.285283 
L 303.740381 93.874317 
L 303.981109 93.893318 
L 304.221837 94.159333 
L 304.462565 93.722308 
L 304.703294 93.627303 
L 304.944022 93.152276 
L 305.18475 93.589301 
L 305.425478 94.292341 
L 305.906934 94.444349 
L 306.147662 93.437292 
L 306.388391 93.39929 
L 306.629119 94.045327 
L 306.869847 95.527411 
L 307.110575 96.021439 
L 307.351303 95.204392 
L 307.83276 95.660418 
L 308.073488 97.446519 
L 308.314216 98.035553 
L 308.554944 98.947605 
L 308.795672 97.826541 
L 309.277128 99.175618 
L 309.517857 100.429689 
L 309.999313 90.492125 
L 310.480769 97.370515 
L 310.721497 95.926433 
L 310.962226 87.888977 
L 311.202954 85.456839 
L 311.443682 86.311888 
L 311.68441 89.580073 
L 311.925138 91.157163 
L 312.647323 82.226656 
L 313.128779 90.701137 
L 313.369507 90.891148 
L 313.610235 86.976925 
L 313.850963 86.235883 
L 314.573148 91.974209 
L 314.813876 91.100159 
L 315.054604 91.062157 
L 315.295332 90.777141 
L 315.776789 92.297227 
L 316.017517 93.000267 
L 316.258245 94.387346 
L 316.498973 93.76031 
L 316.739701 93.855316 
L 316.980429 93.076272 
L 317.221158 93.266282 
L 317.461886 93.988323 
L 317.702614 95.261396 
L 317.943342 95.356401 
L 318.424798 92.354231 
L 318.665527 92.487238 
L 318.906255 94.292341 
L 319.146983 95.147389 
L 319.387711 94.387346 
L 319.869167 92.240224 
L 320.350624 94.46335 
L 320.591352 94.786369 
L 321.072808 92.487238 
L 321.794993 93.950321 
L 322.035721 93.209279 
L 322.517177 92.544241 
L 322.757905 92.658248 
L 322.998633 93.361288 
L 323.48009 93.22828 
L 323.720818 93.05727 
L 324.202274 93.627303 
L 324.443002 93.722308 
L 324.68373 93.665305 
L 324.924459 93.741309 
L 325.165187 94.292341 
L 325.405915 93.950321 
L 325.887371 94.425348 
L 326.850284 96.135445 
L 327.091012 96.078442 
L 328.053925 97.97855 
L 328.535381 98.700591 
L 328.776109 98.985607 
L 329.257565 91.99321 
L 329.498293 93.646304 
L 329.739022 96.553469 
L 329.97975 95.109387 
L 330.461206 87.907978 
L 330.701934 86.786915 
L 331.183391 91.518183 
L 331.424119 90.454123 
L 331.905575 84.297773 
L 332.62776 91.347173 
L 333.109216 87.451952 
L 333.349944 86.729911 
L 333.590672 88.249998 
L 333.8314 91.062157 
L 334.072128 91.575186 
L 334.312857 91.100159 
L 334.553585 89.998097 
L 334.794313 90.454123 
L 335.035041 91.157163 
L 335.516497 93.646304 
L 335.757226 93.076272 
L 335.997954 93.171277 
L 336.238682 93.133275 
L 336.47941 93.475294 
L 336.720138 93.266282 
L 337.201594 94.881374 
L 337.442323 94.368345 
L 337.683051 93.513296 
L 337.923779 93.095273 
L 338.405235 94.273339 
L 338.645963 94.63436 
L 338.886692 94.577357 
L 339.368148 93.5703 
L 339.608876 93.39929 
L 340.090332 94.482351 
L 340.33106 94.558356 
L 340.571789 94.216336 
L 341.053245 92.772254 
L 341.293973 92.962265 
L 341.534701 93.874317 
L 341.775429 94.045327 
L 341.775429 94.045327 
" style="fill:none;stroke:#000000;stroke-linecap:square;stroke-width:1.5;"/>
   </g>
   <g id="patch_3">
    <path d="M 68.87 174.04 
L 68.87 29.76 
" style="fill:none;stroke:#000000;stroke-linecap:square;stroke-linejoin:miter;stroke-width:0.8;"/>
   </g>
   <g id="patch_4">
    <path d="M 341.719179 174.04 
L 341.719179 29.76 
" style="fill:none;stroke:#000000;stroke-linecap:square;stroke-linejoin:miter;stroke-width:0.8;"/>
   </g>
   <g id="patch_5">
    <path d="M 68.87 174.04 
L 341.719179 174.04 
" style="fill:none;stroke:#000000;stroke-linecap:square;stroke-linejoin:miter;stroke-width:0.8;"/>
   </g>
   <g id="patch_6">
    <path d="M 68.87 29.76 
L 341.719179 29.76 
" style="fill:none;stroke:#000000;stroke-linecap:square;stroke-linejoin:miter;stroke-width:0.8;"/>
   </g>
   <g id="text_15">
    <!-- "don't ask me" -->
    <defs>
     <path d="M 17.921875 72.90625 
L 17.921875 45.796875 
L 9.625 45.796875 
L 9.625 72.90625 
z
M 36.375 72.90625 
L 36.375 45.796875 
L 28.078125 45.796875 
L 28.078125 72.90625 
z
" id="DejaVuSans-34"/>
     <path d="M 30.609375 48.390625 
Q 23.390625 48.390625 19.1875 42.75 
Q 14.984375 37.109375 14.984375 27.296875 
Q 14.984375 17.484375 19.15625 11.84375 
Q 23.34375 6.203125 30.609375 6.203125 
Q 37.796875 6.203125 41.984375 11.859375 
Q 46.1875 17.53125 46.1875 27.296875 
Q 46.1875 37.015625 41.984375 42.703125 
Q 37.796875 48.390625 30.609375 48.390625 
z
M 30.609375 56 
Q 42.328125 56 49.015625 48.375 
Q 55.71875 40.765625 55.71875 27.296875 
Q 55.71875 13.875 49.015625 6.21875 
Q 42.328125 -1.421875 30.609375 -1.421875 
Q 18.84375 -1.421875 12.171875 6.21875 
Q 5.515625 13.875 5.515625 27.296875 
Q 5.515625 40.765625 12.171875 48.375 
Q 18.84375 56 30.609375 56 
z
" id="DejaVuSans-111"/>
     <path d="M 54.890625 33.015625 
L 54.890625 0 
L 45.90625 0 
L 45.90625 32.71875 
Q 45.90625 40.484375 42.875 44.328125 
Q 39.84375 48.1875 33.796875 48.1875 
Q 26.515625 48.1875 22.3125 43.546875 
Q 18.109375 38.921875 18.109375 30.90625 
L 18.109375 0 
L 9.078125 0 
L 9.078125 54.6875 
L 18.109375 54.6875 
L 18.109375 46.1875 
Q 21.34375 51.125 25.703125 53.5625 
Q 30.078125 56 35.796875 56 
Q 45.21875 56 50.046875 50.171875 
Q 54.890625 44.34375 54.890625 33.015625 
z
" id="DejaVuSans-110"/>
     <path d="M 17.921875 72.90625 
L 17.921875 45.796875 
L 9.625 45.796875 
L 9.625 72.90625 
z
" id="DejaVuSans-39"/>
     <path d="M 34.28125 27.484375 
Q 23.390625 27.484375 19.1875 25 
Q 14.984375 22.515625 14.984375 16.5 
Q 14.984375 11.71875 18.140625 8.90625 
Q 21.296875 6.109375 26.703125 6.109375 
Q 34.1875 6.109375 38.703125 11.40625 
Q 43.21875 16.703125 43.21875 25.484375 
L 43.21875 27.484375 
z
M 52.203125 31.203125 
L 52.203125 0 
L 43.21875 0 
L 43.21875 8.296875 
Q 40.140625 3.328125 35.546875 0.953125 
Q 30.953125 -1.421875 24.3125 -1.421875 
Q 15.921875 -1.421875 10.953125 3.296875 
Q 6 8.015625 6 15.921875 
Q 6 25.140625 12.171875 29.828125 
Q 18.359375 34.515625 30.609375 34.515625 
L 43.21875 34.515625 
L 43.21875 35.40625 
Q 43.21875 41.609375 39.140625 45 
Q 35.0625 48.390625 27.6875 48.390625 
Q 23 48.390625 18.546875 47.265625 
Q 14.109375 46.140625 10.015625 43.890625 
L 10.015625 52.203125 
Q 14.9375 54.109375 19.578125 55.046875 
Q 24.21875 56 28.609375 56 
Q 40.484375 56 46.34375 49.84375 
Q 52.203125 43.703125 52.203125 31.203125 
z
" id="DejaVuSans-97"/>
     <path d="M 9.078125 75.984375 
L 18.109375 75.984375 
L 18.109375 31.109375 
L 44.921875 54.6875 
L 56.390625 54.6875 
L 27.390625 29.109375 
L 57.625 0 
L 45.90625 0 
L 18.109375 26.703125 
L 18.109375 0 
L 9.078125 0 
z
" id="DejaVuSans-107"/>
    </defs>
    <g transform="translate(146.053339 23.76)scale(0.16 -0.16)">
     <use xlink:href="#DejaVuSans-34"/>
     <use x="45.996094" xlink:href="#DejaVuSans-100"/>
     <use x="109.472656" xlink:href="#DejaVuSans-111"/>
     <use x="170.654297" xlink:href="#DejaVuSans-110"/>
     <use x="234.033203" xlink:href="#DejaVuSans-39"/>
     <use x="261.523438" xlink:href="#DejaVuSans-116"/>
     <use x="300.732422" xlink:href="#DejaVuSans-32"/>
     <use x="332.519531" xlink:href="#DejaVuSans-97"/>
     <use x="393.798828" xlink:href="#DejaVuSans-115"/>
     <use x="445.898438" xlink:href="#DejaVuSans-107"/>
     <use x="503.808594" xlink:href="#DejaVuSans-32"/>
     <use x="535.595703" xlink:href="#DejaVuSans-109"/>
     <use x="633.007812" xlink:href="#DejaVuSans-101"/>
     <use x="694.53125" xlink:href="#DejaVuSans-34"/>
    </g>
   </g>
  </g>
 </g>
 <defs>
  <clipPath id="pff4c8b2cdf">
   <rect height="144.28" width="272.849179" x="68.87" y="29.76"/>
  </clipPath>
 </defs>
</svg>
