<?xml version="1.0" encoding="utf-8" standalone="no"?>
<!DOCTYPE svg PUBLIC "-//W3C//DTD SVG 1.1//EN"
  "http://www.w3.org/Graphics/SVG/1.1/DTD/svg11.dtd">
<!-- Created with matplotlib (https://matplotlib.org/) -->
<svg height="222.48pt" version="1.1" viewBox="0 0 353.52 222.48" width="353.52pt" xmlns="http://www.w3.org/2000/svg" xmlns:xlink="http://www.w3.org/1999/xlink">
 <defs>
  <style type="text/css">
*{stroke-linecap:butt;stroke-linejoin:round;}
  </style>
 </defs>
 <g id="figure_1">
  <g id="patch_1">
   <path d="M 0 222.48 
L 353.52 222.48 
L 353.52 0 
L 0 0 
z
" style="fill:#ffffff;"/>
  </g>
  <g id="axes_1">
   <g id="patch_2">
    <path d="M 68.87 174.04 
L 341.719179 174.04 
L 341.719179 29.76 
L 68.87 29.76 
z
" style="fill:#ffffff;"/>
   </g>
   <g id="matplotlib.axis_1">
    <g id="xtick_1">
     <g id="line2d_1">
      <defs>
       <path d="M 0 0 
L 0 3.5 
" id="mde52c08fd2" style="stroke:#000000;stroke-width:0.8;"/>
      </defs>
      <g>
       <use style="stroke:#000000;stroke-width:0.8;" x="82.557082" xlink:href="#mde52c08fd2" y="174.04"/>
      </g>
     </g>
     <g id="text_1">
      <!-- 0.60 -->
      <defs>
       <path d="M 31.78125 66.40625 
Q 24.171875 66.40625 20.328125 58.90625 
Q 16.5 51.421875 16.5 36.375 
Q 16.5 21.390625 20.328125 13.890625 
Q 24.171875 6.390625 31.78125 6.390625 
Q 39.453125 6.390625 43.28125 13.890625 
Q 47.125 21.390625 47.125 36.375 
Q 47.125 51.421875 43.28125 58.90625 
Q 39.453125 66.40625 31.78125 66.40625 
z
M 31.78125 74.21875 
Q 44.046875 74.21875 50.515625 64.515625 
Q 56.984375 54.828125 56.984375 36.375 
Q 56.984375 17.96875 50.515625 8.265625 
Q 44.046875 -1.421875 31.78125 -1.421875 
Q 19.53125 -1.421875 13.0625 8.265625 
Q 6.59375 17.96875 6.59375 36.375 
Q 6.59375 54.828125 13.0625 64.515625 
Q 19.53125 74.21875 31.78125 74.21875 
z
" id="DejaVuSans-48"/>
       <path d="M 10.6875 12.40625 
L 21 12.40625 
L 21 0 
L 10.6875 0 
z
" id="DejaVuSans-46"/>
       <path d="M 33.015625 40.375 
Q 26.375 40.375 22.484375 35.828125 
Q 18.609375 31.296875 18.609375 23.390625 
Q 18.609375 15.53125 22.484375 10.953125 
Q 26.375 6.390625 33.015625 6.390625 
Q 39.65625 6.390625 43.53125 10.953125 
Q 47.40625 15.53125 47.40625 23.390625 
Q 47.40625 31.296875 43.53125 35.828125 
Q 39.65625 40.375 33.015625 40.375 
z
M 52.59375 71.296875 
L 52.59375 62.3125 
Q 48.875 64.0625 45.09375 64.984375 
Q 41.3125 65.921875 37.59375 65.921875 
Q 27.828125 65.921875 22.671875 59.328125 
Q 17.53125 52.734375 16.796875 39.40625 
Q 19.671875 43.65625 24.015625 45.921875 
Q 28.375 48.1875 33.59375 48.1875 
Q 44.578125 48.1875 50.953125 41.515625 
Q 57.328125 34.859375 57.328125 23.390625 
Q 57.328125 12.15625 50.6875 5.359375 
Q 44.046875 -1.421875 33.015625 -1.421875 
Q 20.359375 -1.421875 13.671875 8.265625 
Q 6.984375 17.96875 6.984375 36.375 
Q 6.984375 53.65625 15.1875 63.9375 
Q 23.390625 74.21875 37.203125 74.21875 
Q 40.921875 74.21875 44.703125 73.484375 
Q 48.484375 72.75 52.59375 71.296875 
z
" id="DejaVuSans-54"/>
      </defs>
      <g transform="translate(71.42427 188.638438)scale(0.1 -0.1)">
       <use xlink:href="#DejaVuSans-48"/>
       <use x="63.623047" xlink:href="#DejaVuSans-46"/>
       <use x="95.410156" xlink:href="#DejaVuSans-54"/>
       <use x="159.033203" xlink:href="#DejaVuSans-48"/>
      </g>
     </g>
    </g>
    <g id="xtick_2">
     <g id="line2d_2">
      <g>
       <use style="stroke:#000000;stroke-width:0.8;" x="121.073587" xlink:href="#mde52c08fd2" y="174.04"/>
      </g>
     </g>
     <g id="text_2">
      <!-- 0.61 -->
      <defs>
       <path d="M 12.40625 8.296875 
L 28.515625 8.296875 
L 28.515625 63.921875 
L 10.984375 60.40625 
L 10.984375 69.390625 
L 28.421875 72.90625 
L 38.28125 72.90625 
L 38.28125 8.296875 
L 54.390625 8.296875 
L 54.390625 0 
L 12.40625 0 
z
" id="DejaVuSans-49"/>
      </defs>
      <g transform="translate(109.940774 188.638438)scale(0.1 -0.1)">
       <use xlink:href="#DejaVuSans-48"/>
       <use x="63.623047" xlink:href="#DejaVuSans-46"/>
       <use x="95.410156" xlink:href="#DejaVuSans-54"/>
       <use x="159.033203" xlink:href="#DejaVuSans-49"/>
      </g>
     </g>
    </g>
    <g id="xtick_3">
     <g id="line2d_3">
      <g>
       <use style="stroke:#000000;stroke-width:0.8;" x="159.590092" xlink:href="#mde52c08fd2" y="174.04"/>
      </g>
     </g>
     <g id="text_3">
      <!-- 0.62 -->
      <defs>
       <path d="M 19.1875 8.296875 
L 53.609375 8.296875 
L 53.609375 0 
L 7.328125 0 
L 7.328125 8.296875 
Q 12.9375 14.109375 22.625 23.890625 
Q 32.328125 33.6875 34.8125 36.53125 
Q 39.546875 41.84375 41.421875 45.53125 
Q 43.3125 49.21875 43.3125 52.78125 
Q 43.3125 58.59375 39.234375 62.25 
Q 35.15625 65.921875 28.609375 65.921875 
Q 23.96875 65.921875 18.8125 64.3125 
Q 13.671875 62.703125 7.8125 59.421875 
L 7.8125 69.390625 
Q 13.765625 71.78125 18.9375 73 
Q 24.125 74.21875 28.421875 74.21875 
Q 39.75 74.21875 46.484375 68.546875 
Q 53.21875 62.890625 53.21875 53.421875 
Q 53.21875 48.921875 51.53125 44.890625 
Q 49.859375 40.875 45.40625 35.40625 
Q 44.1875 33.984375 37.640625 27.21875 
Q 31.109375 20.453125 19.1875 8.296875 
z
" id="DejaVuSans-50"/>
      </defs>
      <g transform="translate(148.457279 188.638438)scale(0.1 -0.1)">
       <use xlink:href="#DejaVuSans-48"/>
       <use x="63.623047" xlink:href="#DejaVuSans-46"/>
       <use x="95.410156" xlink:href="#DejaVuSans-54"/>
       <use x="159.033203" xlink:href="#DejaVuSans-50"/>
      </g>
     </g>
    </g>
    <g id="xtick_4">
     <g id="line2d_4">
      <g>
       <use style="stroke:#000000;stroke-width:0.8;" x="198.106596" xlink:href="#mde52c08fd2" y="174.04"/>
      </g>
     </g>
     <g id="text_4">
      <!-- 0.63 -->
      <defs>
       <path d="M 40.578125 39.3125 
Q 47.65625 37.796875 51.625 33 
Q 55.609375 28.21875 55.609375 21.1875 
Q 55.609375 10.40625 48.1875 4.484375 
Q 40.765625 -1.421875 27.09375 -1.421875 
Q 22.515625 -1.421875 17.65625 -0.515625 
Q 12.796875 0.390625 7.625 2.203125 
L 7.625 11.71875 
Q 11.71875 9.328125 16.59375 8.109375 
Q 21.484375 6.890625 26.8125 6.890625 
Q 36.078125 6.890625 40.9375 10.546875 
Q 45.796875 14.203125 45.796875 21.1875 
Q 45.796875 27.640625 41.28125 31.265625 
Q 36.765625 34.90625 28.71875 34.90625 
L 20.21875 34.90625 
L 20.21875 43.015625 
L 29.109375 43.015625 
Q 36.375 43.015625 40.234375 45.921875 
Q 44.09375 48.828125 44.09375 54.296875 
Q 44.09375 59.90625 40.109375 62.90625 
Q 36.140625 65.921875 28.71875 65.921875 
Q 24.65625 65.921875 20.015625 65.03125 
Q 15.375 64.15625 9.8125 62.3125 
L 9.8125 71.09375 
Q 15.4375 72.65625 20.34375 73.4375 
Q 25.25 74.21875 29.59375 74.21875 
Q 40.828125 74.21875 47.359375 69.109375 
Q 53.90625 64.015625 53.90625 55.328125 
Q 53.90625 49.265625 50.4375 45.09375 
Q 46.96875 40.921875 40.578125 39.3125 
z
" id="DejaVuSans-51"/>
      </defs>
      <g transform="translate(186.973784 188.638438)scale(0.1 -0.1)">
       <use xlink:href="#DejaVuSans-48"/>
       <use x="63.623047" xlink:href="#DejaVuSans-46"/>
       <use x="95.410156" xlink:href="#DejaVuSans-54"/>
       <use x="159.033203" xlink:href="#DejaVuSans-51"/>
      </g>
     </g>
    </g>
    <g id="xtick_5">
     <g id="line2d_5">
      <g>
       <use style="stroke:#000000;stroke-width:0.8;" x="236.623101" xlink:href="#mde52c08fd2" y="174.04"/>
      </g>
     </g>
     <g id="text_5">
      <!-- 0.64 -->
      <defs>
       <path d="M 37.796875 64.3125 
L 12.890625 25.390625 
L 37.796875 25.390625 
z
M 35.203125 72.90625 
L 47.609375 72.90625 
L 47.609375 25.390625 
L 58.015625 25.390625 
L 58.015625 17.1875 
L 47.609375 17.1875 
L 47.609375 0 
L 37.796875 0 
L 37.796875 17.1875 
L 4.890625 17.1875 
L 4.890625 26.703125 
z
" id="DejaVuSans-52"/>
      </defs>
      <g transform="translate(225.490289 188.638438)scale(0.1 -0.1)">
       <use xlink:href="#DejaVuSans-48"/>
       <use x="63.623047" xlink:href="#DejaVuSans-46"/>
       <use x="95.410156" xlink:href="#DejaVuSans-54"/>
       <use x="159.033203" xlink:href="#DejaVuSans-52"/>
      </g>
     </g>
    </g>
    <g id="xtick_6">
     <g id="line2d_6">
      <g>
       <use style="stroke:#000000;stroke-width:0.8;" x="275.139606" xlink:href="#mde52c08fd2" y="174.04"/>
      </g>
     </g>
     <g id="text_6">
      <!-- 0.65 -->
      <defs>
       <path d="M 10.796875 72.90625 
L 49.515625 72.90625 
L 49.515625 64.59375 
L 19.828125 64.59375 
L 19.828125 46.734375 
Q 21.96875 47.46875 24.109375 47.828125 
Q 26.265625 48.1875 28.421875 48.1875 
Q 40.625 48.1875 47.75 41.5 
Q 54.890625 34.8125 54.890625 23.390625 
Q 54.890625 11.625 47.5625 5.09375 
Q 40.234375 -1.421875 26.90625 -1.421875 
Q 22.3125 -1.421875 17.546875 -0.640625 
Q 12.796875 0.140625 7.71875 1.703125 
L 7.71875 11.625 
Q 12.109375 9.234375 16.796875 8.0625 
Q 21.484375 6.890625 26.703125 6.890625 
Q 35.15625 6.890625 40.078125 11.328125 
Q 45.015625 15.765625 45.015625 23.390625 
Q 45.015625 31 40.078125 35.4375 
Q 35.15625 39.890625 26.703125 39.890625 
Q 22.75 39.890625 18.8125 39.015625 
Q 14.890625 38.140625 10.796875 36.28125 
z
" id="DejaVuSans-53"/>
      </defs>
      <g transform="translate(264.006793 188.638438)scale(0.1 -0.1)">
       <use xlink:href="#DejaVuSans-48"/>
       <use x="63.623047" xlink:href="#DejaVuSans-46"/>
       <use x="95.410156" xlink:href="#DejaVuSans-54"/>
       <use x="159.033203" xlink:href="#DejaVuSans-53"/>
      </g>
     </g>
    </g>
    <g id="xtick_7">
     <g id="line2d_7">
      <g>
       <use style="stroke:#000000;stroke-width:0.8;" x="313.656111" xlink:href="#mde52c08fd2" y="174.04"/>
      </g>
     </g>
     <g id="text_7">
      <!-- 0.66 -->
      <g transform="translate(302.523298 188.638438)scale(0.1 -0.1)">
       <use xlink:href="#DejaVuSans-48"/>
       <use x="63.623047" xlink:href="#DejaVuSans-46"/>
       <use x="95.410156" xlink:href="#DejaVuSans-54"/>
       <use x="159.033203" xlink:href="#DejaVuSans-54"/>
      </g>
     </g>
    </g>
    <g id="text_8">
     <!-- Time (s) -->
     <defs>
      <path d="M -0.296875 72.90625 
L 61.375 72.90625 
L 61.375 64.59375 
L 35.5 64.59375 
L 35.5 0 
L 25.59375 0 
L 25.59375 64.59375 
L -0.296875 64.59375 
z
" id="DejaVuSans-84"/>
      <path d="M 9.421875 54.6875 
L 18.40625 54.6875 
L 18.40625 0 
L 9.421875 0 
z
M 9.421875 75.984375 
L 18.40625 75.984375 
L 18.40625 64.59375 
L 9.421875 64.59375 
z
" id="DejaVuSans-105"/>
      <path d="M 52 44.1875 
Q 55.375 50.25 60.0625 53.125 
Q 64.75 56 71.09375 56 
Q 79.640625 56 84.28125 50.015625 
Q 88.921875 44.046875 88.921875 33.015625 
L 88.921875 0 
L 79.890625 0 
L 79.890625 32.71875 
Q 79.890625 40.578125 77.09375 44.375 
Q 74.3125 48.1875 68.609375 48.1875 
Q 61.625 48.1875 57.5625 43.546875 
Q 53.515625 38.921875 53.515625 30.90625 
L 53.515625 0 
L 44.484375 0 
L 44.484375 32.71875 
Q 44.484375 40.625 41.703125 44.40625 
Q 38.921875 48.1875 33.109375 48.1875 
Q 26.21875 48.1875 22.15625 43.53125 
Q 18.109375 38.875 18.109375 30.90625 
L 18.109375 0 
L 9.078125 0 
L 9.078125 54.6875 
L 18.109375 54.6875 
L 18.109375 46.1875 
Q 21.1875 51.21875 25.484375 53.609375 
Q 29.78125 56 35.6875 56 
Q 41.65625 56 45.828125 52.96875 
Q 50 49.953125 52 44.1875 
z
" id="DejaVuSans-109"/>
      <path d="M 56.203125 29.59375 
L 56.203125 25.203125 
L 14.890625 25.203125 
Q 15.484375 15.921875 20.484375 11.0625 
Q 25.484375 6.203125 34.421875 6.203125 
Q 39.59375 6.203125 44.453125 7.46875 
Q 49.3125 8.734375 54.109375 11.28125 
L 54.109375 2.78125 
Q 49.265625 0.734375 44.1875 -0.34375 
Q 39.109375 -1.421875 33.890625 -1.421875 
Q 20.796875 -1.421875 13.15625 6.1875 
Q 5.515625 13.8125 5.515625 26.8125 
Q 5.515625 40.234375 12.765625 48.109375 
Q 20.015625 56 32.328125 56 
Q 43.359375 56 49.78125 48.890625 
Q 56.203125 41.796875 56.203125 29.59375 
z
M 47.21875 32.234375 
Q 47.125 39.59375 43.09375 43.984375 
Q 39.0625 48.390625 32.421875 48.390625 
Q 24.90625 48.390625 20.390625 44.140625 
Q 15.875 39.890625 15.1875 32.171875 
z
" id="DejaVuSans-101"/>
      <path id="DejaVuSans-32"/>
      <path d="M 31 75.875 
Q 24.46875 64.65625 21.28125 53.65625 
Q 18.109375 42.671875 18.109375 31.390625 
Q 18.109375 20.125 21.3125 9.0625 
Q 24.515625 -2 31 -13.1875 
L 23.1875 -13.1875 
Q 15.875 -1.703125 12.234375 9.375 
Q 8.59375 20.453125 8.59375 31.390625 
Q 8.59375 42.28125 12.203125 53.3125 
Q 15.828125 64.359375 23.1875 75.875 
z
" id="DejaVuSans-40"/>
      <path d="M 44.28125 53.078125 
L 44.28125 44.578125 
Q 40.484375 46.53125 36.375 47.5 
Q 32.28125 48.484375 27.875 48.484375 
Q 21.1875 48.484375 17.84375 46.4375 
Q 14.5 44.390625 14.5 40.28125 
Q 14.5 37.15625 16.890625 35.375 
Q 19.28125 33.59375 26.515625 31.984375 
L 29.59375 31.296875 
Q 39.15625 29.25 43.1875 25.515625 
Q 47.21875 21.78125 47.21875 15.09375 
Q 47.21875 7.46875 41.1875 3.015625 
Q 35.15625 -1.421875 24.609375 -1.421875 
Q 20.21875 -1.421875 15.453125 -0.5625 
Q 10.6875 0.296875 5.421875 2 
L 5.421875 11.28125 
Q 10.40625 8.6875 15.234375 7.390625 
Q 20.0625 6.109375 24.8125 6.109375 
Q 31.15625 6.109375 34.5625 8.28125 
Q 37.984375 10.453125 37.984375 14.40625 
Q 37.984375 18.0625 35.515625 20.015625 
Q 33.0625 21.96875 24.703125 23.78125 
L 21.578125 24.515625 
Q 13.234375 26.265625 9.515625 29.90625 
Q 5.8125 33.546875 5.8125 39.890625 
Q 5.8125 47.609375 11.28125 51.796875 
Q 16.75 56 26.8125 56 
Q 31.78125 56 36.171875 55.265625 
Q 40.578125 54.546875 44.28125 53.078125 
z
" id="DejaVuSans-115"/>
      <path d="M 8.015625 75.875 
L 15.828125 75.875 
Q 23.140625 64.359375 26.78125 53.3125 
Q 30.421875 42.28125 30.421875 31.390625 
Q 30.421875 20.453125 26.78125 9.375 
Q 23.140625 -1.703125 15.828125 -13.1875 
L 8.015625 -13.1875 
Q 14.5 -2 17.703125 9.0625 
Q 20.90625 20.125 20.90625 31.390625 
Q 20.90625 42.671875 17.703125 53.65625 
Q 14.5 64.65625 8.015625 75.875 
z
" id="DejaVuSans-41"/>
     </defs>
     <g transform="translate(172.522089 206.875625)scale(0.16 -0.16)">
      <use xlink:href="#DejaVuSans-84"/>
      <use x="61.037109" xlink:href="#DejaVuSans-105"/>
      <use x="88.820312" xlink:href="#DejaVuSans-109"/>
      <use x="186.232422" xlink:href="#DejaVuSans-101"/>
      <use x="247.755859" xlink:href="#DejaVuSans-32"/>
      <use x="279.542969" xlink:href="#DejaVuSans-40"/>
      <use x="318.556641" xlink:href="#DejaVuSans-115"/>
      <use x="370.65625" xlink:href="#DejaVuSans-41"/>
     </g>
    </g>
   </g>
   <g id="matplotlib.axis_2">
    <g id="ytick_1">
     <g id="line2d_8">
      <defs>
       <path d="M 0 0 
L -3.5 0 
" id="m8801871aef" style="stroke:#000000;stroke-width:0.8;"/>
      </defs>
      <g>
       <use style="stroke:#000000;stroke-width:0.8;" x="68.87" xlink:href="#m8801871aef" y="158.377487"/>
      </g>
     </g>
     <g id="text_9">
      <!-- −0.4 -->
      <defs>
       <path d="M 10.59375 35.5 
L 73.1875 35.5 
L 73.1875 27.203125 
L 10.59375 27.203125 
z
" id="DejaVuSans-8722"/>
      </defs>
      <g transform="translate(37.587187 162.176705)scale(0.1 -0.1)">
       <use xlink:href="#DejaVuSans-8722"/>
       <use x="83.789062" xlink:href="#DejaVuSans-48"/>
       <use x="147.412109" xlink:href="#DejaVuSans-46"/>
       <use x="179.199219" xlink:href="#DejaVuSans-52"/>
      </g>
     </g>
    </g>
    <g id="ytick_2">
     <g id="line2d_9">
      <g>
       <use style="stroke:#000000;stroke-width:0.8;" x="68.87" xlink:href="#m8801871aef" y="129.989876"/>
      </g>
     </g>
     <g id="text_10">
      <!-- −0.2 -->
      <g transform="translate(37.587187 133.789095)scale(0.1 -0.1)">
       <use xlink:href="#DejaVuSans-8722"/>
       <use x="83.789062" xlink:href="#DejaVuSans-48"/>
       <use x="147.412109" xlink:href="#DejaVuSans-46"/>
       <use x="179.199219" xlink:href="#DejaVuSans-50"/>
      </g>
     </g>
    </g>
    <g id="ytick_3">
     <g id="line2d_10">
      <g>
       <use style="stroke:#000000;stroke-width:0.8;" x="68.87" xlink:href="#m8801871aef" y="101.602265"/>
      </g>
     </g>
     <g id="text_11">
      <!-- 0.0 -->
      <g transform="translate(45.966875 105.401484)scale(0.1 -0.1)">
       <use xlink:href="#DejaVuSans-48"/>
       <use x="63.623047" xlink:href="#DejaVuSans-46"/>
       <use x="95.410156" xlink:href="#DejaVuSans-48"/>
      </g>
     </g>
    </g>
    <g id="ytick_4">
     <g id="line2d_11">
      <g>
       <use style="stroke:#000000;stroke-width:0.8;" x="68.87" xlink:href="#m8801871aef" y="73.214654"/>
      </g>
     </g>
     <g id="text_12">
      <!-- 0.2 -->
      <g transform="translate(45.966875 77.013873)scale(0.1 -0.1)">
       <use xlink:href="#DejaVuSans-48"/>
       <use x="63.623047" xlink:href="#DejaVuSans-46"/>
       <use x="95.410156" xlink:href="#DejaVuSans-50"/>
      </g>
     </g>
    </g>
    <g id="ytick_5">
     <g id="line2d_12">
      <g>
       <use style="stroke:#000000;stroke-width:0.8;" x="68.87" xlink:href="#m8801871aef" y="44.827044"/>
      </g>
     </g>
     <g id="text_13">
      <!-- 0.4 -->
      <g transform="translate(45.966875 48.626262)scale(0.1 -0.1)">
       <use xlink:href="#DejaVuSans-48"/>
       <use x="63.623047" xlink:href="#DejaVuSans-46"/>
       <use x="95.410156" xlink:href="#DejaVuSans-52"/>
      </g>
     </g>
    </g>
    <g id="text_14">
     <!-- Amplitude -->
     <defs>
      <path d="M 34.1875 63.1875 
L 20.796875 26.90625 
L 47.609375 26.90625 
z
M 28.609375 72.90625 
L 39.796875 72.90625 
L 67.578125 0 
L 57.328125 0 
L 50.6875 18.703125 
L 17.828125 18.703125 
L 11.1875 0 
L 0.78125 0 
z
" id="DejaVuSans-65"/>
      <path d="M 18.109375 8.203125 
L 18.109375 -20.796875 
L 9.078125 -20.796875 
L 9.078125 54.6875 
L 18.109375 54.6875 
L 18.109375 46.390625 
Q 20.953125 51.265625 25.265625 53.625 
Q 29.59375 56 35.59375 56 
Q 45.5625 56 51.78125 48.09375 
Q 58.015625 40.1875 58.015625 27.296875 
Q 58.015625 14.40625 51.78125 6.484375 
Q 45.5625 -1.421875 35.59375 -1.421875 
Q 29.59375 -1.421875 25.265625 0.953125 
Q 20.953125 3.328125 18.109375 8.203125 
z
M 48.6875 27.296875 
Q 48.6875 37.203125 44.609375 42.84375 
Q 40.53125 48.484375 33.40625 48.484375 
Q 26.265625 48.484375 22.1875 42.84375 
Q 18.109375 37.203125 18.109375 27.296875 
Q 18.109375 17.390625 22.1875 11.75 
Q 26.265625 6.109375 33.40625 6.109375 
Q 40.53125 6.109375 44.609375 11.75 
Q 48.6875 17.390625 48.6875 27.296875 
z
" id="DejaVuSans-112"/>
      <path d="M 9.421875 75.984375 
L 18.40625 75.984375 
L 18.40625 0 
L 9.421875 0 
z
" id="DejaVuSans-108"/>
      <path d="M 18.3125 70.21875 
L 18.3125 54.6875 
L 36.8125 54.6875 
L 36.8125 47.703125 
L 18.3125 47.703125 
L 18.3125 18.015625 
Q 18.3125 11.328125 20.140625 9.421875 
Q 21.96875 7.515625 27.59375 7.515625 
L 36.8125 7.515625 
L 36.8125 0 
L 27.59375 0 
Q 17.1875 0 13.234375 3.875 
Q 9.28125 7.765625 9.28125 18.015625 
L 9.28125 47.703125 
L 2.6875 47.703125 
L 2.6875 54.6875 
L 9.28125 54.6875 
L 9.28125 70.21875 
z
" id="DejaVuSans-116"/>
      <path d="M 8.5 21.578125 
L 8.5 54.6875 
L 17.484375 54.6875 
L 17.484375 21.921875 
Q 17.484375 14.15625 20.5 10.265625 
Q 23.53125 6.390625 29.59375 6.390625 
Q 36.859375 6.390625 41.078125 11.03125 
Q 45.3125 15.671875 45.3125 23.6875 
L 45.3125 54.6875 
L 54.296875 54.6875 
L 54.296875 0 
L 45.3125 0 
L 45.3125 8.40625 
Q 42.046875 3.421875 37.71875 1 
Q 33.40625 -1.421875 27.6875 -1.421875 
Q 18.265625 -1.421875 13.375 4.4375 
Q 8.5 10.296875 8.5 21.578125 
z
M 31.109375 56 
z
" id="DejaVuSans-117"/>
      <path d="M 45.40625 46.390625 
L 45.40625 75.984375 
L 54.390625 75.984375 
L 54.390625 0 
L 45.40625 0 
L 45.40625 8.203125 
Q 42.578125 3.328125 38.25 0.953125 
Q 33.9375 -1.421875 27.875 -1.421875 
Q 17.96875 -1.421875 11.734375 6.484375 
Q 5.515625 14.40625 5.515625 27.296875 
Q 5.515625 40.1875 11.734375 48.09375 
Q 17.96875 56 27.875 56 
Q 33.9375 56 38.25 53.625 
Q 42.578125 51.265625 45.40625 46.390625 
z
M 14.796875 27.296875 
Q 14.796875 17.390625 18.875 11.75 
Q 22.953125 6.109375 30.078125 6.109375 
Q 37.203125 6.109375 41.296875 11.75 
Q 45.40625 17.390625 45.40625 27.296875 
Q 45.40625 37.203125 41.296875 42.84375 
Q 37.203125 48.484375 30.078125 48.484375 
Q 22.953125 48.484375 18.875 42.84375 
Q 14.796875 37.203125 14.796875 27.296875 
z
" id="DejaVuSans-100"/>
     </defs>
     <g transform="translate(30.259687 142.89625)rotate(-90)scale(0.16 -0.16)">
      <use xlink:href="#DejaVuSans-65"/>
      <use x="68.408203" xlink:href="#DejaVuSans-109"/>
      <use x="165.820312" xlink:href="#DejaVuSans-112"/>
      <use x="229.296875" xlink:href="#DejaVuSans-108"/>
      <use x="257.080078" xlink:href="#DejaVuSans-105"/>
      <use x="284.863281" xlink:href="#DejaVuSans-116"/>
      <use x="324.072266" xlink:href="#DejaVuSans-117"/>
      <use x="387.451172" xlink:href="#DejaVuSans-100"/>
      <use x="450.927734" xlink:href="#DejaVuSans-101"/>
     </g>
    </g>
   </g>
   <g id="line2d_13">
    <path clip-path="url(#p14a7ef21b9)" d="M 68.835577 106.903566 
L 69.076305 99.322136 
L 69.317034 95.920943 
L 69.557762 102.172297 
L 69.79849 94.856882 
L 70.039218 105.193469 
L 70.279946 97.897055 
L 70.520674 103.293361 
L 71.002131 98.562093 
L 71.242859 103.654381 
L 71.483587 103.749387 
L 71.724315 95.046893 
L 71.965043 103.236358 
L 72.205771 100.937227 
L 72.4465 105.421482 
L 72.687228 96.928 
L 73.168684 101.260246 
L 73.409412 98.999117 
L 73.65014 97.802049 
L 73.890869 103.312362 
L 74.131597 101.184241 
L 74.372325 100.27219 
L 74.613053 100.823221 
L 74.853781 106.105521 
L 75.094509 101.051234 
L 75.335237 98.980116 
L 75.816694 102.381309 
L 76.057422 99.816164 
L 76.29815 103.540375 
L 76.779606 99.132125 
L 77.020335 95.578923 
L 77.261063 104.14841 
L 77.501791 101.526261 
L 77.742519 106.675553 
L 77.983247 97.308021 
L 78.223975 102.115294 
L 78.464703 98.049063 
L 78.705432 98.087066 
L 78.94616 103.540375 
L 79.186888 104.566433 
L 79.427616 99.075122 
L 79.668344 105.38348 
L 79.909072 100.709214 
L 80.149801 102.723329 
L 80.390529 101.659268 
L 80.631257 93.697817 
L 80.871985 106.466541 
L 81.112713 97.783048 
L 81.353441 104.566433 
L 81.59417 103.958399 
L 81.834898 104.604435 
L 82.316354 101.070235 
L 82.557082 102.40031 
L 82.79781 101.317249 
L 83.038538 95.122897 
L 83.279267 109.278701 
L 83.519995 93.849825 
L 83.760723 109.506714 
L 84.001451 101.982287 
L 84.242179 103.901396 
L 84.482907 107.948625 
L 84.723636 98.847109 
L 84.964364 104.87045 
L 85.205092 103.63538 
L 85.44582 95.407914 
L 85.686548 104.110407 
L 85.927276 103.350364 
L 86.168004 104.015402 
L 86.649461 99.075122 
L 86.890189 105.022459 
L 87.130917 100.158183 
L 87.371645 103.578377 
L 87.612373 104.68044 
L 87.853102 97.004004 
L 88.09383 106.333534 
L 88.334558 96.928 
L 88.575286 103.80639 
L 88.816014 101.013232 
L 89.29747 105.459484 
L 89.538199 93.773821 
L 89.778927 109.278701 
L 90.019655 96.414971 
L 90.260383 101.754274 
L 90.501111 104.243415 
L 90.741839 97.498032 
L 90.982568 104.395424 
L 91.223296 102.685327 
L 91.464024 94.723875 
L 91.704752 110.760785 
L 91.94548 98.030062 
L 92.186208 105.687497 
L 92.426936 97.194015 
L 92.667665 102.951342 
L 92.908393 104.395424 
L 93.149121 96.414971 
L 93.389849 97.327022 
L 93.630577 99.265132 
L 93.871305 97.479031 
L 94.112034 109.335704 
L 94.352762 94.514863 
L 94.59349 110.589775 
L 94.834218 96.680986 
L 95.315674 106.314532 
L 95.556402 98.144069 
L 95.797131 101.184241 
L 96.037859 102.495316 
L 96.278587 97.023005 
L 96.519315 107.5116 
L 96.760043 96.110953 
L 97.000771 107.131579 
L 97.2415 101.089236 
L 97.482228 103.407367 
L 97.722956 103.673383 
L 97.963684 96.243961 
L 98.204412 103.730386 
L 98.44514 102.381309 
L 98.685868 98.296077 
L 98.926597 110.741784 
L 99.167325 92.747763 
L 99.408053 106.827562 
L 99.648781 99.39814 
L 99.889509 98.087066 
L 100.130237 107.017572 
L 100.370966 91.740706 
L 100.611694 104.813447 
L 100.852422 103.236358 
L 101.09315 96.966002 
L 101.333878 105.174468 
L 101.574606 101.583264 
L 101.815335 101.203242 
L 102.056063 108.404651 
L 102.296791 91.455689 
L 102.537519 110.49477 
L 102.778247 96.794992 
L 103.018975 103.901396 
L 103.259703 103.122351 
L 103.500432 100.253189 
L 103.74116 100.861223 
L 103.981888 102.856336 
L 104.222616 97.137012 
L 104.463344 101.754274 
L 104.704072 98.448086 
L 104.944801 106.200526 
L 105.185529 99.56915 
L 105.426257 103.27436 
L 105.666985 97.935057 
L 105.907713 99.75916 
L 106.148441 103.711385 
L 106.389169 102.913339 
L 106.629898 98.16307 
L 106.870626 107.720612 
L 107.111354 88.966548 
L 107.352082 112.204867 
L 107.59281 96.034949 
L 107.833538 109.373706 
L 108.074267 96.072951 
L 108.314995 108.38565 
L 108.555723 100.690213 
L 108.796451 103.464371 
L 109.037179 98.011061 
L 109.277907 108.803674 
L 109.518635 93.564809 
L 109.759364 112.128862 
L 110.000092 94.191845 
L 110.24082 104.243415 
L 110.481548 101.469258 
L 110.722276 95.217903 
L 110.963004 107.587605 
L 111.203733 98.201072 
L 111.444461 99.474144 
L 111.685189 103.711385 
L 111.925917 98.391083 
L 112.166645 103.559376 
L 112.407373 104.528431 
L 112.648101 98.961115 
L 112.88883 103.065348 
L 113.129558 98.087066 
L 113.370286 106.029516 
L 113.611014 100.576207 
L 113.851742 103.236358 
L 114.09247 100.975229 
L 114.333199 108.784673 
L 114.573927 96.509976 
L 114.814655 106.675553 
L 115.055383 97.707044 
L 115.296111 103.578377 
L 115.536839 100.386196 
L 115.777567 101.127238 
L 116.018296 105.516487 
L 116.259024 98.961115 
L 116.499752 103.141352 
L 116.74048 100.690213 
L 116.981208 101.032233 
L 117.221936 101.146239 
L 117.462665 100.899225 
L 117.703393 104.319419 
L 117.944121 102.438312 
L 118.184849 101.944284 
L 118.425577 98.258075 
L 118.666305 106.257529 
L 118.907033 96.357967 
L 119.147762 105.934511 
L 119.38849 95.806936 
L 119.629218 108.480655 
L 119.869946 98.52409 
L 120.110674 104.661439 
L 120.351402 100.956228 
L 120.592131 99.550149 
L 120.832859 101.184241 
L 121.073587 105.953512 
L 121.314315 95.578923 
L 121.555043 105.497486 
L 121.795771 99.816164 
L 122.0365 99.816164 
L 122.277228 106.637551 
L 122.517956 97.916056 
L 122.758684 105.402481 
L 122.999412 96.547978 
L 123.24014 104.319419 
L 123.480868 99.417141 
L 123.721597 103.312362 
L 123.962325 102.970343 
L 124.203053 101.678269 
L 124.443781 104.87045 
L 124.684509 102.57132 
L 124.925237 97.745046 
L 125.165966 106.80856 
L 125.406694 96.376969 
L 125.647422 98.961115 
L 125.88815 102.894338 
L 126.128878 101.070235 
L 126.369606 101.355251 
L 126.610334 100.234187 
L 126.851063 102.267303 
L 127.091791 101.146239 
L 127.332519 101.621266 
L 127.573247 101.412254 
L 127.813975 107.492599 
L 128.054703 93.355797 
L 128.295432 110.85579 
L 128.53616 94.343853 
L 128.776888 104.908453 
L 129.017616 97.859053 
L 129.499072 105.421482 
L 129.7398 99.208129 
L 129.980529 99.208129 
L 130.221257 106.960569 
L 130.461985 96.072951 
L 130.702713 106.428539 
L 130.943441 98.505089 
L 131.184169 103.901396 
L 131.424898 103.388366 
L 131.665626 99.284134 
L 131.906354 103.863393 
L 132.147082 104.718442 
L 132.38781 95.749933 
L 132.628538 107.245585 
L 132.869266 99.132125 
L 133.109995 104.68044 
L 133.350723 95.882941 
L 133.591451 105.003458 
L 133.832179 101.279247 
L 134.072907 99.816164 
L 134.313635 105.117465 
L 134.554364 103.141352 
L 134.795092 99.379139 
L 135.03582 104.053404 
L 135.276548 96.547978 
L 135.517276 105.649495 
L 135.758004 101.241245 
L 135.998732 100.367195 
L 136.239461 104.110407 
L 136.720917 97.213016 
L 136.961645 106.789559 
L 137.202373 98.011061 
L 137.443101 103.179355 
L 137.68383 102.723329 
L 137.924558 100.918226 
L 138.165286 102.666325 
L 138.406014 99.512146 
L 138.646742 100.80422 
L 138.88747 104.167411 
L 139.128199 101.184241 
L 139.368927 99.892168 
L 139.609655 103.10335 
L 139.850383 98.030062 
L 140.091111 103.160353 
L 140.331839 99.075122 
L 140.813296 105.820504 
L 141.054024 95.293907 
L 141.294752 107.112578 
L 141.53548 92.823767 
L 141.776208 107.929624 
L 142.016936 98.16307 
L 142.257665 103.10335 
L 142.498393 99.075122 
L 142.739121 98.52409 
L 142.979849 104.167411 
L 143.220577 98.638097 
L 143.461305 102.343307 
L 143.702033 103.521374 
L 144.18349 97.897055 
L 144.424218 109.050688 
L 144.664946 94.723875 
L 144.905674 109.544716 
L 145.146402 92.918772 
L 145.387131 105.117465 
L 145.868587 98.961115 
L 146.109315 103.217357 
L 146.350043 97.650041 
L 146.590771 103.9774 
L 146.831499 103.407367 
L 147.072228 94.742876 
L 147.312956 110.608776 
L 147.553684 92.158729 
L 147.794412 111.615833 
L 148.03514 94.210846 
L 148.275868 107.264586 
L 148.516597 97.384026 
L 148.757325 101.621266 
L 148.998053 103.578377 
L 149.238781 96.39597 
L 149.479509 104.205413 
L 149.720237 98.296077 
L 149.960965 104.87045 
L 150.442422 98.125068 
L 150.68315 109.772729 
L 150.923878 94.248848 
L 151.164606 106.504543 
L 151.405334 97.194015 
L 151.646063 104.395424 
L 151.886791 99.626153 
L 152.127519 104.832448 
L 152.368247 97.327022 
L 152.608975 103.749387 
L 153.090431 99.493145 
L 153.33116 104.433426 
L 153.571888 101.16524 
L 153.812616 100.994231 
L 154.053344 104.87045 
L 154.294072 93.469804 
L 154.5348 110.608776 
L 154.775529 90.809653 
L 155.016257 113.724953 
L 155.256985 91.797709 
L 155.497713 111.406821 
L 155.738441 96.604982 
L 155.979169 104.319419 
L 156.219897 102.932341 
L 156.460626 96.58598 
L 156.701354 105.820504 
L 156.942082 99.740159 
L 157.18281 106.067518 
L 157.423538 97.232017 
L 157.664266 104.946455 
L 157.904995 100.443199 
L 158.145723 101.564263 
L 158.386451 100.500203 
L 158.627179 104.129408 
L 158.867907 96.794992 
L 159.108635 103.293361 
L 159.349364 101.773275 
L 159.590092 104.50943 
L 159.83082 102.799333 
L 160.071548 99.949171 
L 160.312276 100.177184 
L 160.553004 102.628323 
L 160.793732 99.987173 
L 161.034461 105.345477 
L 161.275189 98.448086 
L 161.515917 106.713555 
L 161.756645 97.859053 
L 161.997373 105.91551 
L 162.238101 95.597924 
L 162.47883 107.492599 
L 162.719558 96.737989 
L 162.960286 102.932341 
L 163.201014 101.925283 
L 163.441742 94.932887 
L 163.68247 107.587605 
L 163.923198 97.688043 
L 164.163927 108.176638 
L 164.645383 96.319965 
L 164.886111 110.570774 
L 165.126839 98.562093 
L 165.367567 102.229301 
L 165.608296 101.146239 
L 165.849024 104.775445 
L 166.089752 102.172297 
L 166.33048 102.096293 
L 166.571208 99.03712 
L 166.811936 102.590321 
L 167.052664 100.025176 
L 167.293393 103.502373 
L 167.534121 99.835165 
L 167.774849 108.290645 
L 168.015577 94.951888 
L 168.256305 109.031687 
L 168.497033 95.882941 
L 168.737762 104.813447 
L 168.97849 96.680986 
L 169.219218 107.644608 
L 169.459946 95.369911 
L 169.700674 104.68044 
L 169.941402 106.200526 
L 170.18213 94.248848 
L 170.422859 109.79173 
L 170.663587 91.835711 
L 170.904315 111.710839 
L 171.145043 92.101726 
L 171.385771 105.953512 
L 171.626499 98.030062 
L 171.867228 102.761331 
L 172.107956 102.875337 
L 172.348684 105.554489 
L 172.589412 99.93017 
L 172.83014 100.785219 
L 173.070868 104.87045 
L 173.311596 94.81888 
L 173.552325 108.879678 
L 173.793053 99.265132 
L 174.033781 102.134295 
L 174.274509 102.324306 
L 174.515237 96.110953 
L 174.755965 107.910623 
L 174.996694 94.11584 
L 175.237422 105.649495 
L 175.47815 100.481201 
L 175.718878 100.120181 
L 175.959606 107.112578 
L 176.200334 96.148956 
L 176.441063 107.5116 
L 176.681791 98.201072 
L 176.922519 104.566433 
L 177.403975 98.467087 
L 177.644703 103.312362 
L 177.885431 98.809107 
L 178.12616 106.295531 
L 178.366888 95.084895 
L 178.607616 107.017572 
L 178.848344 99.474144 
L 179.089072 103.10335 
L 179.3298 100.500203 
L 179.570529 106.884565 
L 179.811257 99.341137 
L 180.051985 101.602265 
L 180.292713 101.488259 
L 180.533441 105.820504 
L 180.774169 99.056121 
L 181.255626 103.407367 
L 181.496354 96.262962 
L 181.737082 105.478485 
L 181.97781 98.904112 
L 182.218538 102.685327 
L 182.699995 101.184241 
L 182.940723 101.16524 
L 183.181451 103.996401 
L 183.422179 103.863393 
L 183.662907 98.33408 
L 183.903635 109.107691 
L 184.144363 94.685873 
L 184.385092 102.438312 
L 184.62582 104.186412 
L 184.866548 95.483918 
L 185.107276 103.559376 
L 185.348004 96.851996 
L 185.588732 105.858507 
L 185.829461 103.521374 
L 186.070189 103.065348 
L 186.310917 99.588151 
L 186.551645 105.269473 
L 186.792373 98.277076 
L 187.033101 104.471428 
L 187.514558 98.86611 
L 187.755286 104.452427 
L 187.996014 95.046893 
L 188.236742 105.21247 
L 188.47747 101.564263 
L 188.718198 102.2103 
L 188.958927 107.796617 
L 189.199655 92.804766 
L 189.440383 112.698895 
L 189.681111 87.731478 
L 189.921839 113.914964 
L 190.162567 90.087612 
L 190.403295 111.102804 
L 190.644024 96.357967 
L 190.884752 106.504543 
L 191.12548 98.353081 
L 191.366208 104.68044 
L 191.606936 102.153296 
L 191.847664 95.483918 
L 192.088393 106.637551 
L 192.329121 98.33408 
L 192.569849 105.364479 
L 192.810577 97.878054 
L 193.292033 105.193469 
L 193.532761 98.220073 
L 194.014218 103.407367 
L 194.254946 97.954058 
L 194.495674 103.198356 
L 194.736402 105.04146 
L 194.97713 99.151126 
L 195.217859 103.673383 
L 195.699315 100.139182 
L 196.180771 103.502373 
L 196.421499 102.666325 
L 196.662228 99.56915 
L 196.902956 103.63538 
L 197.143684 95.540921 
L 197.384412 106.409538 
L 197.62514 98.847109 
L 197.865868 104.072405 
L 198.106596 95.69293 
L 198.347325 108.689667 
L 198.588053 94.362854 
L 198.828781 110.627777 
L 199.069509 91.854712 
L 199.310237 114.218981 
L 199.550965 90.372628 
L 199.791694 112.546886 
L 200.032422 93.450803 
L 200.27315 108.38565 
L 200.513878 91.721704 
L 200.754606 111.178808 
L 200.995334 97.422028 
L 201.236062 105.117465 
L 201.476791 99.284134 
L 201.717519 102.609322 
L 202.198975 97.859053 
L 202.439703 110.057745 
L 202.680431 89.042552 
L 202.92116 118.228208 
L 203.161888 87.788481 
L 203.402616 109.487712 
L 203.643344 98.999117 
L 203.884072 104.623436 
L 204.1248 98.220073 
L 204.365528 99.607152 
L 204.606257 107.207583 
L 204.846985 94.267849 
L 205.087713 111.539829 
L 205.328441 93.355797 
L 205.569169 107.359592 
L 205.809897 97.498032 
L 206.291354 106.352535 
L 206.532082 91.968718 
L 206.77281 113.591945 
L 207.013538 90.106613 
L 207.254266 113.610946 
L 207.494994 91.303681 
L 207.735723 110.057745 
L 207.976451 96.015948 
L 208.217179 103.44537 
L 208.457907 102.799333 
L 208.698635 96.737989 
L 208.939363 110.513771 
L 209.180092 91.28468 
L 209.42082 116.024083 
L 209.661548 86.87643 
L 209.902276 109.430709 
L 210.143004 98.657098 
L 210.383732 98.030062 
L 210.62446 114.009969 
L 210.865189 84.577299 
L 211.105917 119.064256 
L 211.346645 82.962207 
L 211.587373 124.137544 
L 211.828101 77.166879 
L 212.068829 123.757522 
L 212.309558 83.931262 
L 212.550286 114.580001 
L 212.791014 95.502919 
L 213.031742 98.239074 
L 213.27247 108.727669 
L 213.513198 93.868826 
L 213.753926 112.96491 
L 213.994655 85.869372 
L 214.235383 121.154374 
L 214.476111 79.504011 
L 214.716839 124.403559 
L 214.957567 80.777083 
L 215.198295 115.549056 
L 215.439024 99.018118 
L 215.679752 96.908999 
L 215.92048 107.625607 
L 216.161208 99.56915 
L 216.401936 105.003458 
L 216.642664 99.208129 
L 216.883393 108.309646 
L 217.124121 89.327569 
L 217.364849 115.26404 
L 217.605577 86.382401 
L 217.846305 117.468165 
L 218.087033 87.104442 
L 218.327761 114.389991 
L 218.56849 89.422574 
L 218.809218 110.950795 
L 219.049946 96.072951 
L 219.531402 110.874791 
L 219.77213 83.551241 
L 220.012859 121.895416 
L 220.253587 81.936149 
L 220.494315 115.416049 
L 220.735043 89.194561 
L 220.975771 114.713009 
L 221.216499 88.738535 
L 221.457227 114.522998 
L 221.697956 93.963832 
L 221.938684 103.80639 
L 222.179412 105.307475 
L 222.42014 98.315079 
L 222.901596 103.44537 
L 223.142325 97.213016 
L 223.383053 108.822675 
L 223.623781 91.854712 
L 223.864509 111.91985 
L 224.105237 92.006721 
L 224.345965 116.594116 
L 224.586693 88.814539 
L 224.827422 111.463825 
L 225.06815 93.906828 
L 225.308878 104.528431 
L 225.549606 98.33408 
L 226.031062 103.787389 
L 226.271791 95.69293 
L 226.512519 109.107691 
L 226.753247 93.279793 
L 226.993975 106.105521 
L 227.234703 105.611493 
L 227.475431 93.507806 
L 227.716159 106.656552 
L 227.956888 99.170127 
L 228.197616 105.953512 
L 228.438344 97.28902 
L 228.679072 106.44754 
L 228.9198 100.348194 
L 229.160528 100.80422 
L 229.401257 103.616379 
L 229.641985 96.357967 
L 229.882713 108.461654 
L 230.123441 94.362854 
L 230.364169 106.124522 
L 230.604897 103.331363 
L 230.845625 98.923113 
L 231.086354 101.735273 
L 231.327082 101.754274 
L 231.56781 103.654381 
L 231.808538 94.533864 
L 232.049266 111.55883 
L 232.289994 92.747763 
L 232.530723 104.053404 
L 232.771451 107.416595 
L 233.012179 91.607698 
L 233.252907 111.539829 
L 233.493635 95.749933 
L 233.734363 102.248302 
L 233.975092 102.001288 
L 234.21582 100.405197 
L 234.456548 100.975229 
L 234.697276 102.970343 
L 234.938004 101.146239 
L 235.178732 105.839505 
L 235.41946 105.91551 
L 235.660189 94.343853 
L 235.900917 107.796617 
L 236.141645 99.550149 
L 236.382373 97.840052 
L 236.623101 103.160353 
L 236.863829 104.984457 
L 237.104558 93.982833 
L 237.345286 107.074576 
L 237.586014 100.690213 
L 237.826742 102.115294 
L 238.06747 101.716272 
L 238.308198 101.716272 
L 238.548926 101.032233 
L 238.789655 102.704328 
L 239.030383 98.6951 
L 239.271111 106.846563 
L 239.511839 98.106067 
L 239.752567 103.939398 
L 239.993295 96.39597 
L 240.234024 110.798787 
L 240.474752 91.208675 
L 240.71548 111.178808 
L 240.956208 91.873713 
L 241.196936 108.651665 
L 241.437664 99.322136 
L 241.678392 97.042006 
L 241.919121 108.138636 
L 242.159849 97.232017 
L 242.400577 108.689667 
L 242.641305 95.312908 
L 242.882033 108.594662 
L 243.122761 92.082725 
L 243.36349 111.273814 
L 243.604218 95.027892 
L 243.844946 108.537659 
L 244.085674 97.061007 
L 244.326402 103.768388 
L 244.56713 98.068065 
L 245.048587 101.564263 
L 245.289315 104.775445 
L 245.530043 98.847109 
L 245.770771 107.815618 
L 246.011499 94.628869 
L 246.252227 108.860677 
L 246.492956 94.514863 
L 246.733684 108.613663 
L 246.974412 95.407914 
L 247.21514 105.136466 
L 247.696596 98.790105 
L 247.937324 104.908453 
L 248.178053 102.096293 
L 248.418781 102.001288 
L 248.659509 100.766218 
L 248.900237 101.678269 
L 249.140965 100.880224 
L 249.381693 102.647324 
L 249.622422 100.27219 
L 249.86315 96.604982 
L 250.103878 108.784673 
L 250.344606 95.369911 
L 250.585334 108.993684 
L 250.826062 93.260792 
L 251.06679 108.575661 
L 251.307519 95.388913 
L 251.548247 106.466541 
L 251.788975 98.106067 
L 252.029703 107.492599 
L 252.270431 93.830824 
L 252.511159 114.02897 
L 252.751888 88.871543 
L 252.992616 111.235812 
L 253.233344 95.806936 
L 253.474072 98.220073 
L 253.7148 106.162524 
L 253.955528 101.811277 
L 254.196257 99.778162 
L 254.436985 101.127238 
L 254.677713 104.604435 
L 255.159169 98.600095 
L 255.399897 103.958399 
L 255.640625 98.790105 
L 255.881354 101.222243 
L 256.122082 101.678269 
L 256.36281 106.466541 
L 256.603538 98.448086 
L 256.844266 104.452427 
L 257.084994 97.973059 
L 257.325723 105.535488 
L 257.566451 97.593038 
L 257.807179 106.390537 
L 258.047907 96.870997 
L 258.288635 107.834619 
L 258.529363 93.58381 
L 258.770091 108.518657 
L 259.01082 97.726045 
L 259.251548 106.409538 
L 259.492276 95.749933 
L 259.733004 107.055574 
L 259.973732 97.63104 
L 260.21446 104.585434 
L 260.455189 100.196185 
L 260.695917 103.217357 
L 260.936645 99.512146 
L 261.177373 103.388366 
L 261.418101 100.120181 
L 261.658829 99.189128 
L 261.899557 107.815618 
L 262.140286 93.830824 
L 262.381014 108.613663 
L 262.621742 95.293907 
L 262.86247 106.409538 
L 263.103198 97.916056 
L 263.343926 106.561546 
L 263.584655 96.433972 
L 263.825383 103.768388 
L 264.066111 107.074576 
L 264.306839 89.783594 
L 264.547567 114.618004 
L 264.788295 91.056667 
L 265.029023 103.920397 
L 265.269752 107.568604 
L 265.51048 89.669588 
L 265.751208 115.188036 
L 265.991936 86.021381 
L 266.232664 117.449164 
L 266.473392 87.142445 
L 266.714121 115.055028 
L 266.954849 88.890544 
L 267.195577 112.356875 
L 267.436305 91.81671 
L 267.677033 109.145693 
L 267.917761 98.714101 
L 268.158489 102.609322 
L 268.399218 98.771104 
L 268.639946 105.611493 
L 268.880674 95.654928 
L 269.121402 106.713555 
L 269.36213 94.001834 
L 269.602858 110.399764 
L 269.843587 94.28685 
L 270.084315 115.150034 
L 270.325043 91.892714 
L 270.565771 111.767842 
L 270.806499 99.39814 
L 271.047227 101.526261 
L 271.287955 100.27219 
L 271.528684 101.545262 
L 271.769412 97.669042 
L 272.01014 102.172297 
L 272.250868 102.799333 
L 272.491596 100.044177 
L 272.732324 100.861223 
L 272.973053 105.592491 
L 273.213781 95.578923 
L 273.454509 112.071859 
L 273.695237 87.655474 
L 273.935965 113.439937 
L 274.176693 89.612585 
L 274.417422 113.819958 
L 274.65815 89.061553 
L 274.898878 111.786843 
L 275.139606 92.120727 
L 275.380334 108.613663 
L 275.621062 100.158183 
L 275.86179 98.904112 
L 276.102519 104.813447 
L 276.343247 99.588151 
L 276.583975 101.69727 
L 276.824703 107.701611 
L 277.065431 95.236904 
L 277.306159 106.732556 
L 277.546888 97.840052 
L 277.787616 104.50943 
L 278.028344 99.018118 
L 278.269072 107.929624 
L 278.5098 93.58381 
L 278.750528 110.703781 
L 278.991256 96.357967 
L 279.231985 104.737443 
L 279.713441 97.935057 
L 279.954169 100.937227 
L 280.194897 100.196185 
L 280.435625 101.013232 
L 280.676354 103.008345 
L 280.917082 97.023005 
L 281.15781 109.012686 
L 281.398538 95.540921 
L 281.639266 107.112578 
L 281.879994 100.63321 
L 282.120722 107.758614 
L 282.361451 91.911715 
L 282.602179 113.097917 
L 282.842907 89.479577 
L 283.083635 114.02897 
L 283.324363 84.23528 
L 283.565091 121.116372 
L 283.80582 80.207051 
L 284.046548 120.812355 
L 284.287276 84.862315 
L 284.528004 116.955136 
L 284.768732 92.804766 
L 285.00946 109.848733 
L 285.250188 94.28685 
L 285.490917 108.74667 
L 285.731645 94.45786 
L 285.972373 103.046347 
L 286.213101 103.027346 
L 286.453829 94.11584 
L 286.694557 108.138636 
L 286.935286 98.220073 
L 287.416742 106.067518 
L 287.65747 98.239074 
L 287.898198 103.540375 
L 288.138926 100.4622 
L 288.379654 102.495316 
L 288.620383 95.958945 
L 288.861111 113.230925 
L 289.101839 92.120727 
L 289.342567 108.233641 
L 289.583295 101.830278 
L 289.824023 98.448086 
L 290.30548 106.390537 
L 290.546208 97.688043 
L 290.786936 102.761331 
L 291.027664 100.4622 
L 291.268392 102.153296 
L 291.509121 99.949171 
L 291.749849 102.666325 
L 291.990577 101.412254 
L 292.231305 97.745046 
L 292.472033 104.851449 
L 292.712761 103.616379 
L 292.953489 94.609868 
L 293.194218 112.014856 
L 293.434946 96.813993 
L 293.675674 98.885111 
L 293.916402 109.316703 
L 294.15713 93.887827 
L 294.397858 104.376422 
L 294.638587 103.540375 
L 294.879315 100.861223 
L 295.120043 100.766218 
L 295.360771 101.564263 
L 295.601499 101.260246 
L 295.842227 103.464371 
L 296.082955 99.379139 
L 296.323684 105.38348 
L 296.564412 96.015948 
L 296.80514 106.751557 
L 297.045868 95.578923 
L 297.286596 106.903566 
L 297.527324 97.916056 
L 297.768053 106.143523 
L 298.008781 95.046893 
L 298.249509 107.264586 
L 298.490237 96.623983 
L 298.730965 106.067518 
L 298.971693 95.711931 
L 299.212421 113.66795 
L 299.45315 87.731478 
L 299.693878 115.720066 
L 299.934606 90.182617 
L 300.175334 110.114748 
L 300.416062 92.823767 
L 300.65679 109.031687 
L 300.897519 92.386742 
L 301.138247 108.708668 
L 301.378975 94.81888 
L 301.619703 108.233641 
L 301.860431 95.236904 
L 302.101159 109.468711 
L 302.341887 96.205959 
L 302.582616 106.029516 
L 302.823344 98.809107 
L 303.064072 107.815618 
L 303.3048 93.716818 
L 303.545528 110.380763 
L 303.786256 94.761877 
L 304.026985 103.10335 
L 304.267713 100.215186 
L 304.508441 101.469258 
L 304.749169 99.246131 
L 304.989897 104.205413 
L 305.230625 95.69293 
L 305.471353 111.900849 
L 305.712082 91.28468 
L 305.95281 110.570774 
L 306.193538 97.897055 
L 306.434266 108.119635 
L 306.674994 93.450803 
L 306.915722 111.273814 
L 307.156451 89.631586 
L 307.397179 111.55883 
L 307.637907 94.438859 
L 307.878635 106.257529 
L 308.119363 98.467087 
L 308.360091 103.217357 
L 308.600819 98.752103 
L 308.841548 107.131579 
L 309.082276 100.253189 
L 309.323004 100.671212 
L 309.563732 102.077292 
L 309.80446 102.058291 
L 310.045188 101.773275 
L 310.285917 103.027346 
L 310.526645 98.467087 
L 310.767373 105.269473 
L 311.008101 95.236904 
L 311.248829 104.794446 
L 311.489557 99.436142 
L 311.730286 100.196185 
L 311.971014 109.354705 
L 312.211742 93.868826 
L 312.45247 107.454597 
L 312.693198 96.661985 
L 312.933926 106.504543 
L 313.174654 94.685873 
L 313.415383 110.532772 
L 313.656111 95.730932 
L 313.896839 106.922567 
L 314.137567 96.186958 
L 314.378295 105.801503 
L 314.619023 103.084349 
L 314.859752 95.806936 
L 315.10048 108.518657 
L 315.341208 98.410084 
L 315.581936 99.56915 
L 315.822664 101.754274 
L 316.063392 105.858507 
L 316.30412 93.564809 
L 316.544849 109.202696 
L 316.785577 99.094123 
L 317.026305 103.597378 
L 317.267033 102.172297 
L 317.507761 104.034403 
L 317.748489 92.823767 
L 317.989218 111.482826 
L 318.229946 92.690759 
L 318.470674 105.953512 
L 318.711402 99.911169 
L 318.95213 102.172297 
L 319.192858 99.626153 
L 319.433586 104.015402 
L 319.674315 99.740159 
L 319.915043 103.787389 
L 320.155771 99.664155 
L 320.396499 105.193469 
L 320.637227 98.562093 
L 320.877955 105.934511 
L 321.118684 94.628869 
L 321.359412 111.824845 
L 321.60014 85.375344 
L 321.840868 117.639175 
L 322.081596 92.329739 
L 322.322324 108.347648 
L 322.563052 90.828654 
L 322.803781 116.062086 
L 323.044509 84.387288 
L 323.285237 116.594116 
L 323.525965 92.367741 
L 323.766693 109.468711 
L 324.007421 93.982833 
L 324.24815 109.582718 
L 324.488878 92.329739 
L 324.729606 110.114748 
L 324.970334 92.614755 
L 325.211062 110.019743 
L 325.45179 92.595754 
L 325.692518 109.316703 
L 325.933247 93.355797 
L 326.173975 109.943738 
L 326.414703 94.894884 
L 326.655431 107.32159 
L 326.896159 97.118011 
L 327.136887 107.739613 
L 327.377616 96.433972 
L 327.618344 108.157637 
L 327.859072 95.065894 
L 328.0998 109.962739 
L 328.340528 96.205959 
L 328.581256 105.91551 
L 328.821985 96.072951 
L 329.062713 105.003458 
L 329.303441 97.878054 
L 329.544169 104.452427 
L 329.784897 97.422028 
L 330.025625 105.193469 
L 330.266353 97.080008 
L 330.507082 103.825391 
L 330.74781 99.740159 
L 330.988538 103.673383 
L 331.229266 102.40031 
L 331.469994 100.063178 
L 331.710722 105.91551 
L 331.951451 102.932341 
L 332.192179 97.517033 
L 332.432907 104.281417 
L 332.673635 103.464371 
L 332.914363 95.540921 
L 333.155091 108.252642 
L 333.395819 95.331909 
L 333.636548 104.908453 
L 333.877276 98.410084 
L 334.358732 105.060461 
L 334.59946 95.673929 
L 334.840188 106.865564 
L 335.080917 97.878054 
L 335.321645 108.043631 
L 335.562373 94.932887 
L 335.803101 105.630494 
L 336.043829 97.346024 
L 336.284557 105.117465 
L 336.525285 98.030062 
L 336.766014 103.027346 
L 337.006742 104.452427 
L 337.24747 97.080008 
L 337.488198 106.029516 
L 337.728926 102.74233 
L 337.969654 97.878054 
L 338.210383 106.333534 
L 338.451111 93.317795 
L 338.691839 111.406821 
L 338.932567 90.277622 
L 339.173295 108.936681 
L 339.414023 97.28902 
L 339.654751 103.521374 
L 339.89548 101.621266 
L 340.136208 101.203242 
L 340.376936 103.616379 
L 340.617664 99.360138 
L 340.858392 102.913339 
L 341.09912 103.63538 
L 341.339849 101.754274 
L 341.580577 98.619096 
L 341.821305 105.535488 
L 341.821305 105.535488 
" style="fill:none;stroke:#000000;stroke-linecap:square;stroke-width:1.5;"/>
   </g>
   <g id="patch_3">
    <path d="M 68.87 174.04 
L 68.87 29.76 
" style="fill:none;stroke:#000000;stroke-linecap:square;stroke-linejoin:miter;stroke-width:0.8;"/>
   </g>
   <g id="patch_4">
    <path d="M 341.719179 174.04 
L 341.719179 29.76 
" style="fill:none;stroke:#000000;stroke-linecap:square;stroke-linejoin:miter;stroke-width:0.8;"/>
   </g>
   <g id="patch_5">
    <path d="M 68.87 174.04 
L 341.719179 174.04 
" style="fill:none;stroke:#000000;stroke-linecap:square;stroke-linejoin:miter;stroke-width:0.8;"/>
   </g>
   <g id="patch_6">
    <path d="M 68.87 29.76 
L 341.719179 29.76 
" style="fill:none;stroke:#000000;stroke-linecap:square;stroke-linejoin:miter;stroke-width:0.8;"/>
   </g>
   <g id="text_15">
    <!-- "don't ask me" -->
    <defs>
     <path d="M 17.921875 72.90625 
L 17.921875 45.796875 
L 9.625 45.796875 
L 9.625 72.90625 
z
M 36.375 72.90625 
L 36.375 45.796875 
L 28.078125 45.796875 
L 28.078125 72.90625 
z
" id="DejaVuSans-34"/>
     <path d="M 30.609375 48.390625 
Q 23.390625 48.390625 19.1875 42.75 
Q 14.984375 37.109375 14.984375 27.296875 
Q 14.984375 17.484375 19.15625 11.84375 
Q 23.34375 6.203125 30.609375 6.203125 
Q 37.796875 6.203125 41.984375 11.859375 
Q 46.1875 17.53125 46.1875 27.296875 
Q 46.1875 37.015625 41.984375 42.703125 
Q 37.796875 48.390625 30.609375 48.390625 
z
M 30.609375 56 
Q 42.328125 56 49.015625 48.375 
Q 55.71875 40.765625 55.71875 27.296875 
Q 55.71875 13.875 49.015625 6.21875 
Q 42.328125 -1.421875 30.609375 -1.421875 
Q 18.84375 -1.421875 12.171875 6.21875 
Q 5.515625 13.875 5.515625 27.296875 
Q 5.515625 40.765625 12.171875 48.375 
Q 18.84375 56 30.609375 56 
z
" id="DejaVuSans-111"/>
     <path d="M 54.890625 33.015625 
L 54.890625 0 
L 45.90625 0 
L 45.90625 32.71875 
Q 45.90625 40.484375 42.875 44.328125 
Q 39.84375 48.1875 33.796875 48.1875 
Q 26.515625 48.1875 22.3125 43.546875 
Q 18.109375 38.921875 18.109375 30.90625 
L 18.109375 0 
L 9.078125 0 
L 9.078125 54.6875 
L 18.109375 54.6875 
L 18.109375 46.1875 
Q 21.34375 51.125 25.703125 53.5625 
Q 30.078125 56 35.796875 56 
Q 45.21875 56 50.046875 50.171875 
Q 54.890625 44.34375 54.890625 33.015625 
z
" id="DejaVuSans-110"/>
     <path d="M 17.921875 72.90625 
L 17.921875 45.796875 
L 9.625 45.796875 
L 9.625 72.90625 
z
" id="DejaVuSans-39"/>
     <path d="M 34.28125 27.484375 
Q 23.390625 27.484375 19.1875 25 
Q 14.984375 22.515625 14.984375 16.5 
Q 14.984375 11.71875 18.140625 8.90625 
Q 21.296875 6.109375 26.703125 6.109375 
Q 34.1875 6.109375 38.703125 11.40625 
Q 43.21875 16.703125 43.21875 25.484375 
L 43.21875 27.484375 
z
M 52.203125 31.203125 
L 52.203125 0 
L 43.21875 0 
L 43.21875 8.296875 
Q 40.140625 3.328125 35.546875 0.953125 
Q 30.953125 -1.421875 24.3125 -1.421875 
Q 15.921875 -1.421875 10.953125 3.296875 
Q 6 8.015625 6 15.921875 
Q 6 25.140625 12.171875 29.828125 
Q 18.359375 34.515625 30.609375 34.515625 
L 43.21875 34.515625 
L 43.21875 35.40625 
Q 43.21875 41.609375 39.140625 45 
Q 35.0625 48.390625 27.6875 48.390625 
Q 23 48.390625 18.546875 47.265625 
Q 14.109375 46.140625 10.015625 43.890625 
L 10.015625 52.203125 
Q 14.9375 54.109375 19.578125 55.046875 
Q 24.21875 56 28.609375 56 
Q 40.484375 56 46.34375 49.84375 
Q 52.203125 43.703125 52.203125 31.203125 
z
" id="DejaVuSans-97"/>
     <path d="M 9.078125 75.984375 
L 18.109375 75.984375 
L 18.109375 31.109375 
L 44.921875 54.6875 
L 56.390625 54.6875 
L 27.390625 29.109375 
L 57.625 0 
L 45.90625 0 
L 18.109375 26.703125 
L 18.109375 0 
L 9.078125 0 
z
" id="DejaVuSans-107"/>
    </defs>
    <g transform="translate(146.053339 23.76)scale(0.16 -0.16)">
     <use xlink:href="#DejaVuSans-34"/>
     <use x="45.996094" xlink:href="#DejaVuSans-100"/>
     <use x="109.472656" xlink:href="#DejaVuSans-111"/>
     <use x="170.654297" xlink:href="#DejaVuSans-110"/>
     <use x="234.033203" xlink:href="#DejaVuSans-39"/>
     <use x="261.523438" xlink:href="#DejaVuSans-116"/>
     <use x="300.732422" xlink:href="#DejaVuSans-32"/>
     <use x="332.519531" xlink:href="#DejaVuSans-97"/>
     <use x="393.798828" xlink:href="#DejaVuSans-115"/>
     <use x="445.898438" xlink:href="#DejaVuSans-107"/>
     <use x="503.808594" xlink:href="#DejaVuSans-32"/>
     <use x="535.595703" xlink:href="#DejaVuSans-109"/>
     <use x="633.007812" xlink:href="#DejaVuSans-101"/>
     <use x="694.53125" xlink:href="#DejaVuSans-34"/>
    </g>
   </g>
  </g>
 </g>
 <defs>
  <clipPath id="p14a7ef21b9">
   <rect height="144.28" width="272.849179" x="68.87" y="29.76"/>
  </clipPath>
 </defs>
</svg>
