<?xml version="1.0" encoding="UTF-8" standalone="no"?>
<!-- Created with Inkscape (http://www.inkscape.org/) -->

<svg
   xmlns:dc="http://purl.org/dc/elements/1.1/"
   xmlns:cc="http://creativecommons.org/ns#"
   xmlns:rdf="http://www.w3.org/1999/02/22-rdf-syntax-ns#"
   xmlns:svg="http://www.w3.org/2000/svg"
   xmlns="http://www.w3.org/2000/svg"
   xmlns:sodipodi="http://sodipodi.sourceforge.net/DTD/sodipodi-0.dtd"
   xmlns:inkscape="http://www.inkscape.org/namespaces/inkscape"
   width="74.37072mm"
   height="74.274925mm"
   viewBox="0 0 74.37072 74.274925"
   version="1.1"
   id="svg576"
   inkscape:version="0.92.3 (2405546, 2018-03-11)"
   sodipodi:docname="schema_appareil_vocal.svg"
   inkscape:export-filename="/data/enseignement/2019-2020/electif_image_son/slides/cours_2/figures/schema_appareil_vocal.png"
   inkscape:export-xdpi="300"
   inkscape:export-ydpi="300">
  <defs
     id="defs570" />
  <sodipodi:namedview
     id="base"
     pagecolor="#ffffff"
     bordercolor="#666666"
     borderopacity="1.0"
     inkscape:pageopacity="0.0"
     inkscape:pageshadow="2"
     inkscape:zoom="0.70000001"
     inkscape:cx="374.41415"
     inkscape:cy="-54.312611"
     inkscape:document-units="mm"
     inkscape:current-layer="layer1"
     showgrid="false"
     inkscape:window-width="1920"
     inkscape:window-height="1073"
     inkscape:window-x="1200"
     inkscape:window-y="35"
     inkscape:window-maximized="1"
     fit-margin-top="0"
     fit-margin-left="0"
     fit-margin-right="0"
     fit-margin-bottom="0" />
  <metadata
     id="metadata573">
    <rdf:RDF>
      <cc:Work
         rdf:about="">
        <dc:format>image/svg+xml</dc:format>
        <dc:type
           rdf:resource="http://purl.org/dc/dcmitype/StillImage" />
        <dc:title></dc:title>
      </cc:Work>
    </rdf:RDF>
  </metadata>
  <g
     inkscape:label="Calque 1"
     inkscape:groupmode="layer"
     id="layer1"
     transform="translate(-66.221346,-64.998263)">
    <path
       d="m 124.74425,65.703269 c 0.59831,0.208844 0.76024,0.75565 0.79446,1.238955 0.03,0.427567 0.0621,0.931334 0.0663,1.352198 0.0141,1.3208 0.26776,2.227086 0.34466,3.576461 0.0617,1.084791 1.04105,2.347383 1.68628,3.288241 2.10926,3.076222 3.10868,4.581878 4.40654,5.843411 1.28341,1.430867 2.6416,2.912533 3.67066,4.224866 0.51364,0.655462 0.65228,1.425575 0.46178,2.193573 -0.52387,2.115255 -2.80176,2.41935 -4.62139,2.919236 -0.41486,0.113947 -0.80574,0.468488 -0.99659,0.925336 -0.16828,0.403577 -0.0339,0.85231 0.0656,1.210027 0.26846,0.968023 1.11054,1.572331 1.70709,2.416529 1.00295,1.420636 -1.09749,2.777771 -2.40277,2.849034 -0.45402,0.02468 -0.88865,-0.358775 -1.08797,-0.8128 -0.41239,-0.939448 0.22719,-3.505907 -0.74859,-3.253671 -0.87736,0.226837 -0.42228,1.274939 -0.59866,1.949098 -0.16828,0.643818 0.6671,2.051402 -0.19297,2.288823 -0.78105,0.215545 -1.14441,-1.016707 -1.93746,-1.340205 -0.35842,-0.146402 -0.77117,-0.07584 -1.08902,-0.281516 -1.89089,-1.223079 -3.06564,-3.079396 -5.22394,-3.734504 -2.63842,-0.800807 -6.54261,-0.7366 -11.158,0.0019 -3.08681,0.49389 -4.69195,0.308681 -5.74146,0.370416 -1.04952,0.06174 -2.569989,0.34643 -2.89031,1.43863 -0.194381,0.663575 -0.225779,1.466495 -0.221192,2.081387 0.0024,0.352425 -0.149931,1.232958 -0.722489,1.275998 -0.499534,0.03739 -1.142648,-0.01376 -1.323623,-0.667456 -0.191911,-0.694267 -0.0441,-1.087967 -0.306211,-2.075744 0.386644,-1.616427 1.049867,-3.097741 1.559277,-3.854097 -1.69827,2.280004 -3.33022,4.023782 -1.775529,18.470385 1.342319,12.47281 -1.878541,15.40722 -1.878541,22.03168 0,1.23472 -5.309306,3.70416 -8.519584,3.0868 -3.210632,-0.61741 -3.457576,-1.9756 -3.210632,-4.81546 0.246945,-2.84021 1.940631,-18.82105 3.422298,-27.95835 1.481666,-9.137291 15.434376,-32.597366 23.336606,-35.066811 7.90222,-2.469444 12.47034,-2.097616 15.12534,-1.17228"
       style="fill:#e6e6e6;fill-opacity:1;fill-rule:nonzero;stroke:none;stroke-width:0.03527778"
       id="path14"
       inkscape:connector-curvature="0"
       inkscape:export-xdpi="300"
       inkscape:export-ydpi="300" />
    <path
       d="m 101.24925,135.40404 c 0.18521,-1.11125 0.52917,-2.655 0.91264,-3.58775 0.28716,-0.69885 0.42721,-1.50071 0.86431,-2.22109 0.66181,-1.09114 1.13171,-2.35585 1.15322,-3.63819 0.009,-0.51647 -0.27622,-1.05763 -0.68191,-1.47144 -0.41381,-0.42192 -0.87807,-0.55421 -1.38113,-0.2921 0.0942,-0.76659 0.0353,-1.61396 -0.0684,-2.04329 -0.10759,-0.44415 -0.98742,-2.48144 -1.23437,-3.16053 -0.76129,-2.54494 -3.449458,-4.75404 -1.358191,-7.03051 0.825851,1.08056 2.809171,3.63467 4.352571,6.65974 1.55857,3.05505 6.29461,3.7539 6.79097,6.35917 0.49389,2.59292 -0.17745,2.70863 -0.67133,3.6964 -0.49389,0.98778 0.55562,0.92605 -1.11125,4.75368 -0.49389,2.13008 -0.54293,1.59244 -1.17334,2.76402"
       style="fill:#cccccc;fill-opacity:1;fill-rule:nonzero;stroke:none;stroke-width:0.03527778"
       id="path16"
       inkscape:connector-curvature="0"
       inkscape:export-xdpi="300"
       inkscape:export-ydpi="300" />
    <path
       d="m 101.24925,135.40404 c 0.18521,-1.11125 0.52917,-2.655 0.91264,-3.58775 0.28716,-0.69885 0.42721,-1.50071 0.86431,-2.22109 0.66181,-1.09114 1.13171,-2.35585 1.15322,-3.63819 0.009,-0.51647 -0.27622,-1.05763 -0.68191,-1.47144 -0.41381,-0.42192 -0.87807,-0.55421 -1.38113,-0.2921 0.0942,-0.76659 0.0353,-1.61396 -0.0684,-2.04329 -0.10759,-0.44415 -0.98742,-2.48144 -1.23437,-3.16053 -0.76129,-2.54494 -3.449458,-4.75404 -1.358191,-7.03051 0.825851,1.08056 2.809171,3.63467 4.352571,6.65974 1.55857,3.05505 6.29461,3.7539 6.79097,6.35917 0.49389,2.59292 -0.17745,2.70863 -0.67133,3.6964 -0.49389,0.98778 0.55562,0.92605 -1.11125,4.75368 -0.49389,2.13008 -0.54293,1.59244 -1.17334,2.76402"
       style="fill:none;stroke:#000000;stroke-width:0.17638887;stroke-linecap:butt;stroke-linejoin:miter;stroke-miterlimit:4;stroke-dasharray:none;stroke-opacity:1"
       id="path18"
       inkscape:connector-curvature="0"
       inkscape:export-xdpi="300"
       inkscape:export-ydpi="300" />
    <path
       d="m 107.643,136.19215 c 0.63041,-1.17158 0.67945,-0.63394 1.17334,-2.76402 1.66687,-3.82763 0.61736,-3.7659 1.11125,-4.75368 0.49388,-0.98777 1.16522,-1.10348 0.67133,-3.6964 -0.49389,-2.59292 -5.30154,-3.40325 -6.84495,-6.42832 -1.5434,-3.02507 -3.06034,-4.9597 -4.048121,-6.19442 -0.383116,-0.49495 -0.590195,-1.13983 -0.36477,-1.69475 0.19967,-0.49212 0.690381,-0.36794 1.050921,-0.20038 1.42381,0.66323 2.16853,2.15689 3.52496,2.95981 0.43321,0.25612 1.05727,0.12136 0.8516,-0.3877 -0.73095,-1.8094 -1.89688,-3.37926 -2.58656,-5.23734 -2.670884,-7.966784 -3.590576,-11.319229 12.43118,-11.321698 3.02119,-2.64e-4 8.50688,-0.524933 9.31157,2.891013 -0.31362,1.629835 -1.80763,2.423935 -3.5246,3.594455 -0.34784,0.25365 -0.95638,1.00965 -1.03752,1.40194 -0.0656,0.31785 0.0522,0.52211 0.44132,0.61383 2.16218,-0.43921 3.13796,-1.53247 3.73063,-2.18405 0.71614,-0.78634 2.26483,-3.424763 2.82045,-3.733444 0.10125,-0.07514 0.31856,-0.07726 0.34784,0.109715 0.0981,0.624768 0.0963,1.256239 -0.0561,1.830209 -0.0515,0.19403 -0.0907,0.51753 -0.0818,0.62971 0.0522,0.67663 0.50589,1.46332 0.2787,2.22955 -0.031,0.71015 0.37041,0.49389 0.70626,0.12065 0.63711,-0.70767 0.0882,-1.62736 0.25576,-2.47191 0.30339,-1.72332 1.4926,-1.694039 2.24825,-1.846791 1.29646,0 1.61008,0.855841 1.88525,1.214971 1.14829,1.49718 -0.94686,3.12631 -1.00683,4.7124 -0.10019,2.63948 1.66017,5.22252 0.0952,7.76958 -0.26211,0.42615 -0.68756,0.65334 -1.11054,0.84314 -2.29235,1.0287 -6.6294,1.37901 -8.99478,2.21932 -4.37726,1.55505 -6.77016,5.854 -5.71182,9.029 0.54081,1.52188 0.63853,3.73838 0.47237,4.29542 -0.46073,1.54799 -0.82268,2.11455 -1.37196,2.80423 -0.80856,1.03681 -1.38182,2.40383 -1.8669,3.02119"
       style="fill:#e6e6e6;fill-opacity:1;fill-rule:nonzero;stroke:none;stroke-width:0.03527778"
       id="path20"
       inkscape:connector-curvature="0"
       inkscape:export-xdpi="300"
       inkscape:export-ydpi="300" />
    <path
       d="m 107.643,136.19215 c 0.63041,-1.17158 0.67945,-0.63394 1.17334,-2.76402 1.66687,-3.82763 0.61736,-3.7659 1.11125,-4.75368 0.49388,-0.98777 1.16522,-1.10348 0.67133,-3.6964 -0.49389,-2.59292 -5.30154,-3.40325 -6.84495,-6.42832 -1.5434,-3.02507 -3.06034,-4.9597 -4.048121,-6.19442 -0.383116,-0.49495 -0.590195,-1.13983 -0.36477,-1.69475 0.19967,-0.49212 0.690381,-0.36794 1.050921,-0.20038 1.42381,0.66323 2.16853,2.15689 3.52496,2.95981 0.43321,0.25612 1.05727,0.12136 0.8516,-0.3877 -0.73095,-1.8094 -1.89688,-3.37926 -2.58656,-5.23734 -2.670884,-7.966784 -3.590576,-11.319229 12.43118,-11.321698 3.02119,-2.64e-4 8.50688,-0.524933 9.31157,2.891013 -0.31362,1.629835 -1.80763,2.423935 -3.5246,3.594455 -0.34784,0.25365 -0.95638,1.00965 -1.03752,1.40194 -0.0656,0.31785 0.0522,0.52211 0.44132,0.61383 2.16218,-0.43921 3.13796,-1.53247 3.73063,-2.18405 0.71614,-0.78634 2.26483,-3.424763 2.82045,-3.733444 0.10125,-0.07514 0.31856,-0.07726 0.34784,0.109715 0.0981,0.624768 0.0963,1.256239 -0.0561,1.830209 -0.0515,0.19403 -0.0907,0.51753 -0.0818,0.62971 0.0522,0.67663 0.50589,1.46332 0.2787,2.22955 -0.031,0.71015 0.37041,0.49389 0.70626,0.12065 0.63711,-0.70767 0.0882,-1.62736 0.25576,-2.47191 0.30339,-1.72332 1.4926,-1.694039 2.24825,-1.846791 1.29646,0 1.61008,0.855841 1.88525,1.214971 1.14829,1.49718 -0.94686,3.12631 -1.00683,4.7124 -0.10019,2.63948 1.66017,5.22252 0.0952,7.76958 -0.26211,0.42615 -0.68756,0.65334 -1.11054,0.84314 -2.29235,1.0287 -6.6294,1.37901 -8.99478,2.21932 -4.37726,1.55505 -6.77016,5.854 -5.71182,9.029 0.54081,1.52188 0.63853,3.73838 0.47237,4.29542 -0.46073,1.54799 -0.82268,2.11455 -1.37196,2.80423 -0.80856,1.03681 -1.38182,2.40383 -1.8669,3.02119"
       style="fill:none;stroke:#000000;stroke-width:0.17638887;stroke-linecap:butt;stroke-linejoin:miter;stroke-miterlimit:4;stroke-dasharray:none;stroke-opacity:1"
       id="path22"
       inkscape:connector-curvature="0"
       inkscape:export-xdpi="300"
       inkscape:export-ydpi="300" />
    <path
       d="m 122.52175,65.702563 c 0.57644,-0.197202 0.71614,0.394053 0.77964,0.639234 0.45897,1.775178 -0.20814,3.601508 0.75459,5.257094 0.6089,1.047397 1.05058,2.133953 1.94381,2.9718 0.46284,0.433916 0.98213,0.855486 1.12783,1.40335 0.2607,0.976841 -1.21603,0.646994 -1.72579,0.390877 -4.15572,-2.085269 -8.80921,-1.244952 -13.2528,-0.420158 -2.38513,0.442736 -4.57553,1.672519 -5.49487,3.859389 -0.68298,1.625247 -0.6738,3.923594 -2.55305,4.601986 -1.35185,0.487891 -2.8314,0.379236 -4.181123,1.039636 -0.586316,0.287161 -1.154289,0.511528 -1.724731,0.87383 -2.803525,1.78047 -4.853869,3.639256 -7.207955,5.775678 -0.261409,0.168627 -0.734836,0.179565 -1.016353,-0.134408 -0.265289,-0.296685 -0.103364,-0.809625 0.0095,-1.175809 0.760942,-2.468033 2.022828,-4.424538 3.571875,-6.615288 0.483658,-0.684036 0.877358,-1.398059 1.154641,-2.18052 0.64911,-1.292577 0.848077,-3.447697 2.279298,-3.623733 0.807861,-0.09948 1.4097,2.123722 2.555875,1.028347 0.588083,-0.573264 0.799743,-1.393119 1.408283,-1.919111 1.07668,-0.931333 3.02684,-0.688975 4.5138,-1.247069 1.81504,-0.354542 3.49038,-0.724253 5.24051,-1.271764 1.15147,-0.360186 2.38689,-0.487891 3.52108,-0.917927 2.64442,-1.002948 4.23368,-3.465336 4.59175,-6.236406"
       style="fill:#cccccc;fill-opacity:1;fill-rule:nonzero;stroke:none;stroke-width:0.03527778"
       id="path24"
       inkscape:connector-curvature="0"
       inkscape:export-xdpi="300"
       inkscape:export-ydpi="300" />
    <path
       d="m 122.52175,65.702563 c 0.57644,-0.197202 0.71614,0.394053 0.77964,0.639234 0.45897,1.775178 -0.20814,3.601508 0.75459,5.257094 0.6089,1.047397 1.05058,2.133953 1.94381,2.9718 0.46284,0.433916 0.98213,0.855486 1.12783,1.40335 0.2607,0.976841 -1.21603,0.646994 -1.72579,0.390877 -4.15572,-2.085269 -8.80921,-1.244952 -13.2528,-0.420158 -2.38513,0.442736 -4.57553,1.672519 -5.49487,3.859389 -0.68298,1.625247 -0.6738,3.923594 -2.55305,4.601986 -1.35185,0.487891 -2.8314,0.379236 -4.181123,1.039636 -0.586316,0.287161 -1.154289,0.511528 -1.724731,0.87383 -2.803525,1.78047 -4.853869,3.639256 -7.207955,5.775678 -0.261409,0.168627 -0.734836,0.179565 -1.016353,-0.134408 -0.265289,-0.296685 -0.103364,-0.809625 0.0095,-1.175809 0.760942,-2.468033 2.022828,-4.424538 3.571875,-6.615288 0.483658,-0.684036 0.877358,-1.398059 1.154641,-2.18052 0.64911,-1.292577 0.848077,-3.447697 2.279298,-3.623733 0.807861,-0.09948 1.4097,2.123722 2.555875,1.028347 0.588083,-0.573264 0.799743,-1.393119 1.408283,-1.919111 1.07668,-0.931333 3.02684,-0.688975 4.5138,-1.247069 1.81504,-0.354542 3.49038,-0.724253 5.24051,-1.271764 1.15147,-0.360186 2.38689,-0.487891 3.52108,-0.917927 2.64442,-1.002948 4.23368,-3.465336 4.59175,-6.236406"
       style="fill:none;stroke:#000000;stroke-width:0.17638887;stroke-linecap:butt;stroke-linejoin:miter;stroke-miterlimit:4;stroke-dasharray:none;stroke-opacity:1"
       id="path26"
       inkscape:connector-curvature="0"
       inkscape:export-xdpi="300"
       inkscape:export-ydpi="300" />
    <path
       d="m 98.244291,91.127257 c 1.16558,-0.323497 1.727907,-0.61207 2.175579,-0.668161 0.49424,-0.06174 3.02543,0.30868 3.95147,0.246944 0.92604,-0.06174 6.48229,-1.481666 8.27263,-1.666875 0.49389,0.06174 2.16077,0.123472 5.55625,0.06174 3.39549,-0.06174 2.96334,-0.185208 6.79133,-0.679097 3.82764,-0.493889 5.37104,0.926042 6.17855,1.65735 0.71332,0.01799 2.32657,-0.698147 2.97638,-1.237897 0.75883,-0.629708 -1.49965,-3.444522 -3.29,-5.975703 -1.00824,-1.425575 -2.62925,-2.747433 -3.51896,-3.827638 -0.92886,-1.636537 -2.70686,-2.560109 -4.56741,-2.626078 -1.6122,-0.0575 -3.20499,-0.4445 -4.81612,-0.4191 -1.48167,0.02328 -2.8822,0.484011 -4.34552,0.854428 -1.00506,0.254352 -2.04188,0.244475 -3.0473,0.521405 -2.92487,0.805745 -2.95133,4.072467 -4.54942,6.298142 -2.13254,2.968977 -5.08247,3.736622 -7.767459,7.460544"
       style="fill:#cccccc;fill-opacity:1;fill-rule:nonzero;stroke:none;stroke-width:0.03527778"
       id="path28"
       inkscape:connector-curvature="0"
       inkscape:export-xdpi="300"
       inkscape:export-ydpi="300" />
    <path
       d="m 98.244291,91.127257 c 1.16558,-0.323497 1.727907,-0.61207 2.175579,-0.668161 0.49424,-0.06174 3.02543,0.30868 3.95147,0.246944 0.92604,-0.06174 6.48229,-1.481666 8.27263,-1.666875 0.49389,0.06174 2.16077,0.123472 5.55625,0.06174 3.39549,-0.06174 2.96334,-0.185208 6.79133,-0.679097 3.82764,-0.493889 5.37104,0.926042 6.17855,1.65735 0.71332,0.01799 2.32657,-0.698147 2.97638,-1.237897 0.75883,-0.629708 -1.49965,-3.444522 -3.29,-5.975703 -1.00824,-1.425575 -2.62925,-2.747433 -3.51896,-3.827638 -0.92886,-1.636537 -2.70686,-2.560109 -4.56741,-2.626078 -1.6122,-0.0575 -3.20499,-0.4445 -4.81612,-0.4191 -1.48167,0.02328 -2.8822,0.484011 -4.34552,0.854428 -1.00506,0.254352 -2.04188,0.244475 -3.0473,0.521405 -2.92487,0.805745 -2.95133,4.072467 -4.54942,6.298142 -2.13254,2.968977 -5.08247,3.736622 -7.767459,7.460544 z"
       style="fill:none;stroke:#000000;stroke-width:0.17638887;stroke-linecap:butt;stroke-linejoin:miter;stroke-miterlimit:4;stroke-dasharray:none;stroke-opacity:1"
       id="path30"
       inkscape:connector-curvature="0"
       inkscape:export-xdpi="300"
       inkscape:export-ydpi="300" />
    <path
       d="m 99.896704,130.76078 c -0.742246,1.71062 -0.69074,2.47297 -0.07338,2.66206 0.113597,0.0349 0.464966,-0.0378 0.559856,-0.20108 0.7112,-1.22731 2.11138,-2.66524 1.13912,-3.95323 -0.50024,-0.66287 -1.31374,0.78035 -1.625596,1.49225"
       style="fill:none;stroke:#000000;stroke-width:0.17638887;stroke-linecap:butt;stroke-linejoin:miter;stroke-miterlimit:4;stroke-dasharray:none;stroke-opacity:1"
       id="path32"
       inkscape:connector-curvature="0"
       inkscape:export-xdpi="300"
       inkscape:export-ydpi="300" />
    <path
       d="m 97.791679,135.21883 c 0.270227,-0.83008 0.248002,0.12065 0.362302,-0.62265 0.177093,-1.47214 0.942623,-2.60667 1.401585,-3.94617 0.486834,-1.47673 1.187454,-2.86879 1.569154,-4.3621 0.1718,-0.67204 0.37959,-1.77447 1.0534,-2.12548 0.44944,-0.2339 0.93839,-0.0649 1.31939,0.32314 0.40569,0.41381 0.69074,0.95497 0.68191,1.47144 -0.0215,1.28234 -0.49141,2.54705 -1.15322,3.63819 -0.4371,0.72038 -0.57715,1.52224 -0.86431,2.22109 -0.38347,0.93275 -0.72743,2.4765 -0.91264,3.58775"
       style="fill:none;stroke:#000000;stroke-width:0.17638887;stroke-linecap:butt;stroke-linejoin:miter;stroke-miterlimit:4;stroke-dasharray:none;stroke-opacity:1"
       id="path34"
       inkscape:connector-curvature="0"
       inkscape:export-xdpi="300"
       inkscape:export-ydpi="300" />
    <path
       d="m 104.12439,125.21723 c 2.40771,0.12347 4.75368,0.86431 6.11188,2.40771 -1.91382,0.80257 -5.24757,-1.04951 -6.11188,-2.40771"
       style="fill:#ffffff;fill-opacity:1;fill-rule:nonzero;stroke:none;stroke-width:0.03527778"
       id="path36"
       inkscape:connector-curvature="0"
       inkscape:export-xdpi="300"
       inkscape:export-ydpi="300" />
    <path
       d="m 104.12439,125.21723 c 2.40771,0.12347 4.75368,0.86431 6.11188,2.40771 -1.91382,0.80257 -5.24757,-1.04951 -6.11188,-2.40771 z"
       style="fill:none;stroke:#000000;stroke-width:0.17638887;stroke-linecap:butt;stroke-linejoin:miter;stroke-miterlimit:4;stroke-dasharray:none;stroke-opacity:1"
       id="path38"
       inkscape:connector-curvature="0"
       inkscape:export-xdpi="300"
       inkscape:export-ydpi="300" />
    <path
       d="m 104.26656,115.23468 c 1.16629,1.6129 2.23379,3.02436 3.76731,4.19523 0.762,0.58138 1.62878,1.01247 2.32904,1.65312 0.48437,0.44274 1.23473,0.895 1.10138,1.65276 -0.0808,0.46179 -0.65229,0.60608 -1.01565,0.4445 -1.9872,-0.88441 -3.46887,-2.43205 -5.04719,-3.93453 -0.61948,-0.58949 -0.94263,-1.38465 -1.51518,-2.06198 -1.25342,-1.48238 -2.59504,-2.79083 -3.31929,-4.57341 -0.27023,-0.6664 -0.0335,-1.08092 0.71226,-0.71932 1.38359,0.67063 2.23414,2.02847 2.98732,3.34363"
       style="fill:#cccccc;fill-opacity:1;fill-rule:nonzero;stroke:none;stroke-width:0.03527778"
       id="path40"
       inkscape:connector-curvature="0"
       inkscape:export-xdpi="300"
       inkscape:export-ydpi="300" />
    <path
       d="m 104.26656,115.23468 c 1.16629,1.6129 2.23379,3.02436 3.76731,4.19523 0.762,0.58138 1.62878,1.01247 2.32904,1.65312 0.48437,0.44274 1.23473,0.895 1.10138,1.65276 -0.0808,0.46179 -0.65229,0.60608 -1.01565,0.4445 -1.9872,-0.88441 -3.46887,-2.43205 -5.04719,-3.93453 -0.61948,-0.58949 -0.94263,-1.38465 -1.51518,-2.06198 -1.25342,-1.48238 -2.59504,-2.79083 -3.31929,-4.57341 -0.27023,-0.6664 -0.0335,-1.08092 0.71226,-0.71932 1.38359,0.67063 2.23414,2.02847 2.98732,3.34363 z"
       style="fill:none;stroke:#000000;stroke-width:0.17638887;stroke-linecap:butt;stroke-linejoin:miter;stroke-miterlimit:4;stroke-dasharray:none;stroke-opacity:1"
       id="path42"
       inkscape:connector-curvature="0"
       inkscape:export-xdpi="300"
       inkscape:export-ydpi="300" />
    <path
       d="m 125.87102,103.13052 c -0.30832,0.39088 -0.37041,0.67945 -1.17298,1.17334 -0.37042,-1.7907 -0.11466,-2.80988 0.49389,-3.76626 0.43215,-0.679094 1.04951,-1.728606 1.41993,-1.605135 0.37041,0.123473 0.18521,3.025065 -0.74084,4.198055"
       style="fill:#ffffff;fill-opacity:1;fill-rule:nonzero;stroke:none;stroke-width:0.03527778"
       id="path44"
       inkscape:connector-curvature="0"
       inkscape:export-xdpi="300"
       inkscape:export-ydpi="300" />
    <path
       d="m 125.87102,103.13052 c -0.30832,0.39088 -0.37041,0.67945 -1.17298,1.17334 -0.37042,-1.7907 -0.11466,-2.80988 0.49389,-3.76626 0.43215,-0.679094 1.04951,-1.728606 1.41993,-1.605135 0.37041,0.123473 0.18521,3.025065 -0.74084,4.198055 z"
       style="fill:none;stroke:#000000;stroke-width:0.17638887;stroke-linecap:butt;stroke-linejoin:miter;stroke-miterlimit:4;stroke-dasharray:none;stroke-opacity:1"
       id="path46"
       inkscape:connector-curvature="0"
       inkscape:export-xdpi="300"
       inkscape:export-ydpi="300" />
    <path
       d="m 124.74425,65.703269 c 0.60678,0.183092 0.76024,0.75565 0.79446,1.238955 0.03,0.427567 0.0621,0.931334 0.0663,1.352198 0.0141,1.3208 0.26776,2.227086 0.34466,3.576461 0.0617,1.084791 1.04105,2.347383 1.68628,3.288241 2.10926,3.076222 3.10868,4.581878 4.40654,5.843411 1.28341,1.430867 2.6416,2.912533 3.67066,4.224866 0.51364,0.655462 0.65228,1.425575 0.46178,2.193573 -0.52387,2.115255 -2.80176,2.41935 -4.62139,2.919236 -0.41486,0.113947 -0.80574,0.468488 -0.99659,0.925336 -0.16828,0.403577 -0.0339,0.85231 0.0656,1.210027 0.26846,0.968023 1.11054,1.572331 1.70709,2.416529 1.00295,1.420636 -1.09749,2.777771 -2.40277,2.849034 -0.45402,0.02468 -0.88865,-0.358775 -1.08797,-0.8128 -0.41239,-0.939448 0.22719,-3.505907 -0.74859,-3.253671 -0.87736,0.226837 -0.42228,1.274939 -0.59866,1.949098 -0.16828,0.643818 0.6671,2.051402 -0.19297,2.288823 -0.78105,0.215545 -1.14441,-1.016707 -1.93746,-1.340205 -0.35842,-0.146402 -0.77117,-0.07584 -1.08902,-0.281516 -1.89089,-1.223079 -3.06564,-3.079396 -5.22394,-3.734504 -2.63842,-0.800807 -6.54261,-0.7366 -11.158,0.0019 -3.08681,0.49389 -4.69195,0.308681 -5.74146,0.370416 -1.04952,0.06174 -2.569989,0.34643 -2.89031,1.43863 -0.194381,0.663575 -0.225779,1.466495 -0.221192,2.081387 0.0024,0.352425 -0.149931,1.232958 -0.722489,1.275998 -0.499534,0.03739 -1.142648,-0.01376 -1.323623,-0.667456 -0.191911,-0.694267 -0.0441,-1.087967 -0.306211,-2.075744 0.386644,-1.616427 1.049867,-3.097741 1.559277,-3.854097 -1.69827,2.280004 -3.33022,4.023782 -1.775529,18.470385 1.342319,12.47281 -1.755071,15.36382 -1.878541,22.03168"
       style="fill:none;stroke:#000000;stroke-width:0.17638887;stroke-linecap:butt;stroke-linejoin:miter;stroke-miterlimit:4;stroke-dasharray:none;stroke-opacity:1"
       id="path48"
       inkscape:connector-curvature="0"
       inkscape:export-xdpi="300"
       inkscape:export-ydpi="300" />
    <path
       d="m 101.03759,80.210902 c -0.70379,0.248002 -1.296816,3.086805 -0.80257,3.33375 0.49389,0.246944 3.14854,-0.308681 4.13632,-1.234723 0.98777,-0.926041 1.79034,-3.704166 1.17298,-4.321527 -0.61736,-0.617361 -2.40771,1.481666 -4.50673,2.2225"
       style="fill:#ffffff;fill-opacity:1;fill-rule:nonzero;stroke:none;stroke-width:0.03527778"
       id="path50"
       inkscape:connector-curvature="0"
       inkscape:export-xdpi="300"
       inkscape:export-ydpi="300" />
    <path
       d="m 101.03759,80.210902 c -0.70379,0.248002 -1.296816,3.086805 -0.80257,3.33375 0.49389,0.246944 3.14854,-0.308681 4.13632,-1.234723 0.98777,-0.926041 1.79034,-3.704166 1.17298,-4.321527 -0.61736,-0.617361 -2.40771,1.481666 -4.50673,2.2225 z"
       style="fill:none;stroke:#000000;stroke-width:0.17638887;stroke-linecap:butt;stroke-linejoin:miter;stroke-miterlimit:4;stroke-dasharray:none;stroke-opacity:1"
       id="path52"
       inkscape:connector-curvature="0"
       inkscape:export-xdpi="300"
       inkscape:export-ydpi="300" />
    <path
       d="m 121.28703,67.122494 c 0.49389,0.01552 0.41698,3.241322 0.80257,5.680075 0.22225,1.403703 -1.23472,1.234722 -1.60514,1.172986 -0.37041,-0.06174 -1.85208,0 -1.66687,-1.172986 0.18521,-1.173339 0.92604,-1.852436 1.17298,-3.457575 0.24695,-1.605139 0.43039,-2.249311 1.29646,-2.2225"
       style="fill:#ffffff;fill-opacity:1;fill-rule:nonzero;stroke:none;stroke-width:0.03527778"
       id="path54"
       inkscape:connector-curvature="0"
       inkscape:export-xdpi="300"
       inkscape:export-ydpi="300" />
    <path
       d="m 121.28703,67.122494 c 0.49389,0.01552 0.41698,3.241322 0.80257,5.680075 0.22225,1.403703 -1.23472,1.234722 -1.60514,1.172986 -0.37041,-0.06174 -1.85208,0 -1.66687,-1.172986 0.18521,-1.173339 0.92604,-1.852436 1.17298,-3.457575 0.24695,-1.605139 0.43039,-2.249311 1.29646,-2.2225 z"
       style="fill:none;stroke:#000000;stroke-width:0.17638887;stroke-linecap:butt;stroke-linejoin:miter;stroke-miterlimit:4;stroke-dasharray:none;stroke-opacity:1"
       id="path56"
       inkscape:connector-curvature="0"
       inkscape:export-xdpi="300"
       inkscape:export-ydpi="300" />
    <path
       d="m 92.455915,96.324379 c -0.726723,0.311502 0.555624,3.457221 1.419931,3.518959 0.864303,0.06173 1.481666,-0.926042 1.11125,-2.037292 -0.370417,-1.11125 -2.09903,-1.666875 -2.531181,-1.481667"
       style="fill:#ffffff;fill-opacity:1;fill-rule:nonzero;stroke:none;stroke-width:0.03527778"
       id="path58"
       inkscape:connector-curvature="0"
       inkscape:export-xdpi="300"
       inkscape:export-ydpi="300" />
    <path
       d="m 92.455915,96.324379 c -0.726723,0.311502 0.555624,3.457221 1.419931,3.518959 0.864303,0.06173 1.481666,-0.926042 1.11125,-2.037292 -0.370417,-1.11125 -2.09903,-1.666875 -2.531181,-1.481667 z"
       style="fill:none;stroke:#000000;stroke-width:0.17638887;stroke-linecap:butt;stroke-linejoin:miter;stroke-miterlimit:4;stroke-dasharray:none;stroke-opacity:1"
       id="path60"
       inkscape:connector-curvature="0"
       inkscape:export-xdpi="300"
       inkscape:export-ydpi="300" />
    <path
       d="m 90.356887,96.509588 c -1.72332,0.137583 -1.172986,3.704162 -1.234722,4.445002 -0.06174,0.74083 -0.679098,3.21028 -0.740834,4.13632 -0.06174,0.92604 1.666875,1.41993 2.716389,1.48166 1.049514,0.0617 2.345971,0.12348 2.469444,-2.09902 0.123473,-2.2225 -1.666874,-8.087435 -3.210277,-7.963962"
       style="fill:#ffffff;fill-opacity:1;fill-rule:nonzero;stroke:none;stroke-width:0.03527778"
       id="path62"
       inkscape:connector-curvature="0"
       inkscape:export-xdpi="300"
       inkscape:export-ydpi="300" />
    <path
       d="m 90.356887,96.509588 c -1.72332,0.137583 -1.172986,3.704162 -1.234722,4.445002 -0.06174,0.74083 -0.679098,3.21028 -0.740834,4.13632 -0.06174,0.92604 1.666875,1.41993 2.716389,1.48166 1.049514,0.0617 2.345971,0.12348 2.469444,-2.09902 0.123473,-2.2225 -1.666874,-8.087435 -3.210277,-7.963962 z"
       style="fill:none;stroke:#000000;stroke-width:0.17638887;stroke-linecap:butt;stroke-linejoin:miter;stroke-miterlimit:4;stroke-dasharray:none;stroke-opacity:1"
       id="path64"
       inkscape:connector-curvature="0"
       inkscape:export-xdpi="300"
       inkscape:export-ydpi="300" />
    <path
       d="m 90.850776,107.49862 c -1.606197,-0.0296 -2.531181,0.43215 -2.592917,1.48166 -0.101953,1.73002 0.246945,0.98778 0.06174,2.16112 -0.185208,1.17298 -0.432153,0.74083 -0.432153,1.85208 0,1.11125 0.679098,1.41993 2.901598,1.41993 2.222499,0 2.839859,-0.30868 3.025068,-1.5434 0.185208,-1.23472 -0.432152,-0.98778 -0.432152,-1.97556 0,-0.98813 0.802568,-3.3341 -2.53118,-3.39583"
       style="fill:#ffffff;fill-opacity:1;fill-rule:nonzero;stroke:none;stroke-width:0.03527778"
       id="path66"
       inkscape:connector-curvature="0"
       inkscape:export-xdpi="300"
       inkscape:export-ydpi="300" />
    <path
       d="m 90.850776,107.49862 c -1.606197,-0.0296 -2.531181,0.43215 -2.592917,1.48166 -0.101953,1.73002 0.246945,0.98778 0.06174,2.16112 -0.185208,1.17298 -0.432153,0.74083 -0.432153,1.85208 0,1.11125 0.679098,1.41993 2.901598,1.41993 2.222499,0 2.839859,-0.30868 3.025068,-1.5434 0.185208,-1.23472 -0.432152,-0.98778 -0.432152,-1.97556 0,-0.98813 0.802568,-3.3341 -2.53118,-3.39583 z"
       style="fill:none;stroke:#000000;stroke-width:0.17638887;stroke-linecap:butt;stroke-linejoin:miter;stroke-miterlimit:4;stroke-dasharray:none;stroke-opacity:1"
       id="path68"
       inkscape:connector-curvature="0"
       inkscape:export-xdpi="300"
       inkscape:export-ydpi="300" />
    <path
       d="m 102.11638,124.19347 c 0.0942,-0.76659 0.0198,-1.66793 -0.084,-2.09726 -0.1076,-0.44415 -1.01036,-2.54318 -1.2573,-3.22228 -0.66499,-2.2232 -3.265664,-4.6101 -1.474258,-6.73735"
       style="fill:none;stroke:#000000;stroke-width:0.17638887;stroke-linecap:butt;stroke-linejoin:miter;stroke-miterlimit:4;stroke-dasharray:none;stroke-opacity:1"
       id="path70"
       inkscape:connector-curvature="0"
       inkscape:export-xdpi="300"
       inkscape:export-ydpi="300" />
    <path
       d="m 103.49751,124.48557 c 0.40569,0.41381 0.69074,0.95497 0.68191,1.47144 -0.0215,1.28234 -0.49141,2.54705 -1.15322,3.63819 -0.4371,0.72038 -0.57715,1.52224 -0.86431,2.22109 -0.38347,0.93275 -0.72743,2.4765 -0.91264,3.58775"
       style="fill:none;stroke:#000000;stroke-width:0.17638887;stroke-linecap:butt;stroke-linejoin:miter;stroke-miterlimit:4;stroke-dasharray:none;stroke-opacity:1"
       id="path72"
       inkscape:connector-curvature="0"
       inkscape:export-xdpi="300"
       inkscape:export-ydpi="300" />
    <text
       y="80.045341"
       x="80.274673"
       style="font-variant:normal;font-weight:normal;font-size:3.52777767px;font-family:'Times New Roman';-inkscape-font-specification:Times-Roman;writing-mode:lr-tb;fill:#000000;fill-opacity:1;fill-rule:nonzero;stroke:none;stroke-width:0.35277775"
       id="text96"
       inkscape:export-xdpi="300"
       inkscape:export-ydpi="300">
      <tspan
         style="stroke-width:0.35277775"
         sodipodi:role="line"
         id="tspan94"
         x="80.274673"
         y="80.045341">Velum</tspan>
    </text>
    <text
       y="138.00003"
       x="80.262001"
       style="font-variant:normal;font-weight:normal;font-size:3.52777052px;font-family:'Times New Roman';-inkscape-font-specification:Times-Roman;writing-mode:lr-tb;fill:#000000;fill-opacity:1;fill-rule:nonzero;stroke:none;stroke-width:0.35277775"
       id="text100"
       inkscape:export-xdpi="300"
       inkscape:export-ydpi="300">
      <tspan
         style="stroke-width:0.35277775"
         sodipodi:role="line"
         id="tspan98"
         x="80.262001"
         y="138.00003">Oesophagus</tspan>
    </text>
    <path
       d="m 110.21475,127.14481 h -1.29858 l 1.6757,-0.48507 c -0.25153,0.24271 -0.37712,0.17321 -0.37712,0.48507"
       style="fill:#000000;fill-opacity:1;fill-rule:nonzero;stroke:none;stroke-width:0.03527778"
       id="path102"
       inkscape:connector-curvature="0"
       inkscape:export-xdpi="300"
       inkscape:export-ydpi="300" />
    <path
       d="m 110.21475,127.14481 h -1.29858 l 1.6757,0.48507 c -0.25153,-0.24236 -0.37712,-0.17321 -0.37712,-0.48507"
       style="fill:#000000;fill-opacity:1;fill-rule:nonzero;stroke:none;stroke-width:0.03527778"
       id="path104"
       inkscape:connector-curvature="0"
       inkscape:export-xdpi="300"
       inkscape:export-ydpi="300" />
    <path
       d="m 109.93041,127.14481 h 8.02569"
       style="fill:none;stroke:#000000;stroke-width:0.07055555;stroke-linecap:butt;stroke-linejoin:miter;stroke-miterlimit:4;stroke-dasharray:none;stroke-opacity:1"
       id="path106"
       inkscape:connector-curvature="0"
       inkscape:export-xdpi="300"
       inkscape:export-ydpi="300" />
    <g
       id="g108"
       transform="matrix(0.35277777,0,0,-0.35277777,-2.4063813,310.87394)"
       inkscape:export-xdpi="300"
       inkscape:export-ydpi="300">
      <text
         transform="matrix(1,0,0,-1,206.836,526.536)"
         style="font-variant:normal;font-weight:normal;font-size:9.99997997px;font-family:'Times New Roman';-inkscape-font-specification:Times-Roman;writing-mode:lr-tb;fill:#000000;fill-opacity:1;fill-rule:nonzero;stroke:none"
         id="text112">
        <tspan
           sodipodi:role="line"
           id="tspan110"
           x="0"
           y="0">Glottis</tspan>
      </text>
    </g>
    <path
       d="m 97.475237,104.47884 h 1.298575 l -1.675696,0.48507 c 0.25118,-0.24236 0.377121,-0.17322 0.377121,-0.48507"
       style="fill:#000000;fill-opacity:1;fill-rule:nonzero;stroke:none;stroke-width:0.03527778"
       id="path114"
       inkscape:connector-curvature="0"
       inkscape:export-xdpi="300"
       inkscape:export-ydpi="300" />
    <path
       d="m 97.475237,104.47884 h 1.298575 l -1.675696,-0.48507 c 0.25118,0.24271 0.377121,0.17321 0.377121,0.48507"
       style="fill:#000000;fill-opacity:1;fill-rule:nonzero;stroke:none;stroke-width:0.03527778"
       id="path116"
       inkscape:connector-curvature="0"
       inkscape:export-xdpi="300"
       inkscape:export-ydpi="300" />
    <path
       d="M 97.759574,104.47884 H 83.913048"
       style="fill:none;stroke:#000000;stroke-width:0.07055555;stroke-linecap:butt;stroke-linejoin:miter;stroke-miterlimit:4;stroke-dasharray:none;stroke-opacity:1"
       id="path118"
       inkscape:connector-curvature="0"
       inkscape:export-xdpi="300"
       inkscape:export-ydpi="300" />
    <path
       d="m 105.76551,124.58717 h 1.29858 l -1.67569,0.48507 c 0.25117,-0.24236 0.37711,-0.17321 0.37711,-0.48507"
       style="fill:#000000;fill-opacity:1;fill-rule:nonzero;stroke:none;stroke-width:0.03527778"
       id="path120"
       inkscape:connector-curvature="0"
       inkscape:export-xdpi="300"
       inkscape:export-ydpi="300" />
    <path
       d="m 105.76551,124.58717 h 1.29858 l -1.67569,-0.48507 c 0.25117,0.24271 0.37711,0.17322 0.37711,0.48507"
       style="fill:#000000;fill-opacity:1;fill-rule:nonzero;stroke:none;stroke-width:0.03527778"
       id="path122"
       inkscape:connector-curvature="0"
       inkscape:export-xdpi="300"
       inkscape:export-ydpi="300" />
    <path
       d="M 106.04985,124.58717 H 80.738048"
       style="fill:none;stroke:#000000;stroke-width:0.07055555;stroke-linecap:butt;stroke-linejoin:miter;stroke-miterlimit:4;stroke-dasharray:none;stroke-opacity:1"
       id="path124"
       inkscape:connector-curvature="0"
       inkscape:export-xdpi="300"
       inkscape:export-ydpi="300" />
    <path
       d="m 100.11754,91.667361 0.91793,0.918279 -1.527529,-0.841727 c 0.348898,0.006 0.389115,0.143933 0.609599,-0.07655"
       style="fill:#000000;fill-opacity:1;fill-rule:nonzero;stroke:none;stroke-width:0.03527778"
       id="path126"
       inkscape:connector-curvature="0"
       inkscape:export-xdpi="300"
       inkscape:export-ydpi="300" />
    <path
       d="m 100.11754,91.667361 0.91793,0.918279 -0.84173,-1.52788 c 0.006,0.34925 0.14429,0.389113 -0.0762,0.609601"
       style="fill:#000000;fill-opacity:1;fill-rule:nonzero;stroke:none;stroke-width:0.03527778"
       id="path128"
       inkscape:connector-curvature="0"
       inkscape:export-xdpi="300"
       inkscape:export-ydpi="300" />
    <path
       d="M 100.31862,91.868444 89.733881,81.283699"
       style="fill:none;stroke:#000000;stroke-width:0.07055555;stroke-linecap:butt;stroke-linejoin:miter;stroke-miterlimit:4;stroke-dasharray:none;stroke-opacity:1"
       id="path130"
       inkscape:connector-curvature="0"
       inkscape:export-xdpi="300"
       inkscape:export-ydpi="300" />
    <path
       d="m 96.593291,95.659394 h 1.298575 l -1.675693,0.485069 c 0.251176,-0.242359 0.377118,-0.173215 0.377118,-0.485069"
       style="fill:#000000;fill-opacity:1;fill-rule:nonzero;stroke:none;stroke-width:0.03527778"
       id="path132"
       inkscape:connector-curvature="0"
       inkscape:export-xdpi="300"
       inkscape:export-ydpi="300" />
    <path
       d="m 96.593291,95.659394 h 1.298575 l -1.675693,-0.485071 c 0.251176,0.242713 0.377118,0.173215 0.377118,0.485071"
       style="fill:#000000;fill-opacity:1;fill-rule:nonzero;stroke:none;stroke-width:0.03527778"
       id="path134"
       inkscape:connector-curvature="0"
       inkscape:export-xdpi="300"
       inkscape:export-ydpi="300" />
    <path
       d="M 96.877631,95.659394 H 83.031104"
       style="fill:none;stroke:#000000;stroke-width:0.07055555;stroke-linecap:butt;stroke-linejoin:miter;stroke-miterlimit:4;stroke-dasharray:none;stroke-opacity:1"
       id="path136"
       inkscape:connector-curvature="0"
       inkscape:export-xdpi="300"
       inkscape:export-ydpi="300" />
    <g
       id="g138"
       transform="matrix(0.35277777,0,0,-0.35277777,-2.4063813,310.87394)">
      <text
         transform="matrix(1,0,0,-1,213.371,608.317)"
         style="font-variant:normal;font-weight:normal;font-size:10px;font-family:'Times New Roman';-inkscape-font-specification:Times-Roman;writing-mode:lr-tb;fill:#000000;fill-opacity:1;fill-rule:nonzero;stroke:none"
         id="text142"
         inkscape:export-xdpi="300"
         inkscape:export-ydpi="300">
        <tspan
           sodipodi:role="line"
           id="tspan140"
           x="0"
           y="0">Uvula</tspan>
      </text>
      <text
         transform="matrix(1,0,0,-1,194.3351,539.0358)"
         style="font-variant:normal;font-weight:normal;font-size:9.99997997px;font-family:'Times New Roman';-inkscape-font-specification:Times-Roman;writing-mode:lr-tb;fill:#000000;fill-opacity:1;fill-rule:nonzero;stroke:none"
         id="text146"
         inkscape:export-xdpi="300"
         inkscape:export-ydpi="300">
        <tspan
           x="0 6.1099877 10.549979 13.879972 18.879963 23.879951"
           y="0"
           sodipodi:role="line"
           id="tspan144">Larynx</tspan>
      </text>
      <text
         y="-582.91174"
         x="207.51993"
         style="font-variant:normal;font-weight:normal;font-size:9.99997997px;font-family:'Times New Roman';-inkscape-font-specification:Times-Roman;writing-mode:lr-tb;fill:#000000;fill-opacity:1;fill-rule:nonzero;stroke:none;stroke-width:0.99999994"
         id="text146-6"
         transform="scale(1,-1)"
         inkscape:export-xdpi="300"
         inkscape:export-ydpi="300">
        <tspan
           style="stroke-width:0.99999994"
           sodipodi:role="line"
           id="tspan144-0"
           x="207.51993"
           y="-582.91174">Pharynx</tspan>
      </text>
    </g>
    <path
       d="m 102.06135,120.17745 h 1.29857 l -1.67569,0.48507 c 0.25118,-0.24236 0.37712,-0.17322 0.37712,-0.48507"
       style="fill:#000000;fill-opacity:1;fill-rule:nonzero;stroke:none;stroke-width:0.03527778"
       id="path148"
       inkscape:connector-curvature="0"
       inkscape:export-xdpi="300"
       inkscape:export-ydpi="300" />
    <path
       d="m 102.06135,120.17745 h 1.29857 l -1.67569,-0.48507 c 0.25118,0.24271 0.37712,0.17321 0.37712,0.48507"
       style="fill:#000000;fill-opacity:1;fill-rule:nonzero;stroke:none;stroke-width:0.03527778"
       id="path150"
       inkscape:connector-curvature="0"
       inkscape:export-xdpi="300"
       inkscape:export-ydpi="300" />
    <path
       d="M 102.34569,120.17745 H 77.033881"
       style="fill:none;stroke:#000000;stroke-width:0.07055555;stroke-linecap:butt;stroke-linejoin:miter;stroke-miterlimit:4;stroke-dasharray:none;stroke-opacity:1"
       id="path152"
       inkscape:connector-curvature="0"
       inkscape:export-xdpi="300"
       inkscape:export-ydpi="300" />
    <path
       d="m 125.71721,95.306615 c 0.70556,0 0.88195,-0.440971 1.41111,-1.763888 0.52917,-1.322916 1.49931,-1.763889 1.6757,-2.734029 0.17639,-0.970138 -1.05834,-1.587499 -3.43959,-1.146527 -2.38125,0.440972 -2.29305,0.352778 -6.61458,0.617361 -4.32153,0.264583 -10.58333,0.419453 -10.58333,1.146528 0,0.529167 2.13395,0.367594 4.14514,0.08819 3.175,-0.440972 8.46666,0.17639 10.14236,1.234723 1.67569,1.058334 2.55764,2.557638 3.26319,2.557638"
       style="fill:#ffffff;fill-opacity:1;fill-rule:nonzero;stroke:none;stroke-width:0.03527778"
       id="path154"
       inkscape:connector-curvature="0"
       inkscape:export-xdpi="300"
       inkscape:export-ydpi="300" />
    <path
       d="m 125.71721,95.306615 c 0.70556,0 0.88195,-0.440971 1.41111,-1.763888 0.52917,-1.322916 1.49931,-1.763889 1.6757,-2.734029 0.17639,-0.970138 -1.05834,-1.587499 -3.43959,-1.146527 -2.38125,0.440972 -2.29305,0.352778 -6.61458,0.617361 -4.32153,0.264583 -10.58333,0.419453 -10.58333,1.146528 0,0.529167 2.13395,0.367594 4.14514,0.08819 3.175,-0.440972 8.46666,0.17639 10.14236,1.234723 1.67569,1.058334 2.55764,2.557638 3.26319,2.557638 z"
       style="fill:none;stroke:#000000;stroke-width:0.07055555;stroke-linecap:butt;stroke-linejoin:miter;stroke-miterlimit:4;stroke-dasharray:none;stroke-opacity:1"
       id="path156"
       inkscape:connector-curvature="0"
       inkscape:export-xdpi="300"
       inkscape:export-ydpi="300" />
    <path
       d="m 125.60891,94.03979 c -0.71473,0.214489 -0.37042,1.667229 -0.15452,2.222854 0.21626,0.555625 1.00295,1.694744 1.84433,1.773412 0.84137,0.07867 0.28575,-1.74272 0.10054,-2.205566 -0.18521,-0.463196 -1.17299,-1.975909 -1.79035,-1.7907"
       style="fill:#ffffff;fill-opacity:1;fill-rule:nonzero;stroke:none;stroke-width:0.03527778"
       id="path158"
       inkscape:connector-curvature="0"
       inkscape:export-xdpi="300"
       inkscape:export-ydpi="300" />
    <path
       d="m 125.60891,94.03979 c -0.71473,0.214489 -0.37042,1.667229 -0.15452,2.222854 0.21626,0.555625 1.00295,1.694744 1.84433,1.773412 0.84137,0.07867 0.28575,-1.74272 0.10054,-2.205566 -0.18521,-0.463196 -1.17299,-1.975909 -1.79035,-1.7907 z"
       style="fill:none;stroke:#000000;stroke-width:0.17638887;stroke-linecap:butt;stroke-linejoin:miter;stroke-miterlimit:4;stroke-dasharray:none;stroke-opacity:1"
       id="path160"
       inkscape:connector-curvature="0"
       inkscape:export-xdpi="300"
       inkscape:export-ydpi="300" />
    <path
       d="m 119.09487,91.213335 -0.91828,0.91828 0.84173,-1.52788 c -0.006,0.34925 -0.14394,0.389113 0.0766,0.6096"
       style="fill:#000000;fill-opacity:1;fill-rule:nonzero;stroke:none;stroke-width:0.03527778"
       id="path162"
       inkscape:connector-curvature="0"
       inkscape:export-xdpi="300"
       inkscape:export-ydpi="300" />
    <path
       d="m 119.09487,91.213335 -0.91828,0.91828 1.52788,-0.841728 c -0.34925,0.0064 -0.38911,0.143934 -0.6096,-0.07655"
       style="fill:#000000;fill-opacity:1;fill-rule:nonzero;stroke:none;stroke-width:0.03527778"
       id="path164"
       inkscape:connector-curvature="0"
       inkscape:export-xdpi="300"
       inkscape:export-ydpi="300" />
    <path
       d="M 118.89379,91.414771 131.50665,78.801554"
       style="fill:none;stroke:#000000;stroke-width:0.07055555;stroke-linecap:butt;stroke-linejoin:miter;stroke-miterlimit:4;stroke-dasharray:none;stroke-opacity:1"
       id="path166"
       inkscape:connector-curvature="0"
       inkscape:export-xdpi="300"
       inkscape:export-ydpi="300" />
    <text
       y="139.22496"
       x="99.655945"
       style="font-variant:normal;font-weight:normal;font-size:3.52777052px;font-family:'Times New Roman';-inkscape-font-specification:Times-Roman;writing-mode:lr-tb;fill:#000000;fill-opacity:1;fill-rule:nonzero;stroke:none;stroke-width:0.35277775"
       id="text100-3"
       inkscape:export-xdpi="300"
       inkscape:export-ydpi="300">
      <tspan
         style="stroke-width:0.35277775"
         sodipodi:role="line"
         id="tspan98-6"
         x="99.655945"
         y="139.22496">Trachea</tspan>
    </text>
    <text
       y="128.08356"
       x="119.2822"
       style="font-variant:normal;font-weight:normal;font-size:3.52777052px;font-family:'Times New Roman';-inkscape-font-specification:Times-Roman;writing-mode:lr-tb;fill:#000000;fill-opacity:1;fill-rule:nonzero;stroke:none;stroke-width:0.35277775"
       id="text100-3-7"
       inkscape:export-xdpi="300"
       inkscape:export-ydpi="300">
      <tspan
         style="stroke-width:0.35277775"
         sodipodi:role="line"
         id="tspan98-6-5"
         x="119.2822"
         y="128.08356">Vocal</tspan>
      <tspan
         style="stroke-width:0.35277775"
         sodipodi:role="line"
         x="119.2822"
         y="132.50334"
         id="tspan772">folds</tspan>
    </text>
    <text
       y="102.02478"
       x="105.78509"
       style="font-variant:normal;font-weight:normal;font-size:3.52777052px;font-family:'Times New Roman';-inkscape-font-specification:Times-Roman;writing-mode:lr-tb;fill:#000000;fill-opacity:1;fill-rule:nonzero;stroke:none;stroke-width:0.35277775"
       id="text100-3-3"
       inkscape:export-xdpi="300"
       inkscape:export-ydpi="300">
      <tspan
         style="stroke-width:0.35277775"
         sodipodi:role="line"
         id="tspan98-6-56"
         x="105.78509"
         y="102.02478">Tongue</tspan>
    </text>
    <text
       y="95.482048"
       x="103.26751"
       style="font-variant:normal;font-weight:normal;font-size:3.52777052px;font-family:'Times New Roman';-inkscape-font-specification:Times-Roman;writing-mode:lr-tb;fill:#000000;fill-opacity:1;fill-rule:nonzero;stroke:none;stroke-width:0.35277775"
       id="text100-3-2"
       inkscape:export-xdpi="300"
       inkscape:export-ydpi="300">
      <tspan
         style="stroke-width:0.35277775"
         sodipodi:role="line"
         id="tspan98-6-9"
         x="103.26751"
         y="95.482048">Oral cavity</tspan>
    </text>
    <text
       y="77.967941"
       x="132.07751"
       style="font-variant:normal;font-weight:normal;font-size:3.52777767px;font-family:'Times New Roman';-inkscape-font-specification:Times-Roman;writing-mode:lr-tb;fill:#000000;fill-opacity:1;fill-rule:nonzero;stroke:none;stroke-width:0.35277775"
       id="text96-1"
       inkscape:export-xdpi="300"
       inkscape:export-ydpi="300">
      <tspan
         style="stroke-width:0.35277775"
         sodipodi:role="line"
         id="tspan94-2"
         x="132.07751"
         y="77.967941">Palate</tspan>
    </text>
    <text
       y="83.231987"
       x="108.47797"
       style="font-variant:normal;font-weight:normal;font-size:3.52777052px;font-family:'Times New Roman';-inkscape-font-specification:Times-Roman;writing-mode:lr-tb;fill:#000000;fill-opacity:1;fill-rule:nonzero;stroke:none;stroke-width:0.35277775"
       id="text100-3-2-7"
       inkscape:export-xdpi="300"
       inkscape:export-ydpi="300">
      <tspan
         style="stroke-width:0.35277775"
         sodipodi:role="line"
         id="tspan98-6-9-0"
         x="108.47797"
         y="83.231987">Nasal cavity</tspan>
    </text>
    <text
       y="99.674446"
       x="133.47844"
       style="font-variant:normal;font-weight:normal;font-size:3.52777052px;font-family:'Times New Roman';-inkscape-font-specification:Times-Roman;writing-mode:lr-tb;fill:#000000;fill-opacity:1;fill-rule:nonzero;stroke:none;stroke-width:0.35277775"
       id="text100-3-2-9"
       inkscape:export-xdpi="300"
       inkscape:export-ydpi="300">
      <tspan
         style="stroke-width:0.35277775"
         sodipodi:role="line"
         id="tspan98-6-9-3"
         x="133.47844"
         y="99.674446">Lips</tspan>
    </text>
    <text
       y="112.42926"
       x="124.31155"
       style="font-variant:normal;font-weight:normal;font-size:3.52777052px;font-family:'Times New Roman';-inkscape-font-specification:Times-Roman;writing-mode:lr-tb;fill:#000000;fill-opacity:1;fill-rule:nonzero;stroke:none;stroke-width:0.35277775"
       id="text100-3-2-9-6"
       inkscape:export-xdpi="300"
       inkscape:export-ydpi="300">
      <tspan
         style="stroke-width:0.35277775"
         sodipodi:role="line"
         id="tspan98-6-9-3-2"
         x="124.31155"
         y="112.42926">Jaw</tspan>
    </text>
  </g>
</svg>
