<?xml version="1.0" encoding="UTF-8" standalone="no"?>
<!-- Created with Inkscape (http://www.inkscape.org/) -->

<svg
   xmlns:dc="http://purl.org/dc/elements/1.1/"
   xmlns:cc="http://creativecommons.org/ns#"
   xmlns:rdf="http://www.w3.org/1999/02/22-rdf-syntax-ns#"
   xmlns:svg="http://www.w3.org/2000/svg"
   xmlns="http://www.w3.org/2000/svg"
   xmlns:sodipodi="http://sodipodi.sourceforge.net/DTD/sodipodi-0.dtd"
   xmlns:inkscape="http://www.inkscape.org/namespaces/inkscape"
   width="332.80069mm"
   height="121.40958mm"
   viewBox="0 0 332.80069 121.40958"
   version="1.1"
   id="svg68146"
   inkscape:version="0.92.3 (2405546, 2018-03-11)"
   sodipodi:docname="RIR_EE.svg">
  <defs
     id="defs68140">
    <marker
       inkscape:stockid="TriangleOutM"
       orient="auto"
       refY="0"
       refX="0"
       id="marker28604"
       style="overflow:visible"
       inkscape:isstock="true">
      <path
         inkscape:connector-curvature="0"
         id="path28602"
         d="M 5.77,0 -2.88,5 V -5 Z"
         style="fill:#000000;fill-opacity:1;fill-rule:evenodd;stroke:#000000;stroke-width:1.00000003pt;stroke-opacity:1"
         transform="scale(0.4)" />
    </marker>
    <marker
       inkscape:stockid="TriangleOutL"
       orient="auto"
       refY="0"
       refX="0"
       id="TriangleOutL-9-1"
       style="overflow:visible"
       inkscape:isstock="true">
      <path
         inkscape:connector-curvature="0"
         id="path1367-1-8"
         d="M 5.77,0 -2.88,5 V -5 Z"
         style="fill:#999999;fill-opacity:1;fill-rule:evenodd;stroke:#999999;stroke-width:1.00000003pt;stroke-opacity:1"
         transform="scale(0.8)" />
    </marker>
    <marker
       inkscape:stockid="TriangleOutL"
       orient="auto"
       refY="0"
       refX="0"
       id="TriangleOutL-9-7"
       style="overflow:visible"
       inkscape:isstock="true">
      <path
         inkscape:connector-curvature="0"
         id="path1367-1-0"
         d="M 5.77,0 -2.88,5 V -5 Z"
         style="fill:#3771c8;fill-opacity:1;fill-rule:evenodd;stroke:#3771c8;stroke-width:1.00000003pt;stroke-opacity:1"
         transform="scale(0.8)" />
    </marker>
    <marker
       inkscape:stockid="TriangleOutL"
       orient="auto"
       refY="0"
       refX="0"
       id="TriangleOutL-9"
       style="overflow:visible"
       inkscape:isstock="true">
      <path
         inkscape:connector-curvature="0"
         id="path1367-1"
         d="M 5.77,0 -2.88,5 V -5 Z"
         style="fill:#3771c8;fill-opacity:1;fill-rule:evenodd;stroke:#3771c8;stroke-width:1.00000003pt;stroke-opacity:1"
         transform="scale(0.8)" />
    </marker>
    <marker
       inkscape:stockid="TriangleOutL"
       orient="auto"
       refY="0"
       refX="0"
       id="TriangleOutL"
       style="overflow:visible"
       inkscape:isstock="true">
      <path
         inkscape:connector-curvature="0"
         id="path1367"
         d="M 5.77,0 -2.88,5 V -5 Z"
         style="fill:#ff0000;fill-opacity:1;fill-rule:evenodd;stroke:#ff0000;stroke-width:1.00000003pt;stroke-opacity:1"
         transform="scale(0.8)" />
    </marker>
    <marker
       inkscape:stockid="TriangleOutL"
       orient="auto"
       refY="0"
       refX="0"
       id="TriangleOutL-9-3"
       style="overflow:visible"
       inkscape:isstock="true">
      <path
         inkscape:connector-curvature="0"
         id="path1367-1-6"
         d="M 5.77,0 -2.88,5 V -5 Z"
         style="fill:#999999;fill-opacity:1;fill-rule:evenodd;stroke:#999999;stroke-width:1.00000003pt;stroke-opacity:1"
         transform="scale(0.8)" />
    </marker>
    <marker
       inkscape:stockid="TriangleOutM"
       orient="auto"
       refY="0"
       refX="0"
       id="marker28604-3"
       style="overflow:visible"
       inkscape:isstock="true">
      <path
         inkscape:connector-curvature="0"
         id="path28602-8"
         d="M 5.77,0 -2.88,5 V -5 Z"
         style="fill:#000000;fill-opacity:1;fill-rule:evenodd;stroke:#000000;stroke-width:1.00000003pt;stroke-opacity:1"
         transform="scale(0.4)" />
    </marker>
    <marker
       inkscape:stockid="TriangleOutL"
       orient="auto"
       refY="0"
       refX="0"
       id="TriangleOutL-9-1-2"
       style="overflow:visible"
       inkscape:isstock="true">
      <path
         inkscape:connector-curvature="0"
         id="path1367-1-8-5"
         d="M 5.77,0 -2.88,5 V -5 Z"
         style="fill:#999999;fill-opacity:1;fill-rule:evenodd;stroke:#999999;stroke-width:1.00000003pt;stroke-opacity:1"
         transform="scale(0.8)" />
    </marker>
    <marker
       inkscape:stockid="TriangleOutL"
       orient="auto"
       refY="0"
       refX="0"
       id="TriangleOutL-9-7-7"
       style="overflow:visible"
       inkscape:isstock="true">
      <path
         inkscape:connector-curvature="0"
         id="path1367-1-0-0"
         d="M 5.77,0 -2.88,5 V -5 Z"
         style="fill:#3771c8;fill-opacity:1;fill-rule:evenodd;stroke:#3771c8;stroke-width:1.00000003pt;stroke-opacity:1"
         transform="scale(0.8)" />
    </marker>
    <marker
       inkscape:stockid="TriangleOutL"
       orient="auto"
       refY="0"
       refX="0"
       id="TriangleOutL-9-8"
       style="overflow:visible"
       inkscape:isstock="true">
      <path
         inkscape:connector-curvature="0"
         id="path1367-1-84"
         d="M 5.77,0 -2.88,5 V -5 Z"
         style="fill:#3771c8;fill-opacity:1;fill-rule:evenodd;stroke:#3771c8;stroke-width:1.00000003pt;stroke-opacity:1"
         transform="scale(0.8)" />
    </marker>
    <marker
       inkscape:stockid="TriangleOutL"
       orient="auto"
       refY="0"
       refX="0"
       id="TriangleOutL-5"
       style="overflow:visible"
       inkscape:isstock="true">
      <path
         inkscape:connector-curvature="0"
         id="path1367-18"
         d="M 5.77,0 -2.88,5 V -5 Z"
         style="fill:#ff0000;fill-opacity:1;fill-rule:evenodd;stroke:#ff0000;stroke-width:1.00000003pt;stroke-opacity:1"
         transform="scale(0.8)" />
    </marker>
    <marker
       inkscape:stockid="TriangleOutL"
       orient="auto"
       refY="0"
       refX="0"
       id="TriangleOutL-9-3-8"
       style="overflow:visible"
       inkscape:isstock="true">
      <path
         inkscape:connector-curvature="0"
         id="path1367-1-6-0"
         d="M 5.77,0 -2.88,5 V -5 Z"
         style="fill:#999999;fill-opacity:1;fill-rule:evenodd;stroke:#999999;stroke-width:1.00000003pt;stroke-opacity:1"
         transform="scale(0.8)" />
    </marker>
    <marker
       inkscape:stockid="TriangleOutM"
       orient="auto"
       refY="0"
       refX="0"
       id="marker28604-1"
       style="overflow:visible"
       inkscape:isstock="true">
      <path
         inkscape:connector-curvature="0"
         id="path28602-3"
         d="M 5.77,0 -2.88,5 V -5 Z"
         style="fill:#000000;fill-opacity:1;fill-rule:evenodd;stroke:#000000;stroke-width:1.00000003pt;stroke-opacity:1"
         transform="scale(0.4)" />
    </marker>
    <marker
       inkscape:stockid="TriangleOutL"
       orient="auto"
       refY="0"
       refX="0"
       id="TriangleOutL-9-1-5"
       style="overflow:visible"
       inkscape:isstock="true">
      <path
         inkscape:connector-curvature="0"
         id="path1367-1-8-3"
         d="M 5.77,0 -2.88,5 V -5 Z"
         style="fill:#999999;fill-opacity:1;fill-rule:evenodd;stroke:#999999;stroke-width:1.00000003pt;stroke-opacity:1"
         transform="scale(0.8)" />
    </marker>
    <marker
       inkscape:stockid="TriangleOutL"
       orient="auto"
       refY="0"
       refX="0"
       id="TriangleOutL-9-7-2"
       style="overflow:visible"
       inkscape:isstock="true">
      <path
         inkscape:connector-curvature="0"
         id="path1367-1-0-9"
         d="M 5.77,0 -2.88,5 V -5 Z"
         style="fill:#3771c8;fill-opacity:1;fill-rule:evenodd;stroke:#3771c8;stroke-width:1.00000003pt;stroke-opacity:1"
         transform="scale(0.8)" />
    </marker>
    <marker
       inkscape:stockid="TriangleOutL"
       orient="auto"
       refY="0"
       refX="0"
       id="TriangleOutL-9-2"
       style="overflow:visible"
       inkscape:isstock="true">
      <path
         inkscape:connector-curvature="0"
         id="path1367-1-68"
         d="M 5.77,0 -2.88,5 V -5 Z"
         style="fill:#3771c8;fill-opacity:1;fill-rule:evenodd;stroke:#3771c8;stroke-width:1.00000003pt;stroke-opacity:1"
         transform="scale(0.8)" />
    </marker>
    <marker
       inkscape:stockid="TriangleOutL"
       orient="auto"
       refY="0"
       refX="0"
       id="TriangleOutL-3"
       style="overflow:visible"
       inkscape:isstock="true">
      <path
         inkscape:connector-curvature="0"
         id="path1367-2"
         d="M 5.77,0 -2.88,5 V -5 Z"
         style="fill:#ff0000;fill-opacity:1;fill-rule:evenodd;stroke:#ff0000;stroke-width:1.00000003pt;stroke-opacity:1"
         transform="scale(0.8)" />
    </marker>
    <marker
       inkscape:stockid="TriangleOutL"
       orient="auto"
       refY="0"
       refX="0"
       id="TriangleOutL-9-3-3"
       style="overflow:visible"
       inkscape:isstock="true">
      <path
         inkscape:connector-curvature="0"
         id="path1367-1-6-6"
         d="M 5.77,0 -2.88,5 V -5 Z"
         style="fill:#999999;fill-opacity:1;fill-rule:evenodd;stroke:#999999;stroke-width:1.00000003pt;stroke-opacity:1"
         transform="scale(0.8)" />
    </marker>
    <marker
       inkscape:isstock="true"
       style="overflow:visible"
       id="marker28402-0"
       refX="0"
       refY="0"
       orient="auto"
       inkscape:stockid="TriangleOutM"
       inkscape:collect="always">
      <path
         inkscape:connector-curvature="0"
         transform="scale(0.4)"
         style="fill:#000000;fill-opacity:1;fill-rule:evenodd;stroke:#000000;stroke-width:1.00000003pt;stroke-opacity:1"
         d="M 5.77,0 -2.88,5 V -5 Z"
         id="path28400-2" />
    </marker>
    <marker
       inkscape:stockid="TriangleOutM"
       orient="auto"
       refY="0"
       refX="0"
       id="marker28604-0"
       style="overflow:visible"
       inkscape:isstock="true">
      <path
         inkscape:connector-curvature="0"
         id="path28602-86"
         d="M 5.77,0 -2.88,5 V -5 Z"
         style="fill:#000000;fill-opacity:1;fill-rule:evenodd;stroke:#000000;stroke-width:1.00000003pt;stroke-opacity:1"
         transform="scale(0.4)" />
    </marker>
    <marker
       inkscape:stockid="TriangleOutL"
       orient="auto"
       refY="0"
       refX="0"
       id="TriangleOutL-9-1-8"
       style="overflow:visible"
       inkscape:isstock="true">
      <path
         inkscape:connector-curvature="0"
         id="path1367-1-8-8"
         d="M 5.77,0 -2.88,5 V -5 Z"
         style="fill:#999999;fill-opacity:1;fill-rule:evenodd;stroke:#999999;stroke-width:1.00000003pt;stroke-opacity:1"
         transform="scale(0.8)" />
    </marker>
    <marker
       inkscape:stockid="TriangleOutL"
       orient="auto"
       refY="0"
       refX="0"
       id="TriangleOutL-9-7-75"
       style="overflow:visible"
       inkscape:isstock="true">
      <path
         inkscape:connector-curvature="0"
         id="path1367-1-0-6"
         d="M 5.77,0 -2.88,5 V -5 Z"
         style="fill:#3771c8;fill-opacity:1;fill-rule:evenodd;stroke:#3771c8;stroke-width:1.00000003pt;stroke-opacity:1"
         transform="scale(0.8)" />
    </marker>
    <marker
       inkscape:stockid="TriangleOutL"
       orient="auto"
       refY="0"
       refX="0"
       id="TriangleOutL-9-14"
       style="overflow:visible"
       inkscape:isstock="true">
      <path
         inkscape:connector-curvature="0"
         id="path1367-1-3"
         d="M 5.77,0 -2.88,5 V -5 Z"
         style="fill:#3771c8;fill-opacity:1;fill-rule:evenodd;stroke:#3771c8;stroke-width:1.00000003pt;stroke-opacity:1"
         transform="scale(0.8)" />
    </marker>
    <marker
       inkscape:stockid="TriangleOutL"
       orient="auto"
       refY="0"
       refX="0"
       id="TriangleOutL-1"
       style="overflow:visible"
       inkscape:isstock="true">
      <path
         inkscape:connector-curvature="0"
         id="path1367-6"
         d="M 5.77,0 -2.88,5 V -5 Z"
         style="fill:#ff0000;fill-opacity:1;fill-rule:evenodd;stroke:#ff0000;stroke-width:1.00000003pt;stroke-opacity:1"
         transform="scale(0.8)" />
    </marker>
    <marker
       inkscape:stockid="TriangleOutL"
       orient="auto"
       refY="0"
       refX="0"
       id="TriangleOutL-9-3-4"
       style="overflow:visible"
       inkscape:isstock="true">
      <path
         inkscape:connector-curvature="0"
         id="path1367-1-6-7"
         d="M 5.77,0 -2.88,5 V -5 Z"
         style="fill:#999999;fill-opacity:1;fill-rule:evenodd;stroke:#999999;stroke-width:1.00000003pt;stroke-opacity:1"
         transform="scale(0.8)" />
    </marker>
    <marker
       inkscape:stockid="TriangleOutM"
       orient="auto"
       refY="0"
       refX="0"
       id="marker28604-9"
       style="overflow:visible"
       inkscape:isstock="true">
      <path
         inkscape:connector-curvature="0"
         id="path28602-6"
         d="M 5.77,0 -2.88,5 V -5 Z"
         style="fill:#000000;fill-opacity:1;fill-rule:evenodd;stroke:#000000;stroke-width:1.00000003pt;stroke-opacity:1"
         transform="scale(0.4)" />
    </marker>
    <marker
       inkscape:stockid="TriangleOutL"
       orient="auto"
       refY="0"
       refX="0"
       id="TriangleOutL-9-1-7"
       style="overflow:visible"
       inkscape:isstock="true">
      <path
         inkscape:connector-curvature="0"
         id="path1367-1-8-0"
         d="M 5.77,0 -2.88,5 V -5 Z"
         style="fill:#999999;fill-opacity:1;fill-rule:evenodd;stroke:#999999;stroke-width:1.00000003pt;stroke-opacity:1"
         transform="scale(0.8)" />
    </marker>
    <marker
       inkscape:stockid="TriangleOutL"
       orient="auto"
       refY="0"
       refX="0"
       id="TriangleOutL-9-7-1"
       style="overflow:visible"
       inkscape:isstock="true">
      <path
         inkscape:connector-curvature="0"
         id="path1367-1-0-05"
         d="M 5.77,0 -2.88,5 V -5 Z"
         style="fill:#3771c8;fill-opacity:1;fill-rule:evenodd;stroke:#3771c8;stroke-width:1.00000003pt;stroke-opacity:1"
         transform="scale(0.8)" />
    </marker>
    <marker
       inkscape:stockid="TriangleOutL"
       orient="auto"
       refY="0"
       refX="0"
       id="TriangleOutL-9-32"
       style="overflow:visible"
       inkscape:isstock="true">
      <path
         inkscape:connector-curvature="0"
         id="path1367-1-4"
         d="M 5.77,0 -2.88,5 V -5 Z"
         style="fill:#3771c8;fill-opacity:1;fill-rule:evenodd;stroke:#3771c8;stroke-width:1.00000003pt;stroke-opacity:1"
         transform="scale(0.8)" />
    </marker>
    <marker
       inkscape:stockid="TriangleOutL"
       orient="auto"
       refY="0"
       refX="0"
       id="TriangleOutL-2"
       style="overflow:visible"
       inkscape:isstock="true">
      <path
         inkscape:connector-curvature="0"
         id="path1367-63"
         d="M 5.77,0 -2.88,5 V -5 Z"
         style="fill:#ff0000;fill-opacity:1;fill-rule:evenodd;stroke:#ff0000;stroke-width:1.00000003pt;stroke-opacity:1"
         transform="scale(0.8)" />
    </marker>
    <marker
       inkscape:stockid="TriangleOutL"
       orient="auto"
       refY="0"
       refX="0"
       id="TriangleOutL-9-3-0"
       style="overflow:visible"
       inkscape:isstock="true">
      <path
         inkscape:connector-curvature="0"
         id="path1367-1-6-4"
         d="M 5.77,0 -2.88,5 V -5 Z"
         style="fill:#999999;fill-opacity:1;fill-rule:evenodd;stroke:#999999;stroke-width:1.00000003pt;stroke-opacity:1"
         transform="scale(0.8)" />
    </marker>
  </defs>
  <sodipodi:namedview
     id="base"
     pagecolor="#ffffff"
     bordercolor="#666666"
     borderopacity="1.0"
     inkscape:pageopacity="0.0"
     inkscape:pageshadow="2"
     inkscape:zoom="0.24748737"
     inkscape:cx="-1083.8731"
     inkscape:cy="521.35457"
     inkscape:document-units="mm"
     inkscape:current-layer="layer1"
     showgrid="false"
     inkscape:window-width="1920"
     inkscape:window-height="956"
     inkscape:window-x="0"
     inkscape:window-y="34"
     inkscape:window-maximized="1"
     fit-margin-top="0"
     fit-margin-left="0"
     fit-margin-right="0"
     fit-margin-bottom="0" />
  <metadata
     id="metadata68143">
    <rdf:RDF>
      <cc:Work
         rdf:about="">
        <dc:format>image/svg+xml</dc:format>
        <dc:type
           rdf:resource="http://purl.org/dc/dcmitype/StillImage" />
        <dc:title></dc:title>
      </cc:Work>
    </rdf:RDF>
  </metadata>
  <g
     inkscape:label="Calque 1"
     inkscape:groupmode="layer"
     id="layer1"
     transform="translate(110.7168,419.01859)">
    <rect
       style="fill:#f9f9f9;fill-opacity:1;stroke:#000000;stroke-width:0.18520834;stroke-linecap:square;stroke-miterlimit:4;stroke-dasharray:none;stroke-opacity:1"
       id="rect1171-6-0"
       width="239.89003"
       height="19.115276"
       x="-110.4668"
       y="-330.58783"
       rx="0.52916664"
       ry="0.52916664"
       inkscape:export-xdpi="300"
       inkscape:export-ydpi="300" />
    <rect
       style="opacity:1;fill:none;fill-opacity:1;stroke:#000000;stroke-width:0.49999994;stroke-miterlimit:4;stroke-dasharray:none;stroke-dashoffset:0;stroke-opacity:1"
       id="rect1596-3-8"
       width="239.89003"
       height="107.29613"
       x="-110.4668"
       y="-418.76859"
       inkscape:export-xdpi="300"
       inkscape:export-ydpi="300" />
    <path
       sodipodi:nodetypes="cccscccccccssccccsscccccccsccccccccccc"
       style="fill:#000000;stroke:#000000;stroke-width:0.03527779;stroke-opacity:1"
       inkscape:connector-curvature="0"
       d="m -51.531491,-391.69642 c -0.48251,0.0699 -1.14476,0.31735 -1.62512,0.60938 -0.99456,0.60097 -1.78817,1.63582 -2.16062,2.82087 -0.2095,0.66233 -0.31948,1.47486 -0.26872,1.95735 0.0127,0.1206 0.0339,0.31534 0.0466,0.43375 0.0465,0.46556 0.22643,1.09825 0.48875,1.72047 0.53545,1.27803 1.7839,3.1445 2.70235,4.05011 0.42552,0.41877 0.78074,0.68361 1.04155,0.77613 0.14557,0.0535 0.1695,0.10343 0.10547,0.23739 -0.0481,0.10095 -0.20736,0.36193 -0.34921,0.57555 -0.0995,0.1503 -0.0974,0.16938 0.008,0.16534 0.0487,-0.002 0.097,0.009 0.11046,0.0206 0.0148,0.0149 0.0536,0.0245 0.0872,0.0248 0.0336,2.7e-4 0.10609,0.0145 0.16111,0.0313 0.0528,0.0171 0.12286,0.0359 0.15503,0.0416 l 0.0575,0.0101 -0.0152,0.20793 c -0.009,0.1125 -0.0148,2.32983 -0.0148,4.9284 -5e-5,4.61666 -0.11996,9.15494 -0.0523,10.52265 0.004,0.0814 0.1279,0.0537 0.13271,0.0489 0.0191,-0.0213 0.0275,-6.8577 0.0381,-10.68785 0.006,-2.66211 0.0191,-4.86501 0.0275,-4.89877 0.0206,-0.0692 0.0452,-0.0722 0.28149,-0.0128 l 0.17938,0.0451 0.0897,-0.0847 c 0.0459,-0.0448 0.16305,-0.12272 0.25607,-0.17145 0.0929,-0.0506 0.17769,-0.0974 0.18819,-0.10789 0.0212,-0.0217 -0.0296,-0.0951 -0.2155,-0.31568 -0.0616,-0.0762 -0.1608,-0.2053 -0.21847,-0.29145 -0.13083,-0.20146 -0.12454,-0.2183 0.12278,-0.34491 0.50159,-0.25403 1.05807,-0.79993 1.73942,-1.70767 0.64122,-0.85277 1.12164,-1.61259 1.5258,-2.40822 0.60089,-1.18494 0.81042,-1.9489 0.81257,-2.95196 -10e-6,-0.62848 -0.055,-1.16384 -0.16936,-1.61875 -0.0592,-0.23715 -0.2455,-0.71947 -0.38089,-0.98613 -0.27506,-0.54176 -0.53748,-0.90781 -0.95225,-1.32255 -0.7235,-0.72608 -1.59497,-1.17932 -2.52665,-1.30984 -0.24794,-0.0335 -1.1871,-0.0403 -1.4072,-0.008 z"
       id="path1137-7-6"
       inkscape:export-xdpi="300"
       inkscape:export-ydpi="300" />
    <path
       inkscape:connector-curvature="0"
       id="path4997-5-0"
       style="fill:#000000;fill-opacity:1;fill-rule:nonzero;stroke:none;stroke-width:0.26458332"
       d="m -60.859481,-363.90535 c 0.0545,-0.0909 0.23746,-0.28713 0.35921,-0.46672 -0.0893,0.14892 -0.24838,0.35579 -0.24838,0.35579 0,0 0.19414,0.25009 0.33287,0.52727 0.13877,0.27766 -0.0276,0.77729 0.0276,0.97187 0.008,0.032 0.0311,0.0719 0.0609,0.11803 -0.23032,-0.23256 -0.12537,-0.26819 -0.22673,-0.64609 -0.11077,-0.41651 -0.38853,-0.7218 -0.3052,-0.86055 z m 1.24901,2.58168 c 0.052,0.11694 0.11756,0.30157 0.19078,0.52642 -0.15911,-0.24852 -0.33816,-0.71822 -0.53097,-1.08779 0.12695,0.17573 0.25473,0.36783 0.34019,0.56137 z m 1.74873,-7.98071 c 0.0203,-0.14534 0.30165,-0.27082 0.30165,-0.27082 0.32284,-0.0104 0.28148,0.14544 0.24931,0.4167 -0.031,0.2707 -0.24963,0.63487 -0.30173,0.6767 -0.0521,0.0416 -0.16688,-0.25977 -0.22874,-0.38532 -0.0619,-0.12561 -0.0417,-0.29161 -0.0207,-0.43719 z m 0.45744,16.68823 c -0.0237,-0.0221 -0.0491,-0.0429 -0.0845,-0.0515 0.0508,0.002 0.0734,0.0239 0.0845,0.0515 z m -6.73095,-14.28721 c 0,0 -0.13867,0.0553 -0.24985,0.13869 -0.1114,0.0836 -0.61047,0.58317 -0.74948,0.80508 -0.13865,0.22201 -0.13863,0.30559 -0.27753,0.38863 -0.13934,0.0838 -1.0551,0.97167 -1.60994,2.49824 -0.5553,1.52684 -0.49989,3.85858 -0.47205,4.63583 0.0276,0.77728 0.0832,1.13796 0.22201,1.86004 0.10503,0.54577 0.36888,1.71089 0.56291,2.33019 -0.0305,0.11855 0.003,0.27276 0.15892,0.39001 0.16635,0.19451 0.58251,0.69446 0.66632,0.97168 2.6e-4,0.0227 0.009,0.0369 0.0133,0.0563 0.0465,0.23054 -0.0875,0.29304 0.0414,0.49931 0.13899,0.222 0.15279,0.18043 0.2847,0.28453 0,0 0.0621,0.33329 0.16645,0.52036 0.10424,0.18716 -0.14567,0.25005 -0.2496,0.39539 -0.10434,0.14608 -0.20859,1.18682 -0.0834,2.64435 0.12472,1.4571 0.97843,3.31016 1.01974,3.56007 1.2e-4,0.20119 -0.27738,0.6457 -0.24961,0.89539 -0.0358,0.2703 0.14665,0.50953 0.19594,0.65001 0.003,0.0252 0.0113,0.0412 0.0123,0.0577 -1.1e-4,0.12502 -0.20829,0.68685 -0.33327,0.83233 -0.12515,0.14578 -0.0414,0.62468 -6e-5,1.27031 0.042,0.64549 -0.0209,2.64399 -0.0624,2.87309 -0.0414,0.22923 -0.47866,1.60298 -0.72867,3.51836 -0.24981,1.91511 -0.39535,4.51787 -0.49925,5.74613 -0.10448,1.22843 0.14534,2.85205 0.1453,3.28945 7e-5,0.43708 -0.12473,0.66605 -0.18727,0.95747 -0.0626,0.2914 -0.14557,1.43671 -0.20808,1.68639 -0.0627,0.24997 -0.1039,0.83303 -0.18727,0.833 -0.0839,2.6e-4 0.208,0.041 0.208,0.041 0,0 -0.0623,0.50007 -0.0414,0.58332 0.021,0.0832 0.0412,0.20804 -4e-5,0.2913 -0.0421,0.0838 -0.0209,0.79122 -0.0209,0.79122 0.47896,0.14554 8.05733,0.14553 8.3902,0.14553 0.33319,5e-5 1.56151,-0.31197 1.56151,-0.31197 0.18737,-0.0834 -0.0209,-0.54149 -0.18739,-0.66622 -0.16756,-0.12408 -1.31162,-0.10417 -1.39481,-0.14559 -0.0836,-0.0418 0.0833,-0.14613 -0.604,-0.125 -0.68683,0.0207 -1.16579,-0.52031 -1.1867,-0.58282 -0.0206,-0.0627 -0.24994,-0.18713 -0.2701,-0.35444 -0.0215,-0.16624 -0.29173,-1.58248 -0.29175,-1.9364 -3e-5,-0.35369 -0.27032,-2.0401 -0.37469,-2.16504 -0.10425,-0.12461 -0.12435,-0.16676 0.14575,-0.5411 0.27082,-0.37505 0.3126,-0.83297 0.4997,-2.06136 0.18748,-1.22828 0.87422,-4.68408 1.16614,-5.89169 0.29127,-1.20774 0.49942,-3.83085 0.70771,-4.60127 0.20822,-0.77003 0.47883,-2.74806 0.47885,-2.83093 5.3e-4,-0.0845 0.14578,-0.25018 0.14578,-0.25018 0,0 -0.12494,-1.35295 -0.10411,-1.87363 0.0206,-0.52046 0.22876,-1.47796 0.39555,-2.26922 0.16647,-0.79132 -0.0418,-1.76977 0.0626,-2.91455 0.1039,-1.1456 0.10397,-1.6241 0.0832,-1.79102 0.0248,-0.0386 0.046,-0.0827 0.0658,-0.13244 0.0564,-0.0378 0.12526,-0.0559 0.10093,-0.11735 -0.004,-0.0257 -0.0224,-0.0598 -0.0397,-0.10843 0.0136,-0.0864 0.0145,-0.17278 0.003,-0.2525 0.13305,-0.0156 0.35523,-0.0752 0.4646,-0.13267 0.18714,0.42762 0.36046,0.80116 0.43992,0.85384 0.16598,0.11153 0.0832,-0.24965 0.0552,-0.52729 -0.0275,-0.27787 -2e-5,-0.61084 -0.0552,-0.74952 -0.0272,-0.0684 -0.34349,-0.9083 -0.68023,-1.82702 0.18106,-0.20975 0.90633,-0.60949 1.12423,-0.75464 0.24996,-0.16651 1.02739,-0.36093 1.27702,-0.58291 0.24984,-0.22203 1.27711,-0.91573 1.41555,-1.33275 0.13899,-0.41607 0.38886,-0.49911 0.55559,-0.55448 0.16623,-0.0558 0.83236,-0.74987 0.91573,-0.83296 0.0838,-0.0831 -0.60714,-1.19746 -0.69375,-1.22154 -0.0327,-0.006 -0.0862,0.0163 -0.14638,0.0508 0.0274,-0.0364 0.0504,-0.0654 0.0593,-0.0755 0.0313,-0.0307 0.36412,-0.27073 0.45787,-0.35391 0.0934,-0.0838 0.29142,-0.1247 0.63538,-0.0938 0.34351,0.0312 0.75987,-0.20819 1.07209,-0.33304 -0.6443,-0.0762 0.43907,0.36135 0.56215,-0.91628 0.083,-0.80865 0.0595,-0.29741 -0.2283,-1.25247 -0.1037,-0.0213 -0.27548,-0.26308 -0.52765,-0.19792 -0.25008,0.0625 0.0384,-0.0491 -0.12932,-0.0482 -0.16638,-1.7e-4 -0.37463,0.1876 -0.58261,0.22927 -0.20854,0.0414 -0.10499,-0.14537 -0.0628,-0.31244 0.042,-0.16659 0.3119,-0.35435 0.3746,-0.52074 0.0626,-0.1665 0.0417,-0.39541 7e-5,-0.52006 -0.0411,-0.1253 -0.16681,-0.10332 -0.22895,0.0832 -0.0624,0.18739 -0.29139,0.45784 -0.39539,0.56223 -0.10393,0.10354 -0.29165,0.24961 -0.56239,0.45761 -0.27061,0.20835 -0.81204,1.08287 -0.85344,1.31166 -0.0415,0.22912 -0.54555,0.7697 -0.83246,0.93722 0,0 -0.94392,0.77056 -1.27686,1.27006 0,0 -1.13843,0.22212 -1.27695,0.55505 -0.13875,0.33318 0,0.47186 -0.13879,0.50003 -0.13949,0.0278 -0.33312,0.30476 -0.58291,0.22164 -0.2505,-0.0826 -0.10725,-0.11606 -0.41659,-0.0278 -0.30524,0.0833 -0.13897,-0.16612 -0.47153,-0.27801 -0.16628,-0.0559 -0.31946,-0.18756 -0.4513,-0.31618 -0.17614,-0.60523 -0.33234,-1.16086 -0.38124,-1.40489 -0.11122,-0.55542 -0.41637,-1.66549 -0.444,-1.86011 -0.0278,-0.19411 -0.58308,-0.88823 -0.55546,-1.1103 0.0279,-0.22225 0.028,-0.4163 0.028,-0.4163 0,0 -0.33321,-0.63882 -0.55571,-0.83281 0,0 0.003,0.002 -0.005,0.0206 -0.0146,-0.16466 -0.0676,-0.432 -0.19533,-0.70958 0.0119,-0.0119 0.0201,-0.0204 0.0335,-0.0332 0.13891,-0.13844 0.30523,-0.25003 0.58302,-0.44428 0.27732,-0.19399 0.74926,-0.1386 1.11023,-0.11091 0.36097,0.0279 0.44414,-0.0831 0.58293,-0.22207 0.13902,-0.13857 0.0276,-0.22211 -0.028,-0.44405 -0.0549,-0.22229 0.16802,-0.14764 0.19523,-0.33164 0.0195,-0.13263 -0.10663,-0.0932 -0.10484,-0.26141 5.3e-4,-0.1672 0.23586,-0.0175 0.20814,-0.15637 -0.0281,-0.13846 0.0345,-0.41646 0.0345,-0.41646 0,0 0.16111,4e-5 0.25149,0.005 0.12352,0.007 0.30561,-0.0582 0.24998,-0.30144 -0.0419,-0.18185 -0.0849,-0.28642 -0.0849,-0.28642 0,0 0.0553,-0.11026 0.1944,-0.38866 0.13867,-0.27717 0.19421,-0.7215 0.0277,-0.7772 -0.16615,-0.0558 -0.27765,-0.11083 -0.28112,-0.24567 -1.1e-4,-0.13862 -0.11055,-0.13907 -0.11085,-0.41636 4e-5,-0.27767 2e-5,-0.63851 -0.16679,-1.02714 -0.16652,-0.38859 -0.26343,-0.56913 -0.26343,-0.56913 0.13844,2.6e-4 0.52718,0.22231 0.52718,0.22231 -0.13856,-0.4723 -0.36078,-0.99916 -0.97123,-1.44348 -0.61068,-0.44428 -1.76306,-0.81882 -2.84544,-0.7354 -1.08244,0.0829 -1.2769,0.38819 -2.22064,0.99894 -0.94392,0.61103 -0.72189,1.69338 -0.58306,2.58146 0.13885,0.88811 0.38877,0.91638 0.41625,1.30479 0.028,0.38885 0.11121,0.66646 0.22239,0.74931 0.11528,0.0784 0.0276,0.27767 0.0276,0.27767 0,0 -0.36099,0.61083 -0.55519,0.99945"
       sodipodi:nodetypes="ccccccccccccccccccccccccccccccccccccccccccccccsccsccccsccccccscccccsccccccccccccccccccccccccccccsccccccccccccccccsccccccccccccscccccccssccccccccccc"
       inkscape:export-xdpi="300"
       inkscape:export-ydpi="300" />
    <rect
       style="opacity:1;fill:#ffffff;fill-opacity:1;stroke:#000000;stroke-width:0.49999997;stroke-miterlimit:4;stroke-dasharray:none;stroke-dashoffset:0;stroke-opacity:1"
       id="rect28380-8"
       width="140.86925"
       height="53.528687"
       x="80.964661"
       y="-351.3877"
       inkscape:export-xdpi="300"
       inkscape:export-ydpi="300" />
    <path
       style="fill:#000000;stroke:none;stroke-width:4.7903223"
       d="m 70.457418,-319.27588 c -0.0118,-0.0394 -0.25981,-1.06777 -0.55071,-2.28602 -0.29088,-1.21824 -0.55301,-2.27373 -0.58239,-2.34566 -0.052,-0.12589 -0.075,-0.13035 -0.69352,-0.12927 -0.63885,0.001 -0.71297,-0.0174 -0.74702,-0.18831 -0.0144,-0.0707 -0.69602,0.23382 -3.12907,1.39813 -1.71108,0.81889 -3.1659,1.50091 -3.23305,1.51573 -0.13682,0.0301 -0.12345,0.0664 -0.27591,-0.76145 -0.0525,-0.28652 -0.0803,-0.54537 -0.0615,-0.57544 0.0322,-0.0523 1.0696,-0.47619 4.90426,-2.00328 l 1.8176,-0.7238 0.007,-0.57591 c 0.005,-0.39335 0.0291,-0.59326 0.0766,-0.63056 0.0374,-0.0299 0.24357,-0.0581 0.45617,-0.0625 0.21253,-0.004 0.38934,-0.0121 0.39299,-0.0174 -5.3e-4,-5.3e-4 0.0585,-2.99054 0.12183,-6.63383 0.0635,-3.64342 0.1643,-9.40128 0.22427,-12.79554 l 0.10894,-6.17122 -0.24785,-0.16073 c -0.36985,-0.23831 -0.39222,-0.28467 -0.25726,-0.50565 0.15146,-0.24768 0.1469,-0.27915 -0.062,-0.4266 -0.10054,-0.0655 -0.31836,-0.22906 -0.49224,-0.35419 l -0.31412,-0.22983 -0.31878,0.0818 c -1.30966,0.33612 -2.60049,-0.8882 -2.45191,-2.32587 0.11844,-1.14786 1.09003,-1.93221 2.27279,-1.83475 0.58007,0.0478 1.00163,0.25308 1.38364,0.67382 0.37327,0.41109 0.53146,0.8324 0.54471,1.45011 0.005,0.24492 0.0343,0.46186 0.0646,0.48204 0.0272,0.0238 0.35095,0.30669 0.70293,0.64779 0.35642,0.33604 1.15233,1.08072 1.76749,1.65626 0.61626,0.57429 1.12752,1.06799 1.13797,1.09499 0.008,0.0296 -0.0345,0.13516 -0.0997,0.23998 -0.0647,0.10432 -0.11745,0.20211 -0.11757,0.21764 -0.003,0.0193 0.10929,0.0955 0.23702,0.18479 0.34586,0.23968 0.84477,0.76056 1.07639,1.11489 0.66531,1.02957 0.92583,2.15962 0.90328,3.91832 -0.0153,1.20808 -0.12982,2.22753 -0.4805,4.28171 -0.66738,3.91039 -0.75715,4.61279 -0.7713,6.0379 -0.0106,1.05375 0.0383,1.53569 0.33394,3.29902 0.3747,2.23431 1.01074,4.26849 1.79175,5.73072 0.99315,1.8592 2.32023,3.2937 4.2942,4.64179 0.50216,0.34276 0.62655,0.48498 0.49626,0.56549 -0.0276,0.0161 -0.26678,-0.11472 -0.53434,-0.29045 -2.41978,-1.59916 -4.00685,-3.50148 -5.04598,-6.03067 -0.63119,-1.54154 -1.04317,-3.16879 -1.42183,-5.61635 -0.15304,-0.98965 -0.1621,-1.141 -0.14522,-2.4147 0.0205,-1.54961 0.066,-1.92224 0.63782,-5.23049 0.49034,-2.83697 0.5634,-3.46305 0.58101,-4.97628 0.013,-1.09995 -7.9e-4,-1.35264 -0.0998,-1.84934 -0.12824,-0.6438 -0.33854,-1.23531 -0.60775,-1.71007 -0.21462,-0.37745 -0.78671,-1.01077 -1.14611,-1.26719 l -0.25769,-0.18275 -0.17448,0.25326 c -0.0961,0.13945 -0.21382,0.25238 -0.26053,0.25222 -0.047,-7.9e-4 -0.31806,-0.17069 -0.60148,-0.37815 l -0.51562,-0.37686 -0.0979,0.17157 c -0.10049,0.17604 -0.27225,0.22434 -0.38335,0.10782 -0.094,-0.10451 -0.15166,2.20799 -0.32917,13.80687 l -0.16569,10.83128 0.65598,0.002 c 0.36072,0.001 0.68982,0.004 0.73122,0.006 0.0597,0.003 0.0694,0.11425 0.0489,0.52463 l -0.0264,0.52055 2.4336,0.6836 c 1.33854,0.37592 2.45732,0.70926 2.48619,0.74075 0.0534,0.069 -0.29332,1.15008 -0.39177,1.21083 -0.0322,0.0188 -1.09113,-0.32838 -2.35434,-0.77319 -1.26333,-0.44469 -2.29989,-0.80894 -2.30361,-0.80929 -0.003,-0.002 -0.0244,0.12387 -0.0458,0.27609 -0.0445,0.31435 -0.0864,0.33714 -0.57586,0.31247 -0.15973,-0.008 -0.29,0.005 -0.29029,0.0296 -2.6e-4,0.0489 0.41068,1.18329 1.05936,2.92176 0.23348,0.6254 0.41382,1.1628 0.40094,1.194 -0.0263,0.0642 -1.28686,0.63911 -1.39516,0.63606 -0.0392,-8e-4 -0.0802,-0.0344 -0.0887,-0.0775 z m 0.76113,-0.46693 c 0.23826,-0.11105 0.4332,-0.22288 0.43349,-0.24854 8e-4,-0.0463 -1.17594,-3.237 -1.51771,-4.11611 l -0.17696,-0.45513 -0.25661,-0.0209 c -0.14113,-0.0116 -0.25704,-0.0124 -0.25776,-0.002 -0.003,0.0193 1.03046,4.30404 1.16094,4.8296 0.0291,0.11701 0.0813,0.214 0.11708,0.21401 0.0358,4e-5 0.25929,-0.09 0.49732,-0.20102 z m -7.12405,-3.05612 c 1.34278,-0.64117 2.74761,-1.31102 3.1218,-1.4885 l 0.6805,-0.32291 0.003,-0.2292 c 0.002,-0.12607 -0.0172,-0.22956 -0.0425,-0.22931 -0.0252,2.7e-4 -0.60522,0.22404 -1.2901,0.49865 -0.68489,0.27461 -2.07944,0.83234 -3.0989,1.2393 -1.01946,0.40695 -1.89645,0.7628 -1.94885,0.79074 -0.0888,0.0475 -0.0888,0.0811 -0.0176,0.4786 0.0423,0.23582 0.0942,0.428 0.11447,0.42824 0.0225,-0.003 1.13526,-0.52404 2.47805,-1.16521 z m 11.96622,-0.84416 c 0.0688,-0.2037 0.11375,-0.38229 0.0997,-0.39704 -0.021,-0.0183 -3.64352,-1.04967 -4.56799,-1.29743 -0.1501,-0.0396 -0.15193,-0.0367 -0.15427,0.23449 l -0.003,0.27512 2.18569,0.77103 c 1.20203,0.42419 2.21465,0.774 2.25012,0.77752 0.035,0.004 0.12019,-0.16061 0.18955,-0.36386 z m -6.84412,-0.80074 c -0.10161,-0.3808 -0.0981,-0.38378 0.44468,-0.37728 l 0.49138,0.006 0.0956,0.28462 0.0956,0.28461 0.37566,0.005 c 0.26302,0.003 0.37639,-0.0167 0.37801,-0.0662 0.001,-0.039 0.0544,-0.52883 0.11811,-1.08872 0.0636,-0.55989 0.11051,-1.02387 0.10409,-1.03104 -0.0147,-0.0129 -3.09191,0.0631 -3.1069,0.0786 -0.0129,0.0133 -0.0548,1.59779 -0.0491,1.8642 l 0.005,0.21209 0.54847,0.007 0.54836,0.007 -0.0495,-0.18398 z m 0.71075,-6.57273 c 0.0481,-2.39879 0.14675,-8.00483 0.21907,-12.4578 l 0.13154,-8.09633 -0.34861,-0.23761 c -0.19116,-0.13131 -0.35632,-0.23095 -0.36651,-0.22198 -0.0134,0.0128 -0.42512,21.5536 -0.47234,24.75704 l -0.009,0.64072 0.37933,-0.0112 0.37933,-0.0112 0.0876,-4.36146 z m 2.51829,-20.49187 c 0.13993,-0.21218 0.25462,-0.41088 0.25512,-0.44172 2.7e-4,-0.0309 -0.17702,-0.22172 -0.39488,-0.42328 -0.21234,-0.2079 -0.98103,-0.91538 -1.69664,-1.58542 -0.71563,-0.67005 -1.32057,-1.21879 -1.34432,-1.21944 -0.0249,5.3e-4 -0.0912,0.10351 -0.14849,0.22994 -0.0953,0.20984 -0.7084,0.83629 -0.81816,0.83443 -0.1173,-0.002 -0.0188,0.11765 0.29183,0.34886 0.18557,0.13982 0.36963,0.27385 0.40829,0.2987 0.0544,0.0252 0.11422,-0.0409 0.21459,-0.23786 0.0898,-0.17641 0.18045,-0.28267 0.23973,-0.28202 0.099,0.002 2.05025,1.56623 2.08315,1.67071 0.01,0.033 -0.0496,0.16219 -0.1339,0.28917 -0.12137,0.18326 -0.13731,0.23971 -0.0779,0.27616 0.0358,0.0313 0.24616,0.17714 0.45664,0.33649 0.20938,0.16063 0.38746,0.29168 0.39525,0.29178 0.005,0.004 0.12862,-0.17335 0.26843,-0.38541 z m -1.40287,-0.42006 0.22371,-0.32909 -0.81538,-0.66563 c -0.44895,-0.36551 -0.85107,-0.68116 -0.89631,-0.69836 -0.10442,-0.0421 -0.58498,0.79892 -0.50481,0.88328 0.12634,0.13275 1.68892,1.18546 1.72686,1.16343 0.023,-0.0134 0.14204,-0.1728 0.26551,-0.35333 z m -3.06431,-2.31343 c 0.43496,-0.20212 0.74561,-0.4959 0.94599,-0.89453 0.46155,-0.91862 0.0186,-2.10038 -0.93439,-2.49351 -0.39877,-0.16528 -1.02649,-0.187 -1.40267,-0.0499 -0.38619,0.14085 -0.79109,0.47961 -0.98048,0.82038 -0.15577,0.28032 -0.16932,0.34712 -0.17558,0.86981 -0.006,0.48633 0.0117,0.60629 0.12486,0.84953 0.17176,0.36904 0.53322,0.74411 0.89162,0.92437 0.39288,0.19812 1.07308,0.18639 1.53105,-0.0265 z"
       id="path3345-6-2-7"
       inkscape:connector-curvature="0"
       inkscape:export-xdpi="300"
       inkscape:export-ydpi="300" />
    <path
       style="fill:#ff0000;fill-opacity:1;stroke:#ff0000;stroke-width:0.40000001;stroke-linecap:butt;stroke-linejoin:miter;stroke-miterlimit:4;stroke-dasharray:none;stroke-opacity:1;marker-end:url(#TriangleOutL-1)"
       d="m -44.431751,-384.78412 104.499049,25.17981"
       id="path1075-7"
       inkscape:connector-curvature="0"
       sodipodi:nodetypes="cc"
       inkscape:export-xdpi="300"
       inkscape:export-ydpi="300" />
    <path
       style="fill:none;stroke:#3771c8;stroke-width:0.40000001;stroke-linecap:butt;stroke-linejoin:miter;stroke-miterlimit:4;stroke-dasharray:none;stroke-opacity:1;marker-end:url(#TriangleOutL-9-14)"
       d="m -44.431751,-384.78412 69.924029,62.20136 35.88978,-28.22793"
       id="path1075-2-6"
       inkscape:connector-curvature="0"
       sodipodi:nodetypes="ccc"
       inkscape:export-xdpi="300"
       inkscape:export-ydpi="300" />
    <path
       style="fill:none;stroke:#3771c8;stroke-width:0.40000001;stroke-linecap:butt;stroke-linejoin:miter;stroke-miterlimit:4;stroke-dasharray:none;stroke-opacity:1;marker-end:url(#TriangleOutL-9-7-75)"
       d="m -44.431751,-384.78412 79.730989,-33.68264 93.684342,37.97637 -51.981372,19.78487"
       id="path1075-2-9-9"
       inkscape:connector-curvature="0"
       sodipodi:nodetypes="cccc"
       inkscape:export-xdpi="300"
       inkscape:export-ydpi="300" />
    <path
       inkscape:connector-curvature="0"
       id="path42-1"
       style="fill:none;stroke:#000000;stroke-width:0.17638887;stroke-linecap:butt;stroke-linejoin:round;stroke-miterlimit:10;stroke-dasharray:none;stroke-opacity:1;marker-end:url(#marker28604-0)"
       d="M 88.385258,-304.97576 H 211.19058"
       inkscape:export-xdpi="300"
       inkscape:export-ydpi="300" />
    <path
       inkscape:connector-curvature="0"
       id="path44-9"
       style="fill:none;stroke:#000000;stroke-width:0.30000001;stroke-linecap:butt;stroke-linejoin:round;stroke-miterlimit:10;stroke-dasharray:none;stroke-opacity:1;marker-end:url(#marker28402-0)"
       d="m 88.395328,-304.97576 v -41.77462"
       inkscape:export-xdpi="300"
       inkscape:export-ydpi="300" />
    <path
       inkscape:connector-curvature="0"
       id="path46-9"
       style="fill:none;stroke:#000000;stroke-width:0.30000001;stroke-linecap:butt;stroke-linejoin:round;stroke-miterlimit:10;stroke-dasharray:none;stroke-opacity:1"
       d="m 88.395328,-304.97576 v -0.79375"
       inkscape:export-xdpi="300"
       inkscape:export-ydpi="300" />
    <path
       inkscape:connector-curvature="0"
       id="path94-8"
       style="fill:none;stroke:#000000;stroke-width:0.30000001;stroke-linecap:butt;stroke-linejoin:round;stroke-miterlimit:10;stroke-dasharray:none;stroke-opacity:1"
       d="m 88.395328,-304.97576 h 1.1811"
       inkscape:export-xdpi="300"
       inkscape:export-ydpi="300" />
    <path
       inkscape:connector-curvature="0"
       id="path150-9"
       style="fill:none;stroke:#ff0000;stroke-width:0.5;stroke-linecap:butt;stroke-linejoin:round;stroke-miterlimit:10;stroke-dasharray:none;stroke-opacity:1"
       d="m 91.848098,-304.97576 v -37.98226"
       inkscape:export-xdpi="300"
       inkscape:export-ydpi="300" />
    <path
       inkscape:connector-curvature="0"
       id="path174-0"
       style="fill:none;stroke:#3771c8;stroke-width:0.5;stroke-linecap:butt;stroke-linejoin:round;stroke-miterlimit:10;stroke-dasharray:none;stroke-opacity:1"
       d="m 96.073288,-304.97576 v -28.51617"
       inkscape:export-xdpi="300"
       inkscape:export-ydpi="300" />
    <path
       inkscape:connector-curvature="0"
       id="path176-7"
       style="fill:none;stroke:#3771c8;stroke-width:0.5;stroke-linecap:butt;stroke-linejoin:round;stroke-miterlimit:10;stroke-dasharray:none;stroke-opacity:1"
       d="m 100.07125,-304.97576 v -18.84413"
       inkscape:export-xdpi="300"
       inkscape:export-ydpi="300" />
    <path
       inkscape:connector-curvature="0"
       id="path178-6"
       style="fill:none;stroke:#3771c8;stroke-width:0.5;stroke-linecap:butt;stroke-linejoin:round;stroke-miterlimit:10;stroke-dasharray:none;stroke-opacity:1"
       d="m 101.38885,-304.97576 v -16.8745"
       inkscape:export-xdpi="300"
       inkscape:export-ydpi="300" />
    <path
       inkscape:connector-curvature="0"
       id="path180-8"
       style="fill:none;stroke:#3771c8;stroke-width:0.5;stroke-linecap:butt;stroke-linejoin:round;stroke-miterlimit:10;stroke-dasharray:none;stroke-opacity:1"
       d="m 102.20663,-304.97576 v -16.62466"
       inkscape:export-xdpi="300"
       inkscape:export-ydpi="300" />
    <path
       inkscape:connector-curvature="0"
       id="path182-8"
       style="fill:none;stroke:#3771c8;stroke-width:0.5;stroke-linecap:butt;stroke-linejoin:round;stroke-miterlimit:10;stroke-dasharray:none;stroke-opacity:1"
       d="m 103.97849,-304.97576 v -11.81807"
       inkscape:export-xdpi="300"
       inkscape:export-ydpi="300" />
    <path
       inkscape:connector-curvature="0"
       id="path184-3"
       style="fill:none;stroke:#3771c8;stroke-width:0.5;stroke-linecap:butt;stroke-linejoin:round;stroke-miterlimit:10;stroke-dasharray:none;stroke-opacity:1"
       d="m 104.7509,-304.97576 v -11.23006"
       inkscape:export-xdpi="300"
       inkscape:export-ydpi="300" />
    <path
       inkscape:connector-curvature="0"
       id="path188-1"
       style="fill:none;stroke:#3771c8;stroke-width:0.5;stroke-linecap:butt;stroke-linejoin:round;stroke-miterlimit:10;stroke-dasharray:none;stroke-opacity:1"
       d="m 106.15923,-304.97576 v -8.67241"
       inkscape:export-xdpi="300"
       inkscape:export-ydpi="300" />
    <path
       inkscape:connector-curvature="0"
       id="path190-2"
       style="fill:none;stroke:#3771c8;stroke-width:0.5;stroke-linecap:butt;stroke-linejoin:round;stroke-miterlimit:10;stroke-dasharray:none;stroke-opacity:1"
       d="m 106.84071,-304.97576 v -7.4513"
       inkscape:export-xdpi="300"
       inkscape:export-ydpi="300" />
    <path
       inkscape:connector-curvature="0"
       id="path192-9"
       style="fill:none;stroke:#3771c8;stroke-width:0.5;stroke-linecap:butt;stroke-linejoin:round;stroke-miterlimit:10;stroke-dasharray:none;stroke-opacity:1"
       d="m 107.88571,-304.97576 v -11.28889"
       inkscape:export-xdpi="300"
       inkscape:export-ydpi="300" />
    <path
       inkscape:connector-curvature="0"
       id="path194-7"
       style="fill:none;stroke:#3771c8;stroke-width:0.5;stroke-linecap:butt;stroke-linejoin:round;stroke-miterlimit:10;stroke-dasharray:none;stroke-opacity:1"
       d="m 108.65792,-304.97576 v -7.61409"
       inkscape:export-xdpi="300"
       inkscape:export-ydpi="300" />
    <path
       inkscape:connector-curvature="0"
       id="path196-9"
       style="fill:none;stroke:#3771c8;stroke-width:0.5;stroke-linecap:butt;stroke-linejoin:round;stroke-miterlimit:10;stroke-dasharray:none;stroke-opacity:1"
       d="m 109.06681,-304.97576 v -9.56911"
       inkscape:export-xdpi="300"
       inkscape:export-ydpi="300" />
    <path
       inkscape:connector-curvature="0"
       id="path200-0"
       style="fill:none;stroke:#3771c8;stroke-width:0.5;stroke-linecap:butt;stroke-linejoin:round;stroke-miterlimit:10;stroke-dasharray:none;stroke-opacity:1"
       d="m 110.47536,-304.97576 v -7.07331"
       inkscape:export-xdpi="300"
       inkscape:export-ydpi="300" />
    <text
       id="text28842-4"
       y="-299.69907"
       x="207.56009"
       style="font-style:normal;font-weight:normal;font-size:3.52777767px;line-height:0;font-family:sans-serif;letter-spacing:0px;word-spacing:0px;fill:#000000;fill-opacity:1;stroke:none;stroke-width:0.15702206"
       xml:space="preserve"
       inkscape:export-xdpi="300"
       inkscape:export-ydpi="300"><tspan
         style="stroke-width:0.15702206"
         y="-299.69907"
         x="207.56009"
         id="tspan28840-1"
         sodipodi:role="line">time</tspan></text>
    <text
       transform="rotate(-89.999999)"
       id="text28842-2-0"
       y="86.010933"
       x="328.4317"
       style="font-style:normal;font-weight:normal;font-size:3.52777767px;line-height:0;font-family:sans-serif;letter-spacing:0px;word-spacing:0px;fill:#000000;fill-opacity:1;stroke:none;stroke-width:0.15702206"
       xml:space="preserve"
       inkscape:export-xdpi="300"
       inkscape:export-ydpi="300"><tspan
         style="stroke-width:0.15702206"
         y="86.010933"
         x="328.4317"
         id="tspan28840-2-2"
         sodipodi:role="line">magnitude</tspan></text>
  </g>
</svg>
